<?xml version="1.0" encoding="UTF-8" standalone="no"?>
<!-- Created with Inkscape (http://www.inkscape.org/) -->

<svg
   xmlns:dc="http://purl.org/dc/elements/1.1/"
   xmlns:cc="http://creativecommons.org/ns#"
   xmlns:rdf="http://www.w3.org/1999/02/22-rdf-syntax-ns#"
   xmlns:svg="http://www.w3.org/2000/svg"
   xmlns="http://www.w3.org/2000/svg"
   xmlns:sodipodi="http://sodipodi.sourceforge.net/DTD/sodipodi-0.dtd"
   xmlns:inkscape="http://www.inkscape.org/namespaces/inkscape"
   width="160mm"
   height="160mm"
   viewBox="0 0 160.00001 160.00001"
   id="svg4258"
   version="1.1"
   inkscape:version="0.91 r"
   sodipodi:docname="1.svg">
  <sodipodi:namedview
     inkscape:document-units="mm"
     pagecolor="#ffffff"
     bordercolor="#666666"
     borderopacity="1.0"
     inkscape:pageopacity="0.0"
     inkscape:pageshadow="2"
     inkscape:zoom="0.45254834"
     inkscape:cx="-303.38319"
     inkscape:cy="446.77969"
     inkscape:current-layer="text4333"
     id="namedview4262"
     showgrid="false"
     inkscape:window-width="1297"
     inkscape:window-height="592"
     inkscape:window-x="65"
     inkscape:window-y="24"
     inkscape:window-maximized="1"
     units="mm"
     inkscape:snap-nodes="false" />
  <defs
     id="defs4260" />
  <metadata
     id="metadata4264">
    <rdf:RDF>
      <cc:Work
         rdf:about="">
        <dc:format>image/svg+xml</dc:format>
        <dc:type
           rdf:resource="http://purl.org/dc/dcmitype/StillImage" />
        <dc:title />
      </cc:Work>
    </rdf:RDF>
  </metadata>
  <g
     transform="translate(0,-49.999993)"
     id="layer1"
     inkscape:groupmode="layer"
     inkscape:label="Layer 1">
    <g
       transform="matrix(0.39181791,0.93530971,-0.9095463,0.38102517,226.38736,259.20817)"
       style="font-style:normal;font-variant:normal;font-weight:300;font-stretch:normal;font-size:53.77825546px;line-height:125%;font-family:'AR PL UMing TW';-inkscape-font-specification:'AR PL UMing TW, Light';text-align:start;letter-spacing:0px;word-spacing:0px;writing-mode:lr-tb;text-anchor:start;fill:#000000;fill-opacity:1;stroke:none;stroke-width:1px;stroke-linecap:butt;stroke-linejoin:miter;stroke-opacity:1"
       id="text3428">
      <g
         id="g3391"
         transform="matrix(0.38958785,-0.9546167,0.8965485,0.3738953,-71.862448,-226.06917)">
        <g
           id="g3414">
          <g
             id="g3437">
            <g
               id="g3460">
              <g
                 id="g3693"
                 transform="matrix(0.28222222,0,0,0.28222222,151.88211,161.24942)"
                 inkscape:label="Hershey Text" />
              <g
                 inkscape:label="Hershey Text"
                 transform="matrix(0.28222222,0,0,0.28222222,151.88211,161.24942)"
                 id="g3793" />
              <g
                 id="g3895"
                 transform="matrix(0.28222222,0,0,0.28222222,151.88211,161.24942)"
                 inkscape:label="Hershey Text" />
              <g
                 inkscape:label="Hershey Text"
                 transform="matrix(0.28222222,0,0,0.28222222,151.88211,161.24942)"
                 id="g3999" />
              <g
                 id="g4105"
                 transform="matrix(0.28222222,0,0,0.28222222,151.88211,161.24942)"
                 inkscape:label="Hershey Text" />
              <g
                 inkscape:label="Hershey Text"
                 transform="matrix(0.28222222,0,0,0.28222222,151.88211,161.24942)"
                 id="g4213" />
              <g
                 id="g4323"
                 transform="matrix(0.28222222,0,0,0.28222222,151.88211,161.24942)"
                 inkscape:label="Hershey Text" />
              <g
                 inkscape:label="Hershey Text"
                 transform="matrix(0.28222222,0,0,0.28222222,151.88211,161.24942)"
                 id="g4435" />
              <g
                 transform="matrix(1.2691195,-8.438795e-4,-0.06302835,5.7407885,160.82498,460.88296)"
                 style="font-style:normal;font-variant:normal;font-weight:normal;font-stretch:normal;font-size:31.82224083px;line-height:125%;font-family:Garuda;-inkscape-font-specification:'Garuda, Normal';text-align:start;letter-spacing:0px;word-spacing:0px;writing-mode:lr-tb;text-anchor:start;fill:#000000;fill-opacity:1;stroke:none;stroke-width:1px;stroke-linecap:butt;stroke-linejoin:miter;stroke-opacity:1"
                 id="text3398" />
              <flowRoot
                 xml:space="preserve"
                 id="flowRoot3368"
                 style="font-style:normal;font-variant:normal;font-weight:normal;font-stretch:normal;font-size:180px;line-height:125%;font-family:Garuda;-inkscape-font-specification:'Garuda, Normal';text-align:start;letter-spacing:0px;word-spacing:0px;writing-mode:lr-tb;text-anchor:start;fill:#000000;fill-opacity:1;stroke:none;stroke-width:1px;stroke-linecap:butt;stroke-linejoin:miter;stroke-opacity:1"
                 transform="matrix(0.27644235,-1.8381564e-4,-0.00315852,0.2876863,-393.38796,-199.38542)"><flowRegion
                   id="flowRegion3370"><rect
                     id="rect3372"
                     width="1640.625"
                     height="559.375"
                     x="-190.625"
                     y="175.49213" /></flowRegion><flowPara
                   id="flowPara3374" /></flowRoot>              <flowRoot
                 xml:space="preserve"
                 id="flowRoot3376"
                 style="font-style:normal;font-variant:normal;font-weight:normal;font-stretch:normal;font-size:180px;line-height:125%;font-family:Garuda;-inkscape-font-specification:'Garuda, Normal';text-align:start;letter-spacing:0px;word-spacing:0px;writing-mode:lr-tb;text-anchor:start;fill:#000000;fill-opacity:1;stroke:none;stroke-width:1px;stroke-linecap:butt;stroke-linejoin:miter;stroke-opacity:1"
                 transform="matrix(0.27644235,-1.8381564e-4,-0.00315852,0.2876863,-393.38796,-199.38542)"><flowRegion
                   id="flowRegion3378"><rect
                     id="rect3380"
                     width="315.625"
                     height="518.75"
                     x="-284.375"
                     y="37.992126" /></flowRegion><flowPara
                   id="flowPara3382" /></flowRoot>              <text
                 xml:space="preserve"
                 style="font-style:normal;font-variant:normal;font-weight:normal;font-stretch:normal;font-size:25.38065338px;line-height:125%;font-family:Garuda;-inkscape-font-specification:'Garuda, Normal';text-align:start;letter-spacing:0px;word-spacing:0px;writing-mode:lr-tb;text-anchor:start;fill:#000000;fill-opacity:1;stroke:none;stroke-width:1px;stroke-linecap:butt;stroke-linejoin:miter;stroke-opacity:1"
                 x="-313.18579"
                 y="8.7216463"
                 id="text3430"
                 sodipodi:linespacing="125%"
                 transform="matrix(0.98026678,-6.5181172e-4,-0.01120014,1.0201379,0,0)"><tspan
                   sodipodi:role="line"
                   id="tspan3432"
                   x="-313.18579"
                   y="8.7216463" /></text>
              <g
                 id="g3358"
                 transform="translate(4.3840439,-0.2981754)">
                <g
                   id="g4251"
                   transform="matrix(1.0174326,-1.2812543e-4,0.00211554,0.82474197,13.682841,11.790708)">
                  <g
                     transform="matrix(0.89262413,-5.9353525e-4,-0.01229983,1.1203005,0,0)"
                     style="font-style:normal;font-variant:normal;font-weight:normal;font-stretch:normal;font-size:182.49479675px;line-height:125%;font-family:'AR PL UKai CN';-inkscape-font-specification:'AR PL UKai CN';text-align:start;letter-spacing:0px;word-spacing:0px;writing-mode:lr-tb;text-anchor:start;fill:#000000;fill-opacity:1;stroke:none;stroke-width:1px;stroke-linecap:butt;stroke-linejoin:miter;stroke-opacity:1"
                     id="text4333">
                    <g
                       transform="matrix(-1.0274869,-0.03771789,0.03410092,-0.97199662,-737.2541,16.106843)"
                       style="font-style:normal;font-variant:normal;font-weight:normal;font-stretch:normal;font-size:173.61138916px;line-height:125%;font-family:'AR PL UKai CN';-inkscape-font-specification:'AR PL UKai CN';text-align:start;letter-spacing:0px;word-spacing:0px;writing-mode:lr-tb;text-anchor:start;fill:#00f200;fill-opacity:1;stroke:#0000f7;stroke-width:1px;stroke-linecap:butt;stroke-linejoin:miter;stroke-opacity:1"
                       id="text3362">
                      <path
                         d="m -400.44452,-38.12165 c 18.98875,-1.695424 30.68717,-2.769192 35.09527,-3.221305 -0.22606,-9.607401 -1.35634,-15.993497 -3.39085,-19.158288 -0.56514,-1.695424 -0.11303,-2.769193 1.35634,-3.221306 1.58239,-0.678169 3.27782,-0.508627 5.08627,0.508628 3.16479,1.243311 5.9905,2.88222 8.47712,4.916728 1.35634,1.469367 1.63891,2.769192 0.84771,3.899475 -1.24331,2.147537 -2.37359,5.990497 -3.39084,11.528881 0.33908,-0.113032 0.67816,-0.169542 1.01725,-0.169542 5.1993,-1.017254 10.34209,-2.034508 15.42836,-3.051763 7.91197,-2.034509 13.95898,-1.808452 18.14103,0.67817 2.48662,1.356339 3.67342,2.769192 3.56039,4.238559 -1.01725,1.469367 -2.20405,2.034509 -3.56039,1.695424 -16.38909,1.130282 -28.14403,2.373593 -35.26481,3.729932 -0.11305,0.339085 -0.16955,0.734683 -0.16955,1.186796 16.05001,12.320079 27.80495,20.175543 35.26482,23.56639 0.67817,0.226057 12.26356,4.2385595 34.75618,12.0375086 1.5824,0.5651413 2.31708,1.1867966 2.20405,1.8649661 -0.11303,0.5651413 -1.24331,1.0172543 -3.39084,1.356339 -8.02501,2.0345085 -16.61515,3.0517627 -25.77044,3.0517627 -6.21655,-1.1302825 -20.74068,-13.2808193 -43.57239,-36.4516104 -0.11305,2.59965 -0.16955,6.951238 -0.16955,13.054763 -0.22605,9.3813446 -0.90422,14.6371582 -2.0345,15.76744067 -1.5824,0.90422595 -2.93874,0.45211296 -4.06902,-1.35633897 -1.80845,-4.4081017 -2.65617,-7.2903219 -2.54314,-8.6466607 0.67817,-3.277819 1.07377,-8.703175 1.1868,-16.276068 -0.67817,0.904226 -3.10827,3.616904 -7.29032,8.138034 -1.46937,1.243311 -2.76919,2.543135 -3.89948,3.899474 -14.69367,14.69367253 -28.8222,23.7359325 -42.38559,27.12678 -1.35634,0.452113 -2.54314,0.339084 -3.56039,-0.339085 -0.90423,-0.339085 -0.62166,-1.073768 0.84771,-2.204051 24.30107,-14.4676153 41.02925,-29.048259 50.18454,-43.741932 -6.32958,0.791198 -12.09402,1.695424 -17.29332,2.712678 -5.31233,0.904226 -9.66391,-0.226056 -13.05476,-3.390847 -2.59965,-2.147537 -1.61691,-3.515111 1.87675,-3.776826 0,0 7.63597,-0.698983 8.53549,-0.765301 m 1.96435,48.6231436 c 6.55564,0.3390854 11.07677,0.1130284 13.56339,-0.6781695 10.17255,-2.5996497 18.70618,-5.0862711 25.6009,-7.4598643 2.37359,-0.79119776 4.46462,-0.67816953 6.27307,0.3390847 6.89472,3.9559887 10.3986,6.7816948 10.51163,8.4771185 0.67817,1.695424 0,2.882221 -2.03451,3.56039 -4.63416,1.243311 -12.3766,6.273068 -23.22731,15.089271 l 0.16954,0 c 1.92148,1.356339 3.10828,3.27782 3.56039,5.764441 18.42361,-2.59965 33.56939,-4.803701 45.43736,-6.612153 5.65141,-2.147537 12.20705,-0.169542 19.66692,5.933983 2.14753,1.921481 2.8257,3.616904 2.0345,5.086271 -0.67817,1.017255 -2.26056,1.525882 -4.74718,1.525882 -3.50388,-0.113029 -7.1773,-0.226057 -11.02026,-0.339085 -19.55389,-0.565141 -36.33858,-0.339085 -50.35408,0.678169 0,0.339085 0.0565,0.734684 0.16954,1.186797 2.14754,22.718678 1.35634,37.638407 -2.37359,44.759186 -2.59965,4.069017 -4.63416,6.499125 -6.10353,7.290322 -1.01725,0.565141 -2.03451,0.339085 -3.05176,-0.678169 -2.48662,-3.955989 -8.36409,-9.494373 -17.63241,-16.615153 -1.01725,-0.791197 -1.58239,-1.525881 -1.69542,-2.20405 0.11303,-0.67817 3.78644,-0.339085 11.02025,1.017254 5.1993,0.678169 8.13804,0.678169 8.81621,0 0.22605,-0.452113 0.50862,-0.847712 0.84771,-1.186797 2.71268,-8.929231 2.99525,-19.892971 0.84771,-32.89122 l -1.1868,0 c -17.63241,1.130283 -35.26481,3.899475 -52.89722,8.307576 -5.08627,1.017255 -9.55088,-0.395598 -13.39384,-4.238559 -1.92148,-2.373593 -1.52588,-3.616904 1.18679,-3.729932 23.28382,-2.373593 44.92873,-4.464616 64.93473,-6.273068 -0.7912,-2.034509 -2.26057,-3.955989 -4.4081,-5.764441 -2.14754,-1.469367 -3.27782,-3.051763 -3.39085,-4.747186 0,-2.260565 0.56514,-3.221305 1.69543,-2.88222 1.80845,0.339085 4.97324,2.034508 9.49437,5.086271 4.18205,-5.764441 8.02501,-10.907226 11.52888,-15.428356 0.45211,-1.356339 0.11303,-2.4301077 -1.01725,-3.2213052 -1.80845,-1.0172543 -10.68117,1.3563392 -26.61816,7.1207792 -3.95599,2.034509 -7.45986,2.204051 -10.51162,0.508628 -1.92148,-1.243311 -3.27782,-2.543136 -4.06902,-3.899475 -0.90423,-2.034508 0.0301,-2.9841957 2.5167,-2.8711675 0,0 2.26399,0.111034 2.88753,0.099981"
                         id="path4167"
                         inkscape:connector-curvature="0"
                         sodipodi:nodetypes="ccccccccccccccccccccccccccccccccccccccccccccccccccccccccccccccccccccccccccccc" />
                    </g>
                  </g>
                </g>
              </g>
            </g>
          </g>
        </g>
      </g>
    </g>
  </g>
  <WCB
     pausedposy="0"
     pausedposx="0"
     lastknownposy="0"
     lastknownposx="0"
     lastpathnc="0"
     lastpath="0"
     node="0"
     layer="0" />
</svg>
