<?xml version="1.0" encoding="UTF-8" standalone="no"?>
<!-- Created with Inkscape (http://www.inkscape.org/) -->

<svg
   xmlns:dc="http://purl.org/dc/elements/1.1/"
   xmlns:cc="http://creativecommons.org/ns#"
   xmlns:rdf="http://www.w3.org/1999/02/22-rdf-syntax-ns#"
   xmlns:svg="http://www.w3.org/2000/svg"
   xmlns="http://www.w3.org/2000/svg"
   xmlns:sodipodi="http://sodipodi.sourceforge.net/DTD/sodipodi-0.dtd"
   xmlns:inkscape="http://www.inkscape.org/namespaces/inkscape"
   width="160mm"
   height="160mm"
   viewBox="0 0 160.00001 160.00001"
   id="svg4258"
   version="1.1"
   inkscape:version="0.91 r"
   sodipodi:docname="10.svg">
  <sodipodi:namedview
     inkscape:document-units="mm"
     pagecolor="#ffffff"
     bordercolor="#666666"
     borderopacity="1.0"
     inkscape:pageopacity="0.0"
     inkscape:pageshadow="2"
     inkscape:zoom="0.64"
     inkscape:cx="-76.090222"
     inkscape:cy="306.57411"
     inkscape:current-layer="text4333"
     id="namedview4262"
     showgrid="false"
     inkscape:window-width="1297"
     inkscape:window-height="592"
     inkscape:window-x="65"
     inkscape:window-y="24"
     inkscape:window-maximized="1"
     units="mm"
     inkscape:snap-nodes="false" />
  <defs
     id="defs4260" />
  <metadata
     id="metadata4264">
    <rdf:RDF>
      <cc:Work
         rdf:about="">
        <dc:format>image/svg+xml</dc:format>
        <dc:type
           rdf:resource="http://purl.org/dc/dcmitype/StillImage" />
        <dc:title />
      </cc:Work>
    </rdf:RDF>
  </metadata>
  <g
     transform="translate(0,-49.999993)"
     id="layer1"
     inkscape:groupmode="layer"
     inkscape:label="Layer 1">
    <g
       transform="matrix(0.39181791,0.93530971,-0.9095463,0.38102517,226.38736,259.20817)"
       style="font-style:normal;font-variant:normal;font-weight:300;font-stretch:normal;font-size:53.77825546px;line-height:125%;font-family:'AR PL UMing TW';-inkscape-font-specification:'AR PL UMing TW, Light';text-align:start;letter-spacing:0px;word-spacing:0px;writing-mode:lr-tb;text-anchor:start;fill:#000000;fill-opacity:1;stroke:none;stroke-width:1px;stroke-linecap:butt;stroke-linejoin:miter;stroke-opacity:1"
       id="text3428">
      <g
         id="g3391"
         transform="matrix(0.38958785,-0.9546167,0.8965485,0.3738953,-71.862448,-226.06917)">
        <g
           id="g3414">
          <g
             id="g3437">
            <g
               id="g3460">
              <g
                 id="g3693"
                 transform="matrix(0.28222222,0,0,0.28222222,151.88211,161.24942)"
                 inkscape:label="Hershey Text" />
              <g
                 inkscape:label="Hershey Text"
                 transform="matrix(0.28222222,0,0,0.28222222,151.88211,161.24942)"
                 id="g3793" />
              <g
                 id="g3895"
                 transform="matrix(0.28222222,0,0,0.28222222,151.88211,161.24942)"
                 inkscape:label="Hershey Text" />
              <g
                 inkscape:label="Hershey Text"
                 transform="matrix(0.28222222,0,0,0.28222222,151.88211,161.24942)"
                 id="g3999" />
              <g
                 id="g4105"
                 transform="matrix(0.28222222,0,0,0.28222222,151.88211,161.24942)"
                 inkscape:label="Hershey Text" />
              <g
                 inkscape:label="Hershey Text"
                 transform="matrix(0.28222222,0,0,0.28222222,151.88211,161.24942)"
                 id="g4213" />
              <g
                 id="g4323"
                 transform="matrix(0.28222222,0,0,0.28222222,151.88211,161.24942)"
                 inkscape:label="Hershey Text" />
              <g
                 inkscape:label="Hershey Text"
                 transform="matrix(0.28222222,0,0,0.28222222,151.88211,161.24942)"
                 id="g4435" />
              <g
                 transform="matrix(1.2691195,-8.438795e-4,-0.06302835,5.7407885,160.82498,460.88296)"
                 style="font-style:normal;font-variant:normal;font-weight:normal;font-stretch:normal;font-size:31.82224083px;line-height:125%;font-family:Garuda;-inkscape-font-specification:'Garuda, Normal';text-align:start;letter-spacing:0px;word-spacing:0px;writing-mode:lr-tb;text-anchor:start;fill:#000000;fill-opacity:1;stroke:none;stroke-width:1px;stroke-linecap:butt;stroke-linejoin:miter;stroke-opacity:1"
                 id="text3398" />
              <flowRoot
                 xml:space="preserve"
                 id="flowRoot3368"
                 style="font-style:normal;font-variant:normal;font-weight:normal;font-stretch:normal;font-size:180px;line-height:125%;font-family:Garuda;-inkscape-font-specification:'Garuda, Normal';text-align:start;letter-spacing:0px;word-spacing:0px;writing-mode:lr-tb;text-anchor:start;fill:#000000;fill-opacity:1;stroke:none;stroke-width:1px;stroke-linecap:butt;stroke-linejoin:miter;stroke-opacity:1"
                 transform="matrix(0.27644235,-1.8381564e-4,-0.00315852,0.2876863,-393.38796,-199.38542)"><flowRegion
                   id="flowRegion3370"><rect
                     id="rect3372"
                     width="1640.625"
                     height="559.375"
                     x="-190.625"
                     y="175.49213" /></flowRegion><flowPara
                   id="flowPara3374" /></flowRoot>              <flowRoot
                 xml:space="preserve"
                 id="flowRoot3376"
                 style="font-style:normal;font-variant:normal;font-weight:normal;font-stretch:normal;font-size:180px;line-height:125%;font-family:Garuda;-inkscape-font-specification:'Garuda, Normal';text-align:start;letter-spacing:0px;word-spacing:0px;writing-mode:lr-tb;text-anchor:start;fill:#000000;fill-opacity:1;stroke:none;stroke-width:1px;stroke-linecap:butt;stroke-linejoin:miter;stroke-opacity:1"
                 transform="matrix(0.27644235,-1.8381564e-4,-0.00315852,0.2876863,-393.38796,-199.38542)"><flowRegion
                   id="flowRegion3378"><rect
                     id="rect3380"
                     width="315.625"
                     height="518.75"
                     x="-284.375"
                     y="37.992126" /></flowRegion><flowPara
                   id="flowPara3382" /></flowRoot>              <text
                 xml:space="preserve"
                 style="font-style:normal;font-variant:normal;font-weight:normal;font-stretch:normal;font-size:25.38065338px;line-height:125%;font-family:Garuda;-inkscape-font-specification:'Garuda, Normal';text-align:start;letter-spacing:0px;word-spacing:0px;writing-mode:lr-tb;text-anchor:start;fill:#000000;fill-opacity:1;stroke:none;stroke-width:1px;stroke-linecap:butt;stroke-linejoin:miter;stroke-opacity:1"
                 x="-313.18579"
                 y="8.7216463"
                 id="text3430"
                 sodipodi:linespacing="125%"
                 transform="matrix(0.98026678,-6.5181172e-4,-0.01120014,1.0201379,0,0)"><tspan
                   sodipodi:role="line"
                   id="tspan3432"
                   x="-313.18579"
                   y="8.7216463" /></text>
              <g
                 id="g3358"
                 transform="translate(4.3840439,-0.2981754)">
                <g
                   id="g4251"
                   transform="matrix(1.0174326,-1.2812543e-4,0.00211554,0.82474197,13.682841,11.790708)">
                  <g
                     transform="matrix(0.89262413,-5.9353525e-4,-0.01229983,1.1203005,0,0)"
                     style="font-style:normal;font-variant:normal;font-weight:normal;font-stretch:normal;font-size:182.49479675px;line-height:125%;font-family:'AR PL UKai CN';-inkscape-font-specification:'AR PL UKai CN';text-align:start;letter-spacing:0px;word-spacing:0px;writing-mode:lr-tb;text-anchor:start;fill:#000000;fill-opacity:1;stroke:none;stroke-width:1px;stroke-linecap:butt;stroke-linejoin:miter;stroke-opacity:1"
                     id="text4333">
                    <g
                       transform="matrix(-1.0031501,0.01104853,-0.01049186,-0.99674424,-739.65067,35.487702)"
                       style="font-style:normal;font-variant:normal;font-weight:normal;font-stretch:normal;font-size:193.37141418px;line-height:125%;font-family:'AR PL UKai CN';-inkscape-font-specification:'AR PL UKai CN';text-align:start;letter-spacing:0px;word-spacing:0px;writing-mode:lr-tb;text-anchor:start;fill:#00f100;fill-opacity:1;stroke:#0000f2;stroke-width:1px;stroke-linecap:butt;stroke-linejoin:miter;stroke-opacity:1"
                       id="text3362">
                      <path
                         d="m -412.041,-47.60301 c 3.90267,6.924107 7.11294,16.242116 9.6308,28.076044 0.50357,3.525 1.88839,6.420535 4.15446,8.686606 2.39197,2.7696429 3.90268,3.0843752 4.53215,0.9441968 0.12589,-0.8812498 0.31473,-1.9513388 0.56651,-3.2102678 0.75536,0 1.57367,-0.06295 2.45492,-0.188839 9.81964,-2.391964 25.4933,-4.846875 47.02097,-7.364732 1.25893,-0.125893 2.01429,-0.818303 2.26608,-2.077232 0,-0.88125 -1.51072,-2.391964 -4.53215,-4.532142 3.39911,-9.945535 7.23884,-16.55491 11.5192,-19.828124 2.26607,-2.266071 2.45491,-4.532142 0.56652,-6.798213 -8.68661,-7.175893 -16.55491,-9.379018 -23.60491,-6.609375 -23.41607,7.553571 -40.09688,10.260267 -50.04241,8.120089 -0.75536,-0.125893 -1.44777,-0.18884 -2.07723,-0.18884 -1.63661,-0.377678 -2.64375,-0.188839 -3.02143,0.566518 -0.88125,0.88125 -0.51463,2.695066 0.7443,4.709351 0,0 0.7535,1.410421 1.12388,2.157769 0.37039,0.747348 0.75558,1.586208 1.1556,2.440321 0.40001,0.854112 0.78521,1.784484 1.20003,2.760613 0.41483,0.976128 0.7704,2.013265 0.97781,2.531833 m 8.96133,-8.179352 c 2.64375,15.233035 4.21741,23.793748 4.72098,25.682141 10.95267,-1.888393 23.22722,-4.720982 36.82365,-8.497767 0.37768,-0.125893 0.75536,-0.125893 1.13304,0 4.15447,-13.596427 5.2875,-21.401784 3.39911,-23.41607 -2.39197,-2.266071 -17.80274,-0.242221 -46.12863,6.178314 0,0 0.16488,0.812633 0.25377,1.315949 0.0889,0.503316 0.33335,1.937005 0.39261,2.226793 0.0593,0.289788 0.17778,0.968502 0.22223,1.151526 m -12.71364,47.1010749 c 14.72947,-1.1330356 31.03259,-3.8397318 48.90937,-8.1200887 10.82679,-3.5249997 18.12857,-4.8468746 21.90536,-3.9656247 3.77679,1.1330357 6.1058,2.4549106 6.98705,3.9656247 0.50357,1.25892849 0.18884,2.32901769 -0.9442,3.2102676 -1.25893,0.8812499 -5.53928,2.1401784 -12.84107,3.7767855 -9.69375,1.636607 -19.13571,3.273214 -28.32589,4.909821 3.27321,1.3848207 5.2875,2.5178567 6.04286,3.3991067 0.75536,1.384821 0.69241,2.517857 -0.18884,3.399107 -0.62947,1.133036 -1.88839,6.105804 -3.77678,14.918303 20.01696,-2.895536 35.9424,-5.47634 47.77633,-7.742411 5.2875,-1.007143 11.5192,1.195982 18.69509,6.609375 2.26607,1.888393 3.02143,3.650893 2.26607,5.2875 -0.75536,1.258928 -2.51786,1.825446 -5.2875,1.699553 -3.14732,0.125893 -6.60937,0.125893 -10.38616,0 -21.02411,-0.377679 -38.71205,0.188839 -53.06383,1.699553 1.13303,0.88125 2.51785,2.140179 4.15446,3.776786 17.37321,17.373213 34.17991,29.647765 50.42008,36.823658 7.42768,2.895535 14.2259,5.728124 20.39465,8.497767 2.01428,1.007143 2.83258,1.951339 2.45491,2.832589 -0.25179,0.629465 -1.69956,1.007143 -4.34331,1.133036 -13.72232,1.510714 -25.4933,1.133035 -35.31294,-1.133036 -6.67232,-2.391964 -19.82812,-17.939731 -39.46741,-46.6433 -0.62946,-0.755357 -1.00714,-1.195982 -1.13303,-1.321875 -4.40625,12.589285 -9.31608,21.905355 -14.72947,27.948212 -4.15446,4.909821 -8.93839,8.560714 -14.35178,10.952678 -5.79107,3.021429 -11.95982,5.2875 -18.50625,6.798214 -5.16161,1.636607 -9.06429,2.266071 -11.70804,1.888393 -4.02857,-0.125893 -4.3433,-1.007143 -0.94419,-2.64375 10.07143,-4.280357 17.93973,-8.120089 23.60491,-11.519196 13.21875,-8.560713 22.09419,-20.58348 26.62633,-36.068301 -14.72946,1.510715 -28.51473,3.965625 -41.3558,7.364732 -2.14017,0.629464 -4.72098,0.566518 -7.74241,-0.188839 -2.39196,-0.755357 -4.59508,-2.140179 -6.60937,-4.154464 -2.01429,-2.517857 -1.63661,-3.839732 1.13304,-3.965625 19.89107,-2.266071 38.52321,-4.343303 55.89642,-6.231696 1.13303,-7.805357 0.56652,-14.981249 -1.69955,-21.527677 -2.01429,0.125893 -3.71402,0.356108 -5.35063,0.733787 -9.56786,1.636607 -16.61786,0.944197 -21.15,-2.077232 -3.27321,-2.3919636 -2.5808,-3.8397313 2.07723,-4.3433027 0,0 3.77527,-0.3367465 4.55049,-0.4014553 0.77522,-0.064709 2.95423,-0.2588351 3.6666,-0.3666831 0.71236,-0.1078479 3.41517,-0.3666831 4.60943,-0.5392398"
                         id="path4167"
                         inkscape:connector-curvature="0"
                         sodipodi:nodetypes="ccccccscccccccccccccccccccccccccccccccccccccccccccccccccccccccssscccc" />
                    </g>
                  </g>
                </g>
              </g>
            </g>
          </g>
        </g>
      </g>
    </g>
  </g>
  <WCB
     pausedposy="0"
     pausedposx="0"
     lastknownposy="0"
     lastknownposx="0"
     lastpathnc="0"
     lastpath="0"
     node="0"
     layer="0" />
</svg>
