<?xml version="1.0" encoding="UTF-8" standalone="no"?>
<!-- Created with Inkscape (http://www.inkscape.org/) -->

<svg
   xmlns:dc="http://purl.org/dc/elements/1.1/"
   xmlns:cc="http://creativecommons.org/ns#"
   xmlns:rdf="http://www.w3.org/1999/02/22-rdf-syntax-ns#"
   xmlns:svg="http://www.w3.org/2000/svg"
   xmlns="http://www.w3.org/2000/svg"
   xmlns:sodipodi="http://sodipodi.sourceforge.net/DTD/sodipodi-0.dtd"
   xmlns:inkscape="http://www.inkscape.org/namespaces/inkscape"
   width="160mm"
   height="160mm"
   viewBox="0 0 160.00001 160.00001"
   id="svg4258"
   version="1.1"
   inkscape:version="0.91 r"
   sodipodi:docname="101.svg">
  <sodipodi:namedview
     inkscape:document-units="mm"
     pagecolor="#ffffff"
     bordercolor="#666666"
     borderopacity="1.0"
     inkscape:pageopacity="0.0"
     inkscape:pageshadow="2"
     inkscape:zoom="0.70710678"
     inkscape:cx="319.54954"
     inkscape:cy="303.54931"
     inkscape:current-layer="g4251"
     id="namedview4262"
     showgrid="false"
     inkscape:window-width="1297"
     inkscape:window-height="592"
     inkscape:window-x="65"
     inkscape:window-y="24"
     inkscape:window-maximized="1"
     units="mm"
     inkscape:snap-nodes="false"
     showguides="false" />
  <defs
     id="defs4260" />
  <metadata
     id="metadata4264">
    <rdf:RDF>
      <cc:Work
         rdf:about="">
        <dc:format>image/svg+xml</dc:format>
        <dc:type
           rdf:resource="http://purl.org/dc/dcmitype/StillImage" />
        <dc:title />
      </cc:Work>
    </rdf:RDF>
  </metadata>
  <g
     transform="translate(0,-49.999993)"
     id="layer1"
     inkscape:groupmode="layer"
     inkscape:label="Layer 1">
    <g
       transform="matrix(0.39181791,0.93530971,-0.9095463,0.38102517,226.38736,259.20817)"
       style="font-style:normal;font-variant:normal;font-weight:300;font-stretch:normal;font-size:53.77825546px;line-height:125%;font-family:'AR PL UMing TW';-inkscape-font-specification:'AR PL UMing TW, Light';text-align:start;letter-spacing:0px;word-spacing:0px;writing-mode:lr-tb;text-anchor:start;fill:#000000;fill-opacity:1;stroke:none;stroke-width:1px;stroke-linecap:butt;stroke-linejoin:miter;stroke-opacity:1"
       id="text3428">
      <g
         id="g3391"
         transform="matrix(0.38958785,-0.9546167,0.8965485,0.3738953,-71.862448,-226.06917)">
        <g
           id="g3414">
          <g
             id="g3437">
            <g
               id="g3460">
              <g
                 id="g3693"
                 transform="matrix(0.28222222,0,0,0.28222222,151.88211,161.24942)"
                 inkscape:label="Hershey Text" />
              <g
                 inkscape:label="Hershey Text"
                 transform="matrix(0.28222222,0,0,0.28222222,151.88211,161.24942)"
                 id="g3793" />
              <g
                 id="g3895"
                 transform="matrix(0.28222222,0,0,0.28222222,151.88211,161.24942)"
                 inkscape:label="Hershey Text" />
              <g
                 inkscape:label="Hershey Text"
                 transform="matrix(0.28222222,0,0,0.28222222,151.88211,161.24942)"
                 id="g3999" />
              <g
                 id="g4105"
                 transform="matrix(0.28222222,0,0,0.28222222,151.88211,161.24942)"
                 inkscape:label="Hershey Text" />
              <g
                 inkscape:label="Hershey Text"
                 transform="matrix(0.28222222,0,0,0.28222222,151.88211,161.24942)"
                 id="g4213" />
              <g
                 id="g4323"
                 transform="matrix(0.28222222,0,0,0.28222222,151.88211,161.24942)"
                 inkscape:label="Hershey Text" />
              <g
                 inkscape:label="Hershey Text"
                 transform="matrix(0.28222222,0,0,0.28222222,151.88211,161.24942)"
                 id="g4435" />
              <g
                 transform="matrix(1.2691195,-8.438795e-4,-0.06302835,5.7407885,160.82498,460.88296)"
                 style="font-style:normal;font-variant:normal;font-weight:normal;font-stretch:normal;font-size:31.82224083px;line-height:125%;font-family:Garuda;-inkscape-font-specification:'Garuda, Normal';text-align:start;letter-spacing:0px;word-spacing:0px;writing-mode:lr-tb;text-anchor:start;fill:#000000;fill-opacity:1;stroke:none;stroke-width:1px;stroke-linecap:butt;stroke-linejoin:miter;stroke-opacity:1"
                 id="text3398" />
              <flowRoot
                 xml:space="preserve"
                 id="flowRoot3368"
                 style="font-style:normal;font-variant:normal;font-weight:normal;font-stretch:normal;font-size:180px;line-height:125%;font-family:Garuda;-inkscape-font-specification:'Garuda, Normal';text-align:start;letter-spacing:0px;word-spacing:0px;writing-mode:lr-tb;text-anchor:start;fill:#000000;fill-opacity:1;stroke:none;stroke-width:1px;stroke-linecap:butt;stroke-linejoin:miter;stroke-opacity:1"
                 transform="matrix(0.27644235,-1.8381564e-4,-0.00315852,0.2876863,-393.38796,-199.38542)"><flowRegion
                   id="flowRegion3370"><rect
                     id="rect3372"
                     width="1640.625"
                     height="559.375"
                     x="-190.625"
                     y="175.49213" /></flowRegion><flowPara
                   id="flowPara3374" /></flowRoot>              <flowRoot
                 xml:space="preserve"
                 id="flowRoot3376"
                 style="font-style:normal;font-variant:normal;font-weight:normal;font-stretch:normal;font-size:180px;line-height:125%;font-family:Garuda;-inkscape-font-specification:'Garuda, Normal';text-align:start;letter-spacing:0px;word-spacing:0px;writing-mode:lr-tb;text-anchor:start;fill:#000000;fill-opacity:1;stroke:none;stroke-width:1px;stroke-linecap:butt;stroke-linejoin:miter;stroke-opacity:1"
                 transform="matrix(0.27644235,-1.8381564e-4,-0.00315852,0.2876863,-393.38796,-199.38542)"><flowRegion
                   id="flowRegion3378"><rect
                     id="rect3380"
                     width="315.625"
                     height="518.75"
                     x="-284.375"
                     y="37.992126" /></flowRegion><flowPara
                   id="flowPara3382" /></flowRoot>              <text
                 xml:space="preserve"
                 style="font-style:normal;font-variant:normal;font-weight:normal;font-stretch:normal;font-size:25.38065338px;line-height:125%;font-family:Garuda;-inkscape-font-specification:'Garuda, Normal';text-align:start;letter-spacing:0px;word-spacing:0px;writing-mode:lr-tb;text-anchor:start;fill:#000000;fill-opacity:1;stroke:none;stroke-width:1px;stroke-linecap:butt;stroke-linejoin:miter;stroke-opacity:1"
                 x="-313.18579"
                 y="8.7216463"
                 id="text3430"
                 sodipodi:linespacing="125%"
                 transform="matrix(0.98026678,-6.5181172e-4,-0.01120014,1.0201379,0,0)"><tspan
                   sodipodi:role="line"
                   id="tspan3432"
                   x="-313.18579"
                   y="8.7216463" /></text>
              <g
                 id="g3358"
                 transform="translate(4.3840439,-0.2981754)">
                <g
                   id="g4251"
                   transform="matrix(1.0174326,-1.2812543e-4,0.00211554,0.82474197,13.682841,11.790708)">
                  <g
                     transform="matrix(-0.90611311,-0.0033575,0.0150421,-1.1035593,-659.93636,30.990811)"
                     style="font-style:normal;font-variant:normal;font-weight:normal;font-stretch:normal;font-size:176.26008606px;line-height:125%;font-family:'AR PL UKai CN';-inkscape-font-specification:'AR PL UKai CN';text-align:start;letter-spacing:0px;word-spacing:0px;writing-mode:lr-tb;text-anchor:start;fill:none;fill-opacity:1;stroke:#00f500;stroke-width:1.00029123;stroke-linecap:butt;stroke-linejoin:miter;stroke-miterlimit:4;stroke-dasharray:none;stroke-opacity:1"
                     id="text3361">
                    <path
                       d="m -402.99018,-59.776277 c 1.49179,4.245849 -5.36382,13.571046 -13.97027,26.079086 -4.13109,5.852386 -9.00808,11.876901 -14.63096,18.073544 -1.03277,1.032774 -1.66391,1.836043 -1.89342,2.409806 -0.45901,1.147527 0.0574,1.606537 1.54916,1.377032 3.21307,-0.459011 11.18838,-7.458923 23.92593,-20.999737 1.03277,1.147527 2.75406,1.836043 5.16387,2.065548 1.03277,0.114753 4.99174,-0.63114 11.8769,-2.237677 0.80327,-0.114753 1.37703,-0.05738 1.72129,0.172129 0.45901,0.344258 0.40163,1.09015 -0.17213,2.237677 -4.24585,9.06546 -7.68843,15.721114 -10.32774,19.966963 -0.68851,1.1475264 -1.2049,2.1229239 -1.54916,2.9261925 -5.27862,0.8032687 -12.79492,2.4671823 -22.5489,4.9917408 -1.14753,-0.4590107 -3.1557,-0.9180213 -6.02451,-1.377032 -1.14753,-0.4590106 -1.9508,-0.4016343 -2.40981,0.172129 -0.68851,0.688516 -0.57376,1.8934189 0.34426,3.61470882 3.44258,7.68842788 6.13927,17.61453288 8.09006,29.77831488 0.34426,3.786838 1.54916,6.88516 3.61471,9.294966 1.83604,2.409806 3.04094,2.754064 3.61471,1.032774 0.34426,-1.147527 0.57376,-2.409806 0.68851,-3.786838 2.86882,-1.032774 12.04903,-2.581935 27.54064,-4.647483 1.49179,2.180301 3.04095,3.557333 4.64749,4.131096 1.14753,0.803269 2.4098,0.05738 3.78683,-2.237677 1.49179,-2.754064 3.44258,-11.590019 5.85239,-26.5078643 l 0,0 c 0.80327,-3.2130745 2.29505,-6.08189097 4.47535,-8.6064495 1.14753,-1.1475266 1.14753,-2.4098059 0,-3.7868378 -1.49178,-1.7212899 -4.41797,-3.7294613 -8.77858,-6.0245144 -1.49178,-0.688516 -6.25401,0 -14.2867,2.0655476 -0.34426,0 -1.66392,0.2868817 -3.95897,0.860645 13.54081,-14.8030926 21.11449,-22.6636506 22.72103,-23.5816716 1.83604,-1.147527 2.1803,-2.409806 1.03277,-3.786838 -1.49178,-1.377032 -4.24584,-3.155698 -8.26219,-5.335999 -1.03277,-0.344258 -6.42615,1.147527 -16.18012,4.475354 -3.09833,0.803269 -6.0819,1.491785 -8.95071,2.065548 5.85239,-8.032686 9.86873,-13.024427 12.04903,-14.975222 1.03277,-1.032774 1.37703,-2.237677 1.03277,-3.614709 -0.34426,-1.377032 -1.89342,-3.270451 -4.64748,-5.680257 -2.52456,-2.065547 -4.76224,-3.098321 -6.71303,-3.098321 -1.83605,0 1.1883,13.790899 1.87682,16.085952 m 7.77773,48.9023065 c -1.14753,-1.1475266 -4.94969,-4.9726176 -6.21197,-5.7758862 3.21307,-0.8032687 6.88516,-1.549161 11.01625,-2.2376769 3.09833,-0.4590107 5.1065,-0.2295053 6.02452,0.688516 1.49178,1.4917845 2.12292,3.0983218 1.89342,4.81961169 -2.06555,15.95061991 -3.95897,24.67182191 -5.68026,26.16360691 l -1.37703,-0.344258 c -2.1803,-0.114753 -5.04912,0.229505 -8.60645,1.032774 -0.11475,0 -0.22951,0.05738 -0.34426,0.172129 0.11475,-4.475354 0.28688,-8.549074 0.51639,-12.221159 2.40981,-0.459011 4.76224,-0.860645 7.05729,-1.204903 2.1803,-0.344258 2.86881,-1.147527 2.06554,-2.409806 -1.03277,-1.377032 -2.75406,-2.2376764 -5.16387,-2.5819344 -1.14753,-0.1147527 -2.4098,-0.057376 -3.78683,0.172129 0,-1.7212899 0.11475,-3.5573325 0.34425,-5.5081277 0.45901,-1.4917846 0.34426,-5.0993702 0.1858,-6.0732678 m -27.53771,9.0932426 c 3.90159,-1.3770319 12.26194,-7.38057589 17.88482,-8.5281025 0.11475,0.4590107 0.45901,0.9753976 1.03277,1.54916093 0.34426,1.03277391 0.68852,4.76223517 1.03278,11.18838387 -3.78684,1.147527 -7.34417,2.295053 -10.672,3.44258 -1.49179,0.344258 -1.31966,1.204903 0.51639,2.581935 0.80327,0.459011 2.00817,0.63114 3.61471,0.516387 2.1803,-0.459011 4.41798,-0.803269 6.71303,-1.032774 0,3.44258 0.11475,7.631052 0.34426,12.565416 -4.47536,1.032774 -8.4917,2.065548 -12.04903,3.098322 -0.11475,-1.377032 -0.28688,-2.754064 -0.51639,-4.131095 -2.52456,-13.885072 -4.25881,-25.7097413 -4.60307,-29.1523211 m -5.32188,59.4524611 c -1.49179,0.114753 -9.3535,-0.120191 -9.69776,1.027336 -0.34425,1.491785 0.0574,2.81144 1.20491,3.958967 2.52455,1.836042 5.795,3.958966 9.81135,6.368772 1.14753,0.459011 2.46718,0.172129 3.95897,-0.860645 4.59011,-3.213074 9.35234,-5.852385 14.2867,-7.917933 7.68843,-3.098322 15.37686,-6.25402 23.06529,-9.467095 2.86881,-1.147527 5.39337,-2.524559 7.57367,-4.131096 1.49179,-0.803268 2.29506,-1.778665 2.40981,-2.926192 -0.45901,-0.688516 -1.49179,-0.918021 -3.09832,-0.688516 -31.09797,9.294965 -56.46356,13.801257 -57.22689,16.284754 m 71.2868,-108.364017 c 2.06555,2.524558 6.25131,9.973734 8.31686,13.072056 1.14753,1.72129 2.63931,2.696688 4.47535,2.926193 1.14753,0.114753 2.12292,-0.516387 2.92619,-1.893419 0.80327,-1.491785 0.9754,-3.958967 0.51639,-7.401547 -0.11475,-1.836042 -1.60654,-3.729461 -4.47535,-5.680256 -7.22942,-3.786838 -11.47527,-5.508128 -12.73755,-5.16387 -0.45901,0.344258 -0.80327,1.204903 -1.03277,2.581935 0.11475,1.377032 6.58029,7.856811 9.21959,10.610875 m 31.89521,-20.269229 c -1.37703,3.901591 -8.52505,17.461535 -15.29546,29.281059 -0.80327,2.065548 -0.28688,2.696688 1.54917,1.893419 5.27862,-4.819612 9.40971,-8.893332 12.39328,-12.221159 5.85239,-6.885159 10.15561,-11.188384 12.90968,-12.909674 2.1803,-1.491785 2.46718,-3.155698 0.86064,-4.991741 -1.83604,-1.491784 -4.3606,-2.811439 -7.57367,-3.958966 -2.86882,-1.032774 -4.99175,-1.204903 -6.36878,-0.516387 -1.37703,0.459011 -1.72128,1.377032 -1.03277,2.754064 0.80327,1.836042 0.20709,9.658353 -0.94043,12.068159 m -12.18347,35.152937 c 5.85238,-1.491785 14.95994,-5.049494 21.38609,-6.426526 4.59011,-1.147527 7.17204,-2.008172 7.74581,-2.581935 1.03277,-0.803269 1.26228,-1.663913 0.68851,-2.581934 -0.80327,-1.147527 -2.75406,-2.122924 -5.85238,-2.926193 -2.86882,-0.459011 -10.61463,1.377032 -23.23742,5.508127 -12.04903,2.409806 -19.50795,3.786838 -22.37677,4.131096 -3.90159,0.688516 -4.41797,1.893419 -1.54916,3.614709 4.24585,2.409806 9.35235,2.868817 15.31948,1.377032 0.11475,-0.114753 0.34426,-0.114753 0.68852,0 2.06555,3.098322 3.1557,8.7785784 3.27045,17.0407699 -7.57367,1.0327739 -13.54081,2.0081715 -17.90142,2.9261928 -2.86881,0.4590107 -3.15569,1.4917846 -0.86064,3.0983218 3.21307,2.1803005 6.82778,2.8688165 10.84413,2.0655475 2.40981,-0.688516 5.04912,-1.204903 7.91793,-1.54916 0,4.819611 -0.0574,10.098234 -0.17213,15.835867 -9.06546,1.491784 -18.87681,3.040945 -29.43406,4.647482 -2.1803,0.344258 -2.46718,1.377032 -0.86064,3.098322 1.49179,1.491785 3.27045,2.467182 5.336,2.926193 2.1803,0.459011 4.13109,0.459011 5.85238,0 5.85239,-1.72129 12.22116,-3.098322 19.10632,-4.131096 -0.68851,28.688165 -0.68851,46.417451 0,53.187858 0.68851,2.868817 1.37703,4.819612 2.06555,5.852386 0.68851,0.803269 1.43441,1.09015 2.23768,0.860645 2.06555,-1.377032 3.27045,-5.221246 3.6147,-11.532642 0.45901,-5.508128 0.7459,-22.089888 0.86065,-49.745279 8.7212,-1.147527 19.79483,-1.836043 33.22089,-2.065548 5.85239,0 9.18022,-0.516387 9.98349,-1.54916 0.45901,-1.377032 -0.17213,-2.754064 -1.89342,-4.131096 -6.19665,-4.475354 -12.96705,-5.508128 -20.31122,-3.098322 -5.85239,1.032774 -12.79492,2.467182 -20.82761,4.303225 0,-4.934365 0.11475,-10.385116 0.34426,-16.3522544 0.80327,-0.3442579 6.19664,-1.2622792 16.18012,-2.7540638 1.03277,0.1147527 1.9508,-0.516387 2.75407,-1.8934189 0.11475,-1.1475266 -0.97541,-2.1803005 -3.27046,-3.09832184 -3.78683,-1.83604256 -8.9507,-1.54916093 -15.4916,0.86064494 0.34425,-4.1310957 0.97539,-7.8031809 1.89341,-11.0162554 0.34426,-2.0655476 -0.28688,-3.6147086 -1.89341,-4.6474826 -0.80327,-0.688516 -3.72675,-2.712064 -4.53002,-2.94157"
                       id="path4166"
                       inkscape:connector-curvature="0"
                       sodipodi:nodetypes="cccsccccccccccccccccccccccccccccccccscsccccsccccccccccccccccccccccccccccccccccccscccccccccccccccccccccccccccccccccccccccccccccccccccccccc" />
                  </g>
                </g>
              </g>
            </g>
          </g>
        </g>
      </g>
    </g>
  </g>
  <WCB
     pausedposy="0"
     pausedposx="0"
     lastknownposy="0"
     lastknownposx="0"
     lastpathnc="0"
     lastpath="0"
     node="0"
     layer="0" />
</svg>
