<?xml version="1.0" encoding="UTF-8" standalone="no"?>
<!-- Created with Inkscape (http://www.inkscape.org/) -->

<svg
   xmlns:dc="http://purl.org/dc/elements/1.1/"
   xmlns:cc="http://creativecommons.org/ns#"
   xmlns:rdf="http://www.w3.org/1999/02/22-rdf-syntax-ns#"
   xmlns:svg="http://www.w3.org/2000/svg"
   xmlns="http://www.w3.org/2000/svg"
   xmlns:sodipodi="http://sodipodi.sourceforge.net/DTD/sodipodi-0.dtd"
   xmlns:inkscape="http://www.inkscape.org/namespaces/inkscape"
   width="160mm"
   height="160mm"
   viewBox="0 0 160.00001 160.00001"
   id="svg4258"
   version="1.1"
   inkscape:version="0.91 r"
   sodipodi:docname="11.svg">
  <sodipodi:namedview
     inkscape:document-units="mm"
     pagecolor="#ffffff"
     bordercolor="#666666"
     borderopacity="1.0"
     inkscape:pageopacity="0.0"
     inkscape:pageshadow="2"
     inkscape:zoom="0.64"
     inkscape:cx="-17.173041"
     inkscape:cy="311.12362"
     inkscape:current-layer="g4251"
     id="namedview4262"
     showgrid="false"
     inkscape:window-width="1297"
     inkscape:window-height="592"
     inkscape:window-x="65"
     inkscape:window-y="24"
     inkscape:window-maximized="1"
     units="mm"
     inkscape:snap-nodes="false" />
  <defs
     id="defs4260" />
  <metadata
     id="metadata4264">
    <rdf:RDF>
      <cc:Work
         rdf:about="">
        <dc:format>image/svg+xml</dc:format>
        <dc:type
           rdf:resource="http://purl.org/dc/dcmitype/StillImage" />
        <dc:title />
      </cc:Work>
    </rdf:RDF>
  </metadata>
  <g
     transform="translate(0,-49.999993)"
     id="layer1"
     inkscape:groupmode="layer"
     inkscape:label="Layer 1">
    <g
       transform="matrix(0.39181791,0.93530971,-0.9095463,0.38102517,226.38736,259.20817)"
       style="font-style:normal;font-variant:normal;font-weight:300;font-stretch:normal;font-size:53.77825546px;line-height:125%;font-family:'AR PL UMing TW';-inkscape-font-specification:'AR PL UMing TW, Light';text-align:start;letter-spacing:0px;word-spacing:0px;writing-mode:lr-tb;text-anchor:start;fill:#000000;fill-opacity:1;stroke:none;stroke-width:1px;stroke-linecap:butt;stroke-linejoin:miter;stroke-opacity:1"
       id="text3428">
      <g
         id="g3391"
         transform="matrix(0.38958785,-0.9546167,0.8965485,0.3738953,-71.862448,-226.06917)">
        <g
           id="g3414">
          <g
             id="g3437">
            <g
               id="g3460">
              <g
                 id="g3693"
                 transform="matrix(0.28222222,0,0,0.28222222,151.88211,161.24942)"
                 inkscape:label="Hershey Text" />
              <g
                 inkscape:label="Hershey Text"
                 transform="matrix(0.28222222,0,0,0.28222222,151.88211,161.24942)"
                 id="g3793" />
              <g
                 id="g3895"
                 transform="matrix(0.28222222,0,0,0.28222222,151.88211,161.24942)"
                 inkscape:label="Hershey Text" />
              <g
                 inkscape:label="Hershey Text"
                 transform="matrix(0.28222222,0,0,0.28222222,151.88211,161.24942)"
                 id="g3999" />
              <g
                 id="g4105"
                 transform="matrix(0.28222222,0,0,0.28222222,151.88211,161.24942)"
                 inkscape:label="Hershey Text" />
              <g
                 inkscape:label="Hershey Text"
                 transform="matrix(0.28222222,0,0,0.28222222,151.88211,161.24942)"
                 id="g4213" />
              <g
                 id="g4323"
                 transform="matrix(0.28222222,0,0,0.28222222,151.88211,161.24942)"
                 inkscape:label="Hershey Text" />
              <g
                 inkscape:label="Hershey Text"
                 transform="matrix(0.28222222,0,0,0.28222222,151.88211,161.24942)"
                 id="g4435" />
              <g
                 transform="matrix(1.2691195,-8.438795e-4,-0.06302835,5.7407885,160.82498,460.88296)"
                 style="font-style:normal;font-variant:normal;font-weight:normal;font-stretch:normal;font-size:31.82224083px;line-height:125%;font-family:Garuda;-inkscape-font-specification:'Garuda, Normal';text-align:start;letter-spacing:0px;word-spacing:0px;writing-mode:lr-tb;text-anchor:start;fill:#000000;fill-opacity:1;stroke:none;stroke-width:1px;stroke-linecap:butt;stroke-linejoin:miter;stroke-opacity:1"
                 id="text3398" />
              <flowRoot
                 xml:space="preserve"
                 id="flowRoot3368"
                 style="font-style:normal;font-variant:normal;font-weight:normal;font-stretch:normal;font-size:180px;line-height:125%;font-family:Garuda;-inkscape-font-specification:'Garuda, Normal';text-align:start;letter-spacing:0px;word-spacing:0px;writing-mode:lr-tb;text-anchor:start;fill:#000000;fill-opacity:1;stroke:none;stroke-width:1px;stroke-linecap:butt;stroke-linejoin:miter;stroke-opacity:1"
                 transform="matrix(0.27644235,-1.8381564e-4,-0.00315852,0.2876863,-393.38796,-199.38542)"><flowRegion
                   id="flowRegion3370"><rect
                     id="rect3372"
                     width="1640.625"
                     height="559.375"
                     x="-190.625"
                     y="175.49213" /></flowRegion><flowPara
                   id="flowPara3374" /></flowRoot>              <flowRoot
                 xml:space="preserve"
                 id="flowRoot3376"
                 style="font-style:normal;font-variant:normal;font-weight:normal;font-stretch:normal;font-size:180px;line-height:125%;font-family:Garuda;-inkscape-font-specification:'Garuda, Normal';text-align:start;letter-spacing:0px;word-spacing:0px;writing-mode:lr-tb;text-anchor:start;fill:#000000;fill-opacity:1;stroke:none;stroke-width:1px;stroke-linecap:butt;stroke-linejoin:miter;stroke-opacity:1"
                 transform="matrix(0.27644235,-1.8381564e-4,-0.00315852,0.2876863,-393.38796,-199.38542)"><flowRegion
                   id="flowRegion3378"><rect
                     id="rect3380"
                     width="315.625"
                     height="518.75"
                     x="-284.375"
                     y="37.992126" /></flowRegion><flowPara
                   id="flowPara3382" /></flowRoot>              <text
                 xml:space="preserve"
                 style="font-style:normal;font-variant:normal;font-weight:normal;font-stretch:normal;font-size:25.38065338px;line-height:125%;font-family:Garuda;-inkscape-font-specification:'Garuda, Normal';text-align:start;letter-spacing:0px;word-spacing:0px;writing-mode:lr-tb;text-anchor:start;fill:#000000;fill-opacity:1;stroke:none;stroke-width:1px;stroke-linecap:butt;stroke-linejoin:miter;stroke-opacity:1"
                 x="-313.18579"
                 y="8.7216463"
                 id="text3430"
                 sodipodi:linespacing="125%"
                 transform="matrix(0.98026678,-6.5181172e-4,-0.01120014,1.0201379,0,0)"><tspan
                   sodipodi:role="line"
                   id="tspan3432"
                   x="-313.18579"
                   y="8.7216463" /></text>
              <g
                 id="g3358"
                 transform="translate(4.3840439,-0.2981754)">
                <g
                   id="g4251"
                   transform="matrix(1.0174326,-1.2812543e-4,0.00211554,0.82474197,13.682841,11.790708)">
                  <g
                     transform="matrix(-0.84905868,-0.00758593,0.01978686,-1.1775981,-660.35101,29.220083)"
                     style="font-style:normal;font-variant:normal;font-weight:normal;font-stretch:normal;font-size:167.82618713px;line-height:125%;font-family:'AR PL UKai CN';-inkscape-font-specification:'AR PL UKai CN';text-align:start;letter-spacing:0px;word-spacing:0px;writing-mode:lr-tb;text-anchor:start;fill:none;fill-opacity:1;stroke:#00f900;stroke-width:1px;stroke-linecap:butt;stroke-linejoin:miter;stroke-opacity:1"
                     id="text3362">
                    <path
                       d="m -424.69067,-53.572754 c -0.92042,3.29831 -4.26335,11.927647 -12.34873,22.963093 -3.7149,4.698259 -8.14,9.724303 -13.27531,15.078134 -1.09262,0.764833 -1.80282,1.529665 -2.13061,2.294498 -0.43705,0.983357 0.0546,1.420404 1.47504,1.311142 5.24457,0 14.85961,-7.921483 28.84512,-23.76445 1.96671,-2.95007 4.20658,-5.244569 6.71961,-6.883496 0.98335,-0.983357 1.31114,-2.130606 0.98335,-3.441748 -0.10926,-1.420404 -1.47503,-3.387117 -4.09732,-5.900139 -2.40376,-2.075975 -4.53436,-2.814145 -6.39181,-3.441748 -3.38078,-1.309055 -0.98728,7.146996 -0.33171,9.332233 m -0.62983,28.46772 c -1.23097,5.306452 -6.03122,16.83096687 -18.37781,31.035006 -5.68161,6.555711 -12.40122,13.384576 -20.15881,20.486595 -1.31114,0.983357 -2.07597,1.74819 -2.2945,2.294499 -0.65557,1.092619 -0.16389,1.638928 1.47504,1.638928 3.27785,0 12.12806,-6.446449 26.55062,-19.339346 3.38712,8.194638 3.11397,21.743106 -0.81946,40.645405 -1.74819,2.40376 -1.25651,6.938126 1.47503,13.603099 0.43705,1.092618 1.038,2.021344 1.80283,2.786177 1.74819,1.638927 3.22322,1.092618 4.4251,-1.638928 1.42041,-4.042688 2.13061,-8.3039 2.13061,-12.783635 0.10926,-19.776393 0.49167,-31.959089 1.14724,-36.548086 0.76483,-2.731546 0.65557,-4.588997 -0.32778,-5.572354 -1.63893,-1.966713 -3.27785,-3.769534 -4.91678,-5.408461 10.59839,-11.8002788 16.66242,-18.1920965 18.19209,-19.175453 1.09262,-1.0926184 1.52967,-2.3491296 1.31115,-3.7695335 -0.32779,-1.4204035 -1.80282,-3.6056405 -4.42511,-6.5557105 -2.62229,-2.403761 -4.91679,-3.714903 -6.8835,-3.933426 -2.71672,-0.15017 -1.7443,5.041939 0.0614,7.820864 m 45.2373,-46.065868 c -0.84609,8.194638 -2.89624,21.05854 -14.80578,39.633053 -0.98336,1.420404 -3.17748,4.457459 -4.27009,5.987125 -3.93343,5.3538302 -10.92619,13.4938372 -20.97828,24.420021 -0.76483,0.655571 -0.60094,1.037988 0.49168,1.14725 6.22793,-0.983357 15.67908,-9.3965183 28.35345,-25.239485 6.88349,-10.816923 12.29195,-20.15881 16.22538,-28.025663 9.28726,12.783635 19.94029,25.895056 31.95909,39.33426303 2.07597,2.29449867 4.80752,3.33248617 8.19464,3.11396247 11.58175,-0.1092619 19.28471,-0.5463092 23.10888,-1.3111421 1.09262,-0.10926184 1.69356,-0.49167828 1.80282,-1.14724932 0,-0.65557105 -0.76483,-1.31114208 -2.2945,-1.96671318 -16.71706,-5.6816159 -28.51734,-11.5271239 -35.40084,-17.5365249 -7.97611,-6.992758 -16.4439,-15.242027 -25.40337,-24.747807 1.09261,-2.731546 2.40375,-5.026045 3.93342,-6.883496 0.65557,-0.655571 0.8741,-1.475035 0.65557,-2.458392 -0.32779,-0.983357 -1.20188,-2.021344 -2.62228,-3.113962 -3.60564,-2.622284 -7.04739,-3.441748 -10.32525,-2.458392 -1.79597,0.385639 -0.45216,4.187733 2.68783,5.476392 m 1.93764,61.9126657 c 11.80028,-2.9500697 20.61402,-6.1477957 20.94181,-6.584843 0.98335,-0.98335657 1.20188,-1.91208221 0.65557,-2.7861769 -0.76483,-1.3111421 -2.84081,-2.2944987 -6.22793,-2.9500697 -3.38711,-0.4370474 -6.7196,0.1092618 -9.99746,1.6389276 -2.73155,1.0926184 -5.68162,2.02134401 -8.85021,2.7861769 -3.38711,0.76483287 -7.04738,1.4204039 -10.98081,1.9667131 -4.04269,0.9833566 -4.589,2.2944987 -1.63893,3.9334263 3.27785,1.6389276 7.21128,2.3491296 11.80028,2.1306059 1.31114,2.9500691 2.02134,8.1946381 2.13061,15.7337051 -9.178,1.420404 -19.0662,3.059332 -29.66459,4.916783 -1.96671,0.109262 -2.18524,1.037988 -0.65557,2.786177 1.4204,1.311142 3.0047,2.185237 4.75289,2.622284 2.07597,0.437047 3.87879,0.437047 5.40846,0 6.22792,-1.748189 12.94752,-3.113962 20.15881,-4.097319 0.10926,8.631685 0.16389,19.885655 0.16389,33.761909 -0.10926,3.059331 -0.7102,5.189937 -1.80282,6.391817 -0.98336,0.437047 -5.18994,-0.437047 -12.61974,-2.622284 -1.09262,-0.437047 -1.69356,-0.273155 -1.80282,0.491678 0,0.764833 0.49168,1.693559 1.47503,2.786177 5.90014,5.681616 10.5984,10.762292 14.09478,15.242027 1.09262,0.983357 2.45839,0.710202 4.09732,-0.819464 4.37047,-5.681615 6.28255,-15.132764 5.73624,-28.353447 -0.43705,-11.472493 -0.60094,-20.814381 -0.49167,-28.025662 7.86685,-0.983357 17.75504,-1.475035 29.66458,-1.475035 1.96671,-0.109262 3.1686,-0.60094 3.60565,-1.475035 0.43705,-1.092619 -0.16389,-2.294499 -1.80282,-3.605641 -5.68162,-3.933426 -12.1827,-4.807521 -19.50324,-2.622284 -3.38712,0.655571 -7.26592,1.475034 -11.63639,2.458391 0.43705,-7.539067 0.60094,-11.527124 0.49168,-11.964171 -0.76483,-1.0926185 -3.97396,-3.5061816 -6.37772,-4.9265855 m -23.11349,37.7533935 c -4.12151,4.206512 -8.6958,8.856584 -12.62923,13.227058 -2.62229,2.950069 -3.38712,6.337186 -2.2945,10.161351 0.43705,1.966713 1.91208,2.513022 4.42511,1.638927 5.68161,-3.059331 9.39651,-8.35853 11.1447,-15.897597 1.09262,-3.277855 1.52967,-6.227925 1.31115,-8.85021 -0.43705,-1.092618 -0.92873,-1.693558 -1.47504,-1.80282 -2.42023,-0.532072 -2.3934,3.796844 -1.91954,5.361766 m 44.88685,-1.58858 c -1.18137,4.261212 8.76817,11.796626 14.55905,18.024551 1.74819,2.075975 3.55101,3.387118 5.40846,3.933427 0.98336,0.109261 1.85745,-0.437048 2.62228,-1.638928 1.31115,-1.420404 1.20189,-4.588997 -0.32778,-9.50578 -1.09262,-4.261212 -5.40846,-7.757591 -12.94753,-10.489137 -4.69826,-1.420404 -8.3039,-2.513022 -10.81692,-3.277855 -0.98336,-0.437047 -1.5843,0 -1.80282,1.311142 -0.61865,2.197655 4.79894,5.881459 6.75204,5.324297"
                       id="path4167"
                       inkscape:connector-curvature="0"
                       sodipodi:nodetypes="cccccccccccccccsccccccccccccccccccccccccccccccccccccccccccccccccccccccccccccccccccccccccccccccccc" />
                  </g>
                </g>
              </g>
            </g>
          </g>
        </g>
      </g>
    </g>
  </g>
  <WCB
     pausedposy="0"
     pausedposx="0"
     lastknownposy="0"
     lastknownposx="0"
     lastpathnc="0"
     lastpath="0"
     node="0"
     layer="0" />
</svg>
