<?xml version="1.0" encoding="UTF-8" standalone="no"?>
<!-- Created with Inkscape (http://www.inkscape.org/) -->

<svg
   xmlns:dc="http://purl.org/dc/elements/1.1/"
   xmlns:cc="http://creativecommons.org/ns#"
   xmlns:rdf="http://www.w3.org/1999/02/22-rdf-syntax-ns#"
   xmlns:svg="http://www.w3.org/2000/svg"
   xmlns="http://www.w3.org/2000/svg"
   xmlns:sodipodi="http://sodipodi.sourceforge.net/DTD/sodipodi-0.dtd"
   xmlns:inkscape="http://www.inkscape.org/namespaces/inkscape"
   width="160mm"
   height="160mm"
   viewBox="0 0 160.00001 160.00001"
   id="svg4258"
   version="1.1"
   inkscape:version="0.91 r"
   sodipodi:docname="12.svg">
  <sodipodi:namedview
     inkscape:document-units="mm"
     pagecolor="#ffffff"
     bordercolor="#666666"
     borderopacity="1.0"
     inkscape:pageopacity="0.0"
     inkscape:pageshadow="2"
     inkscape:zoom="0.70710678"
     inkscape:cx="453.87433"
     inkscape:cy="244.8856"
     inkscape:current-layer="text3362"
     id="namedview4262"
     showgrid="false"
     inkscape:window-width="1297"
     inkscape:window-height="592"
     inkscape:window-x="65"
     inkscape:window-y="24"
     inkscape:window-maximized="1"
     units="mm"
     inkscape:snap-nodes="false" />
  <defs
     id="defs4260" />
  <metadata
     id="metadata4264">
    <rdf:RDF>
      <cc:Work
         rdf:about="">
        <dc:format>image/svg+xml</dc:format>
        <dc:type
           rdf:resource="http://purl.org/dc/dcmitype/StillImage" />
        <dc:title />
      </cc:Work>
    </rdf:RDF>
  </metadata>
  <g
     transform="translate(0,-49.999993)"
     id="layer1"
     inkscape:groupmode="layer"
     inkscape:label="Layer 1">
    <g
       transform="matrix(0.39181791,0.93530971,-0.9095463,0.38102517,226.38736,259.20817)"
       style="font-style:normal;font-variant:normal;font-weight:300;font-stretch:normal;font-size:53.77825546px;line-height:125%;font-family:'AR PL UMing TW';-inkscape-font-specification:'AR PL UMing TW, Light';text-align:start;letter-spacing:0px;word-spacing:0px;writing-mode:lr-tb;text-anchor:start;fill:#000000;fill-opacity:1;stroke:none;stroke-width:1px;stroke-linecap:butt;stroke-linejoin:miter;stroke-opacity:1"
       id="text3428">
      <g
         id="g3391"
         transform="matrix(0.38958785,-0.9546167,0.8965485,0.3738953,-71.862448,-226.06917)">
        <g
           id="g3414">
          <g
             id="g3437">
            <g
               id="g3460">
              <g
                 id="g3693"
                 transform="matrix(0.28222222,0,0,0.28222222,151.88211,161.24942)"
                 inkscape:label="Hershey Text" />
              <g
                 inkscape:label="Hershey Text"
                 transform="matrix(0.28222222,0,0,0.28222222,151.88211,161.24942)"
                 id="g3793" />
              <g
                 id="g3895"
                 transform="matrix(0.28222222,0,0,0.28222222,151.88211,161.24942)"
                 inkscape:label="Hershey Text" />
              <g
                 inkscape:label="Hershey Text"
                 transform="matrix(0.28222222,0,0,0.28222222,151.88211,161.24942)"
                 id="g3999" />
              <g
                 id="g4105"
                 transform="matrix(0.28222222,0,0,0.28222222,151.88211,161.24942)"
                 inkscape:label="Hershey Text" />
              <g
                 inkscape:label="Hershey Text"
                 transform="matrix(0.28222222,0,0,0.28222222,151.88211,161.24942)"
                 id="g4213" />
              <g
                 id="g4323"
                 transform="matrix(0.28222222,0,0,0.28222222,151.88211,161.24942)"
                 inkscape:label="Hershey Text" />
              <g
                 inkscape:label="Hershey Text"
                 transform="matrix(0.28222222,0,0,0.28222222,151.88211,161.24942)"
                 id="g4435" />
              <g
                 transform="matrix(1.2691195,-8.438795e-4,-0.06302835,5.7407885,160.82498,460.88296)"
                 style="font-style:normal;font-variant:normal;font-weight:normal;font-stretch:normal;font-size:31.82224083px;line-height:125%;font-family:Garuda;-inkscape-font-specification:'Garuda, Normal';text-align:start;letter-spacing:0px;word-spacing:0px;writing-mode:lr-tb;text-anchor:start;fill:#000000;fill-opacity:1;stroke:none;stroke-width:1px;stroke-linecap:butt;stroke-linejoin:miter;stroke-opacity:1"
                 id="text3398" />
              <flowRoot
                 xml:space="preserve"
                 id="flowRoot3368"
                 style="font-style:normal;font-variant:normal;font-weight:normal;font-stretch:normal;font-size:180px;line-height:125%;font-family:Garuda;-inkscape-font-specification:'Garuda, Normal';text-align:start;letter-spacing:0px;word-spacing:0px;writing-mode:lr-tb;text-anchor:start;fill:#000000;fill-opacity:1;stroke:none;stroke-width:1px;stroke-linecap:butt;stroke-linejoin:miter;stroke-opacity:1"
                 transform="matrix(0.27644235,-1.8381564e-4,-0.00315852,0.2876863,-393.38796,-199.38542)"><flowRegion
                   id="flowRegion3370"><rect
                     id="rect3372"
                     width="1640.625"
                     height="559.375"
                     x="-190.625"
                     y="175.49213" /></flowRegion><flowPara
                   id="flowPara3374" /></flowRoot>              <flowRoot
                 xml:space="preserve"
                 id="flowRoot3376"
                 style="font-style:normal;font-variant:normal;font-weight:normal;font-stretch:normal;font-size:180px;line-height:125%;font-family:Garuda;-inkscape-font-specification:'Garuda, Normal';text-align:start;letter-spacing:0px;word-spacing:0px;writing-mode:lr-tb;text-anchor:start;fill:#000000;fill-opacity:1;stroke:none;stroke-width:1px;stroke-linecap:butt;stroke-linejoin:miter;stroke-opacity:1"
                 transform="matrix(0.27644235,-1.8381564e-4,-0.00315852,0.2876863,-393.38796,-199.38542)"><flowRegion
                   id="flowRegion3378"><rect
                     id="rect3380"
                     width="315.625"
                     height="518.75"
                     x="-284.375"
                     y="37.992126" /></flowRegion><flowPara
                   id="flowPara3382" /></flowRoot>              <text
                 xml:space="preserve"
                 style="font-style:normal;font-variant:normal;font-weight:normal;font-stretch:normal;font-size:25.38065338px;line-height:125%;font-family:Garuda;-inkscape-font-specification:'Garuda, Normal';text-align:start;letter-spacing:0px;word-spacing:0px;writing-mode:lr-tb;text-anchor:start;fill:#000000;fill-opacity:1;stroke:none;stroke-width:1px;stroke-linecap:butt;stroke-linejoin:miter;stroke-opacity:1"
                 x="-313.18579"
                 y="8.7216463"
                 id="text3430"
                 sodipodi:linespacing="125%"
                 transform="matrix(0.98026678,-6.5181172e-4,-0.01120014,1.0201379,0,0)"><tspan
                   sodipodi:role="line"
                   id="tspan3432"
                   x="-313.18579"
                   y="8.7216463" /></text>
              <g
                 id="g3358"
                 transform="translate(4.3840439,-0.2981754)">
                <g
                   id="g4251"
                   transform="matrix(1.0174326,-1.2812543e-4,0.00211554,0.82474197,13.682841,11.790708)">
                  <g
                     transform="matrix(0.77251557,-5.1367109e-4,-0.01421217,1.2944817,0,0)"
                     style="font-style:normal;font-variant:normal;font-weight:normal;font-stretch:normal;font-size:181.60253906px;line-height:125%;font-family:'AR PL UKai CN';-inkscape-font-specification:'AR PL UKai CN';text-align:start;letter-spacing:0px;word-spacing:0px;writing-mode:lr-tb;text-anchor:start;fill:#00f400;fill-opacity:1;stroke:#0000f7;stroke-width:0.12762713;stroke-linecap:butt;stroke-linejoin:miter;stroke-miterlimit:4;stroke-dasharray:none;stroke-opacity:1"
                     id="text3362">
                    <path
                       d="m -378.01044,67.360714 c -9.87101,3.207901 -18.02364,6.197226 -24.45789,8.967975 -2.74005,1.153863 -5.22371,1.187101 -7.451,0.09971 -8.09001,-3.868045 -12.35466,-6.75029 -12.79396,-8.646736 -0.79186,-2.018362 -0.0574,-3.429609 2.20352,-4.23374 4.40562,-1.727714 13.11193,-9.263576 26.11895,-22.607587 -3.73686,-2.640262 -6.39749,-9.289527 -7.98188,-19.947797 -2.26717,1.158791 -4.47208,2.140868 -6.61473,2.946231 -1.42493,0.339876 -2.48787,0.269678 -3.18878,-0.210594 -0.0993,-1.065211 0.57082,-2.181524 2.01044,-3.348938 2.04122,-1.752355 4.37589,-3.383409 7.00402,-4.893163 -3.19536,-33.140992 0.24566,-53.79744 10.32306,-61.969343 3.24021,-2.685794 5.62874,-4.020682 7.1656,-4.004666 2.01394,-0.215495 3.41579,0.745048 4.20554,2.88163 1.12763,3.086037 3.48817,6.65789 7.08163,10.715557 1.6257,1.672327 2.60852,2.924108 2.94849,3.755343 0.33157,1.304109 -0.0895,1.713572 -1.26334,1.228373 -2.82049,-0.975328 -5.70114,-1.892161 -8.64195,-2.7505 -3.40948,-1.099707 -6.08203,-0.418108 -8.01762,2.044797 -4.55674,10.239546 -6.11217,24.5897101 -4.66629,43.050492 17.19786,-9.63484161 27.95939,-16.3807149 32.28457,-20.2376189 1.44173,-1.2856351 2.75054,-1.7449621 3.92644,-1.3779831 4.34056,1.9371027 7.97494,3.6894832 10.90315,5.2571421 1.16541,0.9580796 1.67536,2.2049318 1.52986,3.7405586 -0.14131,1.29918675 -0.98354,2.11810112 -2.5267,2.45674527 -4.14399,0.31154004 -7.34852,0.98759533 -9.61359,2.02816583 -12.74397,5.1880705 -24.65516,10.0892142 -35.73357,14.7034342 1.67323,12.314579 4.60632,20.267343 8.79927,23.858292 1.38716,1.788083 1.30812,2.910557 -0.23714,3.36742 -1.19689,0.815218 -2.90898,0.679134 -5.13628,-0.408253 -0.82333,-0.245063 -1.46724,-0.606499 -1.93173,-1.084306 -4.50846,7.520488 -8.65282,14.512683 -12.43308,20.976584 -0.7408,1.765906 -0.35011,3.070637 1.17205,3.914192 1.52007,0.961776 3.05588,1.036902 4.60743,0.225378 11.20081,-4.849426 17.87465,-7.795041 20.0215,-8.836844 3.94743,-2.560181 7.73677,-2.875417 11.36799,-0.945707 2.46164,1.208072 4.09259,2.584848 4.89283,4.130331 1.14023,2.376717 0.29169,3.550292 -2.54558,3.520724 -6.26775,0.05292 -10.73225,0.606027 -13.35198,1.642903 0,0 -3.34271,1.095829 -4.36008,1.438935 -1.01737,0.343104 -6.88595,2.376894 -7.39053,2.559219 -0.50457,0.182323 -2.91848,1.064116 -3.16205,1.162637 -0.24358,0.09852 -4.27194,1.631379 -5.41229,2.091105 M -415.90219,3.8247359 c -3.87749,5.2804707 -7.3475,10.9199131 -10.41004,16.9183271 -0.60579,0.821379 -1.32351,1.286866 -2.15315,1.396462 -0.58899,-0.12438 -1.11049,-0.721023 -1.56448,-1.78993 -0.66315,-2.60823 -0.54946,-5.681331 0.34104,-9.219304 1.22769,-9.2100624 4.71135,-15.6179343 10.45097,-19.2236141 2.38538,-1.1575586 3.91594,-0.7868824 4.59168,1.1120277 1.82645,3.6845281 1.36285,7.34081038 -1.30095,10.8603032 0,0 -0.55691,0.7713032 -0.71472,0.9928312 -0.15783,0.2215269 -0.9243,1.291505 -1.07112,1.5131465 -0.14684,0.2216424 -0.91718,1.3292857 -1.07703,1.577729 -0.15987,0.2484421 -0.9741,1.4547711 -1.12618,1.7032953 -0.1521,0.2485231 -0.83125,1.2895202 -1.09552,1.7274342 -0.26428,0.437914 -0.9927,1.627272 -1.16885,1.91723 -0.17614,0.289958 -1.50665,2.556846 -1.74761,2.995003 m -28.10755,35.536781 c -1.31217,-52.63125644 -0.10108,-80.5573 3.6162,-83.474605 1.07867,-0.816451 2.44135,-0.979612 4.08803,-0.489485 4.94424,1.233943 9.71221,2.406928 14.3039,3.518955 1.53056,0.370676 2.24512,0.08252 2.1437,-0.864473 -0.10353,-0.828771 -0.7971,-1.722812 -2.08073,-2.682124 -9.79195,-7.906 -16.41819,-14.300989 -19.87873,-19.184963 -1.85374,-2.147671 -3.74211,-2.344712 -5.66511,-0.591126 -4.33148,4.211563 -6.45771,10.751823 -6.37868,19.620779 0.35114,6.86168 0.36961,32.46121368 0.0554,76.798598 0.0154,5.794006 -0.66389,10.75308 -2.03777,14.877225 -1.10385,2.23509 -0.60649,4.191263 1.49208,5.868516 3.14576,2.634102 6.54056,4.561348 10.18438,5.781739 2.23149,0.850947 3.88762,0.809086 4.96839,-0.125586 0.72401,-0.820147 0.45259,-2.182755 -0.81424,-4.087825 -2.87155,-4.759596 -4.21372,-9.737819 -4.00106,-15.056482 0,0 -0.0137,-0.519842 -0.0146,-0.574935 -0.001,-0.05509 -0.0109,-0.478001 -0.0136,-0.547999 -0.003,-0.06999 -0.019,-0.682042 -0.0196,-0.753508 -7.3e-4,-0.07146 -0.0107,-0.604541 -0.0135,-0.665609 -0.003,-0.06107 -0.0134,-0.451228 -0.0155,-0.549508 -0.002,-0.09828 -0.009,-0.606008 -0.0116,-0.661121 -0.003,-0.05512 -0.0124,-0.506303 -0.0164,-0.607579 -0.004,-0.101278 -0.0106,-0.606029 -0.0149,-0.695398 -0.004,-0.08937 -3.9e-4,-0.09081 -3.9e-4,-0.09081 0,0 -0.0487,-2.069861 -0.051,-2.385497 m -28.31919,-23.286032 c -5.56541,-6.20657 -11.67632,-13.824924 -18.25743,-22.7616399 -1.49069,-2.6168535 -3.11743,-4.2300699 -4.88024,-4.8396493 -1.06187,-0.129308 -2.07408,0.2739897 -3.03664,1.2098931 -1.56414,1.5208428 -1.91846,4.82791955 -1.06295,9.9212304 1.06886,6.3961937 9.92659,13.6421287 26.57318,21.7378057 0.81495,0.717943 1.47145,0.37006 1.96952,-1.043651 0.1455,-1.535627 -0.30219,-2.959193 -1.34308,-4.2707 0,0 -0.9677,-1.073471 -1.18851,-1.32842 -0.2208,-0.254949 -1.15841,-1.308998 -1.35212,-1.542611 -0.19371,-0.233613 -2.13981,-2.527726 -2.21252,-2.611647 -0.0727,-0.08392 -0.82888,-0.986596 -1.3342,-1.623482 -0.50532,-0.636887 -1.29658,-1.57572 -1.51725,-1.839088 -0.22066,-0.263369 -0.75747,-0.931449 -0.86011,-1.06055 -0.10265,-0.129102 -0.63116,-0.786679 -0.76047,-0.945833 -0.12931,-0.1591542 -0.62339,-0.7865977 -0.72603,-0.9156992 -0.10264,-0.1291014 -0.76383,-0.9756426 -0.92359,-1.1708444 -0.15976,-0.1952008 -0.59252,-0.7623788 -0.6759,-0.864306"
                       id="path4167"
                       inkscape:connector-curvature="0"
                       sodipodi:nodetypes="ccccccccccccccccccccscccccccccccccccccccccccccccccscccccsccccccccccccccsscccccccsccccccccccc" />
                  </g>
                </g>
              </g>
            </g>
          </g>
        </g>
      </g>
    </g>
  </g>
  <WCB
     pausedposy="0"
     pausedposx="0"
     lastknownposy="0"
     lastknownposx="0"
     lastpathnc="0"
     lastpath="0"
     node="0"
     layer="0" />
</svg>
