<?xml version="1.0" encoding="UTF-8" standalone="no"?>
<!-- Created with Inkscape (http://www.inkscape.org/) -->

<svg
   xmlns:dc="http://purl.org/dc/elements/1.1/"
   xmlns:cc="http://creativecommons.org/ns#"
   xmlns:rdf="http://www.w3.org/1999/02/22-rdf-syntax-ns#"
   xmlns:svg="http://www.w3.org/2000/svg"
   xmlns="http://www.w3.org/2000/svg"
   xmlns:sodipodi="http://sodipodi.sourceforge.net/DTD/sodipodi-0.dtd"
   xmlns:inkscape="http://www.inkscape.org/namespaces/inkscape"
   width="160mm"
   height="160mm"
   viewBox="0 0 160.00001 160.00001"
   id="svg4258"
   version="1.1"
   inkscape:version="0.91 r"
   sodipodi:docname="13.svg">
  <sodipodi:namedview
     inkscape:document-units="mm"
     pagecolor="#ffffff"
     bordercolor="#666666"
     borderopacity="1.0"
     inkscape:pageopacity="0.0"
     inkscape:pageshadow="2"
     inkscape:zoom="0.70710678"
     inkscape:cx="-45.579544"
     inkscape:cy="300.65411"
     inkscape:current-layer="text3362"
     id="namedview4262"
     showgrid="false"
     inkscape:window-width="1297"
     inkscape:window-height="592"
     inkscape:window-x="65"
     inkscape:window-y="24"
     inkscape:window-maximized="1"
     units="mm"
     inkscape:snap-nodes="false" />
  <defs
     id="defs4260" />
  <metadata
     id="metadata4264">
    <rdf:RDF>
      <cc:Work
         rdf:about="">
        <dc:format>image/svg+xml</dc:format>
        <dc:type
           rdf:resource="http://purl.org/dc/dcmitype/StillImage" />
        <dc:title />
      </cc:Work>
    </rdf:RDF>
  </metadata>
  <g
     transform="translate(0,-49.999993)"
     id="layer1"
     inkscape:groupmode="layer"
     inkscape:label="Layer 1">
    <g
       transform="matrix(0.39181791,0.93530971,-0.9095463,0.38102517,226.38736,259.20817)"
       style="font-style:normal;font-variant:normal;font-weight:300;font-stretch:normal;font-size:53.77825546px;line-height:125%;font-family:'AR PL UMing TW';-inkscape-font-specification:'AR PL UMing TW, Light';text-align:start;letter-spacing:0px;word-spacing:0px;writing-mode:lr-tb;text-anchor:start;fill:#000000;fill-opacity:1;stroke:none;stroke-width:1px;stroke-linecap:butt;stroke-linejoin:miter;stroke-opacity:1"
       id="text3428">
      <g
         id="g3391"
         transform="matrix(0.38958785,-0.9546167,0.8965485,0.3738953,-71.862448,-226.06917)">
        <g
           id="g3414">
          <g
             id="g3437">
            <g
               id="g3460">
              <g
                 id="g3693"
                 transform="matrix(0.28222222,0,0,0.28222222,151.88211,161.24942)"
                 inkscape:label="Hershey Text" />
              <g
                 inkscape:label="Hershey Text"
                 transform="matrix(0.28222222,0,0,0.28222222,151.88211,161.24942)"
                 id="g3793" />
              <g
                 id="g3895"
                 transform="matrix(0.28222222,0,0,0.28222222,151.88211,161.24942)"
                 inkscape:label="Hershey Text" />
              <g
                 inkscape:label="Hershey Text"
                 transform="matrix(0.28222222,0,0,0.28222222,151.88211,161.24942)"
                 id="g3999" />
              <g
                 id="g4105"
                 transform="matrix(0.28222222,0,0,0.28222222,151.88211,161.24942)"
                 inkscape:label="Hershey Text" />
              <g
                 inkscape:label="Hershey Text"
                 transform="matrix(0.28222222,0,0,0.28222222,151.88211,161.24942)"
                 id="g4213" />
              <g
                 id="g4323"
                 transform="matrix(0.28222222,0,0,0.28222222,151.88211,161.24942)"
                 inkscape:label="Hershey Text" />
              <g
                 inkscape:label="Hershey Text"
                 transform="matrix(0.28222222,0,0,0.28222222,151.88211,161.24942)"
                 id="g4435" />
              <g
                 transform="matrix(1.2691195,-8.438795e-4,-0.06302835,5.7407885,160.82498,460.88296)"
                 style="font-style:normal;font-variant:normal;font-weight:normal;font-stretch:normal;font-size:31.82224083px;line-height:125%;font-family:Garuda;-inkscape-font-specification:'Garuda, Normal';text-align:start;letter-spacing:0px;word-spacing:0px;writing-mode:lr-tb;text-anchor:start;fill:#000000;fill-opacity:1;stroke:none;stroke-width:1px;stroke-linecap:butt;stroke-linejoin:miter;stroke-opacity:1"
                 id="text3398" />
              <flowRoot
                 xml:space="preserve"
                 id="flowRoot3368"
                 style="font-style:normal;font-variant:normal;font-weight:normal;font-stretch:normal;font-size:180px;line-height:125%;font-family:Garuda;-inkscape-font-specification:'Garuda, Normal';text-align:start;letter-spacing:0px;word-spacing:0px;writing-mode:lr-tb;text-anchor:start;fill:#000000;fill-opacity:1;stroke:none;stroke-width:1px;stroke-linecap:butt;stroke-linejoin:miter;stroke-opacity:1"
                 transform="matrix(0.27644235,-1.8381564e-4,-0.00315852,0.2876863,-393.38796,-199.38542)"><flowRegion
                   id="flowRegion3370"><rect
                     id="rect3372"
                     width="1640.625"
                     height="559.375"
                     x="-190.625"
                     y="175.49213" /></flowRegion><flowPara
                   id="flowPara3374" /></flowRoot>              <flowRoot
                 xml:space="preserve"
                 id="flowRoot3376"
                 style="font-style:normal;font-variant:normal;font-weight:normal;font-stretch:normal;font-size:180px;line-height:125%;font-family:Garuda;-inkscape-font-specification:'Garuda, Normal';text-align:start;letter-spacing:0px;word-spacing:0px;writing-mode:lr-tb;text-anchor:start;fill:#000000;fill-opacity:1;stroke:none;stroke-width:1px;stroke-linecap:butt;stroke-linejoin:miter;stroke-opacity:1"
                 transform="matrix(0.27644235,-1.8381564e-4,-0.00315852,0.2876863,-393.38796,-199.38542)"><flowRegion
                   id="flowRegion3378"><rect
                     id="rect3380"
                     width="315.625"
                     height="518.75"
                     x="-284.375"
                     y="37.992126" /></flowRegion><flowPara
                   id="flowPara3382" /></flowRoot>              <text
                 xml:space="preserve"
                 style="font-style:normal;font-variant:normal;font-weight:normal;font-stretch:normal;font-size:25.38065338px;line-height:125%;font-family:Garuda;-inkscape-font-specification:'Garuda, Normal';text-align:start;letter-spacing:0px;word-spacing:0px;writing-mode:lr-tb;text-anchor:start;fill:#000000;fill-opacity:1;stroke:none;stroke-width:1px;stroke-linecap:butt;stroke-linejoin:miter;stroke-opacity:1"
                 x="-313.18579"
                 y="8.7216463"
                 id="text3430"
                 sodipodi:linespacing="125%"
                 transform="matrix(0.98026678,-6.5181172e-4,-0.01120014,1.0201379,0,0)"><tspan
                   sodipodi:role="line"
                   id="tspan3432"
                   x="-313.18579"
                   y="8.7216463" /></text>
              <g
                 id="g3358"
                 transform="translate(4.3840439,-0.2981754)">
                <g
                   id="g4251"
                   transform="matrix(1.0174326,-1.2812543e-4,0.00211554,0.82474197,13.682841,11.790708)">
                  <g
                     transform="matrix(0.77251557,-5.1367109e-4,-0.01421217,1.2944817,0,0)"
                     style="font-style:normal;font-variant:normal;font-weight:normal;font-stretch:normal;font-size:181.60253906px;line-height:125%;font-family:'AR PL UKai CN';-inkscape-font-specification:'AR PL UKai CN';text-align:start;letter-spacing:0px;word-spacing:0px;writing-mode:lr-tb;text-anchor:start;fill:#00f400;fill-opacity:1;stroke:#0000f7;stroke-width:0.12762713;stroke-linecap:butt;stroke-linejoin:miter;stroke-miterlimit:4;stroke-dasharray:none;stroke-opacity:1"
                     id="text3362">
                    <g
                       transform="matrix(-1.2370616,-0.00777046,0.00864989,-0.80831281,-854.24772,23.35357)"
                       style="font-style:normal;font-variant:normal;font-weight:normal;font-stretch:normal;font-size:186.79428101px;line-height:125%;font-family:'AR PL UKai CN';-inkscape-font-specification:'AR PL UKai CN';text-align:start;letter-spacing:0px;word-spacing:0px;writing-mode:lr-tb;text-anchor:start;fill:#00f4ef;fill-opacity:1;stroke:#18ef00;stroke-width:0.12762713;stroke-linecap:butt;stroke-linejoin:miter;stroke-miterlimit:4;stroke-dasharray:none;stroke-opacity:1"
                       id="text3361">
                      <path
                         d="m -410.03504,-13.030231 c 9.24243,-0.972887 17.75519,-2.432217 25.53828,-4.377991 1.45933,-0.608054 2.97947,-0.972887 4.56041,-1.094498 1.45933,-10.701755 2.61463,-20.856262 3.46591,-30.46352 0.36483,-2.918661 -0.60805,-6.810208 -2.91866,-11.674643 -0.85128,-2.067384 -0.66886,-3.526714 0.54725,-4.37799 1.09449,-0.972887 2.61463,-1.094498 4.5604,-0.364833 2.91866,0.972887 6.44538,2.979466 10.58015,6.019738 2.31061,2.310606 3.10108,4.073963 2.37141,5.290072 -4.98605,14.350081 -7.90471,25.173448 -8.75598,32.4701 7.78309,-2.918661 13.4988,-4.013159 17.14713,-3.283494 3.64833,0.851276 5.89813,2.006579 6.7494,3.46591 0.60805,1.216109 0.36483,2.249801 -0.72966,3.101077 -0.72967,0.486443 -9.12082,2.736244 -25.17345,6.749403 -1.94577,8.9992033 -3.89155,18.1200177 -5.83732,27.362443 3.64833,-1.216109 6.99262,-2.614634 10.03289,-4.195575 2.55383,-1.337719 4.92524,-1.216108 7.11424,0.364833 3.28349,2.553828 6.08054,4.621213 8.39115,6.202154 2.67544,1.945773 2.49302,4.438796 -0.54725,7.479068 -2.91866,2.553828 -5.89813,8.269538 -8.9384,17.147131 2.79705,1.824163 4.19557,3.161882 4.19557,4.013158 -0.24322,1.216109 -0.97288,1.884969 -2.18899,2.00658 -13.74203,1.216108 -23.77492,2.614633 -30.09869,4.195574 -1.21611,0.121616 -2.2498,0.182416 -3.10108,0.182416 0.24323,2.918661 0.12162,5.168462 -0.36483,6.749403 -0.85127,2.188995 -2.43221,1.824163 -4.74282,-1.094498 -2.06739,-2.310606 -3.3443,-5.168461 -3.83074,-8.573565 -2.31061,-11.431421 -5.29007,-20.613041 -8.9384,-27.54486 -1.21611,-2.067385 -1.39852,-3.526715 -0.54725,-4.377991 0.48644,-0.851276 2.2498,-0.912081 5.29007,-0.182416 4.62121,0.729665 11.30981,0.486444 20.06579,-0.729665 1.70255,-9.4856473 3.2835,-18.4848511 4.74283,-26.9976113 -4.37799,0.851276 -8.45196,1.702552 -12.22189,2.5538281 -6.6886,1.8241629 -12.76914,1.276914 -18.24163,-1.6417467 -3.28349,-2.0673851 -2.37389,-3.5856451 2.12571,-4.4369211 0,0 14.70515,-1.628719 22.87219,-3.750194 m -9.85107,41.018364 c 7.78309,-1.45933 14.89105,-2.732561 21.33642,-3.827059 4.49961,-0.851276 7.17505,-0.364832 8.02632,1.459331 0.85128,0.851276 0.72967,2.979466 -0.36483,6.38457 -1.0945,4.013158 -2.37141,8.330343 -3.83074,12.951556 -0.48645,0 -0.91209,0.121611 -1.27692,0.364833 -7.78309,2.188995 -14.83652,3.891547 -21.16029,5.107656 -1.94577,-12.161086 -3.03916,-19.585859 -3.28238,-22.261298 0,-0.121611 0.22906,-0.143352 0.58723,-0.185021 0,0 1.16043,-0.216026 1.47769,-0.278639 0.31726,-0.06261 2.25823,-0.411846 2.7602,-0.510812 0.50198,-0.09897 3.97141,-0.708385 4.93982,-0.895899 0.96842,-0.187513 1.99677,-0.364867 2.28261,-0.416431 0.28585,-0.05156 1.26678,-0.226845 1.48223,-0.260701 0.21545,-0.03386 0.88465,-0.157333 0.98987,-0.173907 0.10523,-0.01657 0.7404,-0.133407 0.84257,-0.155544 0.10218,-0.02214 1.19448,-0.205401 1.33112,-0.229341 0.13665,-0.02394 0.55574,-0.09751 0.62571,-0.109226 0.07,-0.01172 1.25495,-0.214859 1.41709,-0.246111 0.16214,-0.03125 1.77913,-0.312523 1.93906,-0.338567 m 42.80456,-3.489942 c 2.06739,-29.67305 0.72967,-48.218706 -4.01316,-55.636968 -1.94577,-2.675439 -1.76336,-4.256381 0.54725,-4.742824 1.58094,-0.364833 4.80363,0.608054 9.66806,2.918661 12.52592,-1.702552 22.61962,-4.560407 30.28111,-8.573566 2.06738,-0.972887 4.43879,-0.912081 7.11423,0.182416 5.10766,2.067385 9.18162,4.377991 12.22189,6.931819 1.82417,1.580941 1.82417,3.709132 0,6.384571 -1.82416,3.648325 -2.67543,9.546452 -2.55382,17.69438 0.72966,37.334534 2.00657,67.494027 3.83074,90.47848 0.12161,7.783095 -2.73625,14.958135 -8.57357,21.525122 -1.21611,1.337724 -2.43221,1.763357 -3.64832,1.276914 -2.06739,-0.729665 -4.07397,-2.432217 -6.01974,-5.107656 -4.13477,-5.229267 -10.21532,-11.553032 -18.24163,-18.971295 -0.24322,-1.337719 1.0945,-1.45933 4.01316,-0.364832 4.01316,1.094498 7.90471,2.188996 11.67464,3.283493 2.43222,0.608055 4.01316,0.486444 4.74282,-0.364832 0.97289,-1.580941 1.52014,-4.073964 1.64175,-7.479068 1.33772,-23.835729 1.03369,-55.332942 -0.91208,-94.491639 0,-4.986045 -0.79047,-8.208732 -2.37141,-9.668063 -1.0945,-1.45933 -2.91866,-1.945773 -5.47249,-1.45933 -6.81021,1.580941 -13.74203,2.979465 -20.79546,4.195574 -0.97289,0.364833 -1.82416,0.608055 -2.55383,0.729666 -0.24322,1.216108 -0.54725,10.76256 -0.91208,28.6393571 6.93182,-3.5267147 13.19478,-4.9252401 18.78888,-4.1955747 3.40511,0.6080543 5.71571,1.8241629 6.93182,3.6483258 1.21611,1.7025521 0.30402,2.7970498 -2.73625,3.2834932 -6.20215,0.6080543 -13.55961,1.5201358 -22.07237,2.73624437 l -1.09449,0 c -0.48645,8.87759283 -1.15531,16.84310423 -2.00658,23.89653423 -0.12162,0.121611 -0.18242,0.364832 -0.18242,0.729665 11.43142,-3.405104 19.0321,-4.742823 22.80204,-4.013158 3.28349,0.729665 5.53329,2.067384 6.7494,4.013158 0.97289,1.702552 -0.0608,2.736244 -3.10108,3.101077 -7.41826,0.608054 -16.11344,1.45933 -26.08553,2.553828 l -1.09449,0 c -1.33772,9.485647 -3.3443,17.876797 -6.01974,25.173448 -3.52671,8.391149 -8.57356,16.417466 -15.14055,24.07895 -4.25638,5.229267 -10.0937,10.458534 -17.51197,15.687801 -2.31061,1.824163 -4.4388,2.79705 -6.38457,2.918661 -1.33772,0 -1.94577,-0.425638 -1.82416,-1.276914 0.48644,-0.729665 1.52013,-1.884969 3.10108,-3.46591 14.10686,-14.228471 23.16687,-26.450362 27.18002,-36.665674 5.95893,-14.350081 9.30951,-27.629572 10.03918,-39.669047 0,0 0.0483,-0.740764 0.0705,-1.048078 0.0222,-0.307314 0.0755,-1.005282 0.10217,-1.463648 0.0267,-0.458367 0.0844,-1.369892 0.10662,-1.718876 0.0222,-0.348983 0.0622,-1.135499 0.0755,-1.395935 0.0133,-0.260435 0.0844,-1.4480218 0.0977,-1.7136661 0.0133,-0.2656444 0.0482,-0.8935767 0.0639,-1.155078 0.0157,-0.2615012 0.0534,-1.0570543 0.066,-1.3259218 0.0126,-0.2688675 0.0408,-1.1012517 0.0534,-1.3075062 0.0126,-0.2062545 0.0126,-0.2062545 0.0126,-0.2062545 0,0 0.0346,-0.9134128 0.044,-1.1270335 0.009,-0.2136207 0.0408,-0.9723427 0.0503,-1.1933296 0.009,-0.220987 0.0346,-1.2264777 0.044,-1.4179997 0.009,-0.1915221 0.0377,-1.12703354 0.0471,-1.41431659 0.009,-0.28728305 0.0283,-1.00549069 0.0314,-1.22279454 0.003,-0.21730385 0.0251,-1.16386467 0.0283,-1.46219707 0.003,-0.2983324 0.022,-1.4032672 0.0251,-1.6316204 0.003,-0.2283532 0.005,-0.6789054 0.006,-0.7322947 10e-4,-0.053389 0.003,-0.3893513 0.004,-0.4870147 0.001,-0.097663 0.002,-0.6351396 0.002,-0.6977526"
                         id="path4166"
                         inkscape:connector-curvature="0"
                         sodipodi:nodetypes="cccccccccccccccccccccccccccccccccccccccccccccccccccccccccccccccccccccccccccccccccccccccccssscccscccc" />
                    </g>
                  </g>
                </g>
              </g>
            </g>
          </g>
        </g>
      </g>
    </g>
  </g>
  <WCB
     pausedposy="0"
     pausedposx="0"
     lastknownposy="0"
     lastknownposx="0"
     lastpathnc="0"
     lastpath="0"
     node="0"
     layer="0" />
</svg>
