<?xml version="1.0" encoding="UTF-8" standalone="no"?>
<!-- Created with Inkscape (http://www.inkscape.org/) -->

<svg
   xmlns:dc="http://purl.org/dc/elements/1.1/"
   xmlns:cc="http://creativecommons.org/ns#"
   xmlns:rdf="http://www.w3.org/1999/02/22-rdf-syntax-ns#"
   xmlns:svg="http://www.w3.org/2000/svg"
   xmlns="http://www.w3.org/2000/svg"
   xmlns:sodipodi="http://sodipodi.sourceforge.net/DTD/sodipodi-0.dtd"
   xmlns:inkscape="http://www.inkscape.org/namespaces/inkscape"
   width="160mm"
   height="160mm"
   viewBox="0 0 160.00001 160.00001"
   id="svg4258"
   version="1.1"
   inkscape:version="0.91 r"
   sodipodi:docname="13 (复件).svg">
  <sodipodi:namedview
     inkscape:document-units="mm"
     pagecolor="#ffffff"
     bordercolor="#666666"
     borderopacity="1.0"
     inkscape:pageopacity="0.0"
     inkscape:pageshadow="2"
     inkscape:zoom="0.5"
     inkscape:cx="-90.581374"
     inkscape:cy="365.81854"
     inkscape:current-layer="text3362"
     id="namedview4262"
     showgrid="false"
     inkscape:window-width="1297"
     inkscape:window-height="592"
     inkscape:window-x="65"
     inkscape:window-y="24"
     inkscape:window-maximized="1"
     units="mm"
     inkscape:snap-nodes="false" />
  <defs
     id="defs4260" />
  <metadata
     id="metadata4264">
    <rdf:RDF>
      <cc:Work
         rdf:about="">
        <dc:format>image/svg+xml</dc:format>
        <dc:type
           rdf:resource="http://purl.org/dc/dcmitype/StillImage" />
        <dc:title />
      </cc:Work>
    </rdf:RDF>
  </metadata>
  <g
     transform="translate(0,-49.999993)"
     id="layer1"
     inkscape:groupmode="layer"
     inkscape:label="Layer 1">
    <g
       transform="matrix(0.39181791,0.93530971,-0.9095463,0.38102517,226.38736,259.20817)"
       style="font-style:normal;font-variant:normal;font-weight:300;font-stretch:normal;font-size:53.77825546px;line-height:125%;font-family:'AR PL UMing TW';-inkscape-font-specification:'AR PL UMing TW, Light';text-align:start;letter-spacing:0px;word-spacing:0px;writing-mode:lr-tb;text-anchor:start;fill:#000000;fill-opacity:1;stroke:none;stroke-width:1px;stroke-linecap:butt;stroke-linejoin:miter;stroke-opacity:1"
       id="text3428">
      <g
         id="g3391"
         transform="matrix(0.38958785,-0.9546167,0.8965485,0.3738953,-71.862448,-226.06917)">
        <g
           id="g3414">
          <g
             id="g3437">
            <g
               id="g3460">
              <g
                 id="g3693"
                 transform="matrix(0.28222222,0,0,0.28222222,151.88211,161.24942)"
                 inkscape:label="Hershey Text" />
              <g
                 inkscape:label="Hershey Text"
                 transform="matrix(0.28222222,0,0,0.28222222,151.88211,161.24942)"
                 id="g3793" />
              <g
                 id="g3895"
                 transform="matrix(0.28222222,0,0,0.28222222,151.88211,161.24942)"
                 inkscape:label="Hershey Text" />
              <g
                 inkscape:label="Hershey Text"
                 transform="matrix(0.28222222,0,0,0.28222222,151.88211,161.24942)"
                 id="g3999" />
              <g
                 id="g4105"
                 transform="matrix(0.28222222,0,0,0.28222222,151.88211,161.24942)"
                 inkscape:label="Hershey Text" />
              <g
                 inkscape:label="Hershey Text"
                 transform="matrix(0.28222222,0,0,0.28222222,151.88211,161.24942)"
                 id="g4213" />
              <g
                 id="g4323"
                 transform="matrix(0.28222222,0,0,0.28222222,151.88211,161.24942)"
                 inkscape:label="Hershey Text" />
              <g
                 inkscape:label="Hershey Text"
                 transform="matrix(0.28222222,0,0,0.28222222,151.88211,161.24942)"
                 id="g4435" />
              <g
                 transform="matrix(1.2691195,-8.438795e-4,-0.06302835,5.7407885,160.82498,460.88296)"
                 style="font-style:normal;font-variant:normal;font-weight:normal;font-stretch:normal;font-size:31.82224083px;line-height:125%;font-family:Garuda;-inkscape-font-specification:'Garuda, Normal';text-align:start;letter-spacing:0px;word-spacing:0px;writing-mode:lr-tb;text-anchor:start;fill:#000000;fill-opacity:1;stroke:none;stroke-width:1px;stroke-linecap:butt;stroke-linejoin:miter;stroke-opacity:1"
                 id="text3398" />
              <flowRoot
                 xml:space="preserve"
                 id="flowRoot3368"
                 style="font-style:normal;font-variant:normal;font-weight:normal;font-stretch:normal;font-size:180px;line-height:125%;font-family:Garuda;-inkscape-font-specification:'Garuda, Normal';text-align:start;letter-spacing:0px;word-spacing:0px;writing-mode:lr-tb;text-anchor:start;fill:#000000;fill-opacity:1;stroke:none;stroke-width:1px;stroke-linecap:butt;stroke-linejoin:miter;stroke-opacity:1"
                 transform="matrix(0.27644235,-1.8381564e-4,-0.00315852,0.2876863,-393.38796,-199.38542)"><flowRegion
                   id="flowRegion3370"><rect
                     id="rect3372"
                     width="1640.625"
                     height="559.375"
                     x="-190.625"
                     y="175.49213" /></flowRegion><flowPara
                   id="flowPara3374" /></flowRoot>              <flowRoot
                 xml:space="preserve"
                 id="flowRoot3376"
                 style="font-style:normal;font-variant:normal;font-weight:normal;font-stretch:normal;font-size:180px;line-height:125%;font-family:Garuda;-inkscape-font-specification:'Garuda, Normal';text-align:start;letter-spacing:0px;word-spacing:0px;writing-mode:lr-tb;text-anchor:start;fill:#000000;fill-opacity:1;stroke:none;stroke-width:1px;stroke-linecap:butt;stroke-linejoin:miter;stroke-opacity:1"
                 transform="matrix(0.27644235,-1.8381564e-4,-0.00315852,0.2876863,-393.38796,-199.38542)"><flowRegion
                   id="flowRegion3378"><rect
                     id="rect3380"
                     width="315.625"
                     height="518.75"
                     x="-284.375"
                     y="37.992126" /></flowRegion><flowPara
                   id="flowPara3382" /></flowRoot>              <text
                 xml:space="preserve"
                 style="font-style:normal;font-variant:normal;font-weight:normal;font-stretch:normal;font-size:25.38065338px;line-height:125%;font-family:Garuda;-inkscape-font-specification:'Garuda, Normal';text-align:start;letter-spacing:0px;word-spacing:0px;writing-mode:lr-tb;text-anchor:start;fill:#000000;fill-opacity:1;stroke:none;stroke-width:1px;stroke-linecap:butt;stroke-linejoin:miter;stroke-opacity:1"
                 x="-313.18579"
                 y="8.7216463"
                 id="text3430"
                 sodipodi:linespacing="125%"
                 transform="matrix(0.98026678,-6.5181172e-4,-0.01120014,1.0201379,0,0)"><tspan
                   sodipodi:role="line"
                   id="tspan3432"
                   x="-313.18579"
                   y="8.7216463" /></text>
              <g
                 id="g3358"
                 transform="translate(4.3840439,-0.2981754)">
                <g
                   id="g4251"
                   transform="matrix(1.0174326,-1.2812543e-4,0.00211554,0.82474197,13.682841,11.790708)">
                  <g
                     transform="matrix(0.77251557,-5.1367109e-4,-0.01421217,1.2944817,0,0)"
                     style="font-style:normal;font-variant:normal;font-weight:normal;font-stretch:normal;font-size:181.60253906px;line-height:125%;font-family:'AR PL UKai CN';-inkscape-font-specification:'AR PL UKai CN';text-align:start;letter-spacing:0px;word-spacing:0px;writing-mode:lr-tb;text-anchor:start;fill:#00f400;fill-opacity:1;stroke:#0000f7;stroke-width:0.12762713;stroke-linecap:butt;stroke-linejoin:miter;stroke-miterlimit:4;stroke-dasharray:none;stroke-opacity:1"
                     id="text3362">
                    <g
                       transform="matrix(-1.1597784,0.04162125,-0.05260038,-0.860346,-852.73323,41.711974)"
                       style="font-style:normal;font-variant:normal;font-weight:normal;font-stretch:normal;font-size:173.41674805px;line-height:125%;font-family:'AR PL UKai CN';-inkscape-font-specification:'AR PL UKai CN';text-align:start;letter-spacing:0px;word-spacing:0px;writing-mode:lr-tb;text-anchor:start;fill:#0000f5;fill-opacity:1;stroke:#00f200;stroke-width:0.12762713;stroke-linecap:butt;stroke-linejoin:miter;stroke-miterlimit:4;stroke-dasharray:none;stroke-opacity:1"
                       id="text3363">
                      <path
                         d="m -411.72555,-36.320891 c 2.70963,7.903106 0.56923,17.352382 -6.43066,28.3038307 -1.69352,2.4838337 -2.93544,4.5160612 -3.72575,6.0966826 -0.67741,1.80642444 -0.16935,2.31448131 1.52417,1.52417061 4.40316,-1.01611371 9.54018,-6.43538701 15.41106,-16.25781991 3.83865,2.032227 9.87889,2.427383 18.1207,1.185466 1.80642,-0.338705 3.83865,-0.677409 6.09668,-1.016114 0,6.7740918 -0.1129,13.8868881 -0.33871,21.338389 -14.33849,2.4838336 -29.97535,5.249921 -46.91058,8.298262 -2.37093,0.451607 -2.59674,1.580622 -0.67741,3.387046 1.69352,1.46772 3.5564,2.427383 5.58863,2.878989 2.37093,0.451606 4.4596,0.395155 6.26603,-0.169352 9.82243,-3.048341 20.49163,-5.532175 32.00758,-7.451501 -9.59663,18.628752 -27.54797,37.370406 -53.85403,56.224961 -1.46772,1.354819 -1.69352,2.145129 -0.6774,2.370932 3.04834,1.354819 9.70953,-1.298367 19.98357,-7.959557 10.27403,-6.209585 22.86255,-18.798105 37.76556,-37.765562 -0.45161,18.741654 -1.18547,30.822118 -2.20158,36.241391 -2.37093,11.967562 -3.49995,18.233597 -3.38705,18.798105 0,1.129015 1.18547,4.628962 3.5564,10.499842 0.79031,2.145129 1.69353,3.443496 2.70964,3.895102 0.79031,0.790311 1.58062,0.677409 2.37093,-0.338704 1.01611,-0.451606 2.14513,-1.975777 3.38704,-4.572512 1.12902,-3.048341 1.63708,-6.435387 1.52417,-10.161138 -0.1129,-4.854765 -0.1129,-24.499631 0,-58.934598 5.53218,6.435387 10.83855,12.870775 15.91912,19.306162 14.33849,18.290047 25.45929,28.225382 33.3624,29.806003 1.01611,0 8.86277,-0.959663 23.53997,-2.878989 1.46772,-0.338705 2.99189,-0.846761 4.57251,-1.52417 1.01611,-0.790311 0.79031,-1.693523 -0.67741,-2.709637 -1.80642,-1.016114 -9.93533,-3.6693 -24.38673,-7.959558 -13.20947,-3.72575 -29.35439,-16.370721 -48.43475,-37.934913 -1.12902,-1.354819 -2.42739,-2.427383 -3.89511,-3.217694 0,-1.016114 0.0564,-2.032228 0.16936,-3.0483412 4.40316,-0.6774092 19.30616,-1.8628753 44.709,-3.5563982 2.14513,-0.1129015 3.49995,-0.6209584 4.06446,-1.5241706 0.45161,-1.4677199 -0.2258,-2.878989 -2.03223,-4.23380734 -6.20959,-4.06445506 -11.40306,-5.53217496 -15.58041,-4.40315966 -7.90311,2.0322275 -18.29005,4.40315968 -31.16082,7.1127964 0.1129,-6.7740917 0.2258,-13.8304374 0.3387,-21.1690364 19.98357,-3.838652 30.53987,-6.266035 31.66888,-7.282149 1.01611,-0.790311 1.29837,-1.637072 0.84676,-2.540284 -0.79031,-1.354819 -2.76608,-2.483834 -5.92733,-3.387046 -3.16124,-0.790311 -6.43538,-0.564508 -9.82243,0.677409 -5.19347,1.693523 -10.6692,3.330595 -16.42717,4.911217 0.3387,-9.257925 1.46771,-17.161032 3.38704,-23.709321 1.12902,-1.806425 1.46773,-3.556399 1.01612,-5.249922 -0.79031,-1.129015 -4.57252,-3.7822 -11.34661,-7.959557 -2.82254,-2.032228 -5.47573,-2.088679 -7.95956,-0.169353 -0.67741,0.677409 -0.62095,1.919326 0.16936,3.725751 4.17735,6.096683 6.26603,12.193365 6.26603,18.290047 0.1129,5.193471 0.2258,10.838547 0.33871,16.93523 -6.88699,1.129015 -14.16914,2.088678 -21.84645,2.878989 0,-0.112902 0.0565,-0.225804 0.16935,-0.338705 1.80643,-3.838652 3.61285,-7.338599 5.41928,-10.499842 0.79031,-1.46772 0.3387,-2.93544 -1.35482,-4.40316 -5.75798,-3.048341 -9.76599,-4.177356 -12.02402,-3.387045 -1.12901,0.451606 -1.52417,1.46772 -1.18546,3.048341 0,0 0.16594,0.478061 0.21091,0.629605 0.045,0.151543 0.18696,0.647726 0.21536,0.757717 0.0284,0.109991 0.10177,0.422855 0.15146,0.625728 0.0497,0.202872 0.19407,0.914149 0.213,1.00703 0.0189,0.09288 0.0781,0.457075 0.10177,0.613507 0.0237,0.156431 0.0666,0.520498 0.08,0.631112 0.0134,0.110614 0.0519,0.513318 0.0636,0.620476 0.0117,0.107157 0.0552,0.687881 0.0603,0.795038 0.005,0.107158 0.0284,0.698252 0.0301,0.767386 0.002,0.06913 0.005,0.656771 0.005,0.729361 0,0.07259 -0.008,0.573811 -0.0134,0.665413 -0.005,0.0916 -0.0201,0.468381 -0.0285,0.577267 -0.008,0.108886 -0.0435,0.611834 -0.0552,0.73109 -0.0117,0.119256 -0.0485,0.497763 -0.0602,0.587637 -0.0117,0.08987 -0.0418,0.359496 -0.0586,0.48048 -0.0167,0.120984 -0.082,0.615291 -0.0971,0.713807 -0.0151,0.09851 -0.0619,0.330113 -0.0854,0.466653 -0.0234,0.136539 -0.087,0.518503 -0.11212,0.636031 -0.0251,0.117527 -0.11547,0.59455 -0.14224,0.699979 -0.0268,0.105429 -0.13555,0.606649 -0.16902,0.727633 -0.0335,0.120985 -0.19412,0.753559 -0.21588,0.824421 -0.0217,0.07086 -0.18743,0.663684 -0.20918,0.744917 -0.0218,0.08123 -0.19747,0.668869 -0.21755,0.724176 -0.0201,0.05531 -0.29173,0.902524 -0.33196,1.012515 -0.0402,0.109992 -0.21024,0.606944 -0.26882,0.755582 -0.0586,0.148638 -0.30122,0.777755 -0.33636,0.860716 -0.0351,0.08296 -0.27612,0.689609 -0.30457,0.757015 -0.0285,0.0674 -0.31461,0.753558 -0.39829,0.933306 -0.0837,0.179748 -0.58053,1.271459 -0.71307,1.550104 -0.13253,0.278644 -0.77152,1.510546 -0.93245,1.838075 -0.16093,0.327529 -0.94192,1.720751 -1.13599,2.053169 -0.19406,0.332418 -0.75259,1.2758978 -0.97505,1.6327581 -0.22246,0.3568603 -0.76206,1.2563439 -1.04605,1.6327582 -0.284,0.3764143 -1.16439,1.7598591 -1.16439,1.7598591 0,0 -0.63425,1.031473 -0.84252,1.3687793 -0.20826,0.3373063 -0.85199,1.4665493 -1.01292,1.7598591 -0.16093,0.2933099 -0.42599,0.7332747 -0.55379,1.2710094"
                         id="path4168"
                         inkscape:connector-curvature="0"
                         sodipodi:nodetypes="cccccccccccccccccccccccccccccccccccccccccccccccccccccccccc" />
                    </g>
                  </g>
                </g>
              </g>
            </g>
          </g>
        </g>
      </g>
    </g>
  </g>
  <WCB
     pausedposy="0"
     pausedposx="0"
     lastknownposy="0"
     lastknownposx="0"
     lastpathnc="0"
     lastpath="0"
     node="0"
     layer="0" />
</svg>
