<?xml version="1.0" encoding="UTF-8" standalone="no"?>
<!-- Created with Inkscape (http://www.inkscape.org/) -->

<svg
   xmlns:dc="http://purl.org/dc/elements/1.1/"
   xmlns:cc="http://creativecommons.org/ns#"
   xmlns:rdf="http://www.w3.org/1999/02/22-rdf-syntax-ns#"
   xmlns:svg="http://www.w3.org/2000/svg"
   xmlns="http://www.w3.org/2000/svg"
   xmlns:sodipodi="http://sodipodi.sourceforge.net/DTD/sodipodi-0.dtd"
   xmlns:inkscape="http://www.inkscape.org/namespaces/inkscape"
   width="160mm"
   height="160mm"
   viewBox="0 0 160.00001 160.00001"
   id="svg4258"
   version="1.1"
   inkscape:version="0.91 r"
   sodipodi:docname="15.svg">
  <sodipodi:namedview
     inkscape:document-units="mm"
     pagecolor="#ffffff"
     bordercolor="#666666"
     borderopacity="1.0"
     inkscape:pageopacity="0.0"
     inkscape:pageshadow="2"
     inkscape:zoom="0.5"
     inkscape:cx="-428.17918"
     inkscape:cy="386.04204"
     inkscape:current-layer="g4251"
     id="namedview4262"
     showgrid="false"
     inkscape:window-width="547"
     inkscape:window-height="373"
     inkscape:window-x="556"
     inkscape:window-y="213"
     inkscape:window-maximized="0"
     units="mm"
     inkscape:snap-nodes="false" />
  <defs
     id="defs4260" />
  <metadata
     id="metadata4264">
    <rdf:RDF>
      <cc:Work
         rdf:about="">
        <dc:format>image/svg+xml</dc:format>
        <dc:type
           rdf:resource="http://purl.org/dc/dcmitype/StillImage" />
        <dc:title />
      </cc:Work>
    </rdf:RDF>
  </metadata>
  <g
     transform="translate(0,-49.999993)"
     id="layer1"
     inkscape:groupmode="layer"
     inkscape:label="Layer 1">
    <g
       transform="matrix(0.39181791,0.93530971,-0.9095463,0.38102517,226.38736,259.20817)"
       style="font-style:normal;font-variant:normal;font-weight:300;font-stretch:normal;font-size:53.77825546px;line-height:125%;font-family:'AR PL UMing TW';-inkscape-font-specification:'AR PL UMing TW, Light';text-align:start;letter-spacing:0px;word-spacing:0px;writing-mode:lr-tb;text-anchor:start;fill:#000000;fill-opacity:1;stroke:none;stroke-width:1px;stroke-linecap:butt;stroke-linejoin:miter;stroke-opacity:1"
       id="text3428">
      <g
         id="g3391"
         transform="matrix(0.38958785,-0.9546167,0.8965485,0.3738953,-71.862448,-226.06917)">
        <g
           id="g3414">
          <g
             id="g3437">
            <g
               id="g3460">
              <g
                 id="g3693"
                 transform="matrix(0.28222222,0,0,0.28222222,151.88211,161.24942)"
                 inkscape:label="Hershey Text" />
              <g
                 inkscape:label="Hershey Text"
                 transform="matrix(0.28222222,0,0,0.28222222,151.88211,161.24942)"
                 id="g3793" />
              <g
                 id="g3895"
                 transform="matrix(0.28222222,0,0,0.28222222,151.88211,161.24942)"
                 inkscape:label="Hershey Text" />
              <g
                 inkscape:label="Hershey Text"
                 transform="matrix(0.28222222,0,0,0.28222222,151.88211,161.24942)"
                 id="g3999" />
              <g
                 id="g4105"
                 transform="matrix(0.28222222,0,0,0.28222222,151.88211,161.24942)"
                 inkscape:label="Hershey Text" />
              <g
                 inkscape:label="Hershey Text"
                 transform="matrix(0.28222222,0,0,0.28222222,151.88211,161.24942)"
                 id="g4213" />
              <g
                 id="g4323"
                 transform="matrix(0.28222222,0,0,0.28222222,151.88211,161.24942)"
                 inkscape:label="Hershey Text" />
              <g
                 inkscape:label="Hershey Text"
                 transform="matrix(0.28222222,0,0,0.28222222,151.88211,161.24942)"
                 id="g4435" />
              <g
                 transform="matrix(1.2691195,-8.438795e-4,-0.06302835,5.7407885,160.82498,460.88296)"
                 style="font-style:normal;font-variant:normal;font-weight:normal;font-stretch:normal;font-size:31.82224083px;line-height:125%;font-family:Garuda;-inkscape-font-specification:'Garuda, Normal';text-align:start;letter-spacing:0px;word-spacing:0px;writing-mode:lr-tb;text-anchor:start;fill:#000000;fill-opacity:1;stroke:none;stroke-width:1px;stroke-linecap:butt;stroke-linejoin:miter;stroke-opacity:1"
                 id="text3398" />
              <flowRoot
                 xml:space="preserve"
                 id="flowRoot3368"
                 style="font-style:normal;font-variant:normal;font-weight:normal;font-stretch:normal;font-size:180px;line-height:125%;font-family:Garuda;-inkscape-font-specification:'Garuda, Normal';text-align:start;letter-spacing:0px;word-spacing:0px;writing-mode:lr-tb;text-anchor:start;fill:#000000;fill-opacity:1;stroke:none;stroke-width:1px;stroke-linecap:butt;stroke-linejoin:miter;stroke-opacity:1"
                 transform="matrix(0.27644235,-1.8381564e-4,-0.00315852,0.2876863,-393.38796,-199.38542)"><flowRegion
                   id="flowRegion3370"><rect
                     id="rect3372"
                     width="1640.625"
                     height="559.375"
                     x="-190.625"
                     y="175.49213" /></flowRegion><flowPara
                   id="flowPara3374" /></flowRoot>              <flowRoot
                 xml:space="preserve"
                 id="flowRoot3376"
                 style="font-style:normal;font-variant:normal;font-weight:normal;font-stretch:normal;font-size:180px;line-height:125%;font-family:Garuda;-inkscape-font-specification:'Garuda, Normal';text-align:start;letter-spacing:0px;word-spacing:0px;writing-mode:lr-tb;text-anchor:start;fill:#000000;fill-opacity:1;stroke:none;stroke-width:1px;stroke-linecap:butt;stroke-linejoin:miter;stroke-opacity:1"
                 transform="matrix(0.27644235,-1.8381564e-4,-0.00315852,0.2876863,-393.38796,-199.38542)"><flowRegion
                   id="flowRegion3378"><rect
                     id="rect3380"
                     width="315.625"
                     height="518.75"
                     x="-284.375"
                     y="37.992126" /></flowRegion><flowPara
                   id="flowPara3382" /></flowRoot>              <text
                 xml:space="preserve"
                 style="font-style:normal;font-variant:normal;font-weight:normal;font-stretch:normal;font-size:25.38065338px;line-height:125%;font-family:Garuda;-inkscape-font-specification:'Garuda, Normal';text-align:start;letter-spacing:0px;word-spacing:0px;writing-mode:lr-tb;text-anchor:start;fill:#000000;fill-opacity:1;stroke:none;stroke-width:1px;stroke-linecap:butt;stroke-linejoin:miter;stroke-opacity:1"
                 x="-313.18579"
                 y="8.7216463"
                 id="text3430"
                 sodipodi:linespacing="125%"
                 transform="matrix(0.98026678,-6.5181172e-4,-0.01120014,1.0201379,0,0)"><tspan
                   sodipodi:role="line"
                   id="tspan3432"
                   x="-313.18579"
                   y="8.7216463" /></text>
              <g
                 id="g3358"
                 transform="translate(4.3840439,-0.2981754)">
                <g
                   id="g4251"
                   transform="matrix(1.0174326,-1.2812543e-4,0.00211554,0.82474197,13.682841,11.790708)">
                  <g
                     transform="matrix(-0.7721647,0.04747164,-0.03354589,-1.2929981,-656.58657,57.651316)"
                     style="font-style:normal;font-variant:normal;font-weight:normal;font-stretch:normal;font-size:181.60253906px;line-height:125%;font-family:'AR PL UKai CN';-inkscape-font-specification:'AR PL UKai CN';text-align:start;letter-spacing:0px;word-spacing:0px;writing-mode:lr-tb;text-anchor:start;fill:#00f400;fill-opacity:1;stroke:#0000f7;stroke-width:0.12762713;stroke-linecap:butt;stroke-linejoin:miter;stroke-miterlimit:4;stroke-dasharray:none;stroke-opacity:1"
                     id="text3362">
                    <g
                       transform="scale(1.2940525,0.77276616)"
                       style="font-style:normal;font-variant:normal;font-weight:normal;font-stretch:normal;font-size:183.17649841px;line-height:125%;font-family:'AR PL UKai CN';-inkscape-font-specification:'AR PL UKai CN';text-align:start;letter-spacing:0px;word-spacing:0px;writing-mode:lr-tb;text-anchor:start;fill:#0000f9;fill-opacity:1;stroke:#00ef00;stroke-width:0.12762713;stroke-linecap:butt;stroke-linejoin:miter;stroke-miterlimit:4;stroke-dasharray:none;stroke-opacity:1"
                       id="text3363">
                      <path
                         d="m -338.30843,-64.682919 c 7.27459,1.311811 11.86592,4.472082 13.77401,9.480815 0.35777,2.146599 0.29814,3.99506 -0.17888,5.545382 -0.95405,1.550322 -2.38511,2.265855 -4.2932,2.1466 -4.77022,-1.908089 -9.83858,-5.545383 -15.20508,-10.911882 -2.02734,-1.550322 -3.21989,-3.041016 -3.57766,-4.472082 -0.47703,-1.550322 -0.29814,-2.385111 0.53665,-2.504366 1.19255,-0.596278 4.18774,-0.355043 8.95796,0.718257 0,0 0.35934,0.0702 0.4602,0.08927 0.10086,0.01907 2.19453,0.453588 2.90374,0.69877 0.70922,0.245182 1.92804,0.64837 2.43766,0.882656 0.50961,0.234285 1.7794,0.817273 2.39094,1.220462 0.61154,0.403188 1.70296,1.133286 2.48437,1.917869 0.78141,0.784583 1.38835,1.448171 2.061,2.573149 m -59.08248,23.919677 c 46.62891,-6.082032 76.80056,-10.554114 90.51494,-13.416247 4.41246,-1.0733 9.54045,0.715533 15.38397,5.366499 1.78883,1.669577 2.44474,3.100644 1.96771,4.293199 -0.59627,1.0733 -2.02734,1.60995 -4.29319,1.60995 -39.83135,-0.119256 -70.65891,2.862132 -92.48267,8.944165 -2.02735,0.357766 -4.17395,0.298138 -6.4398,-0.178884 -2.1466,-0.715533 -3.99506,-1.848461 -5.54538,-3.398782 -1.66958,-2.027344 -1.29512,-3.112008 0.97074,-3.231264 0,0 48.21451,-6.299131 74.02892,-10.458808 m -42.4429,26.569669 c 12.04481,-2.027344 21.46599,-4.293199 28.26356,-6.797565 5.12799,-2.981389 11.86592,-1.192556 20.21381,5.366499 1.43107,1.908089 1.25218,3.816177 -0.53665,5.724265 -2.98139,1.788833 -5.72426,5.1876161 -8.22863,10.1963484 2.50437,1.6695775 3.75655,2.92176054 3.75655,3.75654927 -0.23851,0.95404433 -0.95405,1.49069423 -2.1466,1.60994973 -15.26471,1.3118109 -26.47473,2.7428772 -33.63006,4.2931991 -1.19255,0.2385113 -2.1466,0.2981388 -2.86213,0.1788833 -0.11925,0.5962777 -0.23851,1.1329276 -0.35777,1.6099497 -0.47702,2.0273445 -1.84846,1.7888335 -4.11431,-0.7155332 -1.55033,-1.3118108 -2.564,-3.041016 -3.04102,-5.1876156 -2.26585,-7.2745875 -4.71059,-12.9392257 -7.33422,-16.9939137 -1.19255,-1.788833 -1.43106,-3.100643 -0.71553,-3.935432 0.35777,-0.715533 1.25218,-0.894417 2.68325,-0.53665 3.93543,0.238511 6.65772,0.723238 8.08879,1.438771 0,0 1.09645,-0.194165 1.43578,-0.259661 0.33933,-0.06549 2.99092,-0.562489 4.02393,-0.732006 1.033,-0.169517 2.00595,-0.377562 2.41135,-0.454615 0.4054,-0.07705 1.74442,-0.355434 2.32623,-0.475301 0.58181,-0.119867 2.10641,-0.441328 2.73069,-0.582988 0.62427,-0.141661 2.08092,-0.463122 2.67547,-0.610232 0.59455,-0.147109 2.50561,-0.610231 3.01097,-0.746443 0.50537,-0.136212 1.80913,-0.484916 2.1234,-0.572092 m -18.45739,9.617102 c 1.0733,-0.477022 9.96385,-2.269708 26.65962,-5.370352 1.90809,-0.477022 3.33916,-0.298139 4.2932,0.53665 0.71553,0.715533 0.89442,1.788833 0.53665,3.219899 -0.83479,3.577666 -1.78883,6.8571933 -2.86213,9.8385816 l -0.35777,0 c -9.65969,2.2658551 -18.36535,4.05468812 -26.11696,5.366499 -1.19255,-6.7975654 -1.88557,-11.3408336 -2.12408,-13.6066886 0,0 1.06971,-0.319379 1.20785,-0.348274 0.13813,-0.0289 1.2361,-0.290646 1.77969,-0.410513 0.54359,-0.119867 2.41218,-0.517607 2.77315,-0.588438 0.36098,-0.07083 3.53405,-0.705853 4.15866,-0.829138 0.62461,-0.123286 3.15909,-0.639543 3.93985,-0.778239 0.78076,-0.138696 2.59065,-0.484844 3.06629,-0.577468 0.47564,-0.09262 2.14038,-0.414086 2.63726,-0.501261 m -60.20807,41.224671 c 5.12799,10.017465 5.74056,24.117562 1.80513,42.244403 -2.98139,8.228631 -2.32549,14.906941 1.96771,20.034929 1.0733,1.788833 2.26586,2.265856 3.57767,1.431067 3.93543,-3.577666 5.96278,-11.031137 6.08203,-22.360413 0.11925,-19.080885 0.41739,-30.7083 0.89442,-34.882243 7.15533,-2.265855 25.63994,-5.187616 55.45382,-8.765282 7.63235,-0.477022 18.54423,-1.0733 32.73564,-1.788833 1.90809,-0.119255 3.21991,0.357767 3.93544,1.431067 1.0733,0.477022 1.66958,3.041016 1.78883,7.691981 1.0733,18.96163 0.59628,33.808944 -1.43107,44.541942 -0.83479,4.650966 -3.27952,6.67831 -7.33421,6.082032 -4.05469,-0.834789 -7.93049,-1.550322 -11.62742,-2.146599 -1.90809,-0.715533 -2.92176,-0.655906 -3.04101,0.178883 0,0.834789 0.6559,2.146599 1.96771,3.935432 8.94417,7.870865 14.48955,13.833642 16.63615,17.888331 1.19255,1.78883 2.38511,2.56399 3.57767,2.32548 1.55032,-0.35777 3.16027,-2.02734 4.82985,-5.00873 4.41245,-7.513099 7.45347,-25.401429 9.12304,-53.66499 0.47703,-11.090765 1.43107,-17.828702 2.86214,-20.213813 2.26585,-2.862133 2.50436,-4.650966 0.71553,-5.366499 -1.90809,-1.908088 -5.3665,-3.99506 -10.37523,-6.260915 -2.98139,-1.908089 -6.14166,-2.206228 -9.48082,-0.894417 -3.93543,1.0733 -10.79263,2.027344 -20.57158,2.862133 -18.36535,1.550322 -33.74931,3.518038 -46.15189,5.903149 -9.06342,1.908089 -17.94796,3.398783 -26.65361,4.472082 -2.1466,-2.146599 -5.42613,-3.100643 -9.83858,-2.862132 -1.78883,0.715533 -2.26586,1.788832 -1.43107,3.219899 0,0 0.1539,0.319383 0.1953,0.398386 0.0414,0.079 0.20597,0.418172 0.26543,0.540763 0.0595,0.122591 0.21977,0.490365 0.24737,0.55166 0.0276,0.0613 0.52915,1.242447 0.5862,1.373438 0.0571,0.13099 0.55088,1.410742 0.6528,1.737652 0.10193,0.326909 0.44167,1.394814 0.52661,1.694481 0.0849,0.299667 0.45015,1.66179 0.50112,1.906972 0.051,0.245182 0.28639,1.295186 0.34044,1.549462 0.0541,0.254276 0.27027,1.433192 0.28829,1.556477 0.018,0.123285 0.24924,1.652794 0.32131,2.26922 0.0721,0.616427 0.16816,1.533361 0.21621,2.149788 0.048,0.616426 0.0901,1.371549 0.12612,2.072734 0.036,0.701185 0.0661,1.895512 0.0721,2.419475 0.006,0.523962 0,1.903217 -0.012,2.373242 m 23.35927,-4.269567 c 3.2199,5.127988 6.07337,12.034523 8.45848,20.501666 0.47702,2.623622 1.60995,4.710594 3.39878,6.260915 2.26586,2.265855 3.56705,2.496194 3.92482,0.707361 0.11925,-1.192555 0.17888,-2.623622 0.17888,-4.2932 1.0733,0.119256 2.26585,0.119256 3.57766,0 6.20129,-1.192555 16.21876,-2.146599 30.0524,-2.862132 1.19255,-0.119256 1.90809,-0.715534 2.1466,-1.788833 0,-0.834789 -1.13293,-2.086972 -3.39878,-3.75655 3.21989,-6.082032 6.32054,-9.957837 9.30193,-11.627414 1.90809,-1.908089 2.1466,-3.875805 0.71553,-5.903149 -1.78883,-1.550322 -5.42613,-3.875805 -10.91188,-6.976449 -1.90809,-0.834789 -4.05469,-0.894416 -6.4398,-0.178883 -8.5864,2.862133 -19.25977,5.187616 -32.02011,6.976449 -1.55032,-0.715533 -3.8758,-1.132928 -6.97645,-1.252183 -1.43107,-0.119256 -2.26586,0.05963 -2.50437,0.53665 -0.71553,0.834789 -0.49205,2.122387 0.58124,3.791964 0,0 0.89152,1.482721 1.10773,1.875693 0.21621,0.392971 1.19517,2.219135 1.3273,2.504232 0.13212,0.285098 0.92449,1.948244 1.32369,2.852694 0.3992,0.904449 0.95977,2.1685 1.49487,3.617799 0.53509,1.449299 1.21458,3.247301 1.74118,4.91454 0.5266,1.667239 0.89182,2.931289 0.89182,2.931289 m 3.87512,-16.406179 c 0.47703,2.742877 1.4907,7.691982 3.04102,14.847314 6.79757,-0.954045 14.54918,-2.385111 23.25483,-4.2932 0.59627,-0.238513 1.25218,-0.298138 1.96771,-0.178883 2.74288,-8.109376 3.57767,-12.760342 2.50437,-13.952897 -1.55032,-1.550322 -11.81231,-0.296124 -30.77394,3.639309 0,0 0.49891,2.660052 0.57699,3.006792 0.0781,0.34674 0.60058,2.997374 0.66064,3.259355 0.0601,0.261981 0.59458,2.874089 0.67266,3.190008 0.0781,0.315918 0.69067,3.336409 0.73271,3.490515 0.0421,0.154107 0.4024,1.803048 0.4024,1.803048"
                         id="path4168"
                         inkscape:connector-curvature="0"
                         sodipodi:nodetypes="ccccccccccccccccccccccccccccccccccccccccccccccccccccccccccccccccccccccccccccccccccccccccccccssssscccssssssccssssscccccccccccccscscsssc" />
                    </g>
                  </g>
                </g>
              </g>
            </g>
          </g>
        </g>
      </g>
    </g>
  </g>
  <WCB
     pausedposy="0"
     pausedposx="0"
     lastknownposy="0"
     lastknownposx="0"
     lastpathnc="0"
     lastpath="0"
     node="0"
     layer="0" />
</svg>
