<?xml version="1.0" encoding="UTF-8" standalone="no"?>
<!-- Created with Inkscape (http://www.inkscape.org/) -->

<svg
   xmlns:dc="http://purl.org/dc/elements/1.1/"
   xmlns:cc="http://creativecommons.org/ns#"
   xmlns:rdf="http://www.w3.org/1999/02/22-rdf-syntax-ns#"
   xmlns:svg="http://www.w3.org/2000/svg"
   xmlns="http://www.w3.org/2000/svg"
   xmlns:sodipodi="http://sodipodi.sourceforge.net/DTD/sodipodi-0.dtd"
   xmlns:inkscape="http://www.inkscape.org/namespaces/inkscape"
   width="160mm"
   height="160mm"
   viewBox="0 0 160.00001 160.00001"
   id="svg4258"
   version="1.1"
   inkscape:version="0.91 r"
   sodipodi:docname="16.svg">
  <sodipodi:namedview
     inkscape:document-units="mm"
     pagecolor="#ffffff"
     bordercolor="#666666"
     borderopacity="1.0"
     inkscape:pageopacity="0.0"
     inkscape:pageshadow="2"
     inkscape:zoom="0.70710678"
     inkscape:cx="188.5945"
     inkscape:cy="298.711"
     inkscape:current-layer="g4251"
     id="namedview4262"
     showgrid="false"
     inkscape:window-width="1297"
     inkscape:window-height="592"
     inkscape:window-x="65"
     inkscape:window-y="24"
     inkscape:window-maximized="1"
     units="mm"
     inkscape:snap-nodes="false" />
  <defs
     id="defs4260" />
  <metadata
     id="metadata4264">
    <rdf:RDF>
      <cc:Work
         rdf:about="">
        <dc:format>image/svg+xml</dc:format>
        <dc:type
           rdf:resource="http://purl.org/dc/dcmitype/StillImage" />
        <dc:title />
      </cc:Work>
    </rdf:RDF>
  </metadata>
  <g
     transform="translate(0,-49.999993)"
     id="layer1"
     inkscape:groupmode="layer"
     inkscape:label="Layer 1">
    <g
       transform="matrix(0.39181791,0.93530971,-0.9095463,0.38102517,226.38736,259.20817)"
       style="font-style:normal;font-variant:normal;font-weight:300;font-stretch:normal;font-size:53.77825546px;line-height:125%;font-family:'AR PL UMing TW';-inkscape-font-specification:'AR PL UMing TW, Light';text-align:start;letter-spacing:0px;word-spacing:0px;writing-mode:lr-tb;text-anchor:start;fill:#000000;fill-opacity:1;stroke:none;stroke-width:1px;stroke-linecap:butt;stroke-linejoin:miter;stroke-opacity:1"
       id="text3428">
      <g
         id="g3391"
         transform="matrix(0.38958785,-0.9546167,0.8965485,0.3738953,-71.862448,-226.06917)">
        <g
           id="g3414">
          <g
             id="g3437">
            <g
               id="g3460">
              <g
                 id="g3693"
                 transform="matrix(0.28222222,0,0,0.28222222,151.88211,161.24942)"
                 inkscape:label="Hershey Text" />
              <g
                 inkscape:label="Hershey Text"
                 transform="matrix(0.28222222,0,0,0.28222222,151.88211,161.24942)"
                 id="g3793" />
              <g
                 id="g3895"
                 transform="matrix(0.28222222,0,0,0.28222222,151.88211,161.24942)"
                 inkscape:label="Hershey Text" />
              <g
                 inkscape:label="Hershey Text"
                 transform="matrix(0.28222222,0,0,0.28222222,151.88211,161.24942)"
                 id="g3999" />
              <g
                 id="g4105"
                 transform="matrix(0.28222222,0,0,0.28222222,151.88211,161.24942)"
                 inkscape:label="Hershey Text" />
              <g
                 inkscape:label="Hershey Text"
                 transform="matrix(0.28222222,0,0,0.28222222,151.88211,161.24942)"
                 id="g4213" />
              <g
                 id="g4323"
                 transform="matrix(0.28222222,0,0,0.28222222,151.88211,161.24942)"
                 inkscape:label="Hershey Text" />
              <g
                 inkscape:label="Hershey Text"
                 transform="matrix(0.28222222,0,0,0.28222222,151.88211,161.24942)"
                 id="g4435" />
              <g
                 transform="matrix(1.2691195,-8.438795e-4,-0.06302835,5.7407885,160.82498,460.88296)"
                 style="font-style:normal;font-variant:normal;font-weight:normal;font-stretch:normal;font-size:31.82224083px;line-height:125%;font-family:Garuda;-inkscape-font-specification:'Garuda, Normal';text-align:start;letter-spacing:0px;word-spacing:0px;writing-mode:lr-tb;text-anchor:start;fill:#000000;fill-opacity:1;stroke:none;stroke-width:1px;stroke-linecap:butt;stroke-linejoin:miter;stroke-opacity:1"
                 id="text3398" />
              <flowRoot
                 xml:space="preserve"
                 id="flowRoot3368"
                 style="font-style:normal;font-variant:normal;font-weight:normal;font-stretch:normal;font-size:180px;line-height:125%;font-family:Garuda;-inkscape-font-specification:'Garuda, Normal';text-align:start;letter-spacing:0px;word-spacing:0px;writing-mode:lr-tb;text-anchor:start;fill:#000000;fill-opacity:1;stroke:none;stroke-width:1px;stroke-linecap:butt;stroke-linejoin:miter;stroke-opacity:1"
                 transform="matrix(0.27644235,-1.8381564e-4,-0.00315852,0.2876863,-393.38796,-199.38542)"><flowRegion
                   id="flowRegion3370"><rect
                     id="rect3372"
                     width="1640.625"
                     height="559.375"
                     x="-190.625"
                     y="175.49213" /></flowRegion><flowPara
                   id="flowPara3374" /></flowRoot>              <flowRoot
                 xml:space="preserve"
                 id="flowRoot3376"
                 style="font-style:normal;font-variant:normal;font-weight:normal;font-stretch:normal;font-size:180px;line-height:125%;font-family:Garuda;-inkscape-font-specification:'Garuda, Normal';text-align:start;letter-spacing:0px;word-spacing:0px;writing-mode:lr-tb;text-anchor:start;fill:#000000;fill-opacity:1;stroke:none;stroke-width:1px;stroke-linecap:butt;stroke-linejoin:miter;stroke-opacity:1"
                 transform="matrix(0.27644235,-1.8381564e-4,-0.00315852,0.2876863,-393.38796,-199.38542)"><flowRegion
                   id="flowRegion3378"><rect
                     id="rect3380"
                     width="315.625"
                     height="518.75"
                     x="-284.375"
                     y="37.992126" /></flowRegion><flowPara
                   id="flowPara3382" /></flowRoot>              <text
                 xml:space="preserve"
                 style="font-style:normal;font-variant:normal;font-weight:normal;font-stretch:normal;font-size:25.38065338px;line-height:125%;font-family:Garuda;-inkscape-font-specification:'Garuda, Normal';text-align:start;letter-spacing:0px;word-spacing:0px;writing-mode:lr-tb;text-anchor:start;fill:#000000;fill-opacity:1;stroke:none;stroke-width:1px;stroke-linecap:butt;stroke-linejoin:miter;stroke-opacity:1"
                 x="-313.18579"
                 y="8.7216463"
                 id="text3430"
                 sodipodi:linespacing="125%"
                 transform="matrix(0.98026678,-6.5181172e-4,-0.01120014,1.0201379,0,0)"><tspan
                   sodipodi:role="line"
                   id="tspan3432"
                   x="-313.18579"
                   y="8.7216463" /></text>
              <g
                 id="g3358"
                 transform="translate(4.3840439,-0.2981754)">
                <g
                   id="g4251"
                   transform="matrix(1.0174326,-1.2812543e-4,0.00211554,0.82474197,13.682841,11.790708)">
                  <g
                     transform="matrix(-0.84976258,-0.03437613,0.04220402,-1.175092,-660.41768,17.317931)"
                     style="font-style:normal;font-variant:normal;font-weight:normal;font-stretch:normal;font-size:165.22503662px;line-height:125%;font-family:'AR PL UKai CN';-inkscape-font-specification:'AR PL UKai CN';text-align:start;letter-spacing:0px;word-spacing:0px;writing-mode:lr-tb;text-anchor:start;fill:#0000f7;fill-opacity:1;stroke:#00f900;stroke-width:0.12762713;stroke-linecap:butt;stroke-linejoin:miter;stroke-miterlimit:4;stroke-dasharray:none;stroke-opacity:1"
                     id="text3362">
                    <path
                       d="m -453.72819,-2.2041805 c 6.56167,-0.7529787 15.48984,-2.4202886 26.78452,-5.0019298 l 0,-20.9758347 c -0.10757,-7.852492 -1.77488,-14.199027 -5.00193,-19.039604 -0.53784,-1.721094 -0.59162,-2.796778 -0.16135,-3.227051 2.25894,-1.721095 4.57166,-1.613526 6.93816,0.322705 2.68921,1.505957 4.84058,2.904346 6.4541,4.195167 3.22705,2.151367 4.03382,4.571656 2.42029,7.260866 -2.25893,7.744923 -3.3884,17.479862 -3.3884,29.2048157 3.65733,-2.1513677 7.74492,-2.9043467 12.26279,-2.2589357 3.01192,0.860547 4.89437,1.828662 5.64735,2.904346 0.53784,0.9681154 0.3227,1.8286625 -0.64542,2.5816412 -0.43027,0.4302735 -6.29275,2.0975834 -17.58743,5.0019298 -0.21513,4.1951669 -0.3227,8.2289813 -0.3227,12.101443 1.72109,0.107569 4.4103,0.860547 8.06763,2.258936 2.47407,0.752979 4.24895,1.936231 5.32463,3.549757 1.07569,1.936231 1.55975,3.549756 1.45218,4.840577 -0.53785,1.828663 -1.45218,2.742994 -2.743,2.742994 -2.25893,-0.215137 -6.34653,-3.280836 -12.26279,-9.197097 -0.53785,28.61319 -0.75298,44.9098 -0.64541,48.88983 0.10757,6.023829 -1.34461,10.326565 -4.35652,12.908206 -0.75298,0.860547 -1.45218,0.914332 -2.09759,0.161353 -0.86055,-0.322705 -1.61352,-1.452173 -2.25893,-3.388404 -2.79678,-6.02383 -3.54976,-11.348465 -2.25894,-15.973905 1.29082,-4.410304 2.31272,-8.766824 3.0657,-13.069559 0,-0.215137 0.48406,-10.487917 1.45217,-30.818342 -4.30273,8.713039 -8.92817,16.02769 -13.87632,21.943951 -11.29468,13.661185 -18.23284,20.491777 -20.81448,20.491777 -1.07569,-0.107569 -1.39839,-0.699195 -0.96812,-1.774879 16.3504,-21.190971 27.48373,-39.047323 33.39999,-53.56905456 -2.25894,0.32270516 -4.35652,0.69919456 -6.29275,1.12946806 -8.82061,1.8286625 -15.22093,1.6135257 -19.20096,-0.6454103 -2.79678,-1.72109413 -2.23247,-2.9092635 1.64,-3.5546738 0,0 3.5776,-0.4267535 6.07319,-0.8439837 2.49559,-0.4172303 7.5356,-1.3143039 10.44375,-1.9305812 2.90814,-0.6162772 6.70566,-1.4161264 7.84916,-1.678372 m 35.63058,-1.996249 c 6.88438,-1.0756837 13.55362,-2.3127205 20.00772,-3.7111095 -0.10757,-8.928175 -0.21513,-17.157157 -0.3227,-24.686944 -0.10757,-5.593556 -1.99001,-11.025759 -5.64734,-16.29661 -0.75298,-1.828662 -0.80676,-2.95813 -0.16135,-3.388404 2.25893,-1.828663 4.733,-1.774878 7.42221,0.161353 3.33462,2.043799 5.86248,3.711109 7.58357,5.00193 2.68921,1.936231 3.33463,4.356519 1.93624,7.260865 -2.25894,7.852492 -3.38841,17.748783 -3.38841,29.688874 4.30273,-1.505957 8.60547,-3.065699 12.90821,-4.679224 3.44219,-1.505957 6.93816,-1.936231 10.48791,-1.290821 3.33462,0.64541 5.48599,1.66731 6.45411,3.065699 0.53784,0.860547 0.3227,1.828663 -0.64541,2.904346 -0.64541,0.322705 -10.38035,3.065699 -29.20482,8.2289816 -0.10755,2.258936 -0.16135,4.5716562 -0.16135,6.93816069 6.23897,7.31464981 12.2628,13.93010571 18.07149,19.84636671 6.34653,6.884377 17.64121,14.521732 33.88404,22.912066 1.39839,0.968115 2.0438,1.66731 1.93623,2.097583 -0.10757,0.537842 -0.69919,0.860547 -1.77488,0.968116 -3.65733,0.430273 -11.02576,0.484057 -22.1053,0.161352 -3.33462,-0.107568 -5.86248,-1.29082 -7.58357,-3.549757 -8.49791,-12.047659 -16.02769,-23.718828 -22.58936,-35.0135083 -0.21516,36.1429773 -0.26893,56.6347543 -0.16136,61.4753313 0,3.657325 -0.53784,6.830592 -1.61352,9.519802 -1.18325,2.366504 -2.15137,3.764893 -2.90435,4.195167 -0.86055,0.968115 -1.66731,1.075684 -2.42029,0.322705 -0.86055,-0.322705 -1.66731,-1.505958 -2.42029,-3.549757 -0.53784,-0.968115 -0.86054,-1.828662 -0.96811,-2.581641 -2.15137,-4.517872 -2.09758,-11.456033 0.16135,-20.814482 1.61353,-7.31465 2.58164,-23.234771 2.90435,-47.7603624 -8.71304,16.0276894 -19.90015,29.5275214 -33.56134,40.4994964 -0.96811,0.860547 -1.77488,1.237036 -2.42029,1.129468 -1.18325,-0.107569 -1.45217,-0.699195 -0.80676,-1.774878 11.18711,-13.768753 19.20096,-24.418023 24.04153,-31.94781 4.0876,-6.561672 7.63736,-13.4460481 10.64927,-20.6531298 -0.86055,0.1075684 -1.45217,0.2151368 -1.77487,0.3227051 -6.77681,1.9362309 -12.58551,1.6135258 -17.42608,-0.9681154 -3.11949,-1.9362309 -2.54782,-3.2873918 1.64735,-4.0403705 0,0 4.14504,-0.6791468 4.48444,-0.7394134 0.3394,-0.060267 7.12964,-1.230803 8.34372,-1.506161 1.21408,-0.275358 5.7457,-1.127656 6.46568,-1.32434"
                       id="path4167"
                       inkscape:connector-curvature="0"
                       sodipodi:nodetypes="cccccccccccccccccccccccccccccccccccccccccccccccccccccccccccccccccccccccssc" />
                  </g>
                </g>
              </g>
            </g>
          </g>
        </g>
      </g>
    </g>
  </g>
  <WCB
     pausedposy="0"
     pausedposx="0"
     lastknownposy="0"
     lastknownposx="0"
     lastpathnc="0"
     lastpath="0"
     node="0"
     layer="0" />
</svg>
