<?xml version="1.0" encoding="UTF-8" standalone="no"?>
<!-- Created with Inkscape (http://www.inkscape.org/) -->

<svg
   xmlns:dc="http://purl.org/dc/elements/1.1/"
   xmlns:cc="http://creativecommons.org/ns#"
   xmlns:rdf="http://www.w3.org/1999/02/22-rdf-syntax-ns#"
   xmlns:svg="http://www.w3.org/2000/svg"
   xmlns="http://www.w3.org/2000/svg"
   xmlns:sodipodi="http://sodipodi.sourceforge.net/DTD/sodipodi-0.dtd"
   xmlns:inkscape="http://www.inkscape.org/namespaces/inkscape"
   width="160mm"
   height="160mm"
   viewBox="0 0 160.00001 160.00001"
   id="svg4258"
   version="1.1"
   inkscape:version="0.91 r"
   sodipodi:docname="17.svg">
  <sodipodi:namedview
     inkscape:document-units="mm"
     pagecolor="#ffffff"
     bordercolor="#666666"
     borderopacity="1.0"
     inkscape:pageopacity="0.0"
     inkscape:pageshadow="2"
     inkscape:zoom="0.5"
     inkscape:cx="-132.80291"
     inkscape:cy="315.54841"
     inkscape:current-layer="g3358"
     id="namedview4262"
     showgrid="false"
     inkscape:window-width="1297"
     inkscape:window-height="592"
     inkscape:window-x="65"
     inkscape:window-y="24"
     inkscape:window-maximized="1"
     units="mm"
     inkscape:snap-nodes="false" />
  <defs
     id="defs4260" />
  <metadata
     id="metadata4264">
    <rdf:RDF>
      <cc:Work
         rdf:about="">
        <dc:format>image/svg+xml</dc:format>
        <dc:type
           rdf:resource="http://purl.org/dc/dcmitype/StillImage" />
        <dc:title />
      </cc:Work>
    </rdf:RDF>
  </metadata>
  <g
     transform="translate(0,-49.999993)"
     id="layer1"
     inkscape:groupmode="layer"
     inkscape:label="Layer 1">
    <g
       transform="matrix(0.39181791,0.93530971,-0.9095463,0.38102517,226.38736,259.20817)"
       style="font-style:normal;font-variant:normal;font-weight:300;font-stretch:normal;font-size:53.77825546px;line-height:125%;font-family:'AR PL UMing TW';-inkscape-font-specification:'AR PL UMing TW, Light';text-align:start;letter-spacing:0px;word-spacing:0px;writing-mode:lr-tb;text-anchor:start;fill:#000000;fill-opacity:1;stroke:none;stroke-width:1px;stroke-linecap:butt;stroke-linejoin:miter;stroke-opacity:1"
       id="text3428">
      <g
         id="g3391"
         transform="matrix(0.38958785,-0.9546167,0.8965485,0.3738953,-71.862448,-226.06917)">
        <g
           id="g3414">
          <g
             id="g3437">
            <g
               id="g3460">
              <g
                 id="g3693"
                 transform="matrix(0.28222222,0,0,0.28222222,151.88211,161.24942)"
                 inkscape:label="Hershey Text" />
              <g
                 inkscape:label="Hershey Text"
                 transform="matrix(0.28222222,0,0,0.28222222,151.88211,161.24942)"
                 id="g3793" />
              <g
                 id="g3895"
                 transform="matrix(0.28222222,0,0,0.28222222,151.88211,161.24942)"
                 inkscape:label="Hershey Text" />
              <g
                 inkscape:label="Hershey Text"
                 transform="matrix(0.28222222,0,0,0.28222222,151.88211,161.24942)"
                 id="g3999" />
              <g
                 id="g4105"
                 transform="matrix(0.28222222,0,0,0.28222222,151.88211,161.24942)"
                 inkscape:label="Hershey Text" />
              <g
                 inkscape:label="Hershey Text"
                 transform="matrix(0.28222222,0,0,0.28222222,151.88211,161.24942)"
                 id="g4213" />
              <g
                 id="g4323"
                 transform="matrix(0.28222222,0,0,0.28222222,151.88211,161.24942)"
                 inkscape:label="Hershey Text" />
              <g
                 inkscape:label="Hershey Text"
                 transform="matrix(0.28222222,0,0,0.28222222,151.88211,161.24942)"
                 id="g4435" />
              <g
                 transform="matrix(1.2691195,-8.438795e-4,-0.06302835,5.7407885,160.82498,460.88296)"
                 style="font-style:normal;font-variant:normal;font-weight:normal;font-stretch:normal;font-size:31.82224083px;line-height:125%;font-family:Garuda;-inkscape-font-specification:'Garuda, Normal';text-align:start;letter-spacing:0px;word-spacing:0px;writing-mode:lr-tb;text-anchor:start;fill:#000000;fill-opacity:1;stroke:none;stroke-width:1px;stroke-linecap:butt;stroke-linejoin:miter;stroke-opacity:1"
                 id="text3398" />
              <flowRoot
                 xml:space="preserve"
                 id="flowRoot3368"
                 style="font-style:normal;font-variant:normal;font-weight:normal;font-stretch:normal;font-size:180px;line-height:125%;font-family:Garuda;-inkscape-font-specification:'Garuda, Normal';text-align:start;letter-spacing:0px;word-spacing:0px;writing-mode:lr-tb;text-anchor:start;fill:#000000;fill-opacity:1;stroke:none;stroke-width:1px;stroke-linecap:butt;stroke-linejoin:miter;stroke-opacity:1"
                 transform="matrix(0.27644235,-1.8381564e-4,-0.00315852,0.2876863,-393.38796,-199.38542)"><flowRegion
                   id="flowRegion3370"><rect
                     id="rect3372"
                     width="1640.625"
                     height="559.375"
                     x="-190.625"
                     y="175.49213" /></flowRegion><flowPara
                   id="flowPara3374" /></flowRoot>              <flowRoot
                 xml:space="preserve"
                 id="flowRoot3376"
                 style="font-style:normal;font-variant:normal;font-weight:normal;font-stretch:normal;font-size:180px;line-height:125%;font-family:Garuda;-inkscape-font-specification:'Garuda, Normal';text-align:start;letter-spacing:0px;word-spacing:0px;writing-mode:lr-tb;text-anchor:start;fill:#000000;fill-opacity:1;stroke:none;stroke-width:1px;stroke-linecap:butt;stroke-linejoin:miter;stroke-opacity:1"
                 transform="matrix(0.27644235,-1.8381564e-4,-0.00315852,0.2876863,-393.38796,-199.38542)"><flowRegion
                   id="flowRegion3378"><rect
                     id="rect3380"
                     width="315.625"
                     height="518.75"
                     x="-284.375"
                     y="37.992126" /></flowRegion><flowPara
                   id="flowPara3382" /></flowRoot>              <text
                 xml:space="preserve"
                 style="font-style:normal;font-variant:normal;font-weight:normal;font-stretch:normal;font-size:25.38065338px;line-height:125%;font-family:Garuda;-inkscape-font-specification:'Garuda, Normal';text-align:start;letter-spacing:0px;word-spacing:0px;writing-mode:lr-tb;text-anchor:start;fill:#000000;fill-opacity:1;stroke:none;stroke-width:1px;stroke-linecap:butt;stroke-linejoin:miter;stroke-opacity:1"
                 x="-313.18579"
                 y="8.7216463"
                 id="text3430"
                 sodipodi:linespacing="125%"
                 transform="matrix(0.98026678,-6.5181172e-4,-0.01120014,1.0201379,0,0)"><tspan
                   sodipodi:role="line"
                   id="tspan3432"
                   x="-313.18579"
                   y="8.7216463" /></text>
              <g
                 id="g3358"
                 transform="translate(4.3840439,-0.2981754)">
                <g
                   id="g4251"
                   transform="matrix(-1.0158944,0.07230338,-0.0561418,-0.82199528,-655.57311,63.207063)">
                  <text
                     xml:space="preserve"
                     style="font-style:normal;font-variant:normal;font-weight:normal;font-stretch:normal;font-size:55.41417313px;line-height:125%;font-family:Garuda;-inkscape-font-specification:'Garuda, Normal';text-align:start;letter-spacing:0px;word-spacing:0px;writing-mode:lr-tb;text-anchor:start;fill:#000000;fill-opacity:1;stroke:none;stroke-width:1px;stroke-linecap:butt;stroke-linejoin:miter;stroke-opacity:1"
                     x="-412.46655"
                     y="10.733678"
                     id="text4169"
                     sodipodi:linespacing="125%"
                     transform="matrix(0.88257409,-5.8685263e-4,-0.01243989,1.1330576,0,0)"><tspan
                       sodipodi:role="line"
                       id="tspan4171"
                       x="-412.46655"
                       y="10.733678" /></text>
                  <g
                     transform="matrix(0.85883247,-5.7106604e-4,-0.01278378,1.1643799,0,0)"
                     style="font-style:normal;font-variant:normal;font-weight:normal;font-stretch:normal;font-size:168.1186676px;line-height:125%;font-family:'AR PL UKai CN';-inkscape-font-specification:'AR PL UKai CN';text-align:start;letter-spacing:0px;word-spacing:0px;writing-mode:lr-tb;text-anchor:start;fill:#0000f4;fill-opacity:1;stroke:#00ed0b;stroke-width:0.45487621;stroke-linecap:butt;stroke-linejoin:miter;stroke-miterlimit:4;stroke-dasharray:none;stroke-opacity:1"
                     id="text4180">
                    <path
                       d="m -416.43174,-52.253388 c -4.37809,10.288512 -12.25381,27.308849 -19.03985,36.831196 -6.34823,9.1939893 -13.95517,18.7710617 -22.8208,28.731217 -1.09452,1.094523 -1.86068,2.024867 -2.29849,2.791033 -0.43781,1.422879 0.2189,1.970141 1.97014,1.641784 4.26863,-0.656714 12.25865,-8.0447415 23.97004,-22.1640826 1.09453,-1.4228793 2.35323,-2.9004848 3.7761,-4.4328164 2.2985,3.6119245 3.44775,10.5621428 3.44775,20.850655 -0.10945,1.751236 -0.16418,3.557198 -0.16418,5.417887 -0.10945,12.587009 -1.97014,25.338197 -5.58206,38.253564 -1.64179,5.363161 -0.43781,10.671595 3.61192,15.925303 0.10945,0.328357 0.38308,0.656714 0.82089,0.985071 2.07959,1.751236 3.7761,1.094522 5.08953,-1.970141 1.64179,-4.596995 2.46268,-9.522346 2.46268,-14.776055 0.65671,-30.974989 1.53233,-49.9649553 2.62685,-56.9698998 0.76617,-3.0646633 0.60199,-5.1989823 -0.49253,-6.4029571 -1.97014,-2.4079494 -3.72138,-4.3780901 -5.25371,-5.9104221 -0.43781,-0.437809 -0.98507,-0.930344 -1.64178,-1.477605 4.04973,-5.363161 8.31837,-11.492487 12.80591,-18.38798 3.28357,-5.36316 6.2935,-9.412893 9.02981,-12.1492 1.09452,-1.094523 1.36815,-2.517402 0.82089,-4.268638 -0.43781,-1.422879 -2.29849,-3.557198 -5.58206,-6.402957 -3.06467,-2.079593 -5.69152,-3.174116 -7.88056,-3.283568 -2.2985,0.109452 -2.95522,1.477605 -1.97015,4.10446 1.42288,3.721377 1.42288,7.114397 0,10.17906 m 30.24585,44.14092952 c -1.31343,-0.65671352 -9.94245,-1.01674042 -12.67876,-1.45454942 -1.42288,-0.4378091 -2.35322,-0.3830829 -2.79103,0.1641784 -0.76617,0.7661658 -0.65671,2.07959287 0.32836,3.9402812 2.73631,6.0198742 4.92535,14.0098893 6.56713,23.9700443 0.32836,2.955211 1.31343,5.417887 2.95521,7.388028 2.07959,2.626854 3.39302,3.064663 3.94028,1.313427 0.43781,-1.094523 0.71145,-2.517402 0.8209,-4.268638 3.94028,-0.985071 11.82084,-1.970141 23.64168,-2.955211 1.09453,-0.109453 1.75124,-0.656714 1.97014,-1.641784 0,-0.985071 -1.4776,-2.353224 -4.43281,-4.10446 2.40795,-8.975085 5.0348,-14.8855069 7.88056,-17.7312656 2.62685,-2.73630647 2.62685,-4.9800778 0,-6.7313139 -2.2985,-1.3134271 -4.92535,-2.9552109 -7.88056,-4.9253516 -2.2985,-1.3134273 -5.74625,-0.5472615 -10.34324,2.2984974 -6.67659,2.2984975 -12.20393,3.9402813 -16.58202,4.92535163 m -0.34804,5.55023677 c 1.31343,-0.437809 9.43258,-2.4855736 17.42259,-4.23680968 2.62686,-0.43780903 4.21392,-0.21890451 4.76118,0.65671358 0.76617,0.7661658 0.65671,3.1741155 -0.32836,7.223849 -1.09452,3.9402814 -2.24377,8.1541924 -3.44775,12.6417354 -4.70645,1.094523 -8.97508,2.189045 -12.80591,3.283568 -1.42288,-10.945226 -2.35803,-20.9634651 -2.35803,-23.69977163 m -3.1725,-16.68811137 c 12.91537,-3.721377 28.18715,-6.402957 45.2617,-8.044741 0.10945,0.766166 0.60199,1.751236 1.47761,2.955211 1.42287,3.064663 2.13431,7.169123 2.13431,12.313379 0.32836,13.9004367 0.43781,36.775958 0.32836,68.626565 -0.10945,4.049734 -0.82089,6.786041 -2.13432,8.20892 -1.31343,0.656713 -6.56713,-0.218905 -15.76112,-2.626854 -1.42288,-0.437809 -2.18905,-0.218905 -2.2985,0.656713 0.10945,0.985071 0.76617,2.079593 1.97014,3.283568 7.3333,6.676587 13.35317,12.641735 18.05962,17.895444 1.42288,1.094523 3.00994,0.656714 4.76118,-1.313427 5.36316,-7.333301 7.71638,-15.596947 7.05967,-24.790936 -1.31343,-32.835677 -1.42288,-57.5718877 -0.32836,-74.208631 0.76617,-3.39302 0.76617,-5.746244 0,-7.059671 -0.98507,-1.422879 -3.00994,-2.955211 -6.0746,-4.596994 6.56713,-0.656714 16.63674,-0.985071 30.20882,-0.985071 2.07959,-0.109452 3.44775,-0.601987 4.10446,-1.477605 0.43781,-1.313427 -0.2189,-2.736307 -1.97014,-4.268638 -5.91042,-4.049734 -10.83577,-5.636792 -14.77605,-4.761174 -12.25865,2.736307 -39.73117,7.388028 -82.41755,13.955163 -2.2985,0.109453 -2.57213,1.149249 -0.82089,3.11939 3.39302,3.064663 8.05431,4.404034 12.24385,3.755986 0,0 6.57596,-3.124673 11.32147,-4.585102"
                       id="path4185"
                       inkscape:connector-curvature="0"
                       sodipodi:nodetypes="ccccccccccccccccsccsccccccccccccccccccccccccccccccccccccccccccccccccccc" />
                  </g>
                </g>
              </g>
            </g>
          </g>
        </g>
      </g>
    </g>
  </g>
  <WCB
     pausedposy="0"
     pausedposx="0"
     lastknownposy="0"
     lastknownposx="0"
     lastpathnc="0"
     lastpath="0"
     node="0"
     layer="0" />
</svg>
