<?xml version="1.0" encoding="UTF-8" standalone="no"?>
<!-- Created with Inkscape (http://www.inkscape.org/) -->

<svg
   xmlns:dc="http://purl.org/dc/elements/1.1/"
   xmlns:cc="http://creativecommons.org/ns#"
   xmlns:rdf="http://www.w3.org/1999/02/22-rdf-syntax-ns#"
   xmlns:svg="http://www.w3.org/2000/svg"
   xmlns="http://www.w3.org/2000/svg"
   xmlns:sodipodi="http://sodipodi.sourceforge.net/DTD/sodipodi-0.dtd"
   xmlns:inkscape="http://www.inkscape.org/namespaces/inkscape"
   width="160mm"
   height="160mm"
   viewBox="0 0 160.00001 160.00001"
   id="svg4258"
   version="1.1"
   inkscape:version="0.91 r"
   sodipodi:docname="18.svg">
  <sodipodi:namedview
     inkscape:document-units="mm"
     pagecolor="#ffffff"
     bordercolor="#666666"
     borderopacity="1.0"
     inkscape:pageopacity="0.0"
     inkscape:pageshadow="2"
     inkscape:zoom="0.70710678"
     inkscape:cx="69.155971"
     inkscape:cy="270.64592"
     inkscape:current-layer="g4251"
     id="namedview4262"
     showgrid="false"
     inkscape:window-width="1297"
     inkscape:window-height="592"
     inkscape:window-x="65"
     inkscape:window-y="24"
     inkscape:window-maximized="1"
     units="mm"
     inkscape:snap-nodes="false" />
  <defs
     id="defs4260" />
  <metadata
     id="metadata4264">
    <rdf:RDF>
      <cc:Work
         rdf:about="">
        <dc:format>image/svg+xml</dc:format>
        <dc:type
           rdf:resource="http://purl.org/dc/dcmitype/StillImage" />
        <dc:title />
      </cc:Work>
    </rdf:RDF>
  </metadata>
  <g
     transform="translate(0,-49.999993)"
     id="layer1"
     inkscape:groupmode="layer"
     inkscape:label="Layer 1">
    <g
       transform="matrix(0.39181791,0.93530971,-0.9095463,0.38102517,226.38736,259.20817)"
       style="font-style:normal;font-variant:normal;font-weight:300;font-stretch:normal;font-size:53.77825546px;line-height:125%;font-family:'AR PL UMing TW';-inkscape-font-specification:'AR PL UMing TW, Light';text-align:start;letter-spacing:0px;word-spacing:0px;writing-mode:lr-tb;text-anchor:start;fill:#000000;fill-opacity:1;stroke:none;stroke-width:1px;stroke-linecap:butt;stroke-linejoin:miter;stroke-opacity:1"
       id="text3428">
      <g
         id="g3391"
         transform="matrix(0.38958785,-0.9546167,0.8965485,0.3738953,-71.862448,-226.06917)">
        <g
           id="g3414">
          <g
             id="g3437">
            <g
               id="g3460">
              <g
                 id="g3693"
                 transform="matrix(0.28222222,0,0,0.28222222,151.88211,161.24942)"
                 inkscape:label="Hershey Text" />
              <g
                 inkscape:label="Hershey Text"
                 transform="matrix(0.28222222,0,0,0.28222222,151.88211,161.24942)"
                 id="g3793" />
              <g
                 id="g3895"
                 transform="matrix(0.28222222,0,0,0.28222222,151.88211,161.24942)"
                 inkscape:label="Hershey Text" />
              <g
                 inkscape:label="Hershey Text"
                 transform="matrix(0.28222222,0,0,0.28222222,151.88211,161.24942)"
                 id="g3999" />
              <g
                 id="g4105"
                 transform="matrix(0.28222222,0,0,0.28222222,151.88211,161.24942)"
                 inkscape:label="Hershey Text" />
              <g
                 inkscape:label="Hershey Text"
                 transform="matrix(0.28222222,0,0,0.28222222,151.88211,161.24942)"
                 id="g4213" />
              <g
                 id="g4323"
                 transform="matrix(0.28222222,0,0,0.28222222,151.88211,161.24942)"
                 inkscape:label="Hershey Text" />
              <g
                 inkscape:label="Hershey Text"
                 transform="matrix(0.28222222,0,0,0.28222222,151.88211,161.24942)"
                 id="g4435" />
              <g
                 transform="matrix(1.2691195,-8.438795e-4,-0.06302835,5.7407885,160.82498,460.88296)"
                 style="font-style:normal;font-variant:normal;font-weight:normal;font-stretch:normal;font-size:31.82224083px;line-height:125%;font-family:Garuda;-inkscape-font-specification:'Garuda, Normal';text-align:start;letter-spacing:0px;word-spacing:0px;writing-mode:lr-tb;text-anchor:start;fill:#000000;fill-opacity:1;stroke:none;stroke-width:1px;stroke-linecap:butt;stroke-linejoin:miter;stroke-opacity:1"
                 id="text3398" />
              <flowRoot
                 xml:space="preserve"
                 id="flowRoot3368"
                 style="font-style:normal;font-variant:normal;font-weight:normal;font-stretch:normal;font-size:180px;line-height:125%;font-family:Garuda;-inkscape-font-specification:'Garuda, Normal';text-align:start;letter-spacing:0px;word-spacing:0px;writing-mode:lr-tb;text-anchor:start;fill:#000000;fill-opacity:1;stroke:none;stroke-width:1px;stroke-linecap:butt;stroke-linejoin:miter;stroke-opacity:1"
                 transform="matrix(0.27644235,-1.8381564e-4,-0.00315852,0.2876863,-393.38796,-199.38542)"><flowRegion
                   id="flowRegion3370"><rect
                     id="rect3372"
                     width="1640.625"
                     height="559.375"
                     x="-190.625"
                     y="175.49213" /></flowRegion><flowPara
                   id="flowPara3374" /></flowRoot>              <flowRoot
                 xml:space="preserve"
                 id="flowRoot3376"
                 style="font-style:normal;font-variant:normal;font-weight:normal;font-stretch:normal;font-size:180px;line-height:125%;font-family:Garuda;-inkscape-font-specification:'Garuda, Normal';text-align:start;letter-spacing:0px;word-spacing:0px;writing-mode:lr-tb;text-anchor:start;fill:#000000;fill-opacity:1;stroke:none;stroke-width:1px;stroke-linecap:butt;stroke-linejoin:miter;stroke-opacity:1"
                 transform="matrix(0.27644235,-1.8381564e-4,-0.00315852,0.2876863,-393.38796,-199.38542)"><flowRegion
                   id="flowRegion3378"><rect
                     id="rect3380"
                     width="315.625"
                     height="518.75"
                     x="-284.375"
                     y="37.992126" /></flowRegion><flowPara
                   id="flowPara3382" /></flowRoot>              <text
                 xml:space="preserve"
                 style="font-style:normal;font-variant:normal;font-weight:normal;font-stretch:normal;font-size:25.38065338px;line-height:125%;font-family:Garuda;-inkscape-font-specification:'Garuda, Normal';text-align:start;letter-spacing:0px;word-spacing:0px;writing-mode:lr-tb;text-anchor:start;fill:#000000;fill-opacity:1;stroke:none;stroke-width:1px;stroke-linecap:butt;stroke-linejoin:miter;stroke-opacity:1"
                 x="-313.18579"
                 y="8.7216463"
                 id="text3430"
                 sodipodi:linespacing="125%"
                 transform="matrix(0.98026678,-6.5181172e-4,-0.01120014,1.0201379,0,0)"><tspan
                   sodipodi:role="line"
                   id="tspan3432"
                   x="-313.18579"
                   y="8.7216463" /></text>
              <g
                 id="g3358"
                 transform="translate(4.3840439,-0.2981754)">
                <g
                   id="g4251"
                   transform="matrix(1.0174326,-1.2812543e-4,0.00211554,0.82474197,13.682841,11.790708)">
                  <g
                     transform="matrix(-0.92732557,0.01384616,0.0025038,-1.0784073,-659.86672,35.408028)"
                     style="font-style:normal;font-variant:normal;font-weight:normal;font-stretch:normal;font-size:173.72296143px;line-height:125%;font-family:'AR PL UKai CN';-inkscape-font-specification:'AR PL UKai CN';text-align:start;letter-spacing:0px;word-spacing:0px;writing-mode:lr-tb;text-anchor:start;fill:none;fill-opacity:1;stroke:#00f500;stroke-width:1px;stroke-linecap:butt;stroke-linejoin:miter;stroke-opacity:1"
                     id="text3361">
                    <path
                       d="m -381.83246,-62.418469 c 2.31041,5.436348 8.68931,11.576321 12.19544,13.159733 1.47031,0.339303 2.71442,-0.226202 3.73233,-1.696513 0.67861,-1.357211 0.84826,-2.884073 0.50896,-4.580586 -0.67861,-2.488219 -1.97927,-4.354384 -3.90198,-5.598494 -4.86334,-3.506127 -9.38738,-4.863338 -13.57211,-4.071632 -0.1131,0 -0.2262,0.05655 -0.3393,0.169652 -0.67861,0.113101 -0.84826,0.848256 -0.50896,2.205467 0.11311,1.131009 5.88716,5.00396 7.58367,6.587373 m -33.03772,24.097001 c 20.30026,-4.403429 42.07988,-6.593885 62.43804,-8.629701 1.80962,-0.113101 2.77098,-0.622055 2.88408,-1.526862 0.1131,-1.357211 -0.73516,-2.54477 -2.54477,-3.562678 -2.82753,-1.470311 -5.4854,-1.922715 -7.97362,-1.357211 -30.87654,5.768145 -51.74365,8.87842 -62.60134,9.330823 -1.35721,0.113101 -2.20546,0.565505 -2.54477,1.357211 -0.4524,1.131009 0.11311,2.318568 1.69652,3.562678 5.21124,5.337008 16.45033,1.724292 19.83476,-3.862687 m 6.02465,15.745786 c -1.47032,-0.452404 -7.81982,-1.421267 -10.76044,-1.534368 -1.13101,-0.113101 -1.86617,0.113101 -2.20547,0.678605 -0.45241,0.678605 -0.22621,1.753064 0.6786,3.223376 2.82753,3.732329 5.42885,8.8784196 7.80396,15.4382707 0.45241,2.035816 1.41377,3.61922835 2.88408,4.7502372 2.14891,1.8096142 3.33647,1.9227151 3.56267,0.3393027 0.11311,-0.7917062 0.16966,-1.63996287 0.16966,-2.54476996 1.13101,0.11310089 2.37512,0.0565505 3.73233,-0.16965132 5.54194,-1.47031152 14.25071,-2.88407262 26.1263,-4.24128322 1.13101,-0.1131009 1.69651,-0.6786054 1.69651,-1.6965133 0,-0.7917062 -1.35721,-2.0358158 -4.07163,-3.7323288 2.71442,-4.750237 5.37229,-7.803961 7.97361,-9.161172 1.47031,-1.696513 1.63997,-3.336476 0.50896,-4.919889 -7.12536,-5.541943 -12.83696,-7.012255 -17.13479,-4.410934 -6.78605,2.488219 -17.95274,5.834703 -27.90561,8.209822 m 9.22852,16.2532278 c -1.47031,-6.1074478 -3.60378,-11.1736958 -4.05618,-13.0964108 0.4524,-0.339303 8.25636,-2.318568 23.41188,-5.937797 1.80961,-0.452403 3.16682,-0.339302 4.07163,0.339303 0.67861,0.791706 -0.4524,4.863338 -3.39303,12.214896 -0.4524,0 -0.73515,0.05655 -0.84825,0.169651 -7.57776,2.1489167 -15.90221,3.6594035 -21.89655,5.0166142 m 15.35005,29.6550618 c -1.35721,-1.017908 -4.08499,-2.324823 -6.0077,-2.777226 -2.14892,-0.452403 -3.67578,-0.395853 -4.58059,0.169651 -1.13101,0.791706 -1.0179,1.809614 0.33931,3.053724 3.50613,2.148917 5.82469,5.315742 6.9557,9.500475 -9.95288,2.488219 -20.35816,5.259191 -31.21584,8.312915 -2.71443,0.791706 -6.22056,1.074458 -10.51839,0.848256 -1.47031,0.113101 -2.31856,0.678606 -2.54477,1.696514 -0.3393,1.470311 0,2.657871 1.01791,3.562678 2.37512,1.809614 5.31574,3.788879 8.82187,5.937796 1.13101,0.452403 2.31857,0.226202 3.56268,-0.678605 7.12535,-4.410935 17.86994,-9.048071 32.23375,-13.911409 1.35721,9.161171 0.96136,16.173426 -1.18756,21.036765 -1.13101,2.148917 -3.16682,2.884072 -6.10745,2.205467 -2.82752,-0.452403 -5.54194,-1.017908 -8.14326,-1.696513 -1.13101,-0.452404 -1.47031,-0.05655 -1.01791,1.187559 0.45241,0.791706 1.47032,1.753063 3.05373,2.884072 3.50613,3.506128 5.88124,6.503302 7.12535,8.991521 1.01791,1.809614 2.31857,2.54477 3.90198,2.205467 1.35721,-0.113101 3.33648,-1.526862 5.9378,-4.241283 6.44675,-6.786053 7.86051,-18.548546 4.24128,-35.287477 12.2149,-4.410934 18.66165,-7.74741 19.34025,-10.009428 -0.4524,-0.678605 -1.41376,-0.904807 -2.88407,-0.678605 -5.76815,1.696513 -11.70594,3.506127 -17.81339,5.428842 -1.01791,-3.053724 -2.14891,-5.202641 -3.39302,-6.44675 9.83977,-7.125356 16.39962,-10.970786 19.67955,-11.536291 1.80961,-0.452403 2.43167,-1.526862 1.86616,-3.223375 -0.1131,-1.4703115 -3.22337,-3.9585309 -9.33082,-7.4646584 -1.80961,-1.017908 -3.73233,-1.1875593 -5.76814,-0.508954 -6.55985,2.4882195 -14.92932,5.0329894 -25.1084,7.6343098 -2.48822,0.7917066 -6.95571,1.0744586 -13.40246,0.8482566 -2.14891,-0.113101 -2.88407,0.791706 -2.20546,2.714421 0.79171,1.131009 2.03582,2.262018 3.73233,3.393027 2.82752,1.470311 5.82469,1.30066 8.99152,-0.508954 2.71442,-0.791706 10.85768,-3.336476 24.42979,-7.6343099 1.13101,-0.4524035 2.20546,-0.4524035 3.22337,0 1.13101,0.6786053 1.47032,1.5834119 1.01791,2.7144209 -2.82752,3.506128 -8.57962,8.437275 -11.97264,12.735109 m 51.26422,-54.459877 -2.64689,-1.875623 c -3.84543,-2.375119 -6.61641,-3.675779 -8.31292,-3.901981 -1.47031,-0.678605 -3.11027,-0.452404 -4.91989,0.678605 -1.01791,1.017908 -1.07446,2.092367 -0.16965,3.223376 2.82753,5.08954 4.41094,9.896328 4.75024,14.420363 0.45241,18.0961416 0.45241,41.168722 0,69.217742 -0.3393,24.429791 0.73516,38.114999 3.22338,41.055622 0.6786,0.791706 1.41375,1.074458 2.20546,0.848257 2.03582,-1.357211 3.22338,-5.315742 3.56268,-11.875594 0.79171,-10.179079 1.01791,-20.245058 0.67861,-30.197936 -0.67861,-9.500475 -0.96136,-31.555148 -0.84826,-66.164019 0,-3.393027 0.5655,-7.351558 1.69651,-11.875593 1.80961,-0.113101 3.84543,-0.735155 6.10745,-1.866164 8.82187,-3.506128 13.91141,-4.919889 15.26862,-4.241284 1.01791,0.678605 1.07446,2.092367 0.16965,4.241284 -4.86334,11.310089 -8.70877,19.1706001 -11.53629,23.5815344 -0.79171,1.1310089 -1.13101,2.1489168 -1.01791,3.0537239 -0.1131,1.47031155 1.01791,2.9971735 3.39303,4.5805859 5.42884,3.5061275 10.12253,8.0301628 14.08106,13.5721068 3.50613,4.863338 5.42884,9.161172 5.76815,12.893501 0.1131,2.148917 -0.50896,3.84543 -1.86617,5.08954 -1.47031,1.131009 -3.78888,1.583412 -6.9557,1.35721 -4.75024,-0.452403 -9.10463,-0.735155 -13.06316,-0.848256 -1.01791,-0.113101 -1.41376,0.282752 -1.18756,1.187559 0.33931,0.791706 1.41377,1.753063 3.22338,2.884072 9.50047,4.071632 15.21207,7.521209 17.13478,10.348732 1.13101,1.470311 2.37512,2.262017 3.73233,2.375118 1.35721,-0.113101 2.77098,-0.904807 4.24129,-2.375118 4.18473,-4.524036 6.22055,-10.235631 6.10744,-17.134785 -0.3393,-9.274273 -7.74741,-19.340251 -22.22432,-30.1979364 -2.82752,-2.8275222 -4.29783,-4.4109346 -4.41093,-4.7502372 0,-2.035816 3.61923,-7.7474104 10.85768,-17.1347844 2.82752,-4.410935 6.10745,-7.464659 9.83978,-9.161172 3.50613,-1.809614 3.78888,-3.90198 0.84825,-6.277099 -4.41093,-3.84543 -7.97361,-6.3902 -10.68803,-7.63431 -2.03581,-0.791706 -3.90198,-0.678605 -5.59849,0.339303 -2.48822,2.148917 -9.44393,5.428842 -20.86712,9.839777 -1.01791,0.339303 -3.59092,2.109758 -4.49572,2.562162"
                       id="path4166"
                       inkscape:connector-curvature="0"
                       sodipodi:nodetypes="ccccccccccccccccccccccccscccsccccccccccccccccccccccccccccccccccccccccccccccccccccccccccccccccccccccccccccccccccccccccc" />
                  </g>
                </g>
              </g>
            </g>
          </g>
        </g>
      </g>
    </g>
  </g>
  <WCB
     pausedposy="0"
     pausedposx="0"
     lastknownposy="0"
     lastknownposx="0"
     lastpathnc="0"
     lastpath="0"
     node="0"
     layer="0" />
</svg>
