<?xml version="1.0" encoding="UTF-8" standalone="no"?>
<!-- Created with Inkscape (http://www.inkscape.org/) -->

<svg
   xmlns:dc="http://purl.org/dc/elements/1.1/"
   xmlns:cc="http://creativecommons.org/ns#"
   xmlns:rdf="http://www.w3.org/1999/02/22-rdf-syntax-ns#"
   xmlns:svg="http://www.w3.org/2000/svg"
   xmlns="http://www.w3.org/2000/svg"
   xmlns:sodipodi="http://sodipodi.sourceforge.net/DTD/sodipodi-0.dtd"
   xmlns:inkscape="http://www.inkscape.org/namespaces/inkscape"
   width="160mm"
   height="160mm"
   viewBox="0 0 160.00001 160.00001"
   id="svg4258"
   version="1.1"
   inkscape:version="0.91 r"
   sodipodi:docname="19.svg">
  <sodipodi:namedview
     inkscape:document-units="mm"
     pagecolor="#ffffff"
     bordercolor="#666666"
     borderopacity="1.0"
     inkscape:pageopacity="0.0"
     inkscape:pageshadow="2"
     inkscape:zoom="0.70710678"
     inkscape:cx="-80.47863"
     inkscape:cy="295.16001"
     inkscape:current-layer="g4251"
     id="namedview4262"
     showgrid="false"
     inkscape:window-width="524"
     inkscape:window-height="373"
     inkscape:window-x="599"
     inkscape:window-y="152"
     inkscape:window-maximized="0"
     units="mm"
     inkscape:snap-nodes="false" />
  <defs
     id="defs4260" />
  <metadata
     id="metadata4264">
    <rdf:RDF>
      <cc:Work
         rdf:about="">
        <dc:format>image/svg+xml</dc:format>
        <dc:type
           rdf:resource="http://purl.org/dc/dcmitype/StillImage" />
        <dc:title />
      </cc:Work>
    </rdf:RDF>
  </metadata>
  <g
     transform="translate(0,-49.999993)"
     id="layer1"
     inkscape:groupmode="layer"
     inkscape:label="Layer 1">
    <g
       transform="matrix(0.39181791,0.93530971,-0.9095463,0.38102517,226.38736,259.20817)"
       style="font-style:normal;font-variant:normal;font-weight:300;font-stretch:normal;font-size:53.77825546px;line-height:125%;font-family:'AR PL UMing TW';-inkscape-font-specification:'AR PL UMing TW, Light';text-align:start;letter-spacing:0px;word-spacing:0px;writing-mode:lr-tb;text-anchor:start;fill:#000000;fill-opacity:1;stroke:none;stroke-width:1px;stroke-linecap:butt;stroke-linejoin:miter;stroke-opacity:1"
       id="text3428">
      <g
         id="g3391"
         transform="matrix(0.38958785,-0.9546167,0.8965485,0.3738953,-71.862448,-226.06917)">
        <g
           id="g3414">
          <g
             id="g3437">
            <g
               id="g3460">
              <g
                 id="g3693"
                 transform="matrix(0.28222222,0,0,0.28222222,151.88211,161.24942)"
                 inkscape:label="Hershey Text" />
              <g
                 inkscape:label="Hershey Text"
                 transform="matrix(0.28222222,0,0,0.28222222,151.88211,161.24942)"
                 id="g3793" />
              <g
                 id="g3895"
                 transform="matrix(0.28222222,0,0,0.28222222,151.88211,161.24942)"
                 inkscape:label="Hershey Text" />
              <g
                 inkscape:label="Hershey Text"
                 transform="matrix(0.28222222,0,0,0.28222222,151.88211,161.24942)"
                 id="g3999" />
              <g
                 id="g4105"
                 transform="matrix(0.28222222,0,0,0.28222222,151.88211,161.24942)"
                 inkscape:label="Hershey Text" />
              <g
                 inkscape:label="Hershey Text"
                 transform="matrix(0.28222222,0,0,0.28222222,151.88211,161.24942)"
                 id="g4213" />
              <g
                 id="g4323"
                 transform="matrix(0.28222222,0,0,0.28222222,151.88211,161.24942)"
                 inkscape:label="Hershey Text" />
              <g
                 inkscape:label="Hershey Text"
                 transform="matrix(0.28222222,0,0,0.28222222,151.88211,161.24942)"
                 id="g4435" />
              <g
                 transform="matrix(1.2691195,-8.438795e-4,-0.06302835,5.7407885,160.82498,460.88296)"
                 style="font-style:normal;font-variant:normal;font-weight:normal;font-stretch:normal;font-size:31.82224083px;line-height:125%;font-family:Garuda;-inkscape-font-specification:'Garuda, Normal';text-align:start;letter-spacing:0px;word-spacing:0px;writing-mode:lr-tb;text-anchor:start;fill:#000000;fill-opacity:1;stroke:none;stroke-width:1px;stroke-linecap:butt;stroke-linejoin:miter;stroke-opacity:1"
                 id="text3398" />
              <flowRoot
                 xml:space="preserve"
                 id="flowRoot3368"
                 style="font-style:normal;font-variant:normal;font-weight:normal;font-stretch:normal;font-size:180px;line-height:125%;font-family:Garuda;-inkscape-font-specification:'Garuda, Normal';text-align:start;letter-spacing:0px;word-spacing:0px;writing-mode:lr-tb;text-anchor:start;fill:#000000;fill-opacity:1;stroke:none;stroke-width:1px;stroke-linecap:butt;stroke-linejoin:miter;stroke-opacity:1"
                 transform="matrix(0.27644235,-1.8381564e-4,-0.00315852,0.2876863,-393.38796,-199.38542)"><flowRegion
                   id="flowRegion3370"><rect
                     id="rect3372"
                     width="1640.625"
                     height="559.375"
                     x="-190.625"
                     y="175.49213" /></flowRegion><flowPara
                   id="flowPara3374" /></flowRoot>              <flowRoot
                 xml:space="preserve"
                 id="flowRoot3376"
                 style="font-style:normal;font-variant:normal;font-weight:normal;font-stretch:normal;font-size:180px;line-height:125%;font-family:Garuda;-inkscape-font-specification:'Garuda, Normal';text-align:start;letter-spacing:0px;word-spacing:0px;writing-mode:lr-tb;text-anchor:start;fill:#000000;fill-opacity:1;stroke:none;stroke-width:1px;stroke-linecap:butt;stroke-linejoin:miter;stroke-opacity:1"
                 transform="matrix(0.27644235,-1.8381564e-4,-0.00315852,0.2876863,-393.38796,-199.38542)"><flowRegion
                   id="flowRegion3378"><rect
                     id="rect3380"
                     width="315.625"
                     height="518.75"
                     x="-284.375"
                     y="37.992126" /></flowRegion><flowPara
                   id="flowPara3382" /></flowRoot>              <text
                 xml:space="preserve"
                 style="font-style:normal;font-variant:normal;font-weight:normal;font-stretch:normal;font-size:25.38065338px;line-height:125%;font-family:Garuda;-inkscape-font-specification:'Garuda, Normal';text-align:start;letter-spacing:0px;word-spacing:0px;writing-mode:lr-tb;text-anchor:start;fill:#000000;fill-opacity:1;stroke:none;stroke-width:1px;stroke-linecap:butt;stroke-linejoin:miter;stroke-opacity:1"
                 x="-313.18579"
                 y="8.7216463"
                 id="text3430"
                 sodipodi:linespacing="125%"
                 transform="matrix(0.98026678,-6.5181172e-4,-0.01120014,1.0201379,0,0)"><tspan
                   sodipodi:role="line"
                   id="tspan3432"
                   x="-313.18579"
                   y="8.7216463" /></text>
              <g
                 id="g3358"
                 transform="translate(4.3840439,-0.2981754)">
                <g
                   id="g4251"
                   transform="matrix(1.0174326,-1.2812543e-4,0.00211554,0.82474197,13.682841,11.790708)">
                  <g
                     transform="matrix(-0.92168241,-0.00990762,0.01942124,-1.0847636,-663.0265,31.667672)"
                     style="font-style:normal;font-variant:normal;font-weight:normal;font-stretch:normal;font-size:186.38142395px;line-height:125%;font-family:'AR PL UKai CN';-inkscape-font-specification:'AR PL UKai CN';text-align:start;letter-spacing:0px;word-spacing:0px;writing-mode:lr-tb;text-anchor:start;fill:#0000f5;fill-opacity:1;stroke:#00f400;stroke-width:0.12762713;stroke-linecap:butt;stroke-linejoin:miter;stroke-miterlimit:4;stroke-dasharray:none;stroke-opacity:1"
                     id="text3362">
                    <path
                       d="m -376.3143,-52.144011 c 14.07568,-3.276236 22.2056,-4.914354 24.38976,-4.914354 8.73663,-2.184157 14.01501,-2.851539 15.83514,-2.002144 6.91649,3.033552 11.7095,5.521065 14.37903,7.462538 2.3055,2.062815 2.3055,4.246973 0,6.552472 -4.611,4.246972 -7.70522,10.01072 -9.28267,17.291245 -2.30549,16.38118 -4.42898,26.3919008 -6.37045,30.032163 -0.97074,1.9414732 -2.24483,3.1548939 -3.82228,3.6402622 -1.69879,0.2426841 -2.97288,-0.6067104 -3.82228,-2.5481835 -0.84939,-2.1841573 -0.91006,-4.4289857 -0.18201,-6.7344851 1.45611,-4.0042884 3.1549,-16.0171536 5.09637,-36.0385956 0.48537,-5.460393 -0.18202,-8.615287 -2.00215,-9.464682 -0.97073,-0.60671 -2.97288,-0.728052 -6.00643,-0.364026 -16.50252,2.305499 -28.45471,4.610999 -35.85658,6.916498 -2.91221,0.970737 -6.61315,0.303355 -11.1028,-2.002144 -2.18416,-1.456105 -3.03355,-2.548183 -2.54818,-3.276236 0.24268,-0.728053 1.51677,-1.15275 3.82227,-1.274092 4.611,-0.60671 10.64081,-1.743859 17.67865,-3.321306 0,0 1.49312,-0.352251 2.23458,-0.523075 0.74147,-0.170824 6.22485,-1.431643 7.03246,-1.602171 0.80762,-0.170528 3.41282,-0.753167 4.67634,-1.008959 1.26353,-0.255792 3.12978,-0.629503 3.65479,-0.729988 0.52502,-0.100485 2.46849,-0.502423 3.583,-0.663199 1.1145,-0.160776 1.80531,-0.281357 2.58823,-0.321551 m -34.89788,33.973405 c 0.36403,5.945761 -0.0584,14.3003993 -1.27179,24.9785018 -1.09208,8.3726032 -2.06282,13.2262862 -2.91221,14.5610492 -0.84939,1.941473 0.0607,4.064959 2.7302,6.370458 1.57745,1.577447 2.85154,2.487513 3.82227,2.730197 l 5.09637,-1.274092 c 1.82013,-1.213421 8.67596,-3.094223 20.56748,-5.642406 13.46897,-2.91221 27.42331,-4.793012 41.86302,-5.642407 1.94147,0 4.00429,0.546039 6.18844,1.638118 1.57745,1.092079 2.3055,2.790868 2.18416,5.096368 0.12134,1.820131 -1.39544,11.042128 -4.55033,27.665992 -2.3055,9.828708 -4.67167,16.502522 -7.09851,20.021442 -1.45611,3.033552 -3.88295,4.428986 -7.28052,4.186302 -4.73234,-1.577447 -9.52535,-3.033552 -14.37904,-4.368315 -2.3055,-0.728053 -3.64026,-0.788724 -4.00429,-0.182013 -0.36403,0.728053 0.4247,1.820131 2.36617,3.276236 10.31408,9.586024 16.01716,16.017154 17.10924,19.29339 0.48537,1.213421 1.33476,1.880802 2.54818,2.002144 2.18416,0.364026 5.33905,-1.516776 9.46468,-5.642407 4.00429,-4.12563 6.55247,-8.675958 7.64455,-13.650983 7.28053,-34.582491 12.25555,-52.783802 14.92508,-54.603933 1.21342,-0.849394 1.75946,-1.759459 1.63811,-2.730196 0.12135,-1.092079 -1.94147,-3.154894 -6.18844,-6.188446 -4.12563,-2.6695256 -6.67382,-4.1256305 -7.64455,-4.3683147 -1.57745,-0.3640262 -3.94362,-0.060671 -7.09851,0.9100656 -2.3055,0.4853683 -5.0357,0.7887234 -8.19059,0.9100655 -5.94577,0.1213421 -13.59032,0.9707366 -22.93365,2.5481836 -12.13421,1.577447 -21.90225,3.336907 -29.30412,5.27838 -4.12563,0.849395 -6.4918,-0.242684 -7.09851,-3.276236 -0.72805,-7.6445505 -0.0607,-16.0171535 2.00215,-25.117809 0.48537,-5.096367 1.09208,-7.826564 1.82013,-8.19059 1.82013,-2.912209 0.60671,-5.945761 -3.64026,-9.100655 -4.00429,-3.033552 -7.09852,-4.67167 -9.28267,-4.914354 -1.57745,-0.121342 -2.60885,0.485368 -3.09422,1.820131 -0.48537,1.213421 -0.12135,2.36617 1.09207,3.458249 1.57745,3.033552 2.54818,5.763749 2.91221,8.19059 0,0 0.0155,0.270537 0.0201,0.389862 0.005,0.119326 0.0288,0.616725 0.0322,0.71093 0.003,0.0942 0.0207,0.595372 0.0265,0.693345 0.006,0.09797 0.0219,0.576531 0.0219,0.68204 0,0.105509 0.009,0.491119 0.0138,0.567738 0.005,0.07662 0.006,0.599141 0.006,0.659432 0,0.06029 0.005,0.463485 0.003,0.501167 -0.001,0.03768 -0.001,0.802622 -0.001,0.851608 0,0.04899 -0.006,0.646871 -0.009,0.695857 -0.003,0.04899 -0.006,0.341648 -0.008,0.4145 -0.002,0.07285 -0.006,0.346672 -0.007,0.37933 -10e-4,0.03266 -0.006,0.465998 -0.008,0.507447 -0.002,0.04145 -0.0226,0.659115 -0.0242,0.751484 m -38.47106,62.45232 c 5.94576,-0.364026 20.56748,-2.184157 43.86516,-5.460393 15.53178,-2.305499 23.6617,-3.458249 24.38975,-3.458249 13.833,-3.033552 21.11353,-4.368315 21.84158,-4.004289 5.09637,2.062815 9.46468,4.610999 13.10494,7.644551 1.45611,1.334763 1.75946,2.790867 0.91007,4.368314 -0.72805,0.970737 -2.42684,1.395434 -5.09637,1.274092 -11.77018,-1.092079 -27.54465,-0.364026 -47.32341,2.184158 -9.70737,1.092079 -18.444,2.608854 -26.20989,4.550327 -5.94576,1.213421 -9.64669,2.062815 -11.1028,2.548184 -2.06281,1.092079 -3.70093,1.395434 -4.91435,0.910065 -3.76161,-1.334763 -6.61315,-2.608854 -8.55462,-3.822275 -2.3055,-1.577447 -3.45825,-3.094223 -3.45825,-4.550328 0.12135,-1.334763 1.0261,-2.066368 2.60355,-2.18771 0,0 1.56492,-0.110032 1.85475,-0.138454 0.28983,-0.02842 2.59543,-0.227371 3.43561,-0.333951 0.84018,-0.10658 1.22444,-0.10658 1.75851,-0.177634 0.53407,-0.07105 2.31471,-0.266004 2.84433,-0.331319 0.52962,-0.06531 1.84216,-0.200969 2.64349,-0.301454 0.80134,-0.100485 2.42244,-0.306478 2.9889,-0.371793 0.56647,-0.06532 3.27926,-0.423608 4.52325,-0.57282 1.24398,-0.149212 4.04458,-0.511585 5.05409,-0.653692"
                       id="path4167"
                       inkscape:connector-curvature="0"
                       sodipodi:nodetypes="ccccccccccccccccccccccccccccccccccccccccccccccccccccccccccccccccccccsssssccccscscsssssc" />
                  </g>
                </g>
              </g>
            </g>
          </g>
        </g>
      </g>
    </g>
  </g>
  <WCB
     pausedposy="0"
     pausedposx="0"
     lastknownposy="0"
     lastknownposx="0"
     lastpathnc="0"
     lastpath="0"
     node="0"
     layer="0" />
</svg>
