<?xml version="1.0" encoding="UTF-8" standalone="no"?>
<!-- Created with Inkscape (http://www.inkscape.org/) -->

<svg
   xmlns:dc="http://purl.org/dc/elements/1.1/"
   xmlns:cc="http://creativecommons.org/ns#"
   xmlns:rdf="http://www.w3.org/1999/02/22-rdf-syntax-ns#"
   xmlns:svg="http://www.w3.org/2000/svg"
   xmlns="http://www.w3.org/2000/svg"
   xmlns:sodipodi="http://sodipodi.sourceforge.net/DTD/sodipodi-0.dtd"
   xmlns:inkscape="http://www.inkscape.org/namespaces/inkscape"
   width="160mm"
   height="160mm"
   viewBox="0 0 160.00001 160.00001"
   id="svg4258"
   version="1.1"
   inkscape:version="0.91 r"
   sodipodi:docname="20.svg">
  <sodipodi:namedview
     inkscape:document-units="mm"
     pagecolor="#ffffff"
     bordercolor="#666666"
     borderopacity="1.0"
     inkscape:pageopacity="0.0"
     inkscape:pageshadow="2"
     inkscape:zoom="0.70710678"
     inkscape:cx="-129.13848"
     inkscape:cy="305.66964"
     inkscape:current-layer="g4251"
     id="namedview4262"
     showgrid="false"
     inkscape:window-width="1297"
     inkscape:window-height="592"
     inkscape:window-x="65"
     inkscape:window-y="24"
     inkscape:window-maximized="1"
     units="mm"
     inkscape:snap-nodes="false" />
  <defs
     id="defs4260" />
  <metadata
     id="metadata4264">
    <rdf:RDF>
      <cc:Work
         rdf:about="">
        <dc:format>image/svg+xml</dc:format>
        <dc:type
           rdf:resource="http://purl.org/dc/dcmitype/StillImage" />
        <dc:title />
      </cc:Work>
    </rdf:RDF>
  </metadata>
  <g
     transform="translate(0,-49.999993)"
     id="layer1"
     inkscape:groupmode="layer"
     inkscape:label="Layer 1">
    <g
       transform="matrix(0.39181791,0.93530971,-0.9095463,0.38102517,226.38736,259.20817)"
       style="font-style:normal;font-variant:normal;font-weight:300;font-stretch:normal;font-size:53.77825546px;line-height:125%;font-family:'AR PL UMing TW';-inkscape-font-specification:'AR PL UMing TW, Light';text-align:start;letter-spacing:0px;word-spacing:0px;writing-mode:lr-tb;text-anchor:start;fill:#000000;fill-opacity:1;stroke:none;stroke-width:1px;stroke-linecap:butt;stroke-linejoin:miter;stroke-opacity:1"
       id="text3428">
      <g
         id="g3391"
         transform="matrix(0.38958785,-0.9546167,0.8965485,0.3738953,-71.862448,-226.06917)">
        <g
           id="g3414">
          <g
             id="g3437">
            <g
               id="g3460">
              <g
                 id="g3693"
                 transform="matrix(0.28222222,0,0,0.28222222,151.88211,161.24942)"
                 inkscape:label="Hershey Text" />
              <g
                 inkscape:label="Hershey Text"
                 transform="matrix(0.28222222,0,0,0.28222222,151.88211,161.24942)"
                 id="g3793" />
              <g
                 id="g3895"
                 transform="matrix(0.28222222,0,0,0.28222222,151.88211,161.24942)"
                 inkscape:label="Hershey Text" />
              <g
                 inkscape:label="Hershey Text"
                 transform="matrix(0.28222222,0,0,0.28222222,151.88211,161.24942)"
                 id="g3999" />
              <g
                 id="g4105"
                 transform="matrix(0.28222222,0,0,0.28222222,151.88211,161.24942)"
                 inkscape:label="Hershey Text" />
              <g
                 inkscape:label="Hershey Text"
                 transform="matrix(0.28222222,0,0,0.28222222,151.88211,161.24942)"
                 id="g4213" />
              <g
                 id="g4323"
                 transform="matrix(0.28222222,0,0,0.28222222,151.88211,161.24942)"
                 inkscape:label="Hershey Text" />
              <g
                 inkscape:label="Hershey Text"
                 transform="matrix(0.28222222,0,0,0.28222222,151.88211,161.24942)"
                 id="g4435" />
              <g
                 transform="matrix(1.2691195,-8.438795e-4,-0.06302835,5.7407885,160.82498,460.88296)"
                 style="font-style:normal;font-variant:normal;font-weight:normal;font-stretch:normal;font-size:31.82224083px;line-height:125%;font-family:Garuda;-inkscape-font-specification:'Garuda, Normal';text-align:start;letter-spacing:0px;word-spacing:0px;writing-mode:lr-tb;text-anchor:start;fill:#000000;fill-opacity:1;stroke:none;stroke-width:1px;stroke-linecap:butt;stroke-linejoin:miter;stroke-opacity:1"
                 id="text3398" />
              <flowRoot
                 xml:space="preserve"
                 id="flowRoot3368"
                 style="font-style:normal;font-variant:normal;font-weight:normal;font-stretch:normal;font-size:180px;line-height:125%;font-family:Garuda;-inkscape-font-specification:'Garuda, Normal';text-align:start;letter-spacing:0px;word-spacing:0px;writing-mode:lr-tb;text-anchor:start;fill:#000000;fill-opacity:1;stroke:none;stroke-width:1px;stroke-linecap:butt;stroke-linejoin:miter;stroke-opacity:1"
                 transform="matrix(0.27644235,-1.8381564e-4,-0.00315852,0.2876863,-393.38796,-199.38542)"><flowRegion
                   id="flowRegion3370"><rect
                     id="rect3372"
                     width="1640.625"
                     height="559.375"
                     x="-190.625"
                     y="175.49213" /></flowRegion><flowPara
                   id="flowPara3374" /></flowRoot>              <flowRoot
                 xml:space="preserve"
                 id="flowRoot3376"
                 style="font-style:normal;font-variant:normal;font-weight:normal;font-stretch:normal;font-size:180px;line-height:125%;font-family:Garuda;-inkscape-font-specification:'Garuda, Normal';text-align:start;letter-spacing:0px;word-spacing:0px;writing-mode:lr-tb;text-anchor:start;fill:#000000;fill-opacity:1;stroke:none;stroke-width:1px;stroke-linecap:butt;stroke-linejoin:miter;stroke-opacity:1"
                 transform="matrix(0.27644235,-1.8381564e-4,-0.00315852,0.2876863,-393.38796,-199.38542)"><flowRegion
                   id="flowRegion3378"><rect
                     id="rect3380"
                     width="315.625"
                     height="518.75"
                     x="-284.375"
                     y="37.992126" /></flowRegion><flowPara
                   id="flowPara3382" /></flowRoot>              <text
                 xml:space="preserve"
                 style="font-style:normal;font-variant:normal;font-weight:normal;font-stretch:normal;font-size:25.38065338px;line-height:125%;font-family:Garuda;-inkscape-font-specification:'Garuda, Normal';text-align:start;letter-spacing:0px;word-spacing:0px;writing-mode:lr-tb;text-anchor:start;fill:#000000;fill-opacity:1;stroke:none;stroke-width:1px;stroke-linecap:butt;stroke-linejoin:miter;stroke-opacity:1"
                 x="-313.18579"
                 y="8.7216463"
                 id="text3430"
                 sodipodi:linespacing="125%"
                 transform="matrix(0.98026678,-6.5181172e-4,-0.01120014,1.0201379,0,0)"><tspan
                   sodipodi:role="line"
                   id="tspan3432"
                   x="-313.18579"
                   y="8.7216463" /></text>
              <g
                 id="g3358"
                 transform="translate(4.3840439,-0.2981754)">
                <g
                   id="g4251"
                   transform="matrix(1.0174326,-1.2812543e-4,0.00211554,0.82474197,13.682841,11.790708)">
                  <g
                     transform="matrix(-1.0043502,-0.06019383,0.04737839,-0.99282911,-662.00704,13.210439)"
                     style="font-style:normal;font-variant:normal;font-weight:normal;font-stretch:normal;font-size:211.31098938px;line-height:125%;font-family:'AR PL UKai CN';-inkscape-font-specification:'AR PL UKai CN';text-align:start;letter-spacing:0px;word-spacing:0px;writing-mode:lr-tb;text-anchor:start;fill:#0000ed;fill-opacity:1;stroke:#00f400;stroke-width:0.12762713;stroke-linecap:butt;stroke-linejoin:miter;stroke-miterlimit:4;stroke-dasharray:none;stroke-opacity:1"
                     id="text3361">
                    <path
                       d="m -390.62585,-51.141027 c 4.26474,7.428902 8.14361,17.307971 11.58292,29.551902 0.82543,3.714451 2.40751,6.672255 4.74624,8.873411 2.88902,3.0265895 4.60867,3.3705202 5.15896,1.031792 0.13757,-0.963006 0.27515,-2.063584 0.41272,-3.301735 0.96301,0.137573 2.20116,0.137573 3.71445,0 4.12717,-0.963005 8.9422,-1.719653 14.44509,-2.269942 0,4.952601 -0.13757,7.7728328 -0.41272,8.4606941 -7.4289,12.5190755 -19.60404,26.6890179 -36.52543,42.5098279 -1.37573,0.963006 -2.26995,1.857226 -2.68266,2.682659 -0.55029,1.238151 0,1.857226 1.65087,1.857226 4.26474,-0.550289 11.9,-5.502891 22.90578,-14.857804 0.55029,0.963005 1.92601,2.613872 4.12716,4.952601 5.91561,5.915607 11.96879,12.45029 18.15954,19.604047 1.37573,1.788439 2.95781,2.751445 4.74625,2.889017 1.23815,0 2.20115,-0.687861 2.88901,-2.063584 0.82543,-1.650867 0.96301,-4.127167 0.41272,-7.428902 -0.41272,-4.127167 -3.23295,-8.116763 -8.46069,-11.968786 -5.36532,-3.301734 -11.34971,-6.39711 -17.95318,-9.286128 3.43931,-3.301734 7.22254,-6.947399 11.34971,-10.9369941 7.84162,3.4393071 20.01676,2.3387291 36.52543,-3.3017342 3.43931,-0.9630059 5.84682,-0.9630059 7.22255,0 0.963,0.8254335 -0.20637,5.2965323 -3.5081,13.4132953 -3.02659,8.391908 -7.70404,16.783816 -14.03237,25.175723 -8.80462,12.519076 -19.26011,23.387285 -31.36647,32.604626 -10.73064,7.979191 -22.63064,14.720231 -35.7,20.223122 -1.37573,0.550289 -2.06359,1.23815 -2.06359,2.063583 0.13757,0.82543 0.75665,1.16936 1.85723,1.03179 3.85202,0.13757 10.11156,-1.169362 18.77861,-3.920807 7.56647,-2.201156 15.27052,-5.915607 23.11214,-11.143353 9.49249,-5.915607 18.77861,-14.032371 27.85838,-24.35029 9.07977,-10.317919 18.22833,-23.868787 27.44567,-40.652602 2.61387,-4.26474 6.05318,-7.841619 10.31792,-10.7306363 2.4763,-1.2381503 3.71445,-2.5450868 3.71445,-3.9208094 0,-2.2011561 -2.26994,-4.6086707 -6.80983,-7.2225436 -5.50289,-3.8520233 -9.35491,-5.846821 -11.55607,-5.9843933 -1.78844,0.1375723 -3.64566,0.8254336 -5.57167,2.0635839 -16.92139,5.0901736 -30.2659,8.1167633 -40.03353,9.0797691 -0.41272,-0.1375723 -0.75665,-0.1375723 -1.03179,0 3.02659,-3.714451 5.77803,-6.2595378 8.25433,-7.6352604 1.37573,-0.9630058 1.85723,-2.4075145 1.44451,-4.3335261 -0.41271,-3.7144509 -3.09537,-7.0161859 -8.04798,-9.9052029 13.34451,-1.788439 29.99076,-3.232948 49.93873,-4.333526 0.13757,0.412717 0.27515,0.89422 0.41272,1.444509 0.55029,2.201156 1.71965,3.301734 3.50809,3.301734 1.78844,-0.137572 3.23295,-1.169364 4.33353,-3.095376 1.37572,-1.375723 3.78323,-5.984393 7.22254,-13.826012 2.61387,-6.741041 6.4659,-12.037573 11.55607,-15.889596 2.61387,-1.788439 2.9578,-3.852023 1.03179,-6.190751 -2.20115,-2.476301 -6.60346,-5.640463 -13.20693,-9.492486 -2.06359,-1.650867 -8.25434,-1.306937 -18.57226,1.031792 -16.09595,1.23815 -33.63642,3.439306 -52.62139,6.603468 -11.28092,1.788439 -20.91098,3.095376 -28.89017,3.92081 -1.65087,-0.825434 -4.74624,-1.375723 -9.28613,-1.650868 -1.78844,-0.412717 -2.88902,-0.206358 -3.30173,0.619076 -0.82543,0.963005 -0.55029,2.545086 0.82543,4.746243 0,0 0.2168,0.39806 0.30184,0.539591 0.085,0.141532 0.35505,0.645615 0.40876,0.742554 0.0537,0.09694 0.79032,1.468759 0.95488,1.792297 0.16456,0.323539 1.27008,2.593791 1.53169,3.142162 0.26161,0.54837 1.18146,2.53347 1.55278,3.476667 0.37132,0.943197 1.40932,3.334091 1.8819,4.672114 0.47259,1.338023 1.43464,3.882461 1.58654,4.397929 0.15191,0.515468 1.18991,3.498602 1.43464,4.321157 0.24473,0.822556 0.8439,2.785721 0.95361,3.147645 m 4.66388,-22.517665 c 1.65087,8.116763 3.57688,16.783815 5.77804,26.001156 7.56647,-0.825433 15.75202,-1.650867 24.55665,-2.4763 -0.96301,-0.825434 -1.92601,-2.063584 -2.88902,-3.714451 -1.10058,-2.063584 -2.75145,-10.180347 -4.9526,-24.35029 -10.73064,1.650867 -18.2164,3.241713 -22.48114,4.617436 0,0 1.14005,5.551596 1.24746,6.001394 0.10741,0.449797 1.33668,6.142059 1.43215,6.607367 0.0955,0.465308 1.34861,5.893896 1.5157,6.591857 0.16708,0.697961 1.07411,4.715117 1.25313,5.428588 m 23.63617,-26.770341 c 4.26474,13.619653 5.98439,21.942775 5.15895,24.969365 6.05318,-0.963006 12.45029,-1.926012 19.19134,-2.889018 0.27514,-2.063584 0.61907,-4.127168 1.03179,-6.190751 2.88901,-10.730637 3.71445,-17.95318 2.4763,-21.667631 -0.55028,-0.687861 -0.75665,-1.23815 -0.61908,-1.650867 -11.00578,1.23815 -20.63584,2.545086 -28.89017,3.920809 0.96301,0.963006 1.51963,2.159789 1.6572,3.535512 0,0 0.12442,0.399493 0.14763,0.473523 0.0232,0.07403 0.173,0.567563 0.19515,0.631997 0.0222,0.06443 0.14663,0.472969 0.16668,0.530548 0.02,0.05758 0.49262,1.646482 0.59811,1.959053 0.10549,0.312571 0.58652,1.996067 0.66247,2.248318 0.076,0.25225 1.24936,4.505147 1.51192,5.497803 0.26256,0.992656 0.85929,3.489807 0.94283,3.893073 0.0836,0.403267 0.63254,3.063275 0.69818,3.497562 m 28.70711,-26.600915 c 3.43931,1.926011 5.77804,3.783237 7.01619,5.571676 0.82543,1.238151 0.55029,2.545087 -0.82544,3.92081 -1.51329,1.926011 -2.54508,3.576878 -3.09537,4.952601 -3.71445,7.016185 -6.67226,11.968787 -8.87341,14.857804 5.09017,-1.100578 10.31792,-2.13237 15.68324,-3.095376 3.85202,-0.825433 6.80982,-0.550289 8.87341,0.825434 0.68786,0.412717 1.30693,0.894219 1.85722,1.444508 1.37573,-3.164161 3.71446,-10.593063 7.01619,-22.286705 0.82543,-3.439307 0.75665,-5.571677 -0.20636,-6.39711 -4.12717,-2.476301 -13.2715,-2.374613 -27.44145,0.23926 0,0 1.33491,0.699652 2.56279,1.516723 1.22788,0.817072 2.97818,2.204689 3.68829,3.049998 0.71011,0.845309 1.01743,1.267963 1.17258,1.865108"
                       id="path4166"
                       inkscape:connector-curvature="0"
                       sodipodi:nodetypes="ccccccccccccccscccccccccccccccsccscccccccccscccccccccccccccccccccccccccccccccccccccsssscscsccccccscscc" />
                  </g>
                </g>
              </g>
            </g>
          </g>
        </g>
      </g>
    </g>
  </g>
  <WCB
     pausedposy="0"
     pausedposx="0"
     lastknownposy="0"
     lastknownposx="0"
     lastpathnc="0"
     lastpath="0"
     node="0"
     layer="0" />
</svg>
