<?xml version="1.0" encoding="UTF-8" standalone="no"?>
<!-- Created with Inkscape (http://www.inkscape.org/) -->

<svg
   xmlns:dc="http://purl.org/dc/elements/1.1/"
   xmlns:cc="http://creativecommons.org/ns#"
   xmlns:rdf="http://www.w3.org/1999/02/22-rdf-syntax-ns#"
   xmlns:svg="http://www.w3.org/2000/svg"
   xmlns="http://www.w3.org/2000/svg"
   xmlns:sodipodi="http://sodipodi.sourceforge.net/DTD/sodipodi-0.dtd"
   xmlns:inkscape="http://www.inkscape.org/namespaces/inkscape"
   width="160mm"
   height="160mm"
   viewBox="0 0 160.00001 160.00001"
   id="svg4258"
   version="1.1"
   inkscape:version="0.91 r"
   sodipodi:docname="21.svg">
  <sodipodi:namedview
     inkscape:document-units="mm"
     pagecolor="#ffffff"
     bordercolor="#666666"
     borderopacity="1.0"
     inkscape:pageopacity="0.0"
     inkscape:pageshadow="2"
     inkscape:zoom="0.5"
     inkscape:cx="-68.35932"
     inkscape:cy="191.24965"
     inkscape:current-layer="g4251"
     id="namedview4262"
     showgrid="false"
     inkscape:window-width="1297"
     inkscape:window-height="592"
     inkscape:window-x="65"
     inkscape:window-y="24"
     inkscape:window-maximized="1"
     units="mm"
     inkscape:snap-nodes="false"
     showguides="false" />
  <defs
     id="defs4260" />
  <metadata
     id="metadata4264">
    <rdf:RDF>
      <cc:Work
         rdf:about="">
        <dc:format>image/svg+xml</dc:format>
        <dc:type
           rdf:resource="http://purl.org/dc/dcmitype/StillImage" />
        <dc:title />
      </cc:Work>
    </rdf:RDF>
  </metadata>
  <g
     transform="translate(0,-49.999993)"
     id="layer1"
     inkscape:groupmode="layer"
     inkscape:label="Layer 1">
    <g
       transform="matrix(0.39181791,0.93530971,-0.9095463,0.38102517,226.38736,259.20817)"
       style="font-style:normal;font-variant:normal;font-weight:300;font-stretch:normal;font-size:53.77825546px;line-height:125%;font-family:'AR PL UMing TW';-inkscape-font-specification:'AR PL UMing TW, Light';text-align:start;letter-spacing:0px;word-spacing:0px;writing-mode:lr-tb;text-anchor:start;fill:#000000;fill-opacity:1;stroke:none;stroke-width:1px;stroke-linecap:butt;stroke-linejoin:miter;stroke-opacity:1"
       id="text3428">
      <g
         id="g3391"
         transform="matrix(0.38958785,-0.9546167,0.8965485,0.3738953,-71.862448,-226.06917)">
        <g
           id="g3414">
          <g
             id="g3437">
            <g
               id="g3460">
              <g
                 id="g3693"
                 transform="matrix(0.28222222,0,0,0.28222222,151.88211,161.24942)"
                 inkscape:label="Hershey Text" />
              <g
                 inkscape:label="Hershey Text"
                 transform="matrix(0.28222222,0,0,0.28222222,151.88211,161.24942)"
                 id="g3793" />
              <g
                 id="g3895"
                 transform="matrix(0.28222222,0,0,0.28222222,151.88211,161.24942)"
                 inkscape:label="Hershey Text" />
              <g
                 inkscape:label="Hershey Text"
                 transform="matrix(0.28222222,0,0,0.28222222,151.88211,161.24942)"
                 id="g3999" />
              <g
                 id="g4105"
                 transform="matrix(0.28222222,0,0,0.28222222,151.88211,161.24942)"
                 inkscape:label="Hershey Text" />
              <g
                 inkscape:label="Hershey Text"
                 transform="matrix(0.28222222,0,0,0.28222222,151.88211,161.24942)"
                 id="g4213" />
              <g
                 id="g4323"
                 transform="matrix(0.28222222,0,0,0.28222222,151.88211,161.24942)"
                 inkscape:label="Hershey Text" />
              <g
                 inkscape:label="Hershey Text"
                 transform="matrix(0.28222222,0,0,0.28222222,151.88211,161.24942)"
                 id="g4435" />
              <g
                 transform="matrix(1.2691195,-8.438795e-4,-0.06302835,5.7407885,160.82498,460.88296)"
                 style="font-style:normal;font-variant:normal;font-weight:normal;font-stretch:normal;font-size:31.82224083px;line-height:125%;font-family:Garuda;-inkscape-font-specification:'Garuda, Normal';text-align:start;letter-spacing:0px;word-spacing:0px;writing-mode:lr-tb;text-anchor:start;fill:#000000;fill-opacity:1;stroke:none;stroke-width:1px;stroke-linecap:butt;stroke-linejoin:miter;stroke-opacity:1"
                 id="text3398" />
              <flowRoot
                 xml:space="preserve"
                 id="flowRoot3368"
                 style="font-style:normal;font-variant:normal;font-weight:normal;font-stretch:normal;font-size:180px;line-height:125%;font-family:Garuda;-inkscape-font-specification:'Garuda, Normal';text-align:start;letter-spacing:0px;word-spacing:0px;writing-mode:lr-tb;text-anchor:start;fill:#000000;fill-opacity:1;stroke:none;stroke-width:1px;stroke-linecap:butt;stroke-linejoin:miter;stroke-opacity:1"
                 transform="matrix(0.27644235,-1.8381564e-4,-0.00315852,0.2876863,-393.38796,-199.38542)"><flowRegion
                   id="flowRegion3370"><rect
                     id="rect3372"
                     width="1640.625"
                     height="559.375"
                     x="-190.625"
                     y="175.49213" /></flowRegion><flowPara
                   id="flowPara3374" /></flowRoot>              <flowRoot
                 xml:space="preserve"
                 id="flowRoot3376"
                 style="font-style:normal;font-variant:normal;font-weight:normal;font-stretch:normal;font-size:180px;line-height:125%;font-family:Garuda;-inkscape-font-specification:'Garuda, Normal';text-align:start;letter-spacing:0px;word-spacing:0px;writing-mode:lr-tb;text-anchor:start;fill:#000000;fill-opacity:1;stroke:none;stroke-width:1px;stroke-linecap:butt;stroke-linejoin:miter;stroke-opacity:1"
                 transform="matrix(0.27644235,-1.8381564e-4,-0.00315852,0.2876863,-393.38796,-199.38542)"><flowRegion
                   id="flowRegion3378"><rect
                     id="rect3380"
                     width="315.625"
                     height="518.75"
                     x="-284.375"
                     y="37.992126" /></flowRegion><flowPara
                   id="flowPara3382" /></flowRoot>              <text
                 xml:space="preserve"
                 style="font-style:normal;font-variant:normal;font-weight:normal;font-stretch:normal;font-size:25.38065338px;line-height:125%;font-family:Garuda;-inkscape-font-specification:'Garuda, Normal';text-align:start;letter-spacing:0px;word-spacing:0px;writing-mode:lr-tb;text-anchor:start;fill:#000000;fill-opacity:1;stroke:none;stroke-width:1px;stroke-linecap:butt;stroke-linejoin:miter;stroke-opacity:1"
                 x="-313.18579"
                 y="8.7216463"
                 id="text3430"
                 sodipodi:linespacing="125%"
                 transform="matrix(0.98026678,-6.5181172e-4,-0.01120014,1.0201379,0,0)"><tspan
                   sodipodi:role="line"
                   id="tspan3432"
                   x="-313.18579"
                   y="8.7216463" /></text>
              <g
                 id="g3358"
                 transform="translate(4.3840439,-0.2981754)">
                <g
                   id="g4251"
                   transform="matrix(1.0174326,-1.2812543e-4,0.00211554,0.82474197,13.682841,11.790708)">
                  <g
                     transform="matrix(-0.9271935,0.02671875,-0.00669446,-1.0961714,-668.42719,40.282975)"
                     style="font-style:normal;font-variant:normal;font-weight:normal;font-stretch:normal;font-size:179.52580261px;line-height:125%;font-family:'AR PL UKai CN';-inkscape-font-specification:'AR PL UKai CN';text-align:start;letter-spacing:0px;word-spacing:0px;writing-mode:lr-tb;text-anchor:start;fill:#0000f1;fill-opacity:1;stroke:#00ed00;stroke-width:0.12762713;stroke-linecap:butt;stroke-linejoin:miter;stroke-miterlimit:4;stroke-dasharray:none;stroke-opacity:1"
                     id="text3361">
                    <path
                       d="m -412.1683,-55.353293 c 2.45446,2.220697 5.00054,4.642859 7.57187,7.214192 1.51943,1.168788 3.09729,1.753182 4.73359,1.753182 1.16879,0 1.98694,-0.701273 2.45446,-2.103818 0.46751,-1.519425 0.23375,-3.91544 -0.70128,-7.188045 -0.70127,-1.870061 -2.51289,-3.447924 -5.43486,-4.733591 -6.66209,-2.454454 -10.98661,-3.331045 -12.97354,-2.629772 -0.46752,0.467515 -0.64284,1.402545 -0.52596,2.80509 0.35064,1.168788 1.98694,2.805091 4.90891,4.908909 0,0 0.50393,0.463208 0.57694,0.534675 0.073,0.07147 0.54424,0.493303 0.58406,0.528165 0.0398,0.03486 1.68454,1.586353 1.99428,1.872309 0.30975,0.285956 2.07438,1.981973 2.51554,2.405977 0.44115,0.424004 1.44549,1.449502 1.68953,1.676295 m -19.13654,18.907007 c 3.857,3.973878 7.27636,6.567872 10.19833,7.73666 1.51942,0.116879 2.68821,-0.409076 3.50636,-1.577863 0.46751,-1.168788 0.52595,-2.629773 0.17532,-4.382955 -0.81815,-2.220697 -2.10382,-3.915439 -3.857,-5.084226 -3.15573,-1.753182 -6.66209,-2.629773 -10.51909,-2.629773 -0.70127,-0.116879 -1.28567,0 -1.75318,0.350636 -0.70127,0.116879 -0.87659,0.818152 -0.52596,2.103818 0.11688,1.051909 1.05855,2.229413 2.81173,3.51508 0,0 0.49755,0.521688 0.5689,0.594899 0.0713,0.07321 0.77323,0.773944 0.94911,0.937797 0.17588,0.163853 1.67256,1.551375 2.09069,1.899998 0.41814,0.348624 1.29424,1.087705 1.42035,1.171375 0.12611,0.08367 1.79368,1.365326 2.5352,1.779469 0.74152,0.414144 1.87727,1.084662 2.29965,1.202989 m -12.67563,25.1892539 c 2.68821,-1.051909 11.571,-8.9412266 26.64836,-23.6679529 0.81815,-0.701273 1.46099,-0.876591 1.9285,-0.525954 0.58439,0.818151 0.52596,1.636303 -0.17531,2.454454 -8.64903,12.7397869 -14.60985,22.1485286 -17.88246,28.226225 -0.58439,2.688212 -1.46098,4.207636 -2.62977,4.558272 -1.6363,0.350637 -4.20763,-0.233757 -7.714,-1.753181 -3.38949,-1.168788 -5.43487,-2.688212 -6.13614,-4.5582726 -0.46751,-1.8700605 0.0584,-3.0388483 1.57787,-3.5063634 1.87006,-0.8181514 3.39674,-1.2469482 4.44865,-1.2469482 0,0 0.61422,-0.2617548 1.41206,-0.8139462 0.79783,-0.5521915 2.93791,-2.21862636 3.6325,-2.78067837 0.69459,-0.562052 4.76148,-4.12802923 5.47829,-4.79738643 0.71681,-0.6693571 3.87048,-3.5840908 4.18023,-3.8601866 0.30975,-0.2760957 2.13832,-2.0036602 2.38389,-2.2407242 m 27.20283,-37.206216 c 7.48024,-0.350637 15.66175,-1.577864 24.54454,-3.681682 8.99967,-1.87006 14.60985,-3.506363 16.83055,-4.908908 2.10381,-1.402545 4.26607,-1.577864 6.48677,-0.525955 5.4933,2.688212 8.64903,4.616712 9.46718,5.7855 0.70127,1.051909 0.35064,2.279136 -1.05191,3.681681 -1.75318,2.220697 -3.68168,8.123075 -5.7855,17.707135 2.57133,0.233757 6.19458,0.876591 10.86973,1.9285 7.36336,1.87006 11.74631,4.558272 13.14886,8.064635 1.75318,3.740121 2.22069,6.369894 1.40254,7.889318 -0.46751,1.051909 -1.11035,1.577863 -1.9285,1.577863 -1.51942,-0.233757 -3.15572,-1.110348 -4.9089,-2.629772 -6.66209,-5.259545 -12.68135,-9.525621 -18.05778,-12.798226 -0.58439,-0.350637 -0.93503,-0.584394 -1.0519,-0.701273 -2.2207,11.570999 -4.61672,19.5187559 -7.18805,23.8432707 -2.68821,4.4413935 -5.84394,7.7724387 -9.46718,9.9931355 -2.2207,1.9869392 -4.4414,1.6947423 -6.66209,-0.8765908 -1.51943,-3.2726058 -4.09076,-7.0711661 -7.714,-11.3956809 -1.75318,-2.6882119 -1.3441,-3.5063633 1.22723,-2.4544543 1.75318,0.7012727 3.68168,1.2856666 5.7855,1.7531817 3.03885,0.5843939 5.4933,-0.7597121 7.36336,-4.0323179 3.74012,-5.610181 6.83741,-15.077362 9.29186,-28.401543 1.16879,-4.908909 1.22723,-8.298393 0.17532,-10.168454 -0.35063,-0.467514 -1.57786,-0.642833 -3.68168,-0.525954 -5.14267,0.701273 -10.75285,1.811621 -16.83054,3.331045 1.40254,0.701273 2.33757,1.402545 2.80509,2.103818 0.70127,0.93503 0.64283,1.9285 -0.17532,2.980409 -1.28567,2.337575 -2.45446,4.73359 -3.50637,7.188045 -5.37642,15.31112 -12.27227,26.297725 -20.68754,32.95981503 -8.99967,7.59712067 -15.1358,11.16192297 -18.40841,10.69440797 -0.70127,-0.5843937 1.22723,-2.8635298 5.7855,-6.8374083 17.29806,-16.8305437 25.59645,-32.4338607 24.89518,-46.8099507 -1.98694,0.467515 -3.91544,0.935031 -5.7855,1.402546 -2.10381,0.818151 -4.44139,0.350636 -7.01272,-1.402546 -2.45446,-1.285667 -3.62325,-2.337576 -3.50637,-3.155727 0.35064,-0.93503 1.50323,-1.460984 3.37329,-1.577863 0,0 1.52891,-0.07912 2.05924,-0.123493 0.53032,-0.04437 2.04152,-0.138048 2.55777,-0.197211 0.51624,-0.05916 2.23863,-0.212002 2.58593,-0.261305 0.34729,-0.0493 2.93229,-0.358158 3.52299,-0.469718 0.59071,-0.111559 1.56636,-0.195229 2.323,-0.334678 m -22.55835,23.651812 c 2.80509,-2.805091 5.43486,-5.843939 7.88931,-9.116545 0.46752,-0.584394 1.05192,-0.876591 1.75319,-0.876591 0.58439,0.116879 0.93503,0.584395 1.05191,1.402546 0.23375,2.103818 -0.17532,4.441393 -1.22723,7.012726 -1.16879,5.142667 -3.857,8.765909 -8.06464,10.869727 -1.87006,0.584394 -2.98041,0.116879 -3.33104,-1.402546 -1.16879,-2.805091 -0.4994,-5.462753 1.95505,-7.917207 0,0 0.52257,-0.529727 0.72438,-0.736799 0.2018,-0.207072 0.72274,-0.744472 0.81895,-0.850473 0.0962,-0.106001 0.61246,-0.653262 0.73918,-0.78638 0.12671,-0.133118 1.06065,-1.178337 1.2343,-1.380479 0.17364,-0.202141 1.18267,-1.355827 1.40325,-1.622062 0.22058,-0.266235 1.28593,-1.572759 1.53936,-1.898158 m -50.49083,63.053418 c 20.22003,-1.753182 39.15439,-3.389485 56.80308,-4.908909 -0.70127,-7.012727 -1.28567,-11.045044 -1.75318,-12.096953 -0.93503,-1.168788 -1.0519,-1.98694 -0.35063,-2.454455 1.05191,-0.8181512 2.33757,-0.9934692 3.857,-0.5259541 2.22069,1.0519091 4.73359,2.8050901 7.53868,5.2595451 0.35063,0.350636 0.35063,3.331045 0,8.941226 17.18118,-2.337575 31.44039,-4.266075 42.77763,-5.785499 7.36336,-1.753182 14.37609,0 21.03818,5.259545 1.9869,1.753181 2.62977,3.331045 1.9285,4.73359 -0.58439,1.051909 -2.10382,1.519425 -4.55827,1.402546 -3.27261,-0.116879 -6.72053,-0.233758 -10.34378,-0.350637 -20.22003,-0.701273 -37.22589,-0.467515 -51.01758,0.701273 -0.11692,0.701273 -0.17532,1.460985 -0.17532,2.279136 0,0.116879 0.17532,0.233758 0.52595,0.350637 19.40188,16.24615 37.16746,27.057437 53.29673,32.43386 7.24648,2.220697 14.02545,4.441394 20.3369,6.662091 1.75319,0.701273 2.57134,1.460985 2.45446,2.279136 -0.11688,0.584394 -1.40255,1.051909 -3.857,1.402545 -14.37609,3.038849 -24.71987,3.681682 -31.03132,1.9285 -5.84393,-1.519424 -19.81095,-14.37609 -41.90104,-38.569997 -0.11688,11.921635 0,25.128937 0.35064,39.621906 0.46751,3.740121 -0.0584,7.421802 -1.57787,11.045045 -0.58439,1.519424 -1.57786,2.220697 -2.9804,2.103818 -0.35064,-0.233758 -0.5844,-0.409076 -0.70128,-0.525955 -6.19457,-6.428333 -8.53215,-12.856665 -7.01272,-19.284998 1.87006,-4.558273 2.80509,-15.603317 2.80509,-33.135134 -0.46752,0.584394 -0.8766,1.227227 -1.22723,1.9285 -6.54521,10.051575 -15.83708,19.460316 -27.87559,28.226225 -5.72706,4.090757 -11.74632,7.071166 -18.05777,8.941226 -4.67515,1.636303 -7.59712,2.279137 -8.76591,1.9285 -1.87006,-0.350636 -1.75318,-1.110348 0.35064,-2.279136 8.76591,-5.376424 18.23309,-12.096954 28.40154,-20.161589 11.92163,-10.752847 18.93436,-19.343438 21.03818,-25.771771 -13.79169,1.051909 -26.82368,3.038849 -39.09595,5.960818 -1.87006,0.467515 -4.09076,0.292197 -6.66209,-0.525954 -2.10382,-0.701273 -4.03232,-1.9285 -5.7855,-3.681682 -1.75318,-2.103818 -1.29482,-3.216631 1.27651,-3.33351 0,0 1.44733,-0.115919 1.72892,-0.145501 0.28159,-0.02958 2.31637,-0.20116 2.698,-0.236022 0.38164,-0.03486 3.55418,-0.299816 4.33737,-0.376513 0.78318,-0.0767 3.03849,-0.255194 3.59229,-0.309427 0.55379,-0.05423 3.25705,-0.285957 3.89532,-0.34512 0.63827,-0.05916 5.8242,-0.497958 6.2419,-0.537401 0.41769,-0.03944 2.41697,-0.202141 2.64928,-0.229258 0.23231,-0.02712 5.17421,-0.44619 5.40887,-0.465911"
                       id="path4166"
                       inkscape:connector-curvature="0"
                       sodipodi:nodetypes="cccccccccccccccccccscccccccccccccscccccccccccccccccccccccccccccccccccccccccccccscccccccccccccccccccccccccccccccccsccsssscsssscsssscccccsc" />
                  </g>
                </g>
              </g>
            </g>
          </g>
        </g>
      </g>
    </g>
  </g>
  <WCB
     pausedposy="0"
     pausedposx="0"
     lastknownposy="0"
     lastknownposx="0"
     lastpathnc="0"
     lastpath="0"
     node="0"
     layer="0" />
</svg>
