<?xml version="1.0" encoding="UTF-8" standalone="no"?>
<!-- Created with Inkscape (http://www.inkscape.org/) -->

<svg
   xmlns:dc="http://purl.org/dc/elements/1.1/"
   xmlns:cc="http://creativecommons.org/ns#"
   xmlns:rdf="http://www.w3.org/1999/02/22-rdf-syntax-ns#"
   xmlns:svg="http://www.w3.org/2000/svg"
   xmlns="http://www.w3.org/2000/svg"
   xmlns:sodipodi="http://sodipodi.sourceforge.net/DTD/sodipodi-0.dtd"
   xmlns:inkscape="http://www.inkscape.org/namespaces/inkscape"
   width="160mm"
   height="160mm"
   viewBox="0 0 160.00001 160.00001"
   id="svg4258"
   version="1.1"
   inkscape:version="0.91 r"
   sodipodi:docname="21 (复件).svg">
  <sodipodi:namedview
     inkscape:document-units="mm"
     pagecolor="#ffffff"
     bordercolor="#666666"
     borderopacity="1.0"
     inkscape:pageopacity="0.0"
     inkscape:pageshadow="2"
     inkscape:zoom="0.70710678"
     inkscape:cx="-141.01178"
     inkscape:cy="249.77694"
     inkscape:current-layer="g4251"
     id="namedview4262"
     showgrid="false"
     inkscape:window-width="1297"
     inkscape:window-height="592"
     inkscape:window-x="65"
     inkscape:window-y="24"
     inkscape:window-maximized="1"
     units="mm"
     inkscape:snap-nodes="false"
     showguides="false" />
  <defs
     id="defs4260" />
  <metadata
     id="metadata4264">
    <rdf:RDF>
      <cc:Work
         rdf:about="">
        <dc:format>image/svg+xml</dc:format>
        <dc:type
           rdf:resource="http://purl.org/dc/dcmitype/StillImage" />
        <dc:title />
      </cc:Work>
    </rdf:RDF>
  </metadata>
  <g
     transform="translate(0,-49.999993)"
     id="layer1"
     inkscape:groupmode="layer"
     inkscape:label="Layer 1">
    <g
       transform="matrix(0.39181791,0.93530971,-0.9095463,0.38102517,226.38736,259.20817)"
       style="font-style:normal;font-variant:normal;font-weight:300;font-stretch:normal;font-size:53.77825546px;line-height:125%;font-family:'AR PL UMing TW';-inkscape-font-specification:'AR PL UMing TW, Light';text-align:start;letter-spacing:0px;word-spacing:0px;writing-mode:lr-tb;text-anchor:start;fill:#000000;fill-opacity:1;stroke:none;stroke-width:1px;stroke-linecap:butt;stroke-linejoin:miter;stroke-opacity:1"
       id="text3428">
      <g
         id="g3391"
         transform="matrix(0.38958785,-0.9546167,0.8965485,0.3738953,-71.862448,-226.06917)">
        <g
           id="g3414">
          <g
             id="g3437">
            <g
               id="g3460">
              <g
                 id="g3693"
                 transform="matrix(0.28222222,0,0,0.28222222,151.88211,161.24942)"
                 inkscape:label="Hershey Text" />
              <g
                 inkscape:label="Hershey Text"
                 transform="matrix(0.28222222,0,0,0.28222222,151.88211,161.24942)"
                 id="g3793" />
              <g
                 id="g3895"
                 transform="matrix(0.28222222,0,0,0.28222222,151.88211,161.24942)"
                 inkscape:label="Hershey Text" />
              <g
                 inkscape:label="Hershey Text"
                 transform="matrix(0.28222222,0,0,0.28222222,151.88211,161.24942)"
                 id="g3999" />
              <g
                 id="g4105"
                 transform="matrix(0.28222222,0,0,0.28222222,151.88211,161.24942)"
                 inkscape:label="Hershey Text" />
              <g
                 inkscape:label="Hershey Text"
                 transform="matrix(0.28222222,0,0,0.28222222,151.88211,161.24942)"
                 id="g4213" />
              <g
                 id="g4323"
                 transform="matrix(0.28222222,0,0,0.28222222,151.88211,161.24942)"
                 inkscape:label="Hershey Text" />
              <g
                 inkscape:label="Hershey Text"
                 transform="matrix(0.28222222,0,0,0.28222222,151.88211,161.24942)"
                 id="g4435" />
              <g
                 transform="matrix(1.2691195,-8.438795e-4,-0.06302835,5.7407885,160.82498,460.88296)"
                 style="font-style:normal;font-variant:normal;font-weight:normal;font-stretch:normal;font-size:31.82224083px;line-height:125%;font-family:Garuda;-inkscape-font-specification:'Garuda, Normal';text-align:start;letter-spacing:0px;word-spacing:0px;writing-mode:lr-tb;text-anchor:start;fill:#000000;fill-opacity:1;stroke:none;stroke-width:1px;stroke-linecap:butt;stroke-linejoin:miter;stroke-opacity:1"
                 id="text3398" />
              <flowRoot
                 xml:space="preserve"
                 id="flowRoot3368"
                 style="font-style:normal;font-variant:normal;font-weight:normal;font-stretch:normal;font-size:180px;line-height:125%;font-family:Garuda;-inkscape-font-specification:'Garuda, Normal';text-align:start;letter-spacing:0px;word-spacing:0px;writing-mode:lr-tb;text-anchor:start;fill:#000000;fill-opacity:1;stroke:none;stroke-width:1px;stroke-linecap:butt;stroke-linejoin:miter;stroke-opacity:1"
                 transform="matrix(0.27644235,-1.8381564e-4,-0.00315852,0.2876863,-393.38796,-199.38542)"><flowRegion
                   id="flowRegion3370"><rect
                     id="rect3372"
                     width="1640.625"
                     height="559.375"
                     x="-190.625"
                     y="175.49213" /></flowRegion><flowPara
                   id="flowPara3374" /></flowRoot>              <flowRoot
                 xml:space="preserve"
                 id="flowRoot3376"
                 style="font-style:normal;font-variant:normal;font-weight:normal;font-stretch:normal;font-size:180px;line-height:125%;font-family:Garuda;-inkscape-font-specification:'Garuda, Normal';text-align:start;letter-spacing:0px;word-spacing:0px;writing-mode:lr-tb;text-anchor:start;fill:#000000;fill-opacity:1;stroke:none;stroke-width:1px;stroke-linecap:butt;stroke-linejoin:miter;stroke-opacity:1"
                 transform="matrix(0.27644235,-1.8381564e-4,-0.00315852,0.2876863,-393.38796,-199.38542)"><flowRegion
                   id="flowRegion3378"><rect
                     id="rect3380"
                     width="315.625"
                     height="518.75"
                     x="-284.375"
                     y="37.992126" /></flowRegion><flowPara
                   id="flowPara3382" /></flowRoot>              <text
                 xml:space="preserve"
                 style="font-style:normal;font-variant:normal;font-weight:normal;font-stretch:normal;font-size:25.38065338px;line-height:125%;font-family:Garuda;-inkscape-font-specification:'Garuda, Normal';text-align:start;letter-spacing:0px;word-spacing:0px;writing-mode:lr-tb;text-anchor:start;fill:#000000;fill-opacity:1;stroke:none;stroke-width:1px;stroke-linecap:butt;stroke-linejoin:miter;stroke-opacity:1"
                 x="-313.18579"
                 y="8.7216463"
                 id="text3430"
                 sodipodi:linespacing="125%"
                 transform="matrix(0.98026678,-6.5181172e-4,-0.01120014,1.0201379,0,0)"><tspan
                   sodipodi:role="line"
                   id="tspan3432"
                   x="-313.18579"
                   y="8.7216463" /></text>
              <g
                 id="g3358"
                 transform="translate(4.3840439,-0.2981754)">
                <g
                   id="g4251"
                   transform="matrix(1.0174326,-1.2812543e-4,0.00211554,0.82474197,13.682841,11.790708)">
                  <g
                     transform="matrix(-0.93766608,-0.00168192,0.01329949,-1.0664539,-658.2832,31.299976)"
                     style="font-style:normal;font-variant:normal;font-weight:normal;font-stretch:normal;font-size:176.37492371px;line-height:125%;font-family:'AR PL UKai CN';-inkscape-font-specification:'AR PL UKai CN';text-align:start;letter-spacing:0px;word-spacing:0px;writing-mode:lr-tb;text-anchor:start;fill:#0000f5;fill-opacity:1;stroke:#00ef00;stroke-width:0.12762713;stroke-linecap:butt;stroke-linejoin:miter;stroke-miterlimit:4;stroke-dasharray:none;stroke-opacity:1"
                     id="text3361">
                    <path
                       d="m -364.28311,-52.057185 c 2.75585,2.526204 5.67634,5.317836 8.66185,8.303349 1.83724,1.837239 3.84672,2.641031 6.02844,2.411376 1.49276,-0.114827 2.52621,-1.09086 3.10034,-2.928099 0.68897,-2.066894 0.4019,-5.052407 -0.8612,-8.956539 -1.37793,-3.444823 -7.40637,-6.315508 -18.08532,-8.612057 -2.18172,-0.45931 -3.67448,-0.516724 -4.47827,-0.172241 -0.68897,0.459309 -0.91862,1.664997 -0.68897,3.617064 0.45931,1.492756 2.58362,3.617063 6.37293,6.372922 0,0 1.24134,1.146853 1.34095,1.259288 0.0996,0.112435 1.96494,1.819399 2.10529,1.97783 0.14035,0.15843 2.24316,2.107481 2.35201,2.252033 0.10885,0.144551 2.2282,2.146591 2.41388,2.392329 m -51.44692,11.373752 c 0.68897,4.937579 -2.29429,11.518518 -8.95428,19.671265 -2.18172,2.755858 -1.60758,7.3489548 1.72241,13.77929049 l 0.17224,0.34448231 c 2.41138,2.7558581 4.42086,2.583617 6.02844,-0.51672344 1.83724,-3.10034046 3.50224,-6.88964556 4.995,-11.36791536 1.49275,-5.282061 2.87068,-9.473262 4.13378,-12.573603 2.75586,1.377929 6.2581,1.607584 10.50671,0.688965 16.53515,-4.937579 37.2615,-8.554643 62.17905,-10.851192 4.82275,-0.459309 8.15275,-0.516723 9.98999,-0.172241 1.72241,0.45931 2.41138,1.263102 2.06689,2.411376 0,0.344483 -2.87068,5.339476 -8.61205,14.984979 -1.14827,1.722411 -1.37793,2.813272 -0.68897,3.272582 1.03345,0.459309 2.64103,0.05741 4.82275,-1.205688 7.34896,-4.593097 14.06637,-7.57861 20.15222,-8.956539 4.93758,-1.033447 7.34896,-2.239135 7.23413,-3.617064 -0.34449,-1.148275 -4.5931,-5.109821 -12.74585,-11.884639 -3.10034,-2.755858 -9.87516,-3.10034 -20.32445,-1.033447 -18.25756,2.411376 -36.8596,5.167234 -55.80613,8.267575 -6.20068,1.148274 -12.40136,2.066893 -18.60204,2.755858 l 0,-0.344482 c -1.49276,-2.870686 -2.98552,-4.822752 -4.47827,-5.856199 -2.41138,-1.722411 -3.67448,-0.976033 -3.78931,2.239135 0,0 0.0387,0.311757 0.0444,0.369252 0.006,0.0575 0.0446,0.652659 0.0478,0.752038 0.003,0.09938 -0.0144,1.114854 -0.0528,1.342523 -0.0384,0.227669 -0.10703,1.040836 -0.17947,1.342365 -0.0724,0.30153 -0.63838,2.744431 -0.94625,3.235055 -0.30787,0.490624 -0.49802,1.390103 -1.16809,2.657549 -0.67007,1.267446 -1.73039,3.198043 -2.94693,4.903752 m 12.43547,33.624984 c 17.79825,-2.526203 29.33841,-4.306028 34.62047,-5.339475 -0.11483,-4.1337873 -0.22965,-8.0953334 -0.34448,-11.8846384 0,-4.0189599 -1.37793,-7.9805061 -4.13379,-11.8846386 -0.57414,-1.607584 -0.63155,-2.755858 -0.17224,-3.444823 2.18172,-1.607583 4.53568,-1.492756 7.06188,0.344483 6.08585,3.674477 9.47326,6.028439 10.16223,7.0618863 0.22965,1.6075839 -0.0574,3.1577542 -0.86121,4.6505107 -1.14827,3.6744776 -1.89465,7.980506 -2.23913,12.9180852 3.21517,-0.9186194 6.43033,-1.7798251 9.6455,-2.583617 10.67895,-3.1003405 17.91308,-3.4448227 21.70239,-1.0334468 2.75585,1.1482742 4.07637,2.4687896 3.96154,3.9615461 -1.14827,1.4927563 -2.29655,2.1817205 -3.44482,2.0668935 -16.87963,2.296549 -27.616,4.01896 -32.20909,5.167234 -0.11484,1.377929 -0.17224,2.755858 -0.17224,4.133787 7.46378,6.545163 14.64049,12.573603 21.53014,18.08532 10.79378,8.612057 22.44876,15.329461 34.96495,20.152213 11.36791,4.248615 17.10928,6.717404 17.22411,7.406369 -0.34448,0.574137 -1.09086,1.09086 -2.23913,1.55017 -4.13379,1.033447 -12.91809,2.296548 -26.3529,3.789305 -4.01896,0.574137 -7.29154,-0.344482 -9.81774,-2.755858 -13.20515,-14.238601 -25.03238,-27.960478 -35.48167,-41.165632 -0.34449,30.31444 -0.51673,47.423726 -0.51673,51.327859 0.11483,3.444823 -0.34448,6.430336 -1.37793,8.956539 -1.14827,2.411376 -2.12431,3.846719 -2.9281,4.306028 -0.80379,0.803792 -1.55016,0.861206 -2.23913,0.172241 -0.80379,-0.459309 -1.60759,-1.607583 -2.41138,-3.444822 -0.57413,-0.918619 -0.91861,-1.779825 -1.03344,-2.583617 -1.72241,-4.363443 -1.55017,-11.712398 0.51672,-22.046866 0.45931,-3.789305 0.8612,-15.329461 1.20569,-34.620468 -2.29655,3.904132 -5.16724,8.152747 -8.61206,12.745844 -7.34895,9.301021 -14.18118,16.420322 -20.49669,21.357901 -11.25309,7.808265 -18.77429,11.540156 -22.56359,11.195674 -1.95207,-0.229655 -1.89465,-1.090861 0.17224,-2.583617 11.48274,-8.956539 19.97997,-16.420322 25.49169,-22.391348 6.54516,-6.889645 12.63101,-15.042393 18.25756,-24.458242 1.49275,-2.411375 2.46879,-4.535683 2.9281,-6.372922 -7.23413,1.377929 -13.83671,2.813272 -19.80773,4.306029 -3.33,0.918619 -7.06189,-0.172241 -11.19568,-3.272582 -2.64103,-2.066893 -2.19272,-3.333609 1.25211,-3.792919 0,0 1.30658,-0.186584 1.40903,-0.206459 0.10245,-0.01988 1.72615,-0.239053 1.83707,-0.254385 0.11092,-0.01533 2.36336,-0.337305 2.54219,-0.365413 0.17884,-0.02811 3.89139,-0.559619 4.12682,-0.605615 0.23543,-0.046 6.70391,-0.980806 6.99844,-1.031399 0.29453,-0.05059 5.58329,-0.852855 5.93545,-0.903448 0.35215,-0.05059 6.308,-1.003789 6.75623,-1.075338"
                       id="path4166"
                       inkscape:connector-curvature="0"
                       sodipodi:nodetypes="cccccccccccccccccccccccccscccccccccccccccccccccccccccccccccccccccccccccccsscccscssc" />
                  </g>
                </g>
              </g>
            </g>
          </g>
        </g>
      </g>
    </g>
  </g>
  <WCB
     pausedposy="0"
     pausedposx="0"
     lastknownposy="0"
     lastknownposx="0"
     lastpathnc="0"
     lastpath="0"
     node="0"
     layer="0" />
</svg>
