<?xml version="1.0" encoding="UTF-8" standalone="no"?>
<!-- Created with Inkscape (http://www.inkscape.org/) -->

<svg
   xmlns:dc="http://purl.org/dc/elements/1.1/"
   xmlns:cc="http://creativecommons.org/ns#"
   xmlns:rdf="http://www.w3.org/1999/02/22-rdf-syntax-ns#"
   xmlns:svg="http://www.w3.org/2000/svg"
   xmlns="http://www.w3.org/2000/svg"
   xmlns:sodipodi="http://sodipodi.sourceforge.net/DTD/sodipodi-0.dtd"
   xmlns:inkscape="http://www.inkscape.org/namespaces/inkscape"
   width="160mm"
   height="160mm"
   viewBox="0 0 160.00001 160.00001"
   id="svg4258"
   version="1.1"
   inkscape:version="0.91 r"
   sodipodi:docname="23.svg">
  <sodipodi:namedview
     inkscape:document-units="mm"
     pagecolor="#ffffff"
     bordercolor="#666666"
     borderopacity="1.0"
     inkscape:pageopacity="0.0"
     inkscape:pageshadow="2"
     inkscape:zoom="0.5"
     inkscape:cx="557.48531"
     inkscape:cy="303.55265"
     inkscape:current-layer="g4251"
     id="namedview4262"
     showgrid="false"
     inkscape:window-width="524"
     inkscape:window-height="373"
     inkscape:window-x="580"
     inkscape:window-y="163"
     inkscape:window-maximized="0"
     units="mm"
     inkscape:snap-nodes="false"
     showguides="false" />
  <defs
     id="defs4260" />
  <metadata
     id="metadata4264">
    <rdf:RDF>
      <cc:Work
         rdf:about="">
        <dc:format>image/svg+xml</dc:format>
        <dc:type
           rdf:resource="http://purl.org/dc/dcmitype/StillImage" />
        <dc:title />
      </cc:Work>
    </rdf:RDF>
  </metadata>
  <g
     transform="translate(0,-49.999993)"
     id="layer1"
     inkscape:groupmode="layer"
     inkscape:label="Layer 1">
    <g
       transform="matrix(0.39181791,0.93530971,-0.9095463,0.38102517,226.38736,259.20817)"
       style="font-style:normal;font-variant:normal;font-weight:300;font-stretch:normal;font-size:53.77825546px;line-height:125%;font-family:'AR PL UMing TW';-inkscape-font-specification:'AR PL UMing TW, Light';text-align:start;letter-spacing:0px;word-spacing:0px;writing-mode:lr-tb;text-anchor:start;fill:#000000;fill-opacity:1;stroke:none;stroke-width:1px;stroke-linecap:butt;stroke-linejoin:miter;stroke-opacity:1"
       id="text3428">
      <g
         id="g3391"
         transform="matrix(0.38958785,-0.9546167,0.8965485,0.3738953,-71.862448,-226.06917)">
        <g
           id="g3414">
          <g
             id="g3437">
            <g
               id="g3460">
              <g
                 id="g3693"
                 transform="matrix(0.28222222,0,0,0.28222222,151.88211,161.24942)"
                 inkscape:label="Hershey Text" />
              <g
                 inkscape:label="Hershey Text"
                 transform="matrix(0.28222222,0,0,0.28222222,151.88211,161.24942)"
                 id="g3793" />
              <g
                 id="g3895"
                 transform="matrix(0.28222222,0,0,0.28222222,151.88211,161.24942)"
                 inkscape:label="Hershey Text" />
              <g
                 inkscape:label="Hershey Text"
                 transform="matrix(0.28222222,0,0,0.28222222,151.88211,161.24942)"
                 id="g3999" />
              <g
                 id="g4105"
                 transform="matrix(0.28222222,0,0,0.28222222,151.88211,161.24942)"
                 inkscape:label="Hershey Text" />
              <g
                 inkscape:label="Hershey Text"
                 transform="matrix(0.28222222,0,0,0.28222222,151.88211,161.24942)"
                 id="g4213" />
              <g
                 id="g4323"
                 transform="matrix(0.28222222,0,0,0.28222222,151.88211,161.24942)"
                 inkscape:label="Hershey Text" />
              <g
                 inkscape:label="Hershey Text"
                 transform="matrix(0.28222222,0,0,0.28222222,151.88211,161.24942)"
                 id="g4435" />
              <g
                 transform="matrix(1.2691195,-8.438795e-4,-0.06302835,5.7407885,160.82498,460.88296)"
                 style="font-style:normal;font-variant:normal;font-weight:normal;font-stretch:normal;font-size:31.82224083px;line-height:125%;font-family:Garuda;-inkscape-font-specification:'Garuda, Normal';text-align:start;letter-spacing:0px;word-spacing:0px;writing-mode:lr-tb;text-anchor:start;fill:#000000;fill-opacity:1;stroke:none;stroke-width:1px;stroke-linecap:butt;stroke-linejoin:miter;stroke-opacity:1"
                 id="text3398" />
              <flowRoot
                 xml:space="preserve"
                 id="flowRoot3368"
                 style="font-style:normal;font-variant:normal;font-weight:normal;font-stretch:normal;font-size:180px;line-height:125%;font-family:Garuda;-inkscape-font-specification:'Garuda, Normal';text-align:start;letter-spacing:0px;word-spacing:0px;writing-mode:lr-tb;text-anchor:start;fill:#000000;fill-opacity:1;stroke:none;stroke-width:1px;stroke-linecap:butt;stroke-linejoin:miter;stroke-opacity:1"
                 transform="matrix(0.27644235,-1.8381564e-4,-0.00315852,0.2876863,-393.38796,-199.38542)"><flowRegion
                   id="flowRegion3370"><rect
                     id="rect3372"
                     width="1640.625"
                     height="559.375"
                     x="-190.625"
                     y="175.49213" /></flowRegion><flowPara
                   id="flowPara3374" /></flowRoot>              <flowRoot
                 xml:space="preserve"
                 id="flowRoot3376"
                 style="font-style:normal;font-variant:normal;font-weight:normal;font-stretch:normal;font-size:180px;line-height:125%;font-family:Garuda;-inkscape-font-specification:'Garuda, Normal';text-align:start;letter-spacing:0px;word-spacing:0px;writing-mode:lr-tb;text-anchor:start;fill:#000000;fill-opacity:1;stroke:none;stroke-width:1px;stroke-linecap:butt;stroke-linejoin:miter;stroke-opacity:1"
                 transform="matrix(0.27644235,-1.8381564e-4,-0.00315852,0.2876863,-393.38796,-199.38542)"><flowRegion
                   id="flowRegion3378"><rect
                     id="rect3380"
                     width="315.625"
                     height="518.75"
                     x="-284.375"
                     y="37.992126" /></flowRegion><flowPara
                   id="flowPara3382" /></flowRoot>              <text
                 xml:space="preserve"
                 style="font-style:normal;font-variant:normal;font-weight:normal;font-stretch:normal;font-size:25.38065338px;line-height:125%;font-family:Garuda;-inkscape-font-specification:'Garuda, Normal';text-align:start;letter-spacing:0px;word-spacing:0px;writing-mode:lr-tb;text-anchor:start;fill:#000000;fill-opacity:1;stroke:none;stroke-width:1px;stroke-linecap:butt;stroke-linejoin:miter;stroke-opacity:1"
                 x="-313.18579"
                 y="8.7216463"
                 id="text3430"
                 sodipodi:linespacing="125%"
                 transform="matrix(0.98026678,-6.5181172e-4,-0.01120014,1.0201379,0,0)"><tspan
                   sodipodi:role="line"
                   id="tspan3432"
                   x="-313.18579"
                   y="8.7216463" /></text>
              <g
                 id="g3358"
                 transform="translate(4.3840439,-0.2981754)">
                <g
                   id="g4251"
                   transform="matrix(1.0174326,-1.2812543e-4,0.00211554,0.82474197,13.682841,11.790708)">
                  <g
                     transform="matrix(-0.91077187,0.03729054,-0.01478235,-1.0973646,-658.83149,45.842571)"
                     style="font-style:normal;font-variant:normal;font-weight:normal;font-stretch:normal;font-size:178.14009094px;line-height:125%;font-family:'AR PL UKai CN';-inkscape-font-specification:'AR PL UKai CN';text-align:start;letter-spacing:0px;word-spacing:0px;writing-mode:lr-tb;text-anchor:start;fill:#0000f2;fill-opacity:1;stroke:#00f500;stroke-width:0.12762713;stroke-linecap:butt;stroke-linejoin:miter;stroke-miterlimit:4;stroke-dasharray:none;stroke-opacity:1"
                     id="text3361">
                    <path
                       d="m -407.9909,-41.259789 c 2.20356,2.899415 4.60089,6.1691 7.15237,9.764375 1.15977,1.739649 2.66746,2.725451 4.52309,2.957404 1.15977,0.115977 2.14557,-0.463906 2.95741,-1.739649 0.81183,-1.507696 1.04379,-4.001193 0.69586,-7.480492 -0.11598,-2.203556 -1.73965,-4.349124 -4.87102,-6.436703 -6.72665,-4.291135 -11.19175,-6.262737 -13.3953,-5.914808 -0.46391,0.34793 -0.81184,1.217755 -1.04379,2.609474 0.11597,1.39172 1.4497,3.479299 4.00119,6.262738 0,0 0.24341,0.325934 0.30284,0.406602 0.0594,0.08067 0.39475,0.52551 0.45573,0.609755 0.061,0.08425 1.01717,1.358548 1.20362,1.606757 0.18644,0.24821 1.09856,1.485741 1.20403,1.62966 0.10547,0.143919 1.23372,1.671528 1.34093,1.835346 0.1072,0.163818 1.50013,2.082052 1.71107,2.37691 m 30.8433,-20.140538 c -2.89941,6.030785 -7.60346,13.821075 -14.09815,23.331158 -0.46391,0.811837 -0.34793,1.623673 0.34793,2.435509 0.81184,0.115977 1.68167,-0.173965 2.60948,-0.869824 10.9018,-10.901803 19.13614,-18.55626 24.70302,-22.963371 2.08758,-0.811837 2.78344,-1.855626 2.08758,-3.131369 -1.04379,-1.739649 -2.78344,-3.537287 -5.21895,-5.392913 -2.55149,-1.855626 -5.21895,-2.725451 -8.00239,-2.609474 -1.73965,0.115977 -2.37752,1.39172 -1.91361,3.827229 0.46391,1.507696 0.28994,3.305333 -0.5219,5.392912 0,0 -0.31963,0.646016 -0.44488,0.895242 -0.12524,0.249225 -0.78442,1.555024 -0.86682,1.698943 -0.0824,0.143919 -0.69213,1.31984 -0.77783,1.47429 -0.0857,0.154449 -1.31667,2.356939 -1.36328,2.436366 -0.0466,0.07943 -1.19433,2.081279 -1.37231,2.369116 -0.17798,0.287838 -1.30517,2.162292 -1.50293,2.499272 -0.19775,0.336981 -1.2788,2.071026 -1.45019,2.344823 m -34.84317,26.119918 c 8.00239,-1.159766 16.3527,-2.841427 25.05095,-5.044983 10.55387,-3.711252 17.57046,-5.334925 21.04976,-4.871018 3.4793,0.811836 5.62487,1.913614 6.4367,3.305334 0.69586,0.927813 0.5219,1.913614 -0.52189,2.957403 -0.46391,0.34793 -10.08997,2.841427 -28.87818,7.4804925 4.05918,1.3917195 6.4367,2.609474 7.13256,3.6532636 0.69586,1.1597662 0.63787,2.0875792 -0.17396,2.7834389 -0.46391,1.2757429 -0.92781,3.47929869 -1.39172,6.6106675 -0.46391,2.8994155 -0.92781,5.7408427 -1.39172,8.5242815 1.73965,-0.579883 3.65326,-1.101777 5.74084,-1.565684 10.78583,-3.1313689 18.15034,-3.4792989 22.09355,-1.0437898 2.78344,1.1597668 4.11717,2.4934978 4.00119,4.0011938 -1.15977,1.507696 -2.31953,2.203556 -3.4793,2.087579 -17.74442,2.435509 -27.66042,4.001193 -29.748,4.697053 -0.81184,2.435509 -1.44971,4.755042 -1.91362,6.958597 0.23195,-0.231953 0.57988,-0.173965 1.04379,0.173965 17.51247,6.842621 26.7906,13.04737 27.83439,18.614248 1.39172,4.871018 1.39172,8.060375 0,9.568071 -0.81183,1.04379 -1.73965,1.507697 -2.78344,1.39172 -1.62367,-0.463907 -3.30533,-1.797638 -5.04498,-4.001194 -7.4225,-8.002387 -14.14914,-14.845007 -20.17993,-20.527862 -0.92781,-0.695859 -1.44971,-1.449707 -1.56569,-2.261544 -4.52309,14.497078 -10.61186,24.007161 -18.26631,28.530249 -9.27813,5.798831 -16.35271,8.524282 -21.22372,8.176352 -3.13137,0.115977 -3.4793,-0.579883 -1.04379,-2.087579 4.87101,-3.131369 9.04617,-5.798831 12.52547,-8.002387 10.20594,-7.886411 17.28051,-19.484073 21.22372,-34.792987 -7.77043,1.507696 -14.84501,3.015392 -21.22372,4.523089 -3.59527,1.043789 -7.30652,-0.05799 -11.13375,-3.305334 -2.78344,-2.087579 -2.43551,-3.363322 1.04378,-3.827229 20.52787,-3.247345 31.37168,-4.929006 32.53145,-5.044983 1.15977,-12.5254749 0.63787,-19.8899903 -1.56569,-22.0935461 -0.23195,-0.1159767 -0.40592,-0.1159767 -0.52189,0 -6.03079,1.5076961 -11.82962,1.0437896 -17.3965,-1.3917195 -3.13137,-1.9716024 -2.50137,-3.3732494 1.78976,-4.1850864 0,0 0.9406,-0.136339 1.02217,-0.151232 0.0816,-0.01489 1.24866,-0.17624 1.38379,-0.202566 0.13513,-0.02633 1.66341,-0.270273 1.82421,-0.297576 0.16081,-0.0273 1.96233,-0.330119 2.11148,-0.359904 0.14916,-0.02978 2.19632,-0.39734 2.36111,-0.432442 0.1648,-0.0351 2.69275,-0.516001 2.93335,-0.558124 0.2406,-0.04212 2.46862,-0.508981 2.75866,-0.572165 0.29004,-0.06318 3.50174,-0.76051 3.80937,-0.825045 0.30764,-0.06453 1.99965,-0.461448 2.21388,-0.512346 m 46.15714,2.82313 c 0,16.8166104 -0.28664,38.210717 -0.86652,64.073504 -0.34793,17.16454 -0.23196,28.646225 0.34793,34.445056 0.69586,2.899416 1.44971,4.929007 2.26154,6.088773 0.69586,0.811836 1.44971,1.101778 2.26155,0.869825 1.73965,-1.159767 3.01539,-5.16096 3.82723,-12.003581 1.04379,-9.858013 1.4497,-19.716025 1.21775,-29.574038 -0.46391,-8.118364 -0.40592,-28.298296 0.17396,-60.539797 0.11598,-6.726644 0.69586,-11.481685 1.73965,-14.265124 1.04379,-0.34793 2.31954,-0.869825 3.82723,-1.565685 4.98699,-1.855626 9.62606,-3.595275 13.9172,-5.218948 0.46391,-0.34793 1.39172,-0.173965 2.78344,0.521895 1.39172,0.811837 1.56568,2.551486 0.52189,5.218948 -3.82723,10.901802 -6.26274,17.1645401 -7.30653,18.7882128 -0.81183,1.8556259 -1.15976,3.2473454 -1.04379,4.1751584 -0.11597,1.5076961 1.15977,2.66746227 3.82723,3.47929862 10.78583,8.46629348 16.64265,17.86040018 17.57046,28.18231918 0,2.783439 -0.81184,4.929006 -2.43551,6.436702 -1.73965,1.159767 -4.17516,1.39172 -7.30653,0.69586 -4.63906,-0.811836 -9.04617,-1.623672 -13.22133,-2.435509 -1.04379,-0.115977 -1.50769,0.289942 -1.39172,1.217755 0.34793,0.811836 1.39172,1.855625 3.13137,3.131368 8.81422,4.986995 14.20713,9.220141 16.17874,12.69944 0.81183,1.507697 2.02959,2.377521 3.65326,2.609474 1.39172,0.115977 2.9574,-0.463906 4.69705,-1.739649 4.63907,-5.682855 7.13257,-11.887604 7.4805,-18.614248 0.46391,-10.437896 -6.37872,-21.803605 -20.52787,-34.0971264 -4.87101,-2.7834389 -3.07337,-9.1621536 5.39292,-19.1361426 2.20355,-3.479299 4.81303,-5.972796 7.82842,-7.480492 3.4793,-2.087579 3.65326,-4.291135 0.52189,-6.610668 -4.63906,-3.595275 -8.4083,-6.030784 -11.30772,-7.306527 -2.08758,-0.695859 -4.05918,-0.405918 -5.9148,0.869825 -2.78344,2.435509 -10.03198,5.740843 -21.74562,9.916001 -0.11598,0 -0.17397,0.05799 -0.17397,0.173965 -2.89941,-2.899415 -5.9148,-4.523088 -9.04617,-4.871018 -1.5077,-0.463907 -3.18936,-0.231953 -5.04499,0.69586 -1.04379,1.043789 -1.15976,2.145567 -0.34793,3.305333 2.78344,5.218948 4.29114,11.191744 4.52309,17.918388 0,0 0.007,0.755533 -0.003,0.973166 -0.01,0.217634 -0.003,1.30229 -0.003,1.558535 0,0.256246 -0.003,1.323351 -0.007,1.48131 -0.003,0.1579599 0,1.1373095 0,1.2777181 0,0.1404085 -0.003,1.0284925 -0.003,1.1583704 0,0.1298779 -0.01,1.232085 -0.007,1.330371 0.003,0.098286 -0.007,1.1583704 -0.003,1.2917586 0.003,0.1333881 -0.0165,1.4602488 -0.0132,1.5971471 0.003,0.1368983 -0.01,1.2742075 -0.0132,1.3935548 -0.003,0.1193473 -0.01,1.5831063 -0.007,1.71649442 0.003,0.13338811 -0.003,1.11624791 -0.01,1.28473816 -0.007,0.16849022 -0.0163,1.44053682 -0.0163,1.81285122 0,0.3723144 -0.0233,2.0005692 -0.0233,2.149495"
                       id="path4166"
                       inkscape:connector-curvature="0"
                       sodipodi:nodetypes="ccccccccccccccccccccccccccccccccccccccccccccccccccccccccccccccccccccccccccccccccccccccccccccccccscccsscsccccccccccc" />
                  </g>
                </g>
              </g>
            </g>
          </g>
        </g>
      </g>
    </g>
  </g>
  <WCB
     pausedposy="0"
     pausedposx="0"
     lastknownposy="0"
     lastknownposx="0"
     lastpathnc="0"
     lastpath="0"
     node="0"
     layer="0" />
</svg>
