<?xml version="1.0" encoding="UTF-8" standalone="no"?>
<!-- Created with Inkscape (http://www.inkscape.org/) -->

<svg
   xmlns:dc="http://purl.org/dc/elements/1.1/"
   xmlns:cc="http://creativecommons.org/ns#"
   xmlns:rdf="http://www.w3.org/1999/02/22-rdf-syntax-ns#"
   xmlns:svg="http://www.w3.org/2000/svg"
   xmlns="http://www.w3.org/2000/svg"
   xmlns:sodipodi="http://sodipodi.sourceforge.net/DTD/sodipodi-0.dtd"
   xmlns:inkscape="http://www.inkscape.org/namespaces/inkscape"
   width="160mm"
   height="160mm"
   viewBox="0 0 160.00001 160.00001"
   id="svg4258"
   version="1.1"
   inkscape:version="0.91 r"
   sodipodi:docname="24.svg">
  <sodipodi:namedview
     inkscape:document-units="mm"
     pagecolor="#ffffff"
     bordercolor="#666666"
     borderopacity="1.0"
     inkscape:pageopacity="0.0"
     inkscape:pageshadow="2"
     inkscape:zoom="0.70710678"
     inkscape:cx="98.556594"
     inkscape:cy="313.25125"
     inkscape:current-layer="g4251"
     id="namedview4262"
     showgrid="false"
     inkscape:window-width="1297"
     inkscape:window-height="592"
     inkscape:window-x="65"
     inkscape:window-y="24"
     inkscape:window-maximized="1"
     units="mm"
     inkscape:snap-nodes="false"
     showguides="false" />
  <defs
     id="defs4260" />
  <metadata
     id="metadata4264">
    <rdf:RDF>
      <cc:Work
         rdf:about="">
        <dc:format>image/svg+xml</dc:format>
        <dc:type
           rdf:resource="http://purl.org/dc/dcmitype/StillImage" />
        <dc:title />
      </cc:Work>
    </rdf:RDF>
  </metadata>
  <g
     transform="translate(0,-49.999993)"
     id="layer1"
     inkscape:groupmode="layer"
     inkscape:label="Layer 1">
    <g
       transform="matrix(0.39181791,0.93530971,-0.9095463,0.38102517,226.38736,259.20817)"
       style="font-style:normal;font-variant:normal;font-weight:300;font-stretch:normal;font-size:53.77825546px;line-height:125%;font-family:'AR PL UMing TW';-inkscape-font-specification:'AR PL UMing TW, Light';text-align:start;letter-spacing:0px;word-spacing:0px;writing-mode:lr-tb;text-anchor:start;fill:#000000;fill-opacity:1;stroke:none;stroke-width:1px;stroke-linecap:butt;stroke-linejoin:miter;stroke-opacity:1"
       id="text3428">
      <g
         id="g3391"
         transform="matrix(0.38958785,-0.9546167,0.8965485,0.3738953,-71.862448,-226.06917)">
        <g
           id="g3414">
          <g
             id="g3437">
            <g
               id="g3460">
              <g
                 id="g3693"
                 transform="matrix(0.28222222,0,0,0.28222222,151.88211,161.24942)"
                 inkscape:label="Hershey Text" />
              <g
                 inkscape:label="Hershey Text"
                 transform="matrix(0.28222222,0,0,0.28222222,151.88211,161.24942)"
                 id="g3793" />
              <g
                 id="g3895"
                 transform="matrix(0.28222222,0,0,0.28222222,151.88211,161.24942)"
                 inkscape:label="Hershey Text" />
              <g
                 inkscape:label="Hershey Text"
                 transform="matrix(0.28222222,0,0,0.28222222,151.88211,161.24942)"
                 id="g3999" />
              <g
                 id="g4105"
                 transform="matrix(0.28222222,0,0,0.28222222,151.88211,161.24942)"
                 inkscape:label="Hershey Text" />
              <g
                 inkscape:label="Hershey Text"
                 transform="matrix(0.28222222,0,0,0.28222222,151.88211,161.24942)"
                 id="g4213" />
              <g
                 id="g4323"
                 transform="matrix(0.28222222,0,0,0.28222222,151.88211,161.24942)"
                 inkscape:label="Hershey Text" />
              <g
                 inkscape:label="Hershey Text"
                 transform="matrix(0.28222222,0,0,0.28222222,151.88211,161.24942)"
                 id="g4435" />
              <g
                 transform="matrix(1.2691195,-8.438795e-4,-0.06302835,5.7407885,160.82498,460.88296)"
                 style="font-style:normal;font-variant:normal;font-weight:normal;font-stretch:normal;font-size:31.82224083px;line-height:125%;font-family:Garuda;-inkscape-font-specification:'Garuda, Normal';text-align:start;letter-spacing:0px;word-spacing:0px;writing-mode:lr-tb;text-anchor:start;fill:#000000;fill-opacity:1;stroke:none;stroke-width:1px;stroke-linecap:butt;stroke-linejoin:miter;stroke-opacity:1"
                 id="text3398" />
              <flowRoot
                 xml:space="preserve"
                 id="flowRoot3368"
                 style="font-style:normal;font-variant:normal;font-weight:normal;font-stretch:normal;font-size:180px;line-height:125%;font-family:Garuda;-inkscape-font-specification:'Garuda, Normal';text-align:start;letter-spacing:0px;word-spacing:0px;writing-mode:lr-tb;text-anchor:start;fill:#000000;fill-opacity:1;stroke:none;stroke-width:1px;stroke-linecap:butt;stroke-linejoin:miter;stroke-opacity:1"
                 transform="matrix(0.27644235,-1.8381564e-4,-0.00315852,0.2876863,-393.38796,-199.38542)"><flowRegion
                   id="flowRegion3370"><rect
                     id="rect3372"
                     width="1640.625"
                     height="559.375"
                     x="-190.625"
                     y="175.49213" /></flowRegion><flowPara
                   id="flowPara3374" /></flowRoot>              <flowRoot
                 xml:space="preserve"
                 id="flowRoot3376"
                 style="font-style:normal;font-variant:normal;font-weight:normal;font-stretch:normal;font-size:180px;line-height:125%;font-family:Garuda;-inkscape-font-specification:'Garuda, Normal';text-align:start;letter-spacing:0px;word-spacing:0px;writing-mode:lr-tb;text-anchor:start;fill:#000000;fill-opacity:1;stroke:none;stroke-width:1px;stroke-linecap:butt;stroke-linejoin:miter;stroke-opacity:1"
                 transform="matrix(0.27644235,-1.8381564e-4,-0.00315852,0.2876863,-393.38796,-199.38542)"><flowRegion
                   id="flowRegion3378"><rect
                     id="rect3380"
                     width="315.625"
                     height="518.75"
                     x="-284.375"
                     y="37.992126" /></flowRegion><flowPara
                   id="flowPara3382" /></flowRoot>              <text
                 xml:space="preserve"
                 style="font-style:normal;font-variant:normal;font-weight:normal;font-stretch:normal;font-size:25.38065338px;line-height:125%;font-family:Garuda;-inkscape-font-specification:'Garuda, Normal';text-align:start;letter-spacing:0px;word-spacing:0px;writing-mode:lr-tb;text-anchor:start;fill:#000000;fill-opacity:1;stroke:none;stroke-width:1px;stroke-linecap:butt;stroke-linejoin:miter;stroke-opacity:1"
                 x="-313.18579"
                 y="8.7216463"
                 id="text3430"
                 sodipodi:linespacing="125%"
                 transform="matrix(0.98026678,-6.5181172e-4,-0.01120014,1.0201379,0,0)"><tspan
                   sodipodi:role="line"
                   id="tspan3432"
                   x="-313.18579"
                   y="8.7216463" /></text>
              <g
                 id="g3358"
                 transform="translate(4.3840439,-0.2981754)">
                <g
                   id="g4251"
                   transform="matrix(1.0174326,-1.2812543e-4,0.00211554,0.82474197,13.682841,11.790708)">
                  <g
                     transform="matrix(-0.84574462,0.02507318,-0.00781494,-1.1821583,-659.63437,40.397537)"
                     style="font-style:normal;font-variant:normal;font-weight:normal;font-stretch:normal;font-size:167.48222351px;line-height:125%;font-family:'AR PL UKai CN';-inkscape-font-specification:'AR PL UKai CN';text-align:start;letter-spacing:0px;word-spacing:0px;writing-mode:lr-tb;text-anchor:start;fill:#0000f1;fill-opacity:1;stroke:#00ea00;stroke-width:0.12762713;stroke-linecap:butt;stroke-linejoin:miter;stroke-miterlimit:4;stroke-dasharray:none;stroke-opacity:1"
                     id="text3361">
                    <path
                       d="m -435.10879,-37.910391 c 2.94402,2.289796 5.91111,4.815594 8.85514,7.541541 1.63557,1.417493 3.32565,2.017201 5.07026,1.799126 1.09038,-0.109038 1.90816,-0.872303 2.45335,-2.289796 0.43615,-1.744607 0.0545,-4.19796 -1.1449,-7.360059 -0.65423,-2.07172 -2.61691,-3.761808 -5.88804,-5.070263 -7.95977,-2.289796 -12.6484,-3.10758 -14.06589,-2.453352 -0.43615,0.436151 -0.59971,1.362973 -0.49067,2.780466 0.43615,1.090379 2.18075,2.780467 5.23382,5.070263 0,0 0.51264,0.400643 0.58541,0.459309 0.0728,0.05867 0.87939,0.706417 0.97979,0.789384 0.1004,0.08297 0.94377,0.769742 1.06927,0.866536 0.1255,0.09679 0.82329,0.677558 0.98393,0.808921 0.16064,0.131363 0.60724,0.518977 0.69243,0.593939 0.0852,0.07496 0.68864,0.593178 0.78626,0.673029 0.0976,0.07985 0.75272,0.641256 0.86316,0.740354 0.11044,0.0991 0.94897,0.83385 1.07321,0.951182 0.12424,0.117332 0.87457,0.793414 0.96744,0.883294 0.0929,0.08988 0.69025,0.631466 0.76054,0.69369 m -35.0941,30.15843936 c 2.72595,-0.43615163 6.59679,-1.63556856 11.61254,-3.59825086 3.27113,-1.4174928 7.74169,-4.0889216 13.41166,-8.0142865 1.74461,-1.199417 3.1621,-1.472011 4.25248,-0.817784 4.14344,1.526531 6.76035,3.1075803 7.85073,4.743149 0.8723,1.1994169 0.76326,2.3443149 -0.32711,3.434694 -2.2898,2.5078719 -3.48922,4.96122475 -3.59826,7.3600587 -2.07172,17.8822173 -3.05306,30.4760953 -2.94402,37.7816343 -0.54519,5.451895 1.36298,6.324199 5.72449,2.61691 3.38017,-2.61691 6.76035,-5.070263 10.14053,-7.360059 1.19941,-0.981341 1.85364,-1.090379 1.96268,-0.327114 0.21807,0.872303 -0.21808,1.853645 -1.30846,2.944024 -7.41457,8.504957 -12.81195,15.210788 -16.19213,20.117494 -1.09037,2.398833 -2.01719,3.979883 -2.78046,4.743148 -0.98134,0.654228 -2.0172,0.436152 -3.10758,-0.654227 -4.57959,-4.797668 -6.05161,-8.995627 -4.41604,-12.593878 3.70729,-13.738776 5.23382,-29.767348 4.57959,-48.0857166 0.43615,-2.72594767 0.10904,-4.3069973 -0.98134,-4.7431489 -0.8723,-0.6542275 -2.50787,-0.2725948 -4.9067,1.144898 -3.1621,2.0717202 -6.43324,4.1434404 -9.81341,6.2151606 -2.72595,1.4174928 -6.21517,0.9813412 -10.46764,-1.3084548 -1.1994,-0.6542275 -1.58105,-1.4720118 -1.1449,-2.45335293 0.21807,-0.76326534 1.06096,-1.14489801 2.47845,-1.14489801 0,0 1.14515,-0.21548546 1.35813,-0.27089224 0.21299,-0.0554068 1.28889,-0.29855511 1.52232,-0.3607798 0.23343,-0.0622247 1.23242,-0.34338812 1.36294,-0.38717582 0.13053,-0.043788 1.67967,-0.523141 1.9814,-0.6274361 0.30172,-0.1042951 1.63641,-0.5540678 1.88844,-0.6485852 0.25203,-0.094518 1.62222,-0.5931785 1.86715,-0.6811775 m 60.15288,-52.4870137 c 1.09038,2.61691 -2.50034,11.24819 -10.78722,25.859269 -1.30845,-1.090379 -2.56239,-1.908164 -3.76181,-2.453353 -1.09037,-0.327114 -2.07171,-0.327114 -2.94402,0 -0.76327,0.436151 -0.98134,1.144898 -0.65423,2.126239 1.30846,3.598251 2.23528,9.104666 2.78047,16.519243 0,6.6513122 0.10904,18.4274059 0.32711,35.328281 -1.63557,0.109038 -3.21662,0.381633 -4.74315,0.817785 -1.74461,0.436151 -3.97988,0.545189 -6.70583,0.327113 -1.09038,0.109038 -1.74461,0.599709 -1.96268,1.472012 -0.32711,1.090379 -0.10904,2.017202 0.65423,2.780467 1.96268,1.417493 4.30699,3.053061 7.03294,4.906706 0.76327,0.327113 1.69009,0.109037 2.78047,-0.654228 4.36151,-3.053061 12.97551,-6.705831 25.84198,-10.958309 -3.27113,11.44898 -15.64693,24.915161 -37.1274,40.398544 -1.74461,1.417493 -1.79913,2.180758 -0.16356,2.289796 1.09038,0.109038 3.76181,-0.708746 8.01429,-2.453353 5.01574,-1.962683 9.75889,-4.743149 14.22944,-8.3414 4.03441,-3.271137 8.23237,-7.469097 12.59388,-12.593878 2.94403,-3.598251 5.39738,-6.978426 7.36006,-10.140525 -0.98134,23.334111 -2.0172,35.764433 -3.10758,37.290964 -0.43615,0.327113 -3.87085,-0.109038 -10.30408,-1.308455 -1.74461,-0.654228 -2.61691,-0.490671 -2.61691,0.49067 5.01574,4.361517 8.9411,8.232362 11.77609,11.612537 1.09038,1.744607 2.39884,2.834986 3.92537,3.271137 0.76326,0.327114 1.58104,0.05452 2.45335,-0.817784 3.92537,-4.579592 5.77901,-9.322741 5.56093,-14.229447 -0.76327,-20.717202 -0.81778,-47.813122 -0.16355,-81.287759 -0.10904,-5.342857 0.43615,-9.159184 1.63556,-11.44898 1.09038,-1.744606 1.09038,-3.10758 0,-4.088921 -2.07172,-1.744607 -4.74315,-3.271137 -8.01428,-4.579592 -1.74461,-0.654227 -3.32566,-0.599708 -4.74315,0.163557 -4.68863,2.944023 -10.57668,5.124781 -17.66414,6.542274 5.88805,-5.997085 11.01283,-11.503499 15.37434,-16.519243 1.41749,-1.744606 3.10758,-3.380174 5.07027,-4.906705 1.74461,-1.417493 1.96268,-2.834986 0.65422,-4.252479 -1.41749,-1.308455 -3.54373,-2.344315 -6.37871,-3.10758 -2.39884,-0.763265 -4.19797,-0.926822 -5.39738,-0.490671 -1.09038,0.436152 -1.36298,1.253936 -0.81779,2.453353 0,0 0.0723,0.166999 0.0924,0.268402 0.0201,0.101403 0.0703,0.371044 0.0766,0.452858 0.006,0.08181 0.0176,0.390633 0.0176,0.440182 0,0.04955 -0.0151,0.382566 -0.0188,0.429811 -0.004,0.04724 -0.0376,0.369891 -0.0464,0.420593 -0.009,0.0507 -0.0452,0.347997 -0.0615,0.418288 -0.0163,0.07029 -0.0527,0.293839 -0.0765,0.399851 -0.0238,0.106013 -0.0753,0.374501 -0.0992,0.45401 -0.0238,0.07951 -0.0778,0.308819 -0.0966,0.375653 -0.0188,0.06683 -0.0803,0.316885 -0.10667,0.398699 -0.0264,0.08181 -0.1117,0.380262 -0.12927,0.435573 -0.0176,0.05531 -0.1142,0.382566 -0.13052,0.435572 -0.0163,0.05301 -0.14684,0.455162 -0.16064,0.487427 -0.0138,0.03227 -0.23464,0.675708 -0.26304,0.755559 -0.0284,0.07985 -0.3319,0.876731 -0.38869,1.026655 -0.0568,0.149924 -0.31965,0.805872 -0.36483,0.911885 -0.0452,0.106012 -0.17947,0.433268 -0.19829,0.472446 -0.0188,0.03918 -0.31376,0.755915 -0.34388,0.815835 -0.0301,0.05992 -0.32128,0.700604 -0.36646,0.81814 -0.0452,0.117535 -0.49785,1.107869 -0.58659,1.277349 -0.0887,0.169479 -0.52536,1.13095 -0.5786,1.241763 -0.0532,0.110814 -0.5115,1.046132 -0.5341,1.092224 -0.0226,0.04609 -0.28056,0.571609 -0.32493,0.659608 -0.0444,0.088 -0.32835,0.659993 -0.36207,0.720288 -0.0337,0.0603 -0.56086,1.086951 -0.607,1.178209 -0.0462,0.09126 -0.6212,1.222209 -0.70994,1.372133 m -1.15569,13.153234 c -0.32711,4.470554 -0.49067,8.995627 -0.49067,13.575219 4.14344,-2.834986 8.17784,-4.088922 12.10321,-3.761808 2.28979,0.327114 3.97988,1.03586 5.07026,2.126239 0.98134,1.199417 0.43615,2.017202 -1.63557,2.453353 -4.47055,0.8723033 -9.54082,1.9626824 -15.21079,3.2711373 -0.32711,0 -0.49067,0.054519 -0.49067,0.1635568 -0.10906,3.489213 -0.16356,7.0874639 -0.16356,10.7947527 5.66997,-2.94402344 10.14053,-4.2524783 13.41167,-3.92536458 2.50787,0.21807581 4.30699,1.0358601 5.39737,2.45335288 0.87231,1.1994169 0.2726,2.0172012 -1.79912,2.4533529 -4.57959,0.8723033 -9.97697,1.9626823 -16.19213,3.2711372 l -0.98134,0 c -0.10906,3.7072888 -0.16356,7.6871718 -0.16356,11.9396508 7.52361,-1.853645 14.77463,-3.65277 21.75306,-5.397376 0.32711,-25.296795 -0.16356,-39.798836 -1.47201,-43.506125 -0.65423,-0.872303 -1.79912,-0.926822 -3.43469,-0.163557 -9.81341,2.834986 -15.04849,4.26285 -15.70272,4.26285 0,0 -0.027,0.335984 -0.0333,0.436235 -0.006,0.100251 -0.0314,0.498949 -0.0364,0.556565 -0.005,0.05762 -0.0201,0.384871 -0.0263,0.455162 -0.006,0.07029 -0.0314,0.478208 -0.0364,0.523148 -0.005,0.04494 -0.0402,0.581916 -0.0402,0.609572 0,0.02765 -0.0201,0.376805 -0.0201,0.427506 0,0.0507 -0.0301,0.490884 -0.0326,0.532367 -0.003,0.04148 -0.0238,0.533519 -0.0251,0.581916 -10e-4,0.0484 -0.0389,0.619943 -0.0389,0.65336 0,0.03342 -0.0176,0.497797 -0.0188,0.545042 -10e-4,0.04724 -0.0251,0.541585 -0.0251,0.566936 0,0.02535 -0.0276,0.593439 -0.0276,0.621094 0,0.02766 -0.0727,1.945912 -0.0727,2.147984 m 32.4919,11.613792 c 10.46764,-2.0717202 18.9726,-3.8163267 25.51487,-5.2338195 -0.43615,-14.7201165 -0.70874,-22.9524785 -0.81778,-24.6970855 -0.21807,-3.598251 -1.52653,-6.869388 -3.92537,-9.813412 -1.85364,-2.507871 -1.79912,-4.14344 0.16356,-4.906705 2.07172,-0.763265 4.96122,-0.163557 8.66851,1.799125 6.10613,2.180758 8.28689,4.961225 6.54228,8.3414 -1.63557,6.433236 -2.45335,15.428863 -2.45335,26.986882 4.90671,-1.853645 9.4863,-1.962683 13.73877,-0.327114 2.39883,1.090379 3.54373,2.180758 3.4347,3.271137 -0.87231,1.4174927 -1.85365,2.0717202 -2.94403,1.9626823 -9.37726,1.6355686 -14.12041,2.5078718 -14.22944,2.6169097 0.32711,21.262392 1.36297,42.415746 3.10758,63.460061 0.32711,7.959767 -0.49067,14.447523 -2.45336,19.463266 -1.52653,3.925365 -3.10758,5.833528 -4.74315,5.724491 -1.7446,-0.218076 -3.4892,-2.12624 -5.23381,-5.724491 -1.63557,-3.162099 -5.77902,-7.414577 -12.43033,-12.757435 -2.18075,-1.744606 -3.32565,-2.998542 -3.43469,-3.761807 -0.32711,-1.090379 1.30846,-0.926823 4.90671,0.49067 6.76035,1.526531 10.52215,1.962682 11.28542,1.308455 1.19941,-1.090379 1.85364,-2.834985 1.96268,-5.233819 -0.54519,-25.732946 -0.8723,-46.123035 -0.98134,-61.1702655 -6.21516,1.1994169 -11.83061,2.50787181 -16.84636,3.9253646 -2.61691,0.7632653 -5.88804,-0.054519 -9.81341,-2.4533529 -2.39883,-1.7446065 -1.98638,-2.8465086 1.06668,-3.2826603 0,0 1.43343,-0.2786075 1.58654,-0.3154814 0.15311,-0.036874 1.79718,-0.3549112 1.96284,-0.391785 0.16566,-0.036874 2.66565,-0.5323668 2.75852,-0.5531084 0.0929,-0.020741 2.96936,-0.5876775 3.12498,-0.6245514 0.15562,-0.036874 4.33487,-0.8783321 4.88153,-1.0021825 0.54665,-0.1238504 5.33166,-1.0950986 6.23329,-1.290652 m -13.95231,29.9978508 c 2.07172,2.616909 4.16854,5.430793 6.24027,8.374817 1.09037,1.417493 2.39883,2.235277 3.92536,2.453352 0.98134,0.109038 1.79912,-0.436151 2.45335,-1.635568 0.76327,-1.308455 0.92682,-3.434694 0.49067,-6.378718 -0.10903,-1.744606 -1.52652,-3.543731 -4.25247,-5.397376 -6.3242,-3.598251 -10.14053,-5.233819 -11.44899,-4.906706 -0.43615,0.327114 -0.70874,1.090379 -0.81778,2.289796 0.10904,1.090379 1.25394,2.834986 3.43469,5.23382 0,0 0.21451,0.288027 0.26973,0.361775 0.0552,0.07375 0.55221,0.686776 0.62751,0.781266 0.0753,0.09449 0.42921,0.550803 0.48945,0.626856 0.0602,0.07605 0.43779,0.580837 0.46441,0.615059 0.0266,0.03422 1.04663,1.385349 1.17213,1.555891 0.1255,0.170542 0.96124,1.28941 1.03224,1.387186 0.071,0.09778 0.75964,1.065766 0.84128,1.17658"
                       id="path4166"
                       inkscape:connector-curvature="0"
                       sodipodi:nodetypes="cccccccccccccccccccccccccccccccccccccccccccccccccccccccccccccccccccccsccccccccccccccccccccccccccccccccccccccccccccccccccccccccsccsscccsccscscsccssccccccscccccccccccccscsssccscsscsscssc" />
                  </g>
                </g>
              </g>
            </g>
          </g>
        </g>
      </g>
    </g>
  </g>
  <WCB
     pausedposy="0"
     pausedposx="0"
     lastknownposy="0"
     lastknownposx="0"
     lastpathnc="0"
     lastpath="0"
     node="0"
     layer="0" />
</svg>
