<?xml version="1.0" encoding="UTF-8" standalone="no"?>
<!-- Created with Inkscape (http://www.inkscape.org/) -->

<svg
   xmlns:dc="http://purl.org/dc/elements/1.1/"
   xmlns:cc="http://creativecommons.org/ns#"
   xmlns:rdf="http://www.w3.org/1999/02/22-rdf-syntax-ns#"
   xmlns:svg="http://www.w3.org/2000/svg"
   xmlns="http://www.w3.org/2000/svg"
   xmlns:sodipodi="http://sodipodi.sourceforge.net/DTD/sodipodi-0.dtd"
   xmlns:inkscape="http://www.inkscape.org/namespaces/inkscape"
   width="160mm"
   height="160mm"
   viewBox="0 0 160.00001 160.00001"
   id="svg4258"
   version="1.1"
   inkscape:version="0.91 r"
   sodipodi:docname="3.svg">
  <sodipodi:namedview
     inkscape:document-units="mm"
     pagecolor="#ffffff"
     bordercolor="#666666"
     borderopacity="1.0"
     inkscape:pageopacity="0.0"
     inkscape:pageshadow="2"
     inkscape:zoom="0.64"
     inkscape:cx="-28.500479"
     inkscape:cy="263.39997"
     inkscape:current-layer="text4333"
     id="namedview4262"
     showgrid="false"
     inkscape:window-width="547"
     inkscape:window-height="373"
     inkscape:window-x="574"
     inkscape:window-y="145"
     inkscape:window-maximized="0"
     units="mm"
     inkscape:snap-nodes="false" />
  <defs
     id="defs4260" />
  <metadata
     id="metadata4264">
    <rdf:RDF>
      <cc:Work
         rdf:about="">
        <dc:format>image/svg+xml</dc:format>
        <dc:type
           rdf:resource="http://purl.org/dc/dcmitype/StillImage" />
        <dc:title />
      </cc:Work>
    </rdf:RDF>
  </metadata>
  <g
     transform="translate(0,-49.999993)"
     id="layer1"
     inkscape:groupmode="layer"
     inkscape:label="Layer 1">
    <g
       transform="matrix(0.39181791,0.93530971,-0.9095463,0.38102517,226.38736,259.20817)"
       style="font-style:normal;font-variant:normal;font-weight:300;font-stretch:normal;font-size:53.77825546px;line-height:125%;font-family:'AR PL UMing TW';-inkscape-font-specification:'AR PL UMing TW, Light';text-align:start;letter-spacing:0px;word-spacing:0px;writing-mode:lr-tb;text-anchor:start;fill:#000000;fill-opacity:1;stroke:none;stroke-width:1px;stroke-linecap:butt;stroke-linejoin:miter;stroke-opacity:1"
       id="text3428">
      <g
         id="g3391"
         transform="matrix(0.38958785,-0.9546167,0.8965485,0.3738953,-71.862448,-226.06917)">
        <g
           id="g3414">
          <g
             id="g3437">
            <g
               id="g3460">
              <g
                 id="g3693"
                 transform="matrix(0.28222222,0,0,0.28222222,151.88211,161.24942)"
                 inkscape:label="Hershey Text" />
              <g
                 inkscape:label="Hershey Text"
                 transform="matrix(0.28222222,0,0,0.28222222,151.88211,161.24942)"
                 id="g3793" />
              <g
                 id="g3895"
                 transform="matrix(0.28222222,0,0,0.28222222,151.88211,161.24942)"
                 inkscape:label="Hershey Text" />
              <g
                 inkscape:label="Hershey Text"
                 transform="matrix(0.28222222,0,0,0.28222222,151.88211,161.24942)"
                 id="g3999" />
              <g
                 id="g4105"
                 transform="matrix(0.28222222,0,0,0.28222222,151.88211,161.24942)"
                 inkscape:label="Hershey Text" />
              <g
                 inkscape:label="Hershey Text"
                 transform="matrix(0.28222222,0,0,0.28222222,151.88211,161.24942)"
                 id="g4213" />
              <g
                 id="g4323"
                 transform="matrix(0.28222222,0,0,0.28222222,151.88211,161.24942)"
                 inkscape:label="Hershey Text" />
              <g
                 inkscape:label="Hershey Text"
                 transform="matrix(0.28222222,0,0,0.28222222,151.88211,161.24942)"
                 id="g4435" />
              <g
                 transform="matrix(1.2691195,-8.438795e-4,-0.06302835,5.7407885,160.82498,460.88296)"
                 style="font-style:normal;font-variant:normal;font-weight:normal;font-stretch:normal;font-size:31.82224083px;line-height:125%;font-family:Garuda;-inkscape-font-specification:'Garuda, Normal';text-align:start;letter-spacing:0px;word-spacing:0px;writing-mode:lr-tb;text-anchor:start;fill:#000000;fill-opacity:1;stroke:none;stroke-width:1px;stroke-linecap:butt;stroke-linejoin:miter;stroke-opacity:1"
                 id="text3398" />
              <flowRoot
                 xml:space="preserve"
                 id="flowRoot3368"
                 style="font-style:normal;font-variant:normal;font-weight:normal;font-stretch:normal;font-size:180px;line-height:125%;font-family:Garuda;-inkscape-font-specification:'Garuda, Normal';text-align:start;letter-spacing:0px;word-spacing:0px;writing-mode:lr-tb;text-anchor:start;fill:#000000;fill-opacity:1;stroke:none;stroke-width:1px;stroke-linecap:butt;stroke-linejoin:miter;stroke-opacity:1"
                 transform="matrix(0.27644235,-1.8381564e-4,-0.00315852,0.2876863,-393.38796,-199.38542)"><flowRegion
                   id="flowRegion3370"><rect
                     id="rect3372"
                     width="1640.625"
                     height="559.375"
                     x="-190.625"
                     y="175.49213" /></flowRegion><flowPara
                   id="flowPara3374" /></flowRoot>              <flowRoot
                 xml:space="preserve"
                 id="flowRoot3376"
                 style="font-style:normal;font-variant:normal;font-weight:normal;font-stretch:normal;font-size:180px;line-height:125%;font-family:Garuda;-inkscape-font-specification:'Garuda, Normal';text-align:start;letter-spacing:0px;word-spacing:0px;writing-mode:lr-tb;text-anchor:start;fill:#000000;fill-opacity:1;stroke:none;stroke-width:1px;stroke-linecap:butt;stroke-linejoin:miter;stroke-opacity:1"
                 transform="matrix(0.27644235,-1.8381564e-4,-0.00315852,0.2876863,-393.38796,-199.38542)"><flowRegion
                   id="flowRegion3378"><rect
                     id="rect3380"
                     width="315.625"
                     height="518.75"
                     x="-284.375"
                     y="37.992126" /></flowRegion><flowPara
                   id="flowPara3382" /></flowRoot>              <text
                 xml:space="preserve"
                 style="font-style:normal;font-variant:normal;font-weight:normal;font-stretch:normal;font-size:25.38065338px;line-height:125%;font-family:Garuda;-inkscape-font-specification:'Garuda, Normal';text-align:start;letter-spacing:0px;word-spacing:0px;writing-mode:lr-tb;text-anchor:start;fill:#000000;fill-opacity:1;stroke:none;stroke-width:1px;stroke-linecap:butt;stroke-linejoin:miter;stroke-opacity:1"
                 x="-313.18579"
                 y="8.7216463"
                 id="text3430"
                 sodipodi:linespacing="125%"
                 transform="matrix(0.98026678,-6.5181172e-4,-0.01120014,1.0201379,0,0)"><tspan
                   sodipodi:role="line"
                   id="tspan3432"
                   x="-313.18579"
                   y="8.7216463" /></text>
              <g
                 id="g3358"
                 transform="translate(4.3840439,-0.2981754)">
                <g
                   id="g4251"
                   transform="matrix(1.0174326,-1.2812543e-4,0.00211554,0.82474197,13.682841,11.790708)">
                  <g
                     transform="matrix(0.89262413,-5.9353525e-4,-0.01229983,1.1203005,0,0)"
                     style="font-style:normal;font-variant:normal;font-weight:normal;font-stretch:normal;font-size:182.49479675px;line-height:125%;font-family:'AR PL UKai CN';-inkscape-font-specification:'AR PL UKai CN';text-align:start;letter-spacing:0px;word-spacing:0px;writing-mode:lr-tb;text-anchor:start;fill:#000000;fill-opacity:1;stroke:none;stroke-width:1px;stroke-linecap:butt;stroke-linejoin:miter;stroke-opacity:1"
                     id="text4333">
                    <g
                       transform="matrix(-0.97660525,-0.05076513,0.05073849,-1.0213177,-737.44398,10.388085)"
                       style="font-style:normal;font-variant:normal;font-weight:normal;font-stretch:normal;font-size:185.21673584px;line-height:125%;font-family:'AR PL UKai CN';-inkscape-font-specification:'AR PL UKai CN';text-align:start;letter-spacing:0px;word-spacing:0px;writing-mode:lr-tb;text-anchor:start;fill:#00f100;fill-opacity:1;stroke:#0000f7;stroke-width:3.34240746px;stroke-linecap:butt;stroke-linejoin:miter;stroke-opacity:1"
                       id="text3362">
                      <path
                         d="m -436.68426,-43.369208 c 5.78802,-1.085254 12.23825,-2.953478 19.59386,-5.485738 5.42627,-3.014595 9.40655,-3.738923 11.69764,-2.291918 3.25576,2.170509 6.02919,4.039558 8.32028,5.607148 2.89401,1.929341 2.89401,4.401309 0,7.415904 -3.37635,3.014595 -6.6924,9.827581 -9.94816,20.438956 2.65284,1.205839 3.97926,2.230801 3.97926,3.074888 0,1.085254 -0.60292,1.808757 -1.80876,2.170508 -12.05838,2.170509 -21.04187,4.2204336 -26.95048,6.1497746 0,0.3617515 -0.0603,0.7837948 -0.18087,1.2661301 -3.0146,12.5407162 -4.28073,19.0522423 -3.79839,19.5345773 0.36175,0.361751 1.26612,0.482335 2.71313,0.361752 8.80262,-2.291093 14.53035,-3.79839 17.18319,-4.521893 2.04993,-0.9646707 4.58219,-0.723503 7.59679,0.723503 3.85868,1.808757 6.57181,3.798389 8.1394,5.968898 1.32643,1.205839 1.26614,2.954304 -0.18087,5.245396 -0.36175,0.482335 -0.72351,1.085254 -1.08526,1.808757 -0.36175,0.361752 -2.9543,13.083344 -7.77765,38.164777 -1.44701,8.199699 -6.51153,15.434728 -15.19356,21.705086 -2.77343,1.56759 -5.12482,1.024963 -7.05416,-1.627881 -2.89401,-4.461601 -6.87327,-9.104078 -11.93779,-13.927431 -1.68817,-1.688173 -2.71314,-3.316055 -3.07489,-4.883644 -0.36175,-1.326422 0.54262,-1.56759 2.71313,-0.723503 3.37635,1.205838 7.23503,2.592552 11.57605,4.160142 3.13518,1.205838 5.30569,1.205838 6.51153,0 1.80875,-1.929341 3.6778,-5.305688 5.60714,-10.129041 2.77343,-7.235029 4.70277,-16.339106 5.78803,-27.312233 0.48233,-4.823353 0.12058,-8.199699 -1.08526,-10.12904 -0.96467,-1.085255 -2.71313,-1.56759 -5.24539,-1.447006 -3.13518,-0.120584 -7.4762,0.783795 -13.02306,2.713136 -3.37635,1.085254 -6.39094,2.954303 -9.04378,5.607147 -2.29109,1.808757 -4.03956,2.291093 -5.2454,1.447006 -1.44701,-0.964671 -2.59255,-2.230801 -3.43664,-3.79839 -0.60291,-1.808757 -0.12058,-3.496931 1.44701,-5.06452 3.49693,-3.255763 6.02919,-8.9232027 7.59678,-17.002318 1.20584,-6.2703583 0.66321,-11.3951703 -1.62788,-15.374436 -1.20584,-1.688173 -1.20584,-2.954303 0,-3.79839 1.08525,-0.844087 2.41167,-0.663211 3.97926,0.542627 3.0146,1.447006 5.12482,2.894012 6.33065,4.341017 4.82335,-1.447005 10.18933,-3.316054 16.09794,-5.607147 0.24117,-0.241168 0.54263,-0.361752 0.90438,-0.361752 1.80876,-5.426271 3.43664,-10.370207 4.88365,-14.831808 1.32642,-4.461601 1.56759,-7.114445 0.7235,-7.958532 -0.84409,-1.447006 -3.61751,-1.447006 -8.32028,0 -9.16437,2.049925 -14.71123,2.53226 -16.64057,1.447006 -1.56759,-0.844087 -2.41167,-1.627882 -2.53226,-2.351385 -0.36175,-0.844087 0.56359,-1.287155 2.13118,-1.287155 0,0 16.34554,-4.147926 19.2638,-5.48593 m 20.02556,56.9970682 c 6.14977,-1.2058381 12.36035,-2.3513843 18.51012,-3.4366386 0.24117,-33.7634676 -1.86956,-52.3944916 -6.21057,-56.0120056 -1.56759,-1.688173 -1.92935,-3.135179 -1.08526,-4.341018 1.20584,-1.567589 3.61752,-1.929341 7.23503,-1.085254 3.13518,0.723503 6.02919,2.170508 8.68204,4.341017 1.80875,1.688173 2.29109,3.617514 1.447,5.788023 -0.96467,2.894012 -1.80875,19.534578 -2.53226,49.9216987 3.0146,-0.8440867 6.21007,-1.5072976 9.58642,-1.9896329 9.88787,-2.2910924 18.08757,-4.1601415 24.59909,-5.6071473 7.11445,-2.6528439 13.92743,-1.6278814 20.43896,3.0748873 1.92934,1.44700572 2.65284,2.8940115 2.17051,4.3410172 -0.48233,1.2058381 -1.98963,1.8087572 -4.52189,1.8087572 -23.27268,0.1205838 -39.06916,1.6881734 -47.38944,4.7027687 6.51153,7.3556131 12.54072,13.6259711 18.08757,18.8110751 10.85254,10.490791 25.68435,19.534577 44.49543,27.131357 1.20583,0.482335 1.56758,1.085255 1.08525,1.808758 -0.60292,0.96467 -1.80876,1.507297 -3.61751,1.627881 -7.4762,1.688173 -15.37444,2.53226 -23.69472,2.53226 -3.85869,-0.844087 -16.27882,-15.374436 -37.2604,-43.591048 -1.32642,-1.929341 -2.77343,-3.617515 -4.34102,-5.06452 -0.60292,17.243485 -1.26613,34.185511 -1.98963,50.826077 0.36175,2.291092 1.32642,2.652843 2.89401,1.085254 12.05838,-8.682035 18.44932,-12.96276 19.17283,-12.842176 0.7235,0.241167 1.02496,0.783794 0.90438,1.627881 -0.12059,1.205839 -1.80876,3.13518 -5.06453,5.788023 -11.69663,12.540717 -18.63019,20.680124 -20.8007,24.418222 -1.56759,2.170509 -2.95431,2.83372 -4.16014,1.989633 -2.17051,-0.96467 -4.03956,-2.592551 -5.60715,-4.883644 -1.44701,-2.53226 -1.44701,-4.943936 0,-7.235029 4.94393,-5.788023 7.4159,-26.226979 7.4159,-61.316868 -2.53226,0.602919 -4.88364,1.26613 -7.05415,1.989633 -1.92934,0.723503 -4.03956,0.844086 -6.33065,0.361751 -2.29109,-0.602919 -4.22043,-1.627882 -5.78802,-3.074887 -1.80876,-1.9293411 -1.26361,-3.1938211 1.02748,-3.5555726 l 18.24613,-3.3876997 m 13.28402,-17.4749497 c 4.34101,-4.220433 8.09641,-8.362332 11.35218,-12.341598 7.11444,-8.320283 10.17202,-14.066257 9.08677,-17.32202 -0.48233,-2.53226 0.36175,-3.738098 2.53226,-3.617514 1.92934,0.361751 4.16014,1.869049 6.6924,4.521893 2.53226,3.014595 3.85868,5.245395 3.97927,6.692401 0.24117,1.688173 -0.24117,2.954303 -1.44701,3.79839 -1.447,0.723503 -3.13517,2.049925 -5.06452,3.979266 -13.3848,12.178965 -22.79034,18.2684476 -28.21661,18.2684476 -1.44701,0 -1.92934,-0.6029192 -1.447,-1.8087576 0.48233,-0.602919 1.88529,-1.452569 2.87618,-2.506903 0,0 9.41759,-9.679428 11.00822,-12.034195"
                         style="stroke-width:3.34240746px"
                         id="path4169"
                         inkscape:connector-curvature="0"
                         sodipodi:nodetypes="ccccccccccccccccscccsccccccccccccccccccccccccccccccscccccccccccccccccccccccccccccccccccccccccccc" />
                    </g>
                  </g>
                </g>
              </g>
            </g>
          </g>
        </g>
      </g>
    </g>
  </g>
  <WCB
     pausedposy="0"
     pausedposx="0"
     lastknownposy="0"
     lastknownposx="0"
     lastpathnc="0"
     lastpath="0"
     node="0"
     layer="0" />
</svg>
