<?xml version="1.0" encoding="UTF-8" standalone="no"?>
<!-- Created with Inkscape (http://www.inkscape.org/) -->

<svg
   xmlns:dc="http://purl.org/dc/elements/1.1/"
   xmlns:cc="http://creativecommons.org/ns#"
   xmlns:rdf="http://www.w3.org/1999/02/22-rdf-syntax-ns#"
   xmlns:svg="http://www.w3.org/2000/svg"
   xmlns="http://www.w3.org/2000/svg"
   xmlns:sodipodi="http://sodipodi.sourceforge.net/DTD/sodipodi-0.dtd"
   xmlns:inkscape="http://www.inkscape.org/namespaces/inkscape"
   width="160mm"
   height="160mm"
   viewBox="0 0 160.00001 160.00001"
   id="svg4258"
   version="1.1"
   inkscape:version="0.91 r"
   sodipodi:docname="4.svg">
  <sodipodi:namedview
     inkscape:document-units="mm"
     pagecolor="#ffffff"
     bordercolor="#666666"
     borderopacity="1.0"
     inkscape:pageopacity="0.0"
     inkscape:pageshadow="2"
     inkscape:zoom="0.45254834"
     inkscape:cx="581.57937"
     inkscape:cy="318.98391"
     inkscape:current-layer="g3358"
     id="namedview4262"
     showgrid="false"
     inkscape:window-width="547"
     inkscape:window-height="373"
     inkscape:window-x="553"
     inkscape:window-y="176"
     inkscape:window-maximized="0"
     units="mm"
     inkscape:snap-nodes="false" />
  <defs
     id="defs4260" />
  <metadata
     id="metadata4264">
    <rdf:RDF>
      <cc:Work
         rdf:about="">
        <dc:format>image/svg+xml</dc:format>
        <dc:type
           rdf:resource="http://purl.org/dc/dcmitype/StillImage" />
        <dc:title />
      </cc:Work>
    </rdf:RDF>
  </metadata>
  <g
     transform="translate(0,-49.999993)"
     id="layer1"
     inkscape:groupmode="layer"
     inkscape:label="Layer 1">
    <g
       transform="matrix(0.39181791,0.93530971,-0.9095463,0.38102517,226.38736,259.20817)"
       style="font-style:normal;font-variant:normal;font-weight:300;font-stretch:normal;font-size:53.77825546px;line-height:125%;font-family:'AR PL UMing TW';-inkscape-font-specification:'AR PL UMing TW, Light';text-align:start;letter-spacing:0px;word-spacing:0px;writing-mode:lr-tb;text-anchor:start;fill:#000000;fill-opacity:1;stroke:none;stroke-width:1px;stroke-linecap:butt;stroke-linejoin:miter;stroke-opacity:1"
       id="text3428">
      <g
         id="g3391"
         transform="matrix(0.38958785,-0.9546167,0.8965485,0.3738953,-71.862448,-226.06917)">
        <g
           id="g3414">
          <g
             id="g3437">
            <g
               id="g3460">
              <g
                 id="g3693"
                 transform="matrix(0.28222222,0,0,0.28222222,151.88211,161.24942)"
                 inkscape:label="Hershey Text" />
              <g
                 inkscape:label="Hershey Text"
                 transform="matrix(0.28222222,0,0,0.28222222,151.88211,161.24942)"
                 id="g3793" />
              <g
                 id="g3895"
                 transform="matrix(0.28222222,0,0,0.28222222,151.88211,161.24942)"
                 inkscape:label="Hershey Text" />
              <g
                 inkscape:label="Hershey Text"
                 transform="matrix(0.28222222,0,0,0.28222222,151.88211,161.24942)"
                 id="g3999" />
              <g
                 id="g4105"
                 transform="matrix(0.28222222,0,0,0.28222222,151.88211,161.24942)"
                 inkscape:label="Hershey Text" />
              <g
                 inkscape:label="Hershey Text"
                 transform="matrix(0.28222222,0,0,0.28222222,151.88211,161.24942)"
                 id="g4213" />
              <g
                 id="g4323"
                 transform="matrix(0.28222222,0,0,0.28222222,151.88211,161.24942)"
                 inkscape:label="Hershey Text" />
              <g
                 inkscape:label="Hershey Text"
                 transform="matrix(0.28222222,0,0,0.28222222,151.88211,161.24942)"
                 id="g4435" />
              <g
                 transform="matrix(1.2691195,-8.438795e-4,-0.06302835,5.7407885,160.82498,460.88296)"
                 style="font-style:normal;font-variant:normal;font-weight:normal;font-stretch:normal;font-size:31.82224083px;line-height:125%;font-family:Garuda;-inkscape-font-specification:'Garuda, Normal';text-align:start;letter-spacing:0px;word-spacing:0px;writing-mode:lr-tb;text-anchor:start;fill:#000000;fill-opacity:1;stroke:none;stroke-width:1px;stroke-linecap:butt;stroke-linejoin:miter;stroke-opacity:1"
                 id="text3398" />
              <flowRoot
                 xml:space="preserve"
                 id="flowRoot3368"
                 style="font-style:normal;font-variant:normal;font-weight:normal;font-stretch:normal;font-size:180px;line-height:125%;font-family:Garuda;-inkscape-font-specification:'Garuda, Normal';text-align:start;letter-spacing:0px;word-spacing:0px;writing-mode:lr-tb;text-anchor:start;fill:#000000;fill-opacity:1;stroke:none;stroke-width:1px;stroke-linecap:butt;stroke-linejoin:miter;stroke-opacity:1"
                 transform="matrix(0.27644235,-1.8381564e-4,-0.00315852,0.2876863,-393.38796,-199.38542)"><flowRegion
                   id="flowRegion3370"><rect
                     id="rect3372"
                     width="1640.625"
                     height="559.375"
                     x="-190.625"
                     y="175.49213" /></flowRegion><flowPara
                   id="flowPara3374" /></flowRoot>              <flowRoot
                 xml:space="preserve"
                 id="flowRoot3376"
                 style="font-style:normal;font-variant:normal;font-weight:normal;font-stretch:normal;font-size:180px;line-height:125%;font-family:Garuda;-inkscape-font-specification:'Garuda, Normal';text-align:start;letter-spacing:0px;word-spacing:0px;writing-mode:lr-tb;text-anchor:start;fill:#000000;fill-opacity:1;stroke:none;stroke-width:1px;stroke-linecap:butt;stroke-linejoin:miter;stroke-opacity:1"
                 transform="matrix(0.27644235,-1.8381564e-4,-0.00315852,0.2876863,-393.38796,-199.38542)"><flowRegion
                   id="flowRegion3378"><rect
                     id="rect3380"
                     width="315.625"
                     height="518.75"
                     x="-284.375"
                     y="37.992126" /></flowRegion><flowPara
                   id="flowPara3382" /></flowRoot>              <text
                 xml:space="preserve"
                 style="font-style:normal;font-variant:normal;font-weight:normal;font-stretch:normal;font-size:25.38065338px;line-height:125%;font-family:Garuda;-inkscape-font-specification:'Garuda, Normal';text-align:start;letter-spacing:0px;word-spacing:0px;writing-mode:lr-tb;text-anchor:start;fill:#000000;fill-opacity:1;stroke:none;stroke-width:1px;stroke-linecap:butt;stroke-linejoin:miter;stroke-opacity:1"
                 x="-313.18579"
                 y="8.7216463"
                 id="text3430"
                 sodipodi:linespacing="125%"
                 transform="matrix(0.98026678,-6.5181172e-4,-0.01120014,1.0201379,0,0)"><tspan
                   sodipodi:role="line"
                   id="tspan3432"
                   x="-313.18579"
                   y="8.7216463" /></text>
              <g
                 id="g3358"
                 transform="translate(4.3840439,-0.2981754)">
                <g
                   id="g4251"
                   transform="matrix(1.0174326,-1.2812543e-4,0.00211554,0.82474197,13.682841,11.790708)">
                  <g
                     transform="matrix(-0.89271255,0.0158936,6.4784734e-4,-1.1201929,-660.95214,36.247757)"
                     style="font-style:normal;font-variant:normal;font-weight:normal;font-stretch:normal;font-size:182.49479675px;line-height:125%;font-family:'AR PL UKai CN';-inkscape-font-specification:'AR PL UKai CN';text-align:start;letter-spacing:0px;word-spacing:0px;writing-mode:lr-tb;text-anchor:start;fill:#000000;fill-opacity:1;stroke:none;stroke-width:1px;stroke-linecap:butt;stroke-linejoin:miter;stroke-opacity:1"
                     id="text4333">
                    <g
                       transform="scale(1.0406784,0.96091161)"
                       style="font-style:normal;font-variant:normal;font-weight:normal;font-stretch:normal;font-size:190.28382874px;line-height:125%;font-family:'AR PL UKai CN';-inkscape-font-specification:'AR PL UKai CN';text-align:start;letter-spacing:0px;word-spacing:0px;writing-mode:lr-tb;text-anchor:start;fill:#00f100;fill-opacity:1;stroke:#0000f1;stroke-width:1px;stroke-linecap:butt;stroke-linejoin:miter;stroke-opacity:1"
                       id="text3362">
                      <path
                         d="m -388.43992,-64.861777 c 1.19598,-1.009573 7.41868,0.216123 18.56812,3.31319 4.70755,1.982123 7.49491,4.335895 8.36209,7.061314 1.48659,3.840364 1.98212,6.751607 1.48659,8.73373 -0.74329,1.734358 -1.73436,2.663478 -2.97319,2.787361 -1.98212,0.247765 -3.96424,-0.433589 -5.94636,-2.044064 -4.70755,-3.840364 -9.29121,-7.432962 -13.75098,-10.777795 -3.71649,-2.601537 -5.82249,-4.521719 -6.31802,-5.760546 -0.37165,-1.734358 -0.0553,-3.012482 0.74516,-3.413083 0,0 0.471,-0.296784 1.28507,-0.280963 0.81407,0.01582 2.1994,0.03164 5.01293,0.648689 2.81352,0.617045 5.99838,1.376486 7.68363,1.851136 m -41.11381,46.53529 c 20.19288,-3.220951 36.60734,-6.318018 49.24338,-9.291203 9.2912,-3.22095 16.35251,-3.468715 21.18394,-0.743296 2.97319,1.238827 4.39784,2.663478 4.27395,4.273953 -1.23883,1.610475 -2.47765,2.353772 -3.71648,2.229889 -5.69861,0.867179 -11.76886,1.734357 -18.21076,2.601536 1.48659,0.495531 3.77842,2.477655 6.87549,5.94637 1.85824,1.6104751 1.98212,3.4067742 0.37165,5.3888975 -1.85824,2.1060059 -5.3889,9.4770267 -10.59197,22.1130625 -1.48659,3.592598 -3.03513,7.061313 -4.6456,10.406146 14.37039,9.538968 22.11306,17.281637 23.22801,23.228007 1.48659,5.203073 1.48659,8.609848 0,10.220323 -0.86718,1.114944 -1.85824,1.610475 -2.97319,1.486592 -0.61941,-0.371648 -9.2912,-8.919554 -26.01537,-25.643719 -8.05237,9.662851 -15.05174,16.166692 -20.99811,19.511525 -12.14051,7.061314 -21.80336,9.972558 -28.98856,8.733731 -1.48659,-0.619413 -1.30077,-1.36271 0.55748,-2.229889 19.3257,-8.176258 33.44833,-19.139877 42.36788,-32.890857 -6.93743,-6.565783 -13.56516,-12.636036 -19.88317,-18.210757 -1.23883,-1.1149443 -1.7963,-2.4776539 -1.67242,-4.088129 0.37165,-1.3627094 0.99106,-1.7962992 1.85824,-1.3007684 5.94637,3.4687156 13.99874,8.6098474 24.15713,15.4233964 7.68073,-16.7241647 10.40614,-28.8646694 8.17625,-36.421514 l -0.18582,-0.185824 c -13.99875,2.477654 -26.38702,5.017249 -37.16481,7.6187859 -3.84037,1.1149443 -7.80461,-0.061941 -11.89274,-3.5306569 -2.97319,-2.229889 -2.60154,-3.592598 1.11495,-4.088129 1.11494,-0.371648 2.53419,-0.33372 3.77302,-0.602222 0,0 9.17126,-1.496848 11.3526,-1.854852 2.18134,-0.358003 13.19469,-2.296889 14.93708,-2.644966 1.74238,-0.348077 7.76932,-1.487237 9.42602,-1.835314 m 42.19307,-0.875987 c 2.56522,8.610118 4.2928,23.29867833 1.56738,45.721447 -0.86718,4.088129 0.49553,8.609848 4.08813,13.565156 1.23883,1.486593 2.53959,1.424651 3.9023,-0.185824 2.60154,-3.716481 3.96425,-8.547907 4.08813,-14.494276 0,-19.6973495 0.43359,-32.395327 1.30077,-38.093931 0.86718,-3.097067 -0.0619,-5.388897 -2.78736,-6.87549 -2.22989,-1.486592 -4.45977,-2.78736 -6.68966,-3.902305 -1.61048,-0.495531 -3.09707,-0.433589 -4.45978,0.185824 -1.11495,0.867179 -1.52564,2.420898 -0.88872,4.482153 0,0 0.78257,2.894993 1.10573,4.573135 0.32316,1.678142 1.07047,6.354564 1.23205,7.943205 0.16158,1.5886408 0.40395,6.0860612 0.44435,7.4285748 m 35.64305,-41.8470628 c 0.49553,4.459777 0.68135,40.214412 0.55747,107.358836 -0.12389,2.973185 -0.92912,4.955309 -2.41571,5.94637 -0.86718,0.495531 -6.4419,-0.309707 -16.72417,-2.415713 -4.21201,-1.610475 -6.19414,-1.672416 -5.94637,-0.185824 0.12389,0.867179 1.54854,2.29183 4.27395,4.273953 9.04344,6.813549 14.74205,12.202446 17.09582,16.166693 2.72542,4.58366 5.20307,6.937431 7.43296,7.061314 1.98212,0.123883 3.9023,-2.106006 5.76055,-6.689666 2.35377,-6.070252 3.34483,-14.060686 2.97318,-23.971303 -4.08813,-57.977104 -3.77842,-95.637445 0.92912,-112.981023 2.35377,-4.088129 -0.24776,-7.618786 -7.80461,-10.591971 -4.58366,-2.353771 -8.11432,-3.035126 -10.59197,-2.044064 -2.35377,0.867179 -2.47766,2.849302 -0.37165,5.946369 2.97319,3.468716 4.59794,7.74014 4.84571,12.3238 0,0 0.15295,2.226479 0.16009,2.51918 0.007,0.292701 0.0643,2.571022 0.0786,3.156424 0.0143,0.585402 0.0714,3.172246 0.0786,3.488679 0.007,0.316434 0.0786,10.640076 0.13568,14.943571"
                         style="fill:#00f100;fill-opacity:1;stroke:#0000f1;stroke-opacity:1"
                         id="path3367"
                         inkscape:connector-curvature="0"
                         sodipodi:nodetypes="ccccccccccccccccccccccccccccccccccccccccccccccccccccccccccccccsscsscssc" />
                    </g>
                  </g>
                </g>
              </g>
            </g>
          </g>
        </g>
      </g>
    </g>
  </g>
  <WCB
     pausedposy="0"
     pausedposx="0"
     lastknownposy="0"
     lastknownposx="0"
     lastpathnc="0"
     lastpath="0"
     node="0"
     layer="0" />
</svg>
