<?xml version="1.0" encoding="UTF-8" standalone="no"?>
<!-- Created with Inkscape (http://www.inkscape.org/) -->

<svg
   xmlns:dc="http://purl.org/dc/elements/1.1/"
   xmlns:cc="http://creativecommons.org/ns#"
   xmlns:rdf="http://www.w3.org/1999/02/22-rdf-syntax-ns#"
   xmlns:svg="http://www.w3.org/2000/svg"
   xmlns="http://www.w3.org/2000/svg"
   xmlns:sodipodi="http://sodipodi.sourceforge.net/DTD/sodipodi-0.dtd"
   xmlns:inkscape="http://www.inkscape.org/namespaces/inkscape"
   width="160mm"
   height="160mm"
   viewBox="0 0 160.00001 160.00001"
   id="svg4258"
   version="1.1"
   inkscape:version="0.91 r"
   sodipodi:docname="5.svg">
  <sodipodi:namedview
     inkscape:document-units="mm"
     pagecolor="#ffffff"
     bordercolor="#666666"
     borderopacity="1.0"
     inkscape:pageopacity="0.0"
     inkscape:pageshadow="2"
     inkscape:zoom="0.45254834"
     inkscape:cx="154.16242"
     inkscape:cy="177.36926"
     inkscape:current-layer="text4333"
     id="namedview4262"
     showgrid="false"
     inkscape:window-width="547"
     inkscape:window-height="373"
     inkscape:window-x="566"
     inkscape:window-y="172"
     inkscape:window-maximized="0"
     units="mm"
     inkscape:snap-nodes="false" />
  <defs
     id="defs4260" />
  <metadata
     id="metadata4264">
    <rdf:RDF>
      <cc:Work
         rdf:about="">
        <dc:format>image/svg+xml</dc:format>
        <dc:type
           rdf:resource="http://purl.org/dc/dcmitype/StillImage" />
        <dc:title />
      </cc:Work>
    </rdf:RDF>
  </metadata>
  <g
     transform="translate(0,-49.999993)"
     id="layer1"
     inkscape:groupmode="layer"
     inkscape:label="Layer 1">
    <g
       transform="matrix(0.39181791,0.93530971,-0.9095463,0.38102517,226.38736,259.20817)"
       style="font-style:normal;font-variant:normal;font-weight:300;font-stretch:normal;font-size:53.77825546px;line-height:125%;font-family:'AR PL UMing TW';-inkscape-font-specification:'AR PL UMing TW, Light';text-align:start;letter-spacing:0px;word-spacing:0px;writing-mode:lr-tb;text-anchor:start;fill:#000000;fill-opacity:1;stroke:none;stroke-width:1px;stroke-linecap:butt;stroke-linejoin:miter;stroke-opacity:1"
       id="text3428">
      <g
         id="g3391"
         transform="matrix(0.38958785,-0.9546167,0.8965485,0.3738953,-71.862448,-226.06917)">
        <g
           id="g3414">
          <g
             id="g3437">
            <g
               id="g3460">
              <g
                 id="g3693"
                 transform="matrix(0.28222222,0,0,0.28222222,151.88211,161.24942)"
                 inkscape:label="Hershey Text" />
              <g
                 inkscape:label="Hershey Text"
                 transform="matrix(0.28222222,0,0,0.28222222,151.88211,161.24942)"
                 id="g3793" />
              <g
                 id="g3895"
                 transform="matrix(0.28222222,0,0,0.28222222,151.88211,161.24942)"
                 inkscape:label="Hershey Text" />
              <g
                 inkscape:label="Hershey Text"
                 transform="matrix(0.28222222,0,0,0.28222222,151.88211,161.24942)"
                 id="g3999" />
              <g
                 id="g4105"
                 transform="matrix(0.28222222,0,0,0.28222222,151.88211,161.24942)"
                 inkscape:label="Hershey Text" />
              <g
                 inkscape:label="Hershey Text"
                 transform="matrix(0.28222222,0,0,0.28222222,151.88211,161.24942)"
                 id="g4213" />
              <g
                 id="g4323"
                 transform="matrix(0.28222222,0,0,0.28222222,151.88211,161.24942)"
                 inkscape:label="Hershey Text" />
              <g
                 inkscape:label="Hershey Text"
                 transform="matrix(0.28222222,0,0,0.28222222,151.88211,161.24942)"
                 id="g4435" />
              <g
                 transform="matrix(1.2691195,-8.438795e-4,-0.06302835,5.7407885,160.82498,460.88296)"
                 style="font-style:normal;font-variant:normal;font-weight:normal;font-stretch:normal;font-size:31.82224083px;line-height:125%;font-family:Garuda;-inkscape-font-specification:'Garuda, Normal';text-align:start;letter-spacing:0px;word-spacing:0px;writing-mode:lr-tb;text-anchor:start;fill:#000000;fill-opacity:1;stroke:none;stroke-width:1px;stroke-linecap:butt;stroke-linejoin:miter;stroke-opacity:1"
                 id="text3398" />
              <flowRoot
                 xml:space="preserve"
                 id="flowRoot3368"
                 style="font-style:normal;font-variant:normal;font-weight:normal;font-stretch:normal;font-size:180px;line-height:125%;font-family:Garuda;-inkscape-font-specification:'Garuda, Normal';text-align:start;letter-spacing:0px;word-spacing:0px;writing-mode:lr-tb;text-anchor:start;fill:#000000;fill-opacity:1;stroke:none;stroke-width:1px;stroke-linecap:butt;stroke-linejoin:miter;stroke-opacity:1"
                 transform="matrix(0.27644235,-1.8381564e-4,-0.00315852,0.2876863,-393.38796,-199.38542)"><flowRegion
                   id="flowRegion3370"><rect
                     id="rect3372"
                     width="1640.625"
                     height="559.375"
                     x="-190.625"
                     y="175.49213" /></flowRegion><flowPara
                   id="flowPara3374" /></flowRoot>              <flowRoot
                 xml:space="preserve"
                 id="flowRoot3376"
                 style="font-style:normal;font-variant:normal;font-weight:normal;font-stretch:normal;font-size:180px;line-height:125%;font-family:Garuda;-inkscape-font-specification:'Garuda, Normal';text-align:start;letter-spacing:0px;word-spacing:0px;writing-mode:lr-tb;text-anchor:start;fill:#000000;fill-opacity:1;stroke:none;stroke-width:1px;stroke-linecap:butt;stroke-linejoin:miter;stroke-opacity:1"
                 transform="matrix(0.27644235,-1.8381564e-4,-0.00315852,0.2876863,-393.38796,-199.38542)"><flowRegion
                   id="flowRegion3378"><rect
                     id="rect3380"
                     width="315.625"
                     height="518.75"
                     x="-284.375"
                     y="37.992126" /></flowRegion><flowPara
                   id="flowPara3382" /></flowRoot>              <text
                 xml:space="preserve"
                 style="font-style:normal;font-variant:normal;font-weight:normal;font-stretch:normal;font-size:25.38065338px;line-height:125%;font-family:Garuda;-inkscape-font-specification:'Garuda, Normal';text-align:start;letter-spacing:0px;word-spacing:0px;writing-mode:lr-tb;text-anchor:start;fill:#000000;fill-opacity:1;stroke:none;stroke-width:1px;stroke-linecap:butt;stroke-linejoin:miter;stroke-opacity:1"
                 x="-313.18579"
                 y="8.7216463"
                 id="text3430"
                 sodipodi:linespacing="125%"
                 transform="matrix(0.98026678,-6.5181172e-4,-0.01120014,1.0201379,0,0)"><tspan
                   sodipodi:role="line"
                   id="tspan3432"
                   x="-313.18579"
                   y="8.7216463" /></text>
              <g
                 id="g3358"
                 transform="translate(4.3840439,-0.2981754)">
                <g
                   id="g4251"
                   transform="matrix(1.0174326,-1.2812543e-4,0.00211554,0.82474197,13.682841,11.790708)">
                  <g
                     transform="matrix(0.89262413,-5.9353525e-4,-0.01229983,1.1203005,0,0)"
                     style="font-style:normal;font-variant:normal;font-weight:normal;font-stretch:normal;font-size:182.49479675px;line-height:125%;font-family:'AR PL UKai CN';-inkscape-font-specification:'AR PL UKai CN';text-align:start;letter-spacing:0px;word-spacing:0px;writing-mode:lr-tb;text-anchor:start;fill:#000000;fill-opacity:1;stroke:none;stroke-width:1px;stroke-linecap:butt;stroke-linejoin:miter;stroke-opacity:1"
                     id="text4333">
                    <g
                       transform="matrix(-1.0119532,0.00609942,-0.00569223,-0.98815363,-737.27742,30.682714)"
                       style="font-style:normal;font-variant:normal;font-weight:normal;font-stretch:normal;font-size:193.49357605px;line-height:125%;font-family:'AR PL UKai CN';-inkscape-font-specification:'AR PL UKai CN';text-align:start;letter-spacing:0px;word-spacing:0px;writing-mode:lr-tb;text-anchor:start;fill:#00f500;fill-opacity:1;stroke:#0000f5;stroke-width:1px;stroke-linecap:butt;stroke-linejoin:miter;stroke-opacity:1"
                       id="text3362">
                      <path
                         d="m -426.14776,-42.102525 c 9.40639,-1.420061 17.7621,-5.164868 24.94253,-10.58168 1.88959,-1.637641 4.15709,-1.889585 6.80251,-0.755834 4.91292,2.393475 8.1882,4.723964 9.82584,6.991467 1.13375,1.763613 0.50389,3.46424 -1.88958,5.101881 -3.27529,2.267503 -7.93627,8.188205 -13.98294,17.762106 -1.76361,2.519447 -0.56688,6.424591 3.59021,11.715431 7.18043,9.3219563 10.01481,17.1952299 8.50314,23.619821 -0.88181,2.771393 -2.14153,4.723965 -3.77917,5.857716 -1.51167,1.511669 -3.08632,1.511669 -4.72397,0 -5.9207,-3.779171 -12.15633,-7.180426 -18.70689,-10.2037627 -3.6532,-1.5116685 -3.90515,-2.330489 -0.75584,-2.4564614 3.6532,-0.2519446 7.24341,-0.3149309 10.77064,-0.1889586 3.02334,0.1259724 4.78695,-0.4409033 5.29084,-1.7006271 1.63764,-2.0155581 -0.62986,-7.9362598 -6.80251,-17.7621052 -1.76361,-2.393475 -1.8266,-5.101882 -0.18896,-8.125219 1.63764,-4.912923 3.46424,-9.699873 5.4798,-14.360851 1.13375,-2.141531 1.32271,-3.590213 0.56688,-4.346047 -1.25973,-1.259724 -2.89737,-1.259724 -4.91293,0 -5.41681,2.519447 -10.77063,4.220074 -16.06147,5.101881 0,1.007779 -0.063,2.456462 -0.18896,4.346047 -0.25195,3.653199 -0.44091,33.8865707 -0.56688,90.700114 0.50389,15.620575 -0.56687,25.383435 -3.21229,29.288578 -1.51167,1.889586 -3.08633,1.8266 -4.72397,-0.188958 -5.16487,-6.298619 -6.80251,-13.416059 -4.91292,-21.352319 5.03889,-20.533498 6.3616,-48.562353 3.96813,-84.086564 -0.12596,-1.889585 -0.18896,-3.46424 -0.18896,-4.723964 -0.25195,-1.385696 -2.07855,-7.810287 -5.4798,-19.273774 -0.88181,-1.763613 -0.75583,-3.023337 0.37792,-3.779171 2.39347,-0.881807 5.67281,0.730621 11.29193,3.44477 0,0 14.44069,-2.354467 24.61826,-10.666021 m 20.02155,32.35274 c 7.68431,-0.755834 15.30564,-1.700627 22.86398,-2.834378 6.17265,-18.895857 8.50314,-31.241151 6.99147,-37.03588 -0.88181,-2.519447 -0.69285,-3.842157 0.56688,-3.96813 3.02333,-0.629862 7.93625,2.078544 14.73876,8.125219 1.25973,1.259723 0.88181,2.834378 -1.13375,4.723964 -3.6532,3.275282 -7.81029,12.093349 -12.47126,26.4542 0.12597,-0.125969 0.37792,-0.188959 0.75583,-0.188959 8.94404,-2.267503 17.44718,-4.78695 25.50941,-7.558343 3.90514,-1.511668 7.81028,-1.826599 11.71543,-0.944792 3.77917,1.007779 6.10966,2.267502 6.99147,3.779171 0.62986,1.259724 0.31493,2.330489 -0.9448,3.212296 -1.00777,1.007779 -5.10187,2.330489 -12.2823,3.96813 -11.96738,2.14153 -23.61983,4.409033 -34.95734,6.802508 -4.78695,12.8491829 -8.69209,23.1159319 -11.71543,30.800247 -0.88181,2.141531 -1.25972,3.464241 -1.13375,3.96813 0.12597,0.629862 1.51167,0.755834 4.15709,0.377917 6.29862,-1.007779 12.15633,-1.889585 17.57314,-2.64542 -0.25194,-6.550564 -1.57465,-11.9043897 -3.96813,-16.0614782 -1.38569,-1.8895857 -1.70062,-3.2752819 -0.94479,-4.1570885 1.00778,-1.0077791 2.70841,-1.0707653 5.10188,-0.1889586 3.77917,1.1337514 7.24341,3.0863233 10.39272,5.8577157 2.14153,1.6376409 2.64542,3.653199 1.51167,6.0466742 -0.75583,1.8895854 -1.32271,4.0311164 -1.70062,6.4245914 13.2271,-2.771393 21.16336,-3.401255 23.80878,-1.889586 3.65319,2.393475 5.41681,4.409034 5.29084,6.046675 -0.37792,1.511668 -3.08633,2.330488 -8.12522,2.456461 -5.92071,0.503889 -13.10113,1.196737 -21.54128,2.078544 0.37792,24.438642 0.75584,39.870259 1.13375,46.29485 0,11.085569 -2.07854,18.51794 -6.23563,22.297111 -1.88959,1.763613 -3.77917,1.637641 -5.66876,-0.377917 -3.6532,-4.912923 -10.39272,-11.337514 -20.21857,-19.273774 -1.38569,-0.881807 -2.14153,-1.763613 -2.2675,-2.64542 -0.12597,-1.007783 0.56688,-1.32271 2.07855,-0.944793 4.66097,1.007779 9.44792,2.078545 14.36085,3.212296 1.76361,0.629862 3.21229,0.50389 4.34604,-0.377917 2.39348,-2.015558 3.33827,-17.636133 2.83438,-46.861726 -11.96737,1.385697 -22.36009,3.779172 -31.17816,7.180426 -2.14153,0.881807 -3.59022,0.377917 -4.34605,-1.511669 -2.01556,-6.046674 -1.70063,-10.203762 0.94479,-12.471265 5.41681,-4.912923 11.14856,-15.5575897 17.19523,-31.933999 -1.13375,0.251945 -2.07854,0.440903 -2.83437,0.566876 -7.18043,1.511669 -13.60502,0.755834 -19.27378,-2.267503 -3.27528,-2.267503 -2.30338,-4.148416 2.54853,-4.581162 0,0 13.29526,-1.330477 22.2837,-2.776688 m -15.02918,64.961593 c -3.90515,6.046674 -8.60631,11.807039 -13.77118,16.845934 -3.02333,3.401254 -3.96813,7.495356 -2.83438,12.282307 0.50389,2.393475 2.20452,3.086323 5.10188,2.078544 6.92849,-3.401254 11.65245,-9.825845 14.1719,-19.273774 1.25972,-3.905144 1.82659,-7.495357 1.70062,-10.770638 -0.50389,-1.259724 -1.07076,-2.015558 -1.70062,-2.267503 -1.13375,0 -2.29382,0.358471 -2.92481,1.486442 0,0 -5.54039,8.660029 -12.17891,15.060283 m 66.12253,-19.570062 c 18.39197,9.825845 27.96587,17.825091 28.7217,23.997738 0.88181,5.668757 0.50389,9.321956 -1.13375,10.959597 -1.00778,1.007779 -2.07854,1.448683 -3.21229,1.32271 -2.01556,-0.881807 -3.84216,-2.708406 -5.4798,-5.479798 -7.05445,-9.699873 -13.668,-17.951064 -19.84065,-24.753573 -1.00778,-1.511669 -1.44868,-3.086323 -1.32271,-4.723964 0.37791,-1.637641 1.65427,-1.807343 2.78802,-1.051508 0,0 11.75613,6.252189 17.95404,11.11392"
                         style="fill:#00f500;fill-opacity:1;stroke:#0000f5;stroke-opacity:1"
                         id="path3367"
                         inkscape:connector-curvature="0"
                         sodipodi:nodetypes="ccccccccccccsccccccccccccccccccccccccccccccccccccccccccccscccccccccccccccccccccccccccccccccccc" />
                    </g>
                  </g>
                </g>
              </g>
            </g>
          </g>
        </g>
      </g>
    </g>
  </g>
  <WCB
     pausedposy="0"
     pausedposx="0"
     lastknownposy="0"
     lastknownposx="0"
     lastpathnc="0"
     lastpath="0"
     node="0"
     layer="0" />
</svg>
