<?xml version="1.0" encoding="UTF-8" standalone="no"?>
<!-- Created with Inkscape (http://www.inkscape.org/) -->

<svg
   xmlns:dc="http://purl.org/dc/elements/1.1/"
   xmlns:cc="http://creativecommons.org/ns#"
   xmlns:rdf="http://www.w3.org/1999/02/22-rdf-syntax-ns#"
   xmlns:svg="http://www.w3.org/2000/svg"
   xmlns="http://www.w3.org/2000/svg"
   xmlns:sodipodi="http://sodipodi.sourceforge.net/DTD/sodipodi-0.dtd"
   xmlns:inkscape="http://www.inkscape.org/namespaces/inkscape"
   width="160mm"
   height="160mm"
   viewBox="0 0 160.00001 160.00001"
   id="svg4258"
   version="1.1"
   inkscape:version="0.91 r"
   sodipodi:docname="8.svg">
  <sodipodi:namedview
     inkscape:document-units="mm"
     pagecolor="#ffffff"
     bordercolor="#666666"
     borderopacity="1.0"
     inkscape:pageopacity="0.0"
     inkscape:pageshadow="2"
     inkscape:zoom="5.12"
     inkscape:cx="227.46639"
     inkscape:cy="485.33027"
     inkscape:current-layer="text4333"
     id="namedview4262"
     showgrid="false"
     inkscape:window-width="1297"
     inkscape:window-height="592"
     inkscape:window-x="65"
     inkscape:window-y="24"
     inkscape:window-maximized="1"
     units="mm"
     inkscape:snap-nodes="false" />
  <defs
     id="defs4260" />
  <metadata
     id="metadata4264">
    <rdf:RDF>
      <cc:Work
         rdf:about="">
        <dc:format>image/svg+xml</dc:format>
        <dc:type
           rdf:resource="http://purl.org/dc/dcmitype/StillImage" />
        <dc:title />
      </cc:Work>
    </rdf:RDF>
  </metadata>
  <g
     transform="translate(0,-49.999993)"
     id="layer1"
     inkscape:groupmode="layer"
     inkscape:label="Layer 1">
    <g
       transform="matrix(0.39181791,0.93530971,-0.9095463,0.38102517,226.38736,259.20817)"
       style="font-style:normal;font-variant:normal;font-weight:300;font-stretch:normal;font-size:53.77825546px;line-height:125%;font-family:'AR PL UMing TW';-inkscape-font-specification:'AR PL UMing TW, Light';text-align:start;letter-spacing:0px;word-spacing:0px;writing-mode:lr-tb;text-anchor:start;fill:#000000;fill-opacity:1;stroke:none;stroke-width:1px;stroke-linecap:butt;stroke-linejoin:miter;stroke-opacity:1"
       id="text3428">
      <g
         id="g3391"
         transform="matrix(0.38958785,-0.9546167,0.8965485,0.3738953,-71.862448,-226.06917)">
        <g
           id="g3414">
          <g
             id="g3437">
            <g
               id="g3460">
              <g
                 id="g3693"
                 transform="matrix(0.28222222,0,0,0.28222222,151.88211,161.24942)"
                 inkscape:label="Hershey Text" />
              <g
                 inkscape:label="Hershey Text"
                 transform="matrix(0.28222222,0,0,0.28222222,151.88211,161.24942)"
                 id="g3793" />
              <g
                 id="g3895"
                 transform="matrix(0.28222222,0,0,0.28222222,151.88211,161.24942)"
                 inkscape:label="Hershey Text" />
              <g
                 inkscape:label="Hershey Text"
                 transform="matrix(0.28222222,0,0,0.28222222,151.88211,161.24942)"
                 id="g3999" />
              <g
                 id="g4105"
                 transform="matrix(0.28222222,0,0,0.28222222,151.88211,161.24942)"
                 inkscape:label="Hershey Text" />
              <g
                 inkscape:label="Hershey Text"
                 transform="matrix(0.28222222,0,0,0.28222222,151.88211,161.24942)"
                 id="g4213" />
              <g
                 id="g4323"
                 transform="matrix(0.28222222,0,0,0.28222222,151.88211,161.24942)"
                 inkscape:label="Hershey Text" />
              <g
                 inkscape:label="Hershey Text"
                 transform="matrix(0.28222222,0,0,0.28222222,151.88211,161.24942)"
                 id="g4435" />
              <g
                 transform="matrix(1.2691195,-8.438795e-4,-0.06302835,5.7407885,160.82498,460.88296)"
                 style="font-style:normal;font-variant:normal;font-weight:normal;font-stretch:normal;font-size:31.82224083px;line-height:125%;font-family:Garuda;-inkscape-font-specification:'Garuda, Normal';text-align:start;letter-spacing:0px;word-spacing:0px;writing-mode:lr-tb;text-anchor:start;fill:#000000;fill-opacity:1;stroke:none;stroke-width:1px;stroke-linecap:butt;stroke-linejoin:miter;stroke-opacity:1"
                 id="text3398" />
              <flowRoot
                 xml:space="preserve"
                 id="flowRoot3368"
                 style="font-style:normal;font-variant:normal;font-weight:normal;font-stretch:normal;font-size:180px;line-height:125%;font-family:Garuda;-inkscape-font-specification:'Garuda, Normal';text-align:start;letter-spacing:0px;word-spacing:0px;writing-mode:lr-tb;text-anchor:start;fill:#000000;fill-opacity:1;stroke:none;stroke-width:1px;stroke-linecap:butt;stroke-linejoin:miter;stroke-opacity:1"
                 transform="matrix(0.27644235,-1.8381564e-4,-0.00315852,0.2876863,-393.38796,-199.38542)"><flowRegion
                   id="flowRegion3370"><rect
                     id="rect3372"
                     width="1640.625"
                     height="559.375"
                     x="-190.625"
                     y="175.49213" /></flowRegion><flowPara
                   id="flowPara3374" /></flowRoot>              <flowRoot
                 xml:space="preserve"
                 id="flowRoot3376"
                 style="font-style:normal;font-variant:normal;font-weight:normal;font-stretch:normal;font-size:180px;line-height:125%;font-family:Garuda;-inkscape-font-specification:'Garuda, Normal';text-align:start;letter-spacing:0px;word-spacing:0px;writing-mode:lr-tb;text-anchor:start;fill:#000000;fill-opacity:1;stroke:none;stroke-width:1px;stroke-linecap:butt;stroke-linejoin:miter;stroke-opacity:1"
                 transform="matrix(0.27644235,-1.8381564e-4,-0.00315852,0.2876863,-393.38796,-199.38542)"><flowRegion
                   id="flowRegion3378"><rect
                     id="rect3380"
                     width="315.625"
                     height="518.75"
                     x="-284.375"
                     y="37.992126" /></flowRegion><flowPara
                   id="flowPara3382" /></flowRoot>              <text
                 xml:space="preserve"
                 style="font-style:normal;font-variant:normal;font-weight:normal;font-stretch:normal;font-size:25.38065338px;line-height:125%;font-family:Garuda;-inkscape-font-specification:'Garuda, Normal';text-align:start;letter-spacing:0px;word-spacing:0px;writing-mode:lr-tb;text-anchor:start;fill:#000000;fill-opacity:1;stroke:none;stroke-width:1px;stroke-linecap:butt;stroke-linejoin:miter;stroke-opacity:1"
                 x="-313.18579"
                 y="8.7216463"
                 id="text3430"
                 sodipodi:linespacing="125%"
                 transform="matrix(0.98026678,-6.5181172e-4,-0.01120014,1.0201379,0,0)"><tspan
                   sodipodi:role="line"
                   id="tspan3432"
                   x="-313.18579"
                   y="8.7216463" /></text>
              <g
                 id="g3358"
                 transform="translate(4.3840439,-0.2981754)">
                <g
                   id="g4251"
                   transform="matrix(1.0174326,-1.2812543e-4,0.00211554,0.82474197,13.682841,11.790708)">
                  <g
                     transform="matrix(0.89262413,-5.9353525e-4,-0.01229983,1.1203005,0,0)"
                     style="font-style:normal;font-variant:normal;font-weight:normal;font-stretch:normal;font-size:182.49479675px;line-height:125%;font-family:'AR PL UKai CN';-inkscape-font-specification:'AR PL UKai CN';text-align:start;letter-spacing:0px;word-spacing:0px;writing-mode:lr-tb;text-anchor:start;fill:#000000;fill-opacity:1;stroke:none;stroke-width:1px;stroke-linecap:butt;stroke-linejoin:miter;stroke-opacity:1"
                     id="text4333">
                    <g
                       transform="matrix(-1.0254385,0.00858017,-0.0077979,-0.97512732,0,0)"
                       style="font-style:normal;font-variant:normal;font-weight:normal;font-stretch:normal;font-size:181.28883362px;line-height:125%;font-family:'AR PL UKai CN';-inkscape-font-specification:'AR PL UKai CN';text-align:start;letter-spacing:0px;word-spacing:0px;writing-mode:lr-tb;text-anchor:start;fill:#00f700;fill-opacity:1;stroke:#0000f5;stroke-width:1px;stroke-linecap:butt;stroke-linejoin:miter;stroke-opacity:1"
                       id="text3362">
                      <path
                         d="m 316.74383,-58.470007 c 6.84554,-0.590133 13.51404,-1.062239 20.00551,-1.416319 -1.41632,-7.081595 -3.36376,-12.746871 -5.84232,-16.995828 -0.82619,-1.770399 -0.82619,-3.068691 0,-3.894877 1.18027,-0.590133 2.53757,-0.649146 4.07192,-0.17704 3.18671,1.062239 6.19639,2.537572 9.02903,4.425997 1.53435,1.416319 2.24251,3.422771 2.12448,6.019356 -0.23605,1.416319 -0.35408,4.66205 -0.35408,9.737193 6.49146,-0.944213 13.27799,-2.006452 20.35959,-3.186718 2.36053,-0.590133 4.83908,-1.062239 7.43567,-1.416319 0.47211,-4.48501 0.8852,-8.733967 1.23928,-12.746871 0.23605,-2.006452 -0.41309,-4.66205 -1.94744,-7.966794 -0.70816,-1.888425 -0.53112,-3.186718 0.53112,-3.894878 1.06224,-0.944213 2.53757,-1.003226 4.426,-0.17704 2.83264,0.944213 6.07837,2.832638 9.73719,5.665277 2.12448,2.242505 2.83264,3.95389 2.12448,5.134156 -1.65237,2.832638 -3.06869,6.373436 -4.24896,10.622393 -0.11803,0.236053 -0.23605,0.531119 -0.35408,0.885199 7.31765,-1.888425 13.10096,-1.534346 17.34991,1.062239 2.59659,1.416319 3.83587,2.832638 3.71784,4.248957 -1.06224,1.652372 -2.30152,2.301518 -3.71784,1.947439 -6.13738,0.472106 -12.62884,1.121252 -19.47439,1.947438 -2.00645,7.671728 -4.07191,15.638523 -6.19639,23.900384 14.28121,-2.006452 26.26091,-3.953891 35.93909,-5.842316 5.3112,-0.944213 11.38957,1.239279 18.23511,6.550475 2.12448,2.006452 2.83264,3.776851 2.12448,5.311197 -0.82619,1.062239 -2.53757,1.593359 -5.13416,1.593359 -37.76851,0.118026 -61.2558,0.590132 -70.46187,1.416319 1.7704,1.180265 3.5408,2.655597 5.3112,4.425996 0.11804,0.236053 0.17704,2.301519 0.17704,6.196396 2.00645,-0.472106 6.90456,-1.062239 14.69431,-1.770399 8.61594,-1.652372 13.69108,-1.947438 15.22543,-0.885199 6.25541,3.304745 10.50436,6.078369 12.74687,8.3208743 2.12448,2.0064519 1.94744,3.9538906 -0.53112,5.8423159 -4.60304,3.77685073 -7.9668,8.911007 -10.09127,15.4024688 -2.83264,10.03226 -5.01613,16.110629 -6.55048,18.235108 -0.94421,1.888425 -2.30152,2.891651 -4.07192,3.009678 -1.53434,0.118026 -2.65559,-0.767174 -3.36375,-2.655599 -0.23605,-0.826186 -0.41309,-1.475332 -0.53112,-1.947438 -12.03871,0.826186 -25.90684,2.301518 -41.60437,4.425997 -1.53435,0.118027 -2.89165,0.118027 -4.07192,0 0,0.472106 -0.059,0.944212 -0.17704,1.416319 -0.59013,2.006452 -2.00645,1.711385 -4.24896,-0.8852 -2.36053,-2.478558 -3.77685,-5.665276 -4.24896,-9.560153 -2.47855,-12.746871 -5.72428,-23.01518387 -9.73719,-30.8049384 -1.06224,-1.8884254 -1.23928,-3.1867176 -0.53112,-3.8948776 0.35408,-0.708159 1.23928,-0.885199 2.6556,-0.531119 4.36699,0.590133 7.14061,1.239279 8.32087,1.9474383 4.83909,-0.7081593 10.50437,-1.5933593 16.99583,-2.6555983 3.06869,-0.708159 6.25541,-1.239279 9.56016,-1.593359 -0.11803,-3.068691 -1.06224,-6.786529 -2.83264,-11.153512 -1.18027,0 -2.18349,0.05901 -3.00968,0.17704 -16.28767,1.534345 -31.69014,4.13093 -46.20741,7.789754 -2.12448,0.70816 -4.66205,0.649147 -7.61271,-0.17704 -2.36053,-0.826186 -4.48501,-2.183492 -6.37344,-4.071917 -2.12448,-2.478558 -1.71139,-3.77685 1.23928,-3.894877 18.17609,-2.006452 35.46699,-3.776851 51.87268,-5.311196 -1.29829,-9.324101 -2.18348,-16.700762 -2.65559,-22.129985 -4.01291,0.472107 -7.78976,1.06224 -11.33056,1.770399 -3.42277,0.944213 -7.1406,-0.35408 -11.15351,-3.894877 -2.71461,-2.242505 -2.98138,-3.415006 0.67744,-3.769086 0,0 6.58304,-0.604812 7.64953,-0.683624 m 22.3856,4.808829 c 8.14383,-1.416319 16.91116,-2.303558 26.47131,-3.365797 -1.06224,7.553701 -2.30152,15.520496 -3.71784,23.900383 -3.89487,0.35408 -7.84876,0.826186 -11.86167,1.416319 -3.18671,0.118027 -6.31442,0.472106 -9.38311,1.062239 -0.70816,-8.97002 -1.23928,-16.523721 -1.59336,-22.661104 0,0 2.34098,-0.721101 4.02369,-0.970883 1.68272,-0.249782 5.5404,-0.789113 7.18179,-0.995161 m -28.14551,52.8308493 c 4.72107,-1.5343456 12.98293,-3.0686912 24.78559,-4.6030368 l 0,12.2157515 c -5.3112,1.0622393 -10.44214,2.1881446 -14.92715,3.1323573 -1.88843,0.3540797 -1.71139,1.416319 0.53112,3.1867177 1.18026,0.826186 2.95066,1.121252 5.31119,0.885199 2.95067,-0.472106 5.96035,-0.826186 9.02904,-1.062239 l 0,14.87135 c -6.72752,0.708159 -12.98293,1.593359 -18.76623,2.655598 -0.11803,-1.888425 -0.41309,-4.071917 -0.8852,-6.550476 -2.59659,-11.802658 -4.36699,-20.0055055 -5.3112,-24.6085423 0,0 2.69747,-0.851452 3.42355,-1.0321554 0.72608,-0.1807035 5.19708,-1.0768243 6.38741,-1.3158068 m 24.00365,-3.4943548 0.0927,-0.00995 c 14.22274,-1.5256667 22.09962,-1.8174167 23.63065,-0.8752483 1.18027,0.8261861 1.47533,3.1867178 0.8852,7.0815951 -2.59659,13.8091105 -4.54402,22.4250505 -5.84231,25.8478215 -0.47211,-0.354079 -1.12125,-0.590132 -1.94744,-0.708159 -2.83264,-0.708159 -8.91101,-0.118026 -18.23511,1.770399 0.11803,-5.075143 0.29507,-9.973247 0.53112,-14.69431 4.60303,-0.7081595 8.97002,-1.2392792 13.10095,-1.5933589 2.59659,-0.1180266 3.48179,-1.003226 2.6556,-2.6555982 -1.18027,-1.5343456 -3.18672,-2.6555981 -6.01936,-3.3637576 -14.36903,-2.75073573 -9.77541,9.0868547 -8.93295,-10.6364391 0,0 2.06472,-0.4156869 2.29679,-0.4370314 0.23207,-0.021345 3.94469,-0.3660194 4.94968,-0.4453726 M 335.4474,38.878678 c -2.83264,6.845541 -13.68744,15.30769 -32.68972,25.69403 -2.83264,1.180265 -2.59659,1.947438 0.70816,2.301518 8.61594,0.35408 20.77268,-4.544023 36.47021,-14.69431 2.95067,-2.124479 5.3112,-3.658824 7.0816,-4.603037 1.53435,-1.180265 2.30152,-2.360531 2.30152,-3.540797 -0.11803,-1.534345 -1.59336,-3.127704 -4.426,-4.780077 -3.18672,-1.888425 -5.48824,-2.832638 -6.90455,-2.832638 -1.06224,0 -1.88843,0.767173 -2.47856,2.301519 0,0 -1.03751,2.125913 -1.49363,2.80542 -0.45611,0.679507 -1.69797,2.25611 -2.21457,2.80279 m 43.36058,-1.170643 c 6.84554,5.429223 14.22675,12.145168 22.48861,20.525055 2.12448,2.242505 4.13093,3.599811 6.01936,4.071917 1.06224,0.118027 2.00645,-0.472106 2.83264,-1.770398 1.41632,-1.534346 1.18027,-4.957117 -0.70816,-10.268313 -1.7704,-6.373436 -12.09773,-12.510818 -30.98198,-18.412147 -1.18027,-0.472107 -1.82941,0 -1.94744,1.416319 0,1.534345 0.70816,2.950664 2.12448,4.248957 0,0 4.71828,3.922666 6.33108,5.308867 1.61279,1.3862 4.14651,3.653602 5.06743,4.534802"
                         id="path4167"
                         inkscape:connector-curvature="0"
                         sodipodi:nodetypes="csccccccccccccccccccccccccccccccccccccccccccccccccccccccccccccccccccccccccccccccccccccccccccccccccsccccccccccsccscsc" />
                    </g>
                  </g>
                </g>
              </g>
            </g>
          </g>
        </g>
      </g>
    </g>
  </g>
  <WCB
     pausedposy="0"
     pausedposx="0"
     lastknownposy="0"
     lastknownposx="0"
     lastpathnc="0"
     lastpath="0"
     node="0"
     layer="0" />
</svg>
