<?xml version="1.0" encoding="UTF-8" standalone="no"?>
<!-- Created with Inkscape (http://www.inkscape.org/) -->

<svg
   xmlns:dc="http://purl.org/dc/elements/1.1/"
   xmlns:cc="http://creativecommons.org/ns#"
   xmlns:rdf="http://www.w3.org/1999/02/22-rdf-syntax-ns#"
   xmlns:svg="http://www.w3.org/2000/svg"
   xmlns="http://www.w3.org/2000/svg"
   xmlns:sodipodi="http://sodipodi.sourceforge.net/DTD/sodipodi-0.dtd"
   xmlns:inkscape="http://www.inkscape.org/namespaces/inkscape"
   width="160mm"
   height="160mm"
   viewBox="0 0 160.00001 160.00001"
   id="svg4258"
   version="1.1"
   inkscape:version="0.91 r"
   sodipodi:docname="9.svg">
  <sodipodi:namedview
     inkscape:document-units="mm"
     pagecolor="#ffffff"
     bordercolor="#666666"
     borderopacity="1.0"
     inkscape:pageopacity="0.0"
     inkscape:pageshadow="2"
     inkscape:zoom="0.64"
     inkscape:cx="81.479794"
     inkscape:cy="288.69725"
     inkscape:current-layer="text4333"
     id="namedview4262"
     showgrid="false"
     inkscape:window-width="547"
     inkscape:window-height="373"
     inkscape:window-x="725"
     inkscape:window-y="320"
     inkscape:window-maximized="0"
     units="mm"
     inkscape:snap-nodes="false" />
  <defs
     id="defs4260" />
  <metadata
     id="metadata4264">
    <rdf:RDF>
      <cc:Work
         rdf:about="">
        <dc:format>image/svg+xml</dc:format>
        <dc:type
           rdf:resource="http://purl.org/dc/dcmitype/StillImage" />
        <dc:title />
      </cc:Work>
    </rdf:RDF>
  </metadata>
  <g
     transform="translate(0,-49.999993)"
     id="layer1"
     inkscape:groupmode="layer"
     inkscape:label="Layer 1">
    <g
       transform="matrix(0.39181791,0.93530971,-0.9095463,0.38102517,226.38736,259.20817)"
       style="font-style:normal;font-variant:normal;font-weight:300;font-stretch:normal;font-size:53.77825546px;line-height:125%;font-family:'AR PL UMing TW';-inkscape-font-specification:'AR PL UMing TW, Light';text-align:start;letter-spacing:0px;word-spacing:0px;writing-mode:lr-tb;text-anchor:start;fill:#000000;fill-opacity:1;stroke:none;stroke-width:1px;stroke-linecap:butt;stroke-linejoin:miter;stroke-opacity:1"
       id="text3428">
      <g
         id="g3391"
         transform="matrix(0.38958785,-0.9546167,0.8965485,0.3738953,-71.862448,-226.06917)">
        <g
           id="g3414">
          <g
             id="g3437">
            <g
               id="g3460">
              <g
                 id="g3693"
                 transform="matrix(0.28222222,0,0,0.28222222,151.88211,161.24942)"
                 inkscape:label="Hershey Text" />
              <g
                 inkscape:label="Hershey Text"
                 transform="matrix(0.28222222,0,0,0.28222222,151.88211,161.24942)"
                 id="g3793" />
              <g
                 id="g3895"
                 transform="matrix(0.28222222,0,0,0.28222222,151.88211,161.24942)"
                 inkscape:label="Hershey Text" />
              <g
                 inkscape:label="Hershey Text"
                 transform="matrix(0.28222222,0,0,0.28222222,151.88211,161.24942)"
                 id="g3999" />
              <g
                 id="g4105"
                 transform="matrix(0.28222222,0,0,0.28222222,151.88211,161.24942)"
                 inkscape:label="Hershey Text" />
              <g
                 inkscape:label="Hershey Text"
                 transform="matrix(0.28222222,0,0,0.28222222,151.88211,161.24942)"
                 id="g4213" />
              <g
                 id="g4323"
                 transform="matrix(0.28222222,0,0,0.28222222,151.88211,161.24942)"
                 inkscape:label="Hershey Text" />
              <g
                 inkscape:label="Hershey Text"
                 transform="matrix(0.28222222,0,0,0.28222222,151.88211,161.24942)"
                 id="g4435" />
              <g
                 transform="matrix(1.2691195,-8.438795e-4,-0.06302835,5.7407885,160.82498,460.88296)"
                 style="font-style:normal;font-variant:normal;font-weight:normal;font-stretch:normal;font-size:31.82224083px;line-height:125%;font-family:Garuda;-inkscape-font-specification:'Garuda, Normal';text-align:start;letter-spacing:0px;word-spacing:0px;writing-mode:lr-tb;text-anchor:start;fill:#000000;fill-opacity:1;stroke:none;stroke-width:1px;stroke-linecap:butt;stroke-linejoin:miter;stroke-opacity:1"
                 id="text3398" />
              <flowRoot
                 xml:space="preserve"
                 id="flowRoot3368"
                 style="font-style:normal;font-variant:normal;font-weight:normal;font-stretch:normal;font-size:180px;line-height:125%;font-family:Garuda;-inkscape-font-specification:'Garuda, Normal';text-align:start;letter-spacing:0px;word-spacing:0px;writing-mode:lr-tb;text-anchor:start;fill:#000000;fill-opacity:1;stroke:none;stroke-width:1px;stroke-linecap:butt;stroke-linejoin:miter;stroke-opacity:1"
                 transform="matrix(0.27644235,-1.8381564e-4,-0.00315852,0.2876863,-393.38796,-199.38542)"><flowRegion
                   id="flowRegion3370"><rect
                     id="rect3372"
                     width="1640.625"
                     height="559.375"
                     x="-190.625"
                     y="175.49213" /></flowRegion><flowPara
                   id="flowPara3374" /></flowRoot>              <flowRoot
                 xml:space="preserve"
                 id="flowRoot3376"
                 style="font-style:normal;font-variant:normal;font-weight:normal;font-stretch:normal;font-size:180px;line-height:125%;font-family:Garuda;-inkscape-font-specification:'Garuda, Normal';text-align:start;letter-spacing:0px;word-spacing:0px;writing-mode:lr-tb;text-anchor:start;fill:#000000;fill-opacity:1;stroke:none;stroke-width:1px;stroke-linecap:butt;stroke-linejoin:miter;stroke-opacity:1"
                 transform="matrix(0.27644235,-1.8381564e-4,-0.00315852,0.2876863,-393.38796,-199.38542)"><flowRegion
                   id="flowRegion3378"><rect
                     id="rect3380"
                     width="315.625"
                     height="518.75"
                     x="-284.375"
                     y="37.992126" /></flowRegion><flowPara
                   id="flowPara3382" /></flowRoot>              <text
                 xml:space="preserve"
                 style="font-style:normal;font-variant:normal;font-weight:normal;font-stretch:normal;font-size:25.38065338px;line-height:125%;font-family:Garuda;-inkscape-font-specification:'Garuda, Normal';text-align:start;letter-spacing:0px;word-spacing:0px;writing-mode:lr-tb;text-anchor:start;fill:#000000;fill-opacity:1;stroke:none;stroke-width:1px;stroke-linecap:butt;stroke-linejoin:miter;stroke-opacity:1"
                 x="-313.18579"
                 y="8.7216463"
                 id="text3430"
                 sodipodi:linespacing="125%"
                 transform="matrix(0.98026678,-6.5181172e-4,-0.01120014,1.0201379,0,0)"><tspan
                   sodipodi:role="line"
                   id="tspan3432"
                   x="-313.18579"
                   y="8.7216463" /></text>
              <g
                 id="g3358"
                 transform="translate(4.3840439,-0.2981754)">
                <g
                   id="g4251"
                   transform="matrix(1.0174326,-1.2812543e-4,0.00211554,0.82474197,13.682841,11.790708)">
                  <g
                     transform="matrix(0.89262413,-5.9353525e-4,-0.01229983,1.1203005,0,0)"
                     style="font-style:normal;font-variant:normal;font-weight:normal;font-stretch:normal;font-size:182.49479675px;line-height:125%;font-family:'AR PL UKai CN';-inkscape-font-specification:'AR PL UKai CN';text-align:start;letter-spacing:0px;word-spacing:0px;writing-mode:lr-tb;text-anchor:start;fill:#000000;fill-opacity:1;stroke:none;stroke-width:1px;stroke-linecap:butt;stroke-linejoin:miter;stroke-opacity:1"
                     id="text4333">
                    <g
                       transform="matrix(-1.0455883,0.00635154,-0.00555229,-0.95636566,-738.30608,30.702212)"
                       style="font-style:normal;font-variant:normal;font-weight:normal;font-stretch:normal;font-size:196.75280762px;line-height:125%;font-family:'AR PL UKai CN';-inkscape-font-specification:'AR PL UKai CN';text-align:start;letter-spacing:0px;word-spacing:0px;writing-mode:lr-tb;text-anchor:start;fill:#00f200;fill-opacity:1;stroke:#0000f4;stroke-width:1px;stroke-linecap:butt;stroke-linejoin:miter;stroke-opacity:1"
                       id="text3362">
                      <path
                         d="m -395.15383,-33.136091 c 0,27.6683631 -1.16706,48.005403 -3.47276,61.583396 -0.76856,3.202357 -1.47308,6.404713 -2.11355,9.60707 -3.84283,14.602748 -10.88801,31.831428 -21.13556,51.686041 -0.51237,0.89666 -0.9607,1.79332 -1.34499,2.689979 -0.12809,1.537131 0.51238,2.049509 1.92142,1.537132 2.43379,-0.384283 5.89233,-4.355205 10.37563,-11.912768 14.34656,-18.829859 23.24911,-47.138694 26.70766,-84.9265047 0.38428,-6.6609022 0.57642,-13.3218043 0.57642,-19.9827073 0.1281,-5.123771 0.2562,-10.119447 0.38429,-14.98703 0,-2.049509 0.12809,-4.099017 0.38428,-6.148525 1.28094,0.128094 2.81807,0 4.61139,-0.384283 19.72652,-4.611394 41.69469,-8.390175 65.90451,-11.336343 3.58664,-0.768566 6.34067,-0.128095 8.26208,1.921414 2.04951,1.152848 3.3945,6.340666 4.03497,15.563454 2.43379,30.8707206 2.88212,63.983091 1.34499,99.337111 0,5.123771 -1.02475,8.454223 -3.07426,9.991354 -1.66523,1.152848 -6.59686,0.512376 -14.79489,-1.921415 -2.43379,-0.768565 -3.65069,-0.384282 -3.65069,1.152849 0.12809,1.152849 1.0888,2.24165 2.88212,3.266404 7.42947,7.045185 12.87347,13.257758 16.33202,18.637717 3.20236,3.074263 5.76425,4.419253 7.68566,4.03497 1.92141,-0.384283 3.77878,-2.68998 5.5721,-6.917091 2.43379,-6.917091 3.77878,-15.371313 4.03497,-25.362667 -2.43379,-48.035353 -3.58664,-80.891535 -3.45855,-98.568545 0,-5.892337 0.89666,-10.695872 2.68998,-14.410606 1.92141,-3.202357 2.04951,-5.764242 0.38429,-7.685657 -1.66523,-2.305697 -6.02043,-5.315912 -13.06562,-9.030646 -3.20236,-1.537131 -9.03065,-1.024754 -17.48487,1.537131 -24.5941,5.37996 -47.90726,9.094694 -69.93947,11.144202 -2.3057,-1.665225 -5.18782,-3.010215 -8.64637,-4.034969 -2.81807,-1.280943 -5.05972,-1.537132 -6.72495,-0.768566 -1.53713,1.280943 -1.79331,2.818074 -0.76856,4.611394 3.07426,3.458545 4.93163,10.055401 5.5721,19.790566 0,0 0.032,2.28677 0.0178,3.240566 -0.0142,0.953796 -0.04,2.416288 -0.0426,3.274699 l -0.0142,4.689497 m 29.05235,-0.829126 c 5.76425,-0.768566 11.33635,-1.601179 16.71631,-2.497839 -0.51238,-3.842828 -0.83262,-7.557562 -0.96071,-11.144202 -0.12809,-1.665225 -1.15285,-3.714734 -3.07426,-6.148525 -0.89666,-1.665225 -0.96071,-2.882121 -0.19215,-3.650687 0.89666,-1.024757 2.1776,-1.34499 3.84283,-0.960707 2.68998,0.384283 5.95638,1.601179 9.79921,3.650687 l 0.38429,0.384283 c 1.66523,1.409037 2.11356,3.842829 1.34499,7.301374 -0.89666,3.714734 -1.34499,6.340667 -1.34499,7.877798 8.06994,-2.946169 13.83418,-4.163064 17.29273,-3.650687 3.20235,0.768565 5.25186,1.793319 6.14852,3.074262 0.38428,0.89666 0.12809,1.79332 -0.76857,2.68998 -0.64047,0.768566 -3.07426,1.601179 -7.30137,2.497839 -5.63615,1.152848 -10.95206,2.369743 -15.94774,3.650686 -0.51237,5.636149 -0.9607,11.5284855 -1.34499,17.6770105 6.40471,-1.6652255 11.97682,-2.9461683 16.71631,-3.8428282 6.53281,-2.1776027 12.93752,-1.1528485 19.21414,3.0742626 1.79332,1.2809427 2.43379,2.56188548 1.92141,3.84282825 -0.51237,1.02475425 -1.79332,1.53713135 -3.84283,1.53713135 l -0.38428,0 c -22.67269,0 -41.56659,2.305697 -56.68172,6.9170909 -3.84283,1.1528486 -7.49351,0.1921413 -10.95206,-2.8821212 -1.66522,-1.6652256 -1.47308,-2.6899798 0.57643,-3.0742627 9.35088,-1.5371313 18.12534,-2.94616831 26.32337,-4.22711107 -0.12809,-6.02043093 -0.25619,-11.72062643 -0.38428,-17.10058543 -0.89666,0 -1.60118,0.06405 -2.11356,0.192141 -6.53281,1.79332 -12.10491,1.34499 -16.7163,-1.34499 -2.81807,-1.79332 -2.08083,-3.096744 1.89009,-3.865309 0,0 1.58436,-0.227023 2.56938,-0.36191 0.98501,-0.134887 2.49269,-0.292255 3.53802,-0.449624 1.04532,-0.157368 2.01024,-0.314736 2.71382,-0.427142 m -17.85069,50.980821 c 3.20235,6.532808 5.89233,15.243219 8.06994,26.131232 0.38428,3.202357 1.53713,5.892337 3.45854,8.06994 2.04951,2.689979 3.3945,3.074262 4.03497,1.152848 0.76857,-1.665225 0.99086,-4.054055 0.60658,-7.256412 0.89666,0.128095 2.04951,0.06405 3.45854,-0.192141 7.04519,-1.537131 18.12534,-2.946168 33.24047,-4.227111 1.28094,-0.128095 2.0495,-0.704519 2.30569,-1.729273 0,-0.89666 -1.15285,-2.113556 -3.45854,-3.650687 3.20235,-8.069939 6.72495,-13.257757 10.56778,-15.563454 2.04951,-2.049509 2.24165,-4.227111 0.57642,-6.532808 -1.92141,-1.665226 -5.95638,-4.099017 -12.10491,-7.301374 -2.43379,-1.152849 -7.42947,-0.256189 -14.98703,2.68998 -8.19803,1.921414 -17.35677,3.714734 -27.47622,5.379959 -1.66523,-0.512377 -3.65069,-0.960707 -5.95639,-1.34499 -1.28094,-0.384283 -2.1776,-0.256188 -2.68998,0.384283 -0.76856,0.768566 -0.64046,2.113556 0.38429,4.03497 0,0 0.35157,0.782112 0.49731,1.074367 0.14574,0.292256 0.50256,1.112819 0.67343,1.455657 0.17087,0.342838 0.87527,2.145759 1.03163,2.527277 m 10.09468,-2.17518 c 0.38428,3.202357 1.34499,9.478977 2.88212,18.829859 7.42947,-1.152849 15.81964,-2.946169 25.17052,-5.37996 0.89666,-0.256189 1.79332,-0.384283 2.68998,-0.384283 1.28095,-4.099017 2.36975,-8.326128 3.26641,-12.681333 0.38428,-2.177603 0.12809,-3.714734 -0.76857,-4.611394 l -0.38428,-0.384283 c -0.25619,0 -11.22246,1.394062 -32.87039,4.468325 0,0 0.4525,3.486649 0.59464,4.456342 0.14215,0.969692 0.29851,2.002971 0.39801,2.559352 0.0995,0.556381 0.32694,2.15399 0.37669,2.487818"
                         id="path4167"
                         inkscape:connector-curvature="0"
                         sodipodi:nodetypes="cccccccccccccccccccccccccsccccccccccccssccccccccccccccccccccccccccccccccccccccccccccscccsscsscssc" />
                    </g>
                  </g>
                </g>
              </g>
            </g>
          </g>
        </g>
      </g>
    </g>
  </g>
  <WCB
     pausedposy="0"
     pausedposx="0"
     lastknownposy="0"
     lastknownposx="0"
     lastpathnc="0"
     lastpath="0"
     node="0"
     layer="0" />
</svg>
