<?xml version="1.0" encoding="UTF-8" standalone="no"?>
<!-- Created with Inkscape (http://www.inkscape.org/) -->

<svg
   xmlns:dc="http://purl.org/dc/elements/1.1/"
   xmlns:cc="http://creativecommons.org/ns#"
   xmlns:rdf="http://www.w3.org/1999/02/22-rdf-syntax-ns#"
   xmlns:svg="http://www.w3.org/2000/svg"
   xmlns="http://www.w3.org/2000/svg"
   xmlns:sodipodi="http://sodipodi.sourceforge.net/DTD/sodipodi-0.dtd"
   xmlns:inkscape="http://www.inkscape.org/namespaces/inkscape"
   width="160mm"
   height="160mm"
   viewBox="0 0 160.00001 160.00001"
   id="svg4258"
   version="1.1"
   inkscape:version="0.91 r"
   sodipodi:docname="2.svg">
  <sodipodi:namedview
     inkscape:document-units="mm"
     pagecolor="#ffffff"
     bordercolor="#666666"
     borderopacity="1.0"
     inkscape:pageopacity="0.0"
     inkscape:pageshadow="2"
     inkscape:zoom="7.2407734"
     inkscape:cx="275.39174"
     inkscape:cy="433.89808"
     inkscape:current-layer="text4333"
     id="namedview4262"
     showgrid="false"
     inkscape:window-width="1297"
     inkscape:window-height="592"
     inkscape:window-x="65"
     inkscape:window-y="24"
     inkscape:window-maximized="1"
     units="mm"
     inkscape:snap-nodes="false" />
  <defs
     id="defs4260" />
  <metadata
     id="metadata4264">
    <rdf:RDF>
      <cc:Work
         rdf:about="">
        <dc:format>image/svg+xml</dc:format>
        <dc:type
           rdf:resource="http://purl.org/dc/dcmitype/StillImage" />
        <dc:title />
      </cc:Work>
    </rdf:RDF>
  </metadata>
  <g
     transform="translate(0,-49.999993)"
     id="layer1"
     inkscape:groupmode="layer"
     inkscape:label="Layer 1">
    <g
       transform="matrix(0.39181791,0.93530971,-0.9095463,0.38102517,226.38736,259.20817)"
       style="font-style:normal;font-variant:normal;font-weight:300;font-stretch:normal;font-size:53.77825546px;line-height:125%;font-family:'AR PL UMing TW';-inkscape-font-specification:'AR PL UMing TW, Light';text-align:start;letter-spacing:0px;word-spacing:0px;writing-mode:lr-tb;text-anchor:start;fill:#000000;fill-opacity:1;stroke:none;stroke-width:1px;stroke-linecap:butt;stroke-linejoin:miter;stroke-opacity:1"
       id="text3428">
      <g
         id="g3391"
         transform="matrix(0.38958785,-0.9546167,0.8965485,0.3738953,-71.862448,-226.06917)">
        <g
           id="g3414">
          <g
             id="g3437">
            <g
               id="g3460">
              <g
                 id="g3693"
                 transform="matrix(0.28222222,0,0,0.28222222,151.88211,161.24942)"
                 inkscape:label="Hershey Text" />
              <g
                 inkscape:label="Hershey Text"
                 transform="matrix(0.28222222,0,0,0.28222222,151.88211,161.24942)"
                 id="g3793" />
              <g
                 id="g3895"
                 transform="matrix(0.28222222,0,0,0.28222222,151.88211,161.24942)"
                 inkscape:label="Hershey Text" />
              <g
                 inkscape:label="Hershey Text"
                 transform="matrix(0.28222222,0,0,0.28222222,151.88211,161.24942)"
                 id="g3999" />
              <g
                 id="g4105"
                 transform="matrix(0.28222222,0,0,0.28222222,151.88211,161.24942)"
                 inkscape:label="Hershey Text" />
              <g
                 inkscape:label="Hershey Text"
                 transform="matrix(0.28222222,0,0,0.28222222,151.88211,161.24942)"
                 id="g4213" />
              <g
                 id="g4323"
                 transform="matrix(0.28222222,0,0,0.28222222,151.88211,161.24942)"
                 inkscape:label="Hershey Text" />
              <g
                 inkscape:label="Hershey Text"
                 transform="matrix(0.28222222,0,0,0.28222222,151.88211,161.24942)"
                 id="g4435" />
              <g
                 transform="matrix(1.2691195,-8.438795e-4,-0.06302835,5.7407885,160.82498,460.88296)"
                 style="font-style:normal;font-variant:normal;font-weight:normal;font-stretch:normal;font-size:31.82224083px;line-height:125%;font-family:Garuda;-inkscape-font-specification:'Garuda, Normal';text-align:start;letter-spacing:0px;word-spacing:0px;writing-mode:lr-tb;text-anchor:start;fill:#000000;fill-opacity:1;stroke:none;stroke-width:1px;stroke-linecap:butt;stroke-linejoin:miter;stroke-opacity:1"
                 id="text3398" />
              <flowRoot
                 xml:space="preserve"
                 id="flowRoot3368"
                 style="font-style:normal;font-variant:normal;font-weight:normal;font-stretch:normal;font-size:180px;line-height:125%;font-family:Garuda;-inkscape-font-specification:'Garuda, Normal';text-align:start;letter-spacing:0px;word-spacing:0px;writing-mode:lr-tb;text-anchor:start;fill:#000000;fill-opacity:1;stroke:none;stroke-width:1px;stroke-linecap:butt;stroke-linejoin:miter;stroke-opacity:1"
                 transform="matrix(0.27644235,-1.8381564e-4,-0.00315852,0.2876863,-393.38796,-199.38542)"><flowRegion
                   id="flowRegion3370"><rect
                     id="rect3372"
                     width="1640.625"
                     height="559.375"
                     x="-190.625"
                     y="175.49213" /></flowRegion><flowPara
                   id="flowPara3374" /></flowRoot>              <flowRoot
                 xml:space="preserve"
                 id="flowRoot3376"
                 style="font-style:normal;font-variant:normal;font-weight:normal;font-stretch:normal;font-size:180px;line-height:125%;font-family:Garuda;-inkscape-font-specification:'Garuda, Normal';text-align:start;letter-spacing:0px;word-spacing:0px;writing-mode:lr-tb;text-anchor:start;fill:#000000;fill-opacity:1;stroke:none;stroke-width:1px;stroke-linecap:butt;stroke-linejoin:miter;stroke-opacity:1"
                 transform="matrix(0.27644235,-1.8381564e-4,-0.00315852,0.2876863,-393.38796,-199.38542)"><flowRegion
                   id="flowRegion3378"><rect
                     id="rect3380"
                     width="315.625"
                     height="518.75"
                     x="-284.375"
                     y="37.992126" /></flowRegion><flowPara
                   id="flowPara3382" /></flowRoot>              <text
                 xml:space="preserve"
                 style="font-style:normal;font-variant:normal;font-weight:normal;font-stretch:normal;font-size:25.38065338px;line-height:125%;font-family:Garuda;-inkscape-font-specification:'Garuda, Normal';text-align:start;letter-spacing:0px;word-spacing:0px;writing-mode:lr-tb;text-anchor:start;fill:#000000;fill-opacity:1;stroke:none;stroke-width:1px;stroke-linecap:butt;stroke-linejoin:miter;stroke-opacity:1"
                 x="-313.18579"
                 y="8.7216463"
                 id="text3430"
                 sodipodi:linespacing="125%"
                 transform="matrix(0.98026678,-6.5181172e-4,-0.01120014,1.0201379,0,0)"><tspan
                   sodipodi:role="line"
                   id="tspan3432"
                   x="-313.18579"
                   y="8.7216463" /></text>
              <g
                 id="g3358"
                 transform="translate(4.3840439,-0.2981754)">
                <g
                   id="g4251"
                   transform="matrix(1.0174326,-1.2812543e-4,0.00211554,0.82474197,13.682841,11.790708)">
                  <g
                     transform="matrix(0.89262413,-5.9353525e-4,-0.01229983,1.1203005,0,0)"
                     style="font-style:normal;font-variant:normal;font-weight:normal;font-stretch:normal;font-size:182.49479675px;line-height:125%;font-family:'AR PL UKai CN';-inkscape-font-specification:'AR PL UKai CN';text-align:start;letter-spacing:0px;word-spacing:0px;writing-mode:lr-tb;text-anchor:start;fill:#000000;fill-opacity:1;stroke:none;stroke-width:1px;stroke-linecap:butt;stroke-linejoin:miter;stroke-opacity:1"
                     id="text4333">
                    <g
                       transform="matrix(-0.91414616,0.02196595,-0.02674991,-1.1648173,-752.91856,38.268423)"
                       style="font-style:normal;font-variant:normal;font-weight:normal;font-stretch:normal;font-size:202.55755615px;line-height:125%;font-family:'AR PL UKai CN';-inkscape-font-specification:'AR PL UKai CN';text-align:start;letter-spacing:0px;word-spacing:0px;writing-mode:lr-tb;text-anchor:start;fill:#00e900;fill-opacity:1;stroke:#0010f1;stroke-width:1px;stroke-linecap:butt;stroke-linejoin:miter;stroke-opacity:1"
                       id="text3362">
                      <path
                         d="m -418.72354,58.754752 c 31.51775,-3.033088 49.51847,-5.143062 54.00216,-6.329923 3.82433,-1.186861 6.79148,-1.318734 8.90146,-0.395621 6.32992,3.164962 11.67079,6.791481 16.02262,10.879557 1.84623,1.714354 2.10997,3.626518 0.79124,5.736493 -0.79124,1.186861 -2.96715,1.582481 -6.52774,1.186861 -18.19853,-2.505595 -34.28708,-3.494646 -48.26567,-2.967152 -44.30946,2.505595 -73.98098,6.329923 -89.01455,11.472986 -4.87931,1.582481 -10.54987,-0.06594 -17.01167,-4.945252 -2.63747,-2.241848 -3.89026,-4.219949 -3.75839,-5.934304 0.13187,-1.714354 1.2528,-2.571531 3.36277,-2.571531 9.23114,0.39562 20.17663,-0.19781 32.83648,-1.780291 10.81362,-1.318734 23.40753,-2.439658 37.78173,-3.362772 0.13187,-17.143543 0.26375,-31.319935 0.39562,-42.529175 -2.24185,0.131874 -4.35182,0.395621 -6.32992,0.791241 -10.28613,1.846227 -18.46228,0.98905 -24.52845,-2.571532 -3.82433,-2.769341 -2.96716,-4.417759 2.57153,-4.945252 10.02238,-0.7912407 19.45133,-1.8462282 28.28684,-3.1649623 0,-14.7698218 -0.0659,-23.6053397 -0.19781,-26.5065547 -0.13187,-5.143063 -0.65937,-9.165202 -1.58248,-12.066417 -0.92311,-1.186861 -1.64842,-2.439658 -2.17591,-3.758393 -1.45061,0.131874 -2.63747,0.263748 -3.56058,0.395621 -12.65985,1.846227 -21.95692,0.725303 -27.89123,-3.362772 -4.35182,-3.033089 -3.36277,-4.945253 2.96716,-5.736494 16.74792,-1.054987 32.63866,-3.362771 47.67223,-6.923354 14.11045,-3.956202 23.40753,-5.340873 27.89123,-4.154012 4.74744,1.450607 7.71459,3.230898 8.90145,5.340873 0.79124,1.450607 0.39562,2.835278 -1.18686,4.154013 -1.18686,1.054987 -5.53868,2.241847 -13.05546,3.560582 -10.418,1.450607 -20.24257,3.033088 -29.47371,4.747442 4.61557,3.296835 6.32992,6.923354 5.14306,10.879557 -0.79124,6.989291 -1.2528,17.2094797 -1.38467,30.6605671 13.71483,-3.82432887 22.55035,-5.34087306 26.50656,-4.54963257 4.35182,1.45060747 6.98929,3.03308847 7.9124,4.74744277 0.52749,1.1868607 0.13187,2.3737213 -1.18686,3.560582 -0.92311,0.9231139 -4.74744,2.0440377 -11.47299,3.3627717 -7.51678,1.186861 -14.83575,2.439658 -21.95692,3.758392 -0.52749,13.319215 -1.35566,27.715523 -1.75128,43.276585 0,0 14.04342,-1.318143 16.90165,-1.559577"
                         id="path4167"
                         inkscape:connector-curvature="0"
                         sodipodi:nodetypes="ccccccccccccccccccccccccccccsccccccccc" />
                    </g>
                  </g>
                </g>
              </g>
            </g>
          </g>
        </g>
      </g>
    </g>
  </g>
  <WCB
     pausedposy="0"
     pausedposx="0"
     lastknownposy="0"
     lastknownposx="0"
     lastpathnc="0"
     lastpath="0"
     node="0"
     layer="0" />
</svg>
