<?xml version="1.0" encoding="UTF-8" standalone="no"?>
<!-- Created with Inkscape (http://www.inkscape.org/) -->

<svg
   xmlns:dc="http://purl.org/dc/elements/1.1/"
   xmlns:cc="http://creativecommons.org/ns#"
   xmlns:rdf="http://www.w3.org/1999/02/22-rdf-syntax-ns#"
   xmlns:svg="http://www.w3.org/2000/svg"
   xmlns="http://www.w3.org/2000/svg"
   xmlns:sodipodi="http://sodipodi.sourceforge.net/DTD/sodipodi-0.dtd"
   xmlns:inkscape="http://www.inkscape.org/namespaces/inkscape"
   width="160mm"
   height="160mm"
   viewBox="0 0 160.00001 160.00001"
   id="svg4258"
   version="1.1"
   inkscape:version="0.91 r"
   sodipodi:docname="3.svg">
  <sodipodi:namedview
     inkscape:document-units="mm"
     pagecolor="#ffffff"
     bordercolor="#666666"
     borderopacity="1.0"
     inkscape:pageopacity="0.0"
     inkscape:pageshadow="2"
     inkscape:zoom="7.2407734"
     inkscape:cx="217.39439"
     inkscape:cy="104.24437"
     inkscape:current-layer="text4333"
     id="namedview4262"
     showgrid="false"
     inkscape:window-width="1297"
     inkscape:window-height="592"
     inkscape:window-x="65"
     inkscape:window-y="24"
     inkscape:window-maximized="1"
     units="mm"
     inkscape:snap-nodes="false" />
  <defs
     id="defs4260" />
  <metadata
     id="metadata4264">
    <rdf:RDF>
      <cc:Work
         rdf:about="">
        <dc:format>image/svg+xml</dc:format>
        <dc:type
           rdf:resource="http://purl.org/dc/dcmitype/StillImage" />
        <dc:title />
      </cc:Work>
    </rdf:RDF>
  </metadata>
  <g
     transform="translate(0,-49.999993)"
     id="layer1"
     inkscape:groupmode="layer"
     inkscape:label="Layer 1">
    <g
       transform="matrix(0.39181791,0.93530971,-0.9095463,0.38102517,226.38736,259.20817)"
       style="font-style:normal;font-variant:normal;font-weight:300;font-stretch:normal;font-size:53.77825546px;line-height:125%;font-family:'AR PL UMing TW';-inkscape-font-specification:'AR PL UMing TW, Light';text-align:start;letter-spacing:0px;word-spacing:0px;writing-mode:lr-tb;text-anchor:start;fill:#000000;fill-opacity:1;stroke:none;stroke-width:1px;stroke-linecap:butt;stroke-linejoin:miter;stroke-opacity:1"
       id="text3428">
      <g
         id="g3391"
         transform="matrix(0.38958785,-0.9546167,0.8965485,0.3738953,-71.862448,-226.06917)">
        <g
           id="g3414">
          <g
             id="g3437">
            <g
               id="g3460">
              <g
                 id="g3693"
                 transform="matrix(0.28222222,0,0,0.28222222,151.88211,161.24942)"
                 inkscape:label="Hershey Text" />
              <g
                 inkscape:label="Hershey Text"
                 transform="matrix(0.28222222,0,0,0.28222222,151.88211,161.24942)"
                 id="g3793" />
              <g
                 id="g3895"
                 transform="matrix(0.28222222,0,0,0.28222222,151.88211,161.24942)"
                 inkscape:label="Hershey Text" />
              <g
                 inkscape:label="Hershey Text"
                 transform="matrix(0.28222222,0,0,0.28222222,151.88211,161.24942)"
                 id="g3999" />
              <g
                 id="g4105"
                 transform="matrix(0.28222222,0,0,0.28222222,151.88211,161.24942)"
                 inkscape:label="Hershey Text" />
              <g
                 inkscape:label="Hershey Text"
                 transform="matrix(0.28222222,0,0,0.28222222,151.88211,161.24942)"
                 id="g4213" />
              <g
                 id="g4323"
                 transform="matrix(0.28222222,0,0,0.28222222,151.88211,161.24942)"
                 inkscape:label="Hershey Text" />
              <g
                 inkscape:label="Hershey Text"
                 transform="matrix(0.28222222,0,0,0.28222222,151.88211,161.24942)"
                 id="g4435" />
              <g
                 transform="matrix(1.2691195,-8.438795e-4,-0.06302835,5.7407885,160.82498,460.88296)"
                 style="font-style:normal;font-variant:normal;font-weight:normal;font-stretch:normal;font-size:31.82224083px;line-height:125%;font-family:Garuda;-inkscape-font-specification:'Garuda, Normal';text-align:start;letter-spacing:0px;word-spacing:0px;writing-mode:lr-tb;text-anchor:start;fill:#000000;fill-opacity:1;stroke:none;stroke-width:1px;stroke-linecap:butt;stroke-linejoin:miter;stroke-opacity:1"
                 id="text3398" />
              <flowRoot
                 xml:space="preserve"
                 id="flowRoot3368"
                 style="font-style:normal;font-variant:normal;font-weight:normal;font-stretch:normal;font-size:180px;line-height:125%;font-family:Garuda;-inkscape-font-specification:'Garuda, Normal';text-align:start;letter-spacing:0px;word-spacing:0px;writing-mode:lr-tb;text-anchor:start;fill:#000000;fill-opacity:1;stroke:none;stroke-width:1px;stroke-linecap:butt;stroke-linejoin:miter;stroke-opacity:1"
                 transform="matrix(0.27644235,-1.8381564e-4,-0.00315852,0.2876863,-393.38796,-199.38542)"><flowRegion
                   id="flowRegion3370"><rect
                     id="rect3372"
                     width="1640.625"
                     height="559.375"
                     x="-190.625"
                     y="175.49213" /></flowRegion><flowPara
                   id="flowPara3374" /></flowRoot>              <flowRoot
                 xml:space="preserve"
                 id="flowRoot3376"
                 style="font-style:normal;font-variant:normal;font-weight:normal;font-stretch:normal;font-size:180px;line-height:125%;font-family:Garuda;-inkscape-font-specification:'Garuda, Normal';text-align:start;letter-spacing:0px;word-spacing:0px;writing-mode:lr-tb;text-anchor:start;fill:#000000;fill-opacity:1;stroke:none;stroke-width:1px;stroke-linecap:butt;stroke-linejoin:miter;stroke-opacity:1"
                 transform="matrix(0.27644235,-1.8381564e-4,-0.00315852,0.2876863,-393.38796,-199.38542)"><flowRegion
                   id="flowRegion3378"><rect
                     id="rect3380"
                     width="315.625"
                     height="518.75"
                     x="-284.375"
                     y="37.992126" /></flowRegion><flowPara
                   id="flowPara3382" /></flowRoot>              <text
                 xml:space="preserve"
                 style="font-style:normal;font-variant:normal;font-weight:normal;font-stretch:normal;font-size:25.38065338px;line-height:125%;font-family:Garuda;-inkscape-font-specification:'Garuda, Normal';text-align:start;letter-spacing:0px;word-spacing:0px;writing-mode:lr-tb;text-anchor:start;fill:#000000;fill-opacity:1;stroke:none;stroke-width:1px;stroke-linecap:butt;stroke-linejoin:miter;stroke-opacity:1"
                 x="-313.18579"
                 y="8.7216463"
                 id="text3430"
                 sodipodi:linespacing="125%"
                 transform="matrix(0.98026678,-6.5181172e-4,-0.01120014,1.0201379,0,0)"><tspan
                   sodipodi:role="line"
                   id="tspan3432"
                   x="-313.18579"
                   y="8.7216463" /></text>
              <g
                 id="g3358"
                 transform="translate(4.3840439,-0.2981754)">
                <g
                   id="g4251"
                   transform="matrix(1.0174326,-1.2812543e-4,0.00211554,0.82474197,13.682841,11.790708)">
                  <g
                     transform="matrix(0.89262413,-5.9353525e-4,-0.01229983,1.1203005,0,0)"
                     style="font-style:normal;font-variant:normal;font-weight:normal;font-stretch:normal;font-size:182.49479675px;line-height:125%;font-family:'AR PL UKai CN';-inkscape-font-specification:'AR PL UKai CN';text-align:start;letter-spacing:0px;word-spacing:0px;writing-mode:lr-tb;text-anchor:start;fill:#000000;fill-opacity:1;stroke:none;stroke-width:1px;stroke-linecap:butt;stroke-linejoin:miter;stroke-opacity:1"
                     id="text4333">
                    <g
                       transform="matrix(-0.96076836,-0.05579461,0.0575821,-1.0374896,0.16815351,0)"
                       style="font-style:normal;font-variant:normal;font-weight:normal;font-stretch:normal;font-size:196.71247864px;line-height:125%;font-family:'AR PL UKai CN';-inkscape-font-specification:'AR PL UKai CN';text-align:start;letter-spacing:0px;word-spacing:0px;writing-mode:lr-tb;text-anchor:start;fill:#00f100;fill-opacity:1;stroke:#0000f1;stroke-width:1px;stroke-linecap:butt;stroke-linejoin:miter;stroke-opacity:1"
                       id="text3362">
                      <path
                         d="m 416.68047,-93.032198 c 1.1526,3.457836 -1.69798,9.430487 -9.25399,18.26718 -3.45784,4.226245 -7.49198,8.580557 -12.10243,13.062938 -1.28068,0.896476 -2.17716,1.664884 -2.68943,2.305224 -0.51227,1.28068 0,1.92102 1.53682,1.92102 5.76306,0 15.75236,-6.467435 29.96791,-19.402305 2.04909,-2.049088 3.84204,-3.457836 5.37886,-4.226244 1.28068,-0.896476 1.79295,-2.24119 1.53681,-4.034143 -0.12807,-1.536816 -1.53681,-3.906074 -4.22624,-7.107775 -2.68943,-2.817497 -5.05868,-4.418347 -7.10777,-4.802551 -2.30523,-0.128068 -3.2017,1.152612 -2.68943,3.842041 0,0 0.52534,1.394195 0.32308,2.399809 -0.20226,1.005614 -0.88484,3.487718 -1.9971,5.371218 M 374.42527,-102.0548 c 4.61045,3.842038 6.93936,23.127571 6.68323,58.986617 -6.53147,1.152612 -13.06294,2.369258 -19.59441,3.649938 -2.43329,0.384204 -2.68943,1.60085 -0.76841,3.649939 1.66489,1.536816 3.71398,2.625394 6.14727,3.265734 2.43329,0.512273 4.67448,0.384205 6.72357,-0.384204 2.30522,-0.768408 4.80255,-1.472782 7.49198,-2.113122 0,37.267794 -2.6254,58.975323 -7.87619,65.122588 -1.53681,2.433293 -1.53681,4.994653 0,7.684081 1.66489,2.433293 3.64994,4.162211 5.95517,5.186755 1.28068,0.896476 2.75346,0.192102 4.41834,-2.113122 2.30523,-3.970109 9.66914,-12.6147 22.09174,-25.933774 3.45783,-2.817497 5.25078,-4.866585 5.37885,-6.1472652 0.12807,-0.8964761 -0.1921,-1.4727822 -0.96051,-1.7289182 -0.76841,-0.1280681 -7.55601,4.4183464 -20.36281,13.6392444 -1.66489,1.664884 -2.68943,1.28068 -3.07363,-1.152613 0.76841,-17.6733864 1.47278,-35.666943 2.11312,-53.98067 1.66488,1.536816 3.2017,3.329768 4.61045,5.378857 22.28383,29.96791667 35.47484,45.400113 39.57302,46.296589 8.83669,0 17.22515,-0.896476 25.16536,-2.689428 1.92102,-0.128068 3.2017,-0.704374 3.84204,-1.728919 0.51227,-0.768408 0.12807,-1.408748 -1.15261,-1.92102 -19.97861,-8.0682851 -35.73098,-17.6733865 -47.2571,-28.815304 -5.89113,-5.506925 -12.29453,-12.166462 -19.2102,-19.978611 8.83669,-3.201701 25.6136,-4.866585 50.33073,-4.994653 2.68943,0 4.29028,-0.64034 4.80255,-1.921021 0.51227,-1.536816 -0.25613,-3.073632 -2.30522,-4.610448 -6.91567,-4.994653 -14.15152,-6.083231 -21.70753,-3.265735 -6.91567,1.536817 -15.6243,3.521871 -26.12588,5.955163 -3.58591,0.512272 -6.97971,1.216646 -10.18141,2.113123 0.76841,-32.273141 1.66488,-49.946528 2.68943,-53.020161 0.89647,-2.305227 0.3842,-4.35431 -1.53682,-6.14726 -2.81749,-2.30523 -5.89112,-3.84204 -9.22089,-4.61045 -3.84204,-0.89648 -6.4034,-0.51228 -7.68408,1.15261 -0.89648,1.28068 -0.51228,2.8175 1.15261,4.61045 0,0 0.8521,0.74366 1.32588,1.42157 0.47378,0.6779 1.12695,2.284011 1.27482,2.686366 m -15.17846,10.126825 c -3.58591,3.2017 -7.59296,10.226228 -11.05079,21.496214 2.81749,1.28068 4.22624,2.369258 4.22624,3.265735 0,1.152612 -0.64034,1.92102 -1.92102,2.305224 -12.8068,2.305224 -22.34787,4.48238 -28.6232,6.531469 0,0.384204 -0.064,0.832442 -0.1921,1.344714 -3.2017,13.319074 -4.54641,20.234747 -4.03414,20.747019 0.3842,0.384204 1.34471,0.512272 2.88153,0.384204 9.34896,-2.433292 15.43219,-4.034142 18.24969,-4.80255 2.17715,-1.024545 4.86658,-0.768409 8.06828,0.768408 4.09818,1.92102 6.97971,4.034142 8.6446,6.339367 1.40875,1.28068 1.34471,3.137666 -0.19211,5.570959 -0.3842,0.512272 -0.7684,1.152612 -1.15261,1.92102 -0.3842,0.384204 -3.13766,13.89538 -8.26039,40.533528 -1.53681,8.708625 -6.91567,16.392707 -16.13657,23.052244 -2.94556,1.664884 -5.44289,1.088578 -7.49198,-1.728918 -3.07363,-4.738517 -7.29987,-9.669136 -12.67873,-14.791857 -1.79295,-1.792952 -2.88153,-3.52187 -3.26573,-5.186755 -0.38421,-1.408748 0.5763,-1.664884 2.88153,-0.768408 3.5859,1.280681 7.68408,2.753463 12.29453,4.418347 3.32977,1.28068 5.63499,1.28068 6.91567,0 1.92102,-2.049088 3.90607,-5.634993 5.95516,-10.757714 2.94557,-7.684081 4.99466,-17.3532163 6.14727,-29.007406 0.51227,-5.122721 0.12807,-8.708625 -1.15261,-10.757714 -1.02455,-1.152612 -2.88153,-1.664884 -5.57096,-1.536816 -3.32977,-0.128068 -7.94022,0.832442 -13.83135,2.88153 -3.58591,1.152613 -6.78761,3.137667 -9.6051,5.955163 -2.43329,1.921021 -4.29028,2.433293 -5.57096,1.536817 -1.53681,-1.024545 -2.75346,-2.369259 -3.64994,-4.034143 -0.64034,-1.921021 -0.12807,-3.713973 1.53682,-5.378857 3.71397,-3.457837 6.4034,-9.477034 8.06828,-18.057591 1.28068,-6.659537 0.70437,-12.102427 -1.72892,-16.328672 -1.28068,-1.792953 -1.28068,-3.137667 0,-4.034143 1.15261,-0.896476 2.56136,-0.704374 4.22625,0.576306 3.2017,1.536817 5.44289,3.073633 6.72357,4.610449 5.12272,-1.536816 10.82175,-3.52187 17.09708,-5.955163 0.25613,-0.256136 0.5763,-0.384204 0.96051,-0.384204 1.92102,-5.763061 3.64994,-11.01385 5.18676,-15.752367 1.40875,-4.738517 1.66488,-7.556013 0.7684,-8.452489 -0.89647,-1.536816 -3.84204,-1.536816 -8.83669,0 -9.73317,2.177157 -15.6243,2.689429 -17.67339,1.536816 -1.66488,-0.896476 -2.56135,-1.728918 -2.68942,-2.497326 -0.38421,-0.896476 0.25613,-1.344714 1.92102,-1.344714 6.14726,-1.152612 13.12697,-3.073632 20.93912,-5.763061 5.76306,-3.201696 9.86124,-4.034136 12.29453,-2.497326 3.45783,2.30522 6.4034,4.290278 8.83669,5.955162 3.07363,2.049089 3.23571,4.45853 0.16208,7.660231 0,0 -1.1461,1.144147 -1.39045,1.44742 -0.24435,0.303273 -1.74418,2.290511 -2.68941,4.040686"
                         id="path4167"
                         inkscape:connector-curvature="0"
                         sodipodi:nodetypes="ccccccccccccccccccccccccccccccccccccccccscccsccccccccccccccccccccccscccccccccccccccccccccccccscscsc" />
                    </g>
                  </g>
                </g>
              </g>
            </g>
          </g>
        </g>
      </g>
    </g>
  </g>
  <WCB
     pausedposy="0"
     pausedposx="0"
     lastknownposy="0"
     lastknownposx="0"
     lastpathnc="0"
     lastpath="0"
     node="0"
     layer="0" />
</svg>
