<?xml version="1.0" encoding="UTF-8" standalone="no"?>
<!-- Created with Inkscape (http://www.inkscape.org/) -->

<svg
   xmlns:dc="http://purl.org/dc/elements/1.1/"
   xmlns:cc="http://creativecommons.org/ns#"
   xmlns:rdf="http://www.w3.org/1999/02/22-rdf-syntax-ns#"
   xmlns:svg="http://www.w3.org/2000/svg"
   xmlns="http://www.w3.org/2000/svg"
   xmlns:sodipodi="http://sodipodi.sourceforge.net/DTD/sodipodi-0.dtd"
   xmlns:inkscape="http://www.inkscape.org/namespaces/inkscape"
   width="160mm"
   height="160mm"
   viewBox="0 0 160.00001 160.00001"
   id="svg4258"
   version="1.1"
   inkscape:version="0.91 r"
   sodipodi:docname="4.svg">
  <sodipodi:namedview
     inkscape:document-units="mm"
     pagecolor="#ffffff"
     bordercolor="#666666"
     borderopacity="1.0"
     inkscape:pageopacity="0.0"
     inkscape:pageshadow="2"
     inkscape:zoom="10.24"
     inkscape:cx="475.19408"
     inkscape:cy="195.70718"
     inkscape:current-layer="text4333"
     id="namedview4262"
     showgrid="false"
     inkscape:window-width="1297"
     inkscape:window-height="592"
     inkscape:window-x="65"
     inkscape:window-y="24"
     inkscape:window-maximized="1"
     units="mm"
     inkscape:snap-nodes="false" />
  <defs
     id="defs4260" />
  <metadata
     id="metadata4264">
    <rdf:RDF>
      <cc:Work
         rdf:about="">
        <dc:format>image/svg+xml</dc:format>
        <dc:type
           rdf:resource="http://purl.org/dc/dcmitype/StillImage" />
        <dc:title />
      </cc:Work>
    </rdf:RDF>
  </metadata>
  <g
     transform="translate(0,-49.999993)"
     id="layer1"
     inkscape:groupmode="layer"
     inkscape:label="Layer 1">
    <g
       transform="matrix(0.39181791,0.93530971,-0.9095463,0.38102517,226.38736,259.20817)"
       style="font-style:normal;font-variant:normal;font-weight:300;font-stretch:normal;font-size:53.77825546px;line-height:125%;font-family:'AR PL UMing TW';-inkscape-font-specification:'AR PL UMing TW, Light';text-align:start;letter-spacing:0px;word-spacing:0px;writing-mode:lr-tb;text-anchor:start;fill:#000000;fill-opacity:1;stroke:none;stroke-width:1px;stroke-linecap:butt;stroke-linejoin:miter;stroke-opacity:1"
       id="text3428">
      <g
         id="g3391"
         transform="matrix(0.38958785,-0.9546167,0.8965485,0.3738953,-71.862448,-226.06917)">
        <g
           id="g3414">
          <g
             id="g3437">
            <g
               id="g3460">
              <g
                 id="g3693"
                 transform="matrix(0.28222222,0,0,0.28222222,151.88211,161.24942)"
                 inkscape:label="Hershey Text" />
              <g
                 inkscape:label="Hershey Text"
                 transform="matrix(0.28222222,0,0,0.28222222,151.88211,161.24942)"
                 id="g3793" />
              <g
                 id="g3895"
                 transform="matrix(0.28222222,0,0,0.28222222,151.88211,161.24942)"
                 inkscape:label="Hershey Text" />
              <g
                 inkscape:label="Hershey Text"
                 transform="matrix(0.28222222,0,0,0.28222222,151.88211,161.24942)"
                 id="g3999" />
              <g
                 id="g4105"
                 transform="matrix(0.28222222,0,0,0.28222222,151.88211,161.24942)"
                 inkscape:label="Hershey Text" />
              <g
                 inkscape:label="Hershey Text"
                 transform="matrix(0.28222222,0,0,0.28222222,151.88211,161.24942)"
                 id="g4213" />
              <g
                 id="g4323"
                 transform="matrix(0.28222222,0,0,0.28222222,151.88211,161.24942)"
                 inkscape:label="Hershey Text" />
              <g
                 inkscape:label="Hershey Text"
                 transform="matrix(0.28222222,0,0,0.28222222,151.88211,161.24942)"
                 id="g4435" />
              <g
                 transform="matrix(1.2691195,-8.438795e-4,-0.06302835,5.7407885,160.82498,460.88296)"
                 style="font-style:normal;font-variant:normal;font-weight:normal;font-stretch:normal;font-size:31.82224083px;line-height:125%;font-family:Garuda;-inkscape-font-specification:'Garuda, Normal';text-align:start;letter-spacing:0px;word-spacing:0px;writing-mode:lr-tb;text-anchor:start;fill:#000000;fill-opacity:1;stroke:none;stroke-width:1px;stroke-linecap:butt;stroke-linejoin:miter;stroke-opacity:1"
                 id="text3398" />
              <flowRoot
                 xml:space="preserve"
                 id="flowRoot3368"
                 style="font-style:normal;font-variant:normal;font-weight:normal;font-stretch:normal;font-size:180px;line-height:125%;font-family:Garuda;-inkscape-font-specification:'Garuda, Normal';text-align:start;letter-spacing:0px;word-spacing:0px;writing-mode:lr-tb;text-anchor:start;fill:#000000;fill-opacity:1;stroke:none;stroke-width:1px;stroke-linecap:butt;stroke-linejoin:miter;stroke-opacity:1"
                 transform="matrix(0.27644235,-1.8381564e-4,-0.00315852,0.2876863,-393.38796,-199.38542)"><flowRegion
                   id="flowRegion3370"><rect
                     id="rect3372"
                     width="1640.625"
                     height="559.375"
                     x="-190.625"
                     y="175.49213" /></flowRegion><flowPara
                   id="flowPara3374" /></flowRoot>              <flowRoot
                 xml:space="preserve"
                 id="flowRoot3376"
                 style="font-style:normal;font-variant:normal;font-weight:normal;font-stretch:normal;font-size:180px;line-height:125%;font-family:Garuda;-inkscape-font-specification:'Garuda, Normal';text-align:start;letter-spacing:0px;word-spacing:0px;writing-mode:lr-tb;text-anchor:start;fill:#000000;fill-opacity:1;stroke:none;stroke-width:1px;stroke-linecap:butt;stroke-linejoin:miter;stroke-opacity:1"
                 transform="matrix(0.27644235,-1.8381564e-4,-0.00315852,0.2876863,-393.38796,-199.38542)"><flowRegion
                   id="flowRegion3378"><rect
                     id="rect3380"
                     width="315.625"
                     height="518.75"
                     x="-284.375"
                     y="37.992126" /></flowRegion><flowPara
                   id="flowPara3382" /></flowRoot>              <text
                 xml:space="preserve"
                 style="font-style:normal;font-variant:normal;font-weight:normal;font-stretch:normal;font-size:25.38065338px;line-height:125%;font-family:Garuda;-inkscape-font-specification:'Garuda, Normal';text-align:start;letter-spacing:0px;word-spacing:0px;writing-mode:lr-tb;text-anchor:start;fill:#000000;fill-opacity:1;stroke:none;stroke-width:1px;stroke-linecap:butt;stroke-linejoin:miter;stroke-opacity:1"
                 x="-313.18579"
                 y="8.7216463"
                 id="text3430"
                 sodipodi:linespacing="125%"
                 transform="matrix(0.98026678,-6.5181172e-4,-0.01120014,1.0201379,0,0)"><tspan
                   sodipodi:role="line"
                   id="tspan3432"
                   x="-313.18579"
                   y="8.7216463" /></text>
              <g
                 id="g3358"
                 transform="translate(4.3840439,-0.2981754)">
                <g
                   id="g4251"
                   transform="matrix(1.0174326,-1.2812543e-4,0.00211554,0.82474197,13.682841,11.790708)">
                  <g
                     transform="matrix(0.89262413,-5.9353525e-4,-0.01229983,1.1203005,0,0)"
                     style="font-style:normal;font-variant:normal;font-weight:normal;font-stretch:normal;font-size:182.49479675px;line-height:125%;font-family:'AR PL UKai CN';-inkscape-font-specification:'AR PL UKai CN';text-align:start;letter-spacing:0px;word-spacing:0px;writing-mode:lr-tb;text-anchor:start;fill:#000000;fill-opacity:1;stroke:none;stroke-width:1px;stroke-linecap:butt;stroke-linejoin:miter;stroke-opacity:1"
                     id="text4333">
                    <g
                       transform="matrix(-1.027547,-0.05962005,0.05379279,-0.97007036,0,0)"
                       style="font-style:normal;font-variant:normal;font-weight:normal;font-stretch:normal;font-size:191.79318237px;line-height:125%;font-family:'AR PL UKai CN';-inkscape-font-specification:'AR PL UKai CN';text-align:start;letter-spacing:0px;word-spacing:0px;writing-mode:lr-tb;text-anchor:start;fill:#00f400;fill-opacity:1;stroke:#0000f7;stroke-width:1px;stroke-linecap:butt;stroke-linejoin:miter;stroke-opacity:1"
                       id="text3362">
                      <path
                         d="m 352.5655,-106.00324 c 1.49839,3.87083 1.99785,6.805162 1.49839,8.803006 -0.74919,1.748115 -1.74812,2.684605 -2.99677,2.80947 -1.99785,0.249731 -3.74407,-0.319509 -5.74192,-1.942759 -4.74489,-3.870827 -9.3649,-7.491917 -13.86005,-10.863287 -3.74597,-2.62217 -5.86868,-4.55759 -6.36814,-5.80624 -0.37459,-1.74811 -0.18729,-2.8719 0.5619,-3.37136 1.24865,-0.87406 7.49192,0.24973 18.7298,3.37136 4.74488,1.99785 7.20037,3.97159 8.07443,6.71863 0,0 0.4966,1.23849 0.8422,2.36978 0.3456,1.13128 0.84131,2.78528 0.94917,4.06416 m 38.00169,31.636909 c -0.87406,5.743806 -1.4819,18.587037 -1.4819,38.440628 -0.12487,5.993537 -1.49839,10.863285 -4.12056,14.609246 -1.37352,1.623249 -2.68461,1.685682 -3.93326,0.187298 -3.62109,-4.994614 -4.99461,-9.552199 -4.12055,-13.672756 2.74703,-22.600629 2.24757,-37.834202 -1.49839,-45.700719 -0.49946,-2.122711 -0.1873,-3.621096 0.93649,-4.495153 1.37352,-0.624327 2.87191,-0.686759 4.49516,-0.187298 2.24757,1.123788 4.49515,2.434874 6.74272,3.933258 2.74705,1.498385 4.22742,0.223879 3.0553,6.699771 0,0 -0.59415,3.081682 -0.70711,4.440627 -0.11296,1.358945 -0.36571,6.430201 -0.41072,7.780785 m 19.62754,-52.218186 c 2.99677,3.49623 4.78158,7.32501 5.03131,11.945028 0.49947,4.495153 0.68677,40.58124 0.5619,108.258261 -0.12487,2.996769 -0.93649,4.994614 -2.43488,5.993537 -0.87405,0.499461 -6.49299,-0.312163 -16.85682,-2.434874 -4.24542,-1.62325 -6.24326,-1.685683 -5.99353,-0.187298 0.12486,0.874057 1.56081,2.310009 4.30785,4.307854 9.11517,6.867595 14.85898,12.299238 17.23142,16.294929 2.74704,4.620018 5.24435,6.99246 7.49192,7.117325 1.99785,0.124865 3.93326,-2.122711 5.80624,-6.742729 2.37244,-6.118402 3.37136,-14.172217 2.99677,-24.161446 -4.12056,-58.436985 -3.8084,-96.396051 0.93649,-113.877197 2.37244,-4.12056 -0.24973,-7.67922 -7.86652,-10.67599 -4.62002,-2.37245 -8.17868,-3.05921 -10.67599,-2.06028 -2.37244,0.87406 -2.4973,2.87191 -0.37459,5.99354 0,0 0.74584,0.97142 1.46468,1.99296 0.71884,1.02153 1.66734,2.56181 1.99822,3.35644 0.33089,0.79462 0.91924,2.63914 1.13211,3.942526 m -122.03088,36.596087 c 4.12056,3.496233 8.11625,4.682451 11.98708,3.558663 10.86328,-2.622173 23.34981,-5.181912 37.4596,-7.679219 l 0.1873,0.187298 c 2.24757,7.616787 -0.49946,19.853591 -8.24111,36.710414 -10.23896,-6.867595 -18.35521,-12.049507 -24.34875,-15.545737 -0.87405,-0.499461 -1.49838,-0.06243 -1.87298,1.311086 -0.12487,1.62325 0.43703,2.996769 1.68568,4.120557 6.36813,5.618941 13.04843,11.737343 20.04089,18.355207 -8.9903,13.8600541 -23.22495,24.9106378 -42.70395,33.151751 -1.87298,0.874057 -2.06028,1.62325 -0.56189,2.247577 7.24219,1.248653 16.98168,-1.685683 29.21849,-8.8030079 5.99354,-3.3713645 13.04843,-9.9267956 21.16468,-19.6662931 16.85682,16.8568227 25.59739,25.472532 26.22172,25.847128 1.12379,0.124865 2.12271,-0.374596 2.99677,-1.4983841 1.49839,-1.6232496 1.49839,-5.0570468 0,-10.30139168 C 365.67636,-6.7352857 357.87228,-14.53937 343.3879,-24.154002 c 1.62325,-3.371365 3.18406,-6.867595 4.68245,-10.48869 5.24435,-12.736266 8.80301,-20.165755 10.67599,-22.288466 1.62325,-1.997845 1.49838,-3.808393 -0.3746,-5.431643 -3.12163,-3.496229 -5.43164,-5.494075 -6.93003,-5.993536 6.493,-0.874058 12.6114,-1.748116 18.35521,-2.622173 1.24865,0.124865 2.4102,-1.183176 3.63208,-2.838397 -0.3381,-0.899397 -0.78139,-1.741925 -1.73942,-2.458784 -0.95804,-0.716859 -2.55997,-1.318263 -2.55997,-1.318263 -4.86975,-2.747038 -11.88166,-2.437294 -21.24656,0.809205 -12.73627,2.996769 -29.28093,6.118403 -49.63398,9.364902 -1.24865,0 -2.43487,0.187298 -3.55866,0.561894 -3.74596,0.499461 -4.56915,1.040411 -1.36429,3.947269 0,0 2.57622,1.933408 3.29446,2.390779 0.71823,0.457371 2.16554,1.026657 2.93164,1.293019"
                         id="path4167"
                         inkscape:connector-curvature="0"
                         sodipodi:nodetypes="cccccccccccccccccccccccccccccccccccccccccccccccccccccccccccccscscscsccsc" />
                    </g>
                  </g>
                </g>
              </g>
            </g>
          </g>
        </g>
      </g>
    </g>
  </g>
  <WCB
     pausedposy="0"
     pausedposx="0"
     lastknownposy="0"
     lastknownposx="0"
     lastpathnc="0"
     lastpath="0"
     node="0"
     layer="0" />
</svg>
