<?xml version="1.0" encoding="UTF-8" standalone="no"?>
<!-- Created with Inkscape (http://www.inkscape.org/) -->

<svg
   xmlns:dc="http://purl.org/dc/elements/1.1/"
   xmlns:cc="http://creativecommons.org/ns#"
   xmlns:rdf="http://www.w3.org/1999/02/22-rdf-syntax-ns#"
   xmlns:svg="http://www.w3.org/2000/svg"
   xmlns="http://www.w3.org/2000/svg"
   xmlns:sodipodi="http://sodipodi.sourceforge.net/DTD/sodipodi-0.dtd"
   xmlns:inkscape="http://www.inkscape.org/namespaces/inkscape"
   width="160mm"
   height="160mm"
   viewBox="0 0 160.00001 160.00001"
   id="svg4258"
   version="1.1"
   inkscape:version="0.91 r"
   sodipodi:docname="5.svg">
  <sodipodi:namedview
     inkscape:document-units="mm"
     pagecolor="#ffffff"
     bordercolor="#666666"
     borderopacity="1.0"
     inkscape:pageopacity="0.0"
     inkscape:pageshadow="2"
     inkscape:zoom="7.2407734"
     inkscape:cx="146.55867"
     inkscape:cy="408.00718"
     inkscape:current-layer="text4333"
     id="namedview4262"
     showgrid="false"
     inkscape:window-width="1297"
     inkscape:window-height="592"
     inkscape:window-x="65"
     inkscape:window-y="24"
     inkscape:window-maximized="1"
     units="mm"
     inkscape:snap-nodes="false" />
  <defs
     id="defs4260" />
  <metadata
     id="metadata4264">
    <rdf:RDF>
      <cc:Work
         rdf:about="">
        <dc:format>image/svg+xml</dc:format>
        <dc:type
           rdf:resource="http://purl.org/dc/dcmitype/StillImage" />
        <dc:title />
      </cc:Work>
    </rdf:RDF>
  </metadata>
  <g
     transform="translate(0,-49.999993)"
     id="layer1"
     inkscape:groupmode="layer"
     inkscape:label="Layer 1">
    <g
       transform="matrix(0.39181791,0.93530971,-0.9095463,0.38102517,226.38736,259.20817)"
       style="font-style:normal;font-variant:normal;font-weight:300;font-stretch:normal;font-size:53.77825546px;line-height:125%;font-family:'AR PL UMing TW';-inkscape-font-specification:'AR PL UMing TW, Light';text-align:start;letter-spacing:0px;word-spacing:0px;writing-mode:lr-tb;text-anchor:start;fill:#000000;fill-opacity:1;stroke:none;stroke-width:1px;stroke-linecap:butt;stroke-linejoin:miter;stroke-opacity:1"
       id="text3428">
      <g
         id="g3391"
         transform="matrix(0.38958785,-0.9546167,0.8965485,0.3738953,-71.862448,-226.06917)">
        <g
           id="g3414">
          <g
             id="g3437">
            <g
               id="g3460">
              <g
                 id="g3693"
                 transform="matrix(0.28222222,0,0,0.28222222,151.88211,161.24942)"
                 inkscape:label="Hershey Text" />
              <g
                 inkscape:label="Hershey Text"
                 transform="matrix(0.28222222,0,0,0.28222222,151.88211,161.24942)"
                 id="g3793" />
              <g
                 id="g3895"
                 transform="matrix(0.28222222,0,0,0.28222222,151.88211,161.24942)"
                 inkscape:label="Hershey Text" />
              <g
                 inkscape:label="Hershey Text"
                 transform="matrix(0.28222222,0,0,0.28222222,151.88211,161.24942)"
                 id="g3999" />
              <g
                 id="g4105"
                 transform="matrix(0.28222222,0,0,0.28222222,151.88211,161.24942)"
                 inkscape:label="Hershey Text" />
              <g
                 inkscape:label="Hershey Text"
                 transform="matrix(0.28222222,0,0,0.28222222,151.88211,161.24942)"
                 id="g4213" />
              <g
                 id="g4323"
                 transform="matrix(0.28222222,0,0,0.28222222,151.88211,161.24942)"
                 inkscape:label="Hershey Text" />
              <g
                 inkscape:label="Hershey Text"
                 transform="matrix(0.28222222,0,0,0.28222222,151.88211,161.24942)"
                 id="g4435" />
              <g
                 transform="matrix(1.2691195,-8.438795e-4,-0.06302835,5.7407885,160.82498,460.88296)"
                 style="font-style:normal;font-variant:normal;font-weight:normal;font-stretch:normal;font-size:31.82224083px;line-height:125%;font-family:Garuda;-inkscape-font-specification:'Garuda, Normal';text-align:start;letter-spacing:0px;word-spacing:0px;writing-mode:lr-tb;text-anchor:start;fill:#000000;fill-opacity:1;stroke:none;stroke-width:1px;stroke-linecap:butt;stroke-linejoin:miter;stroke-opacity:1"
                 id="text3398" />
              <flowRoot
                 xml:space="preserve"
                 id="flowRoot3368"
                 style="font-style:normal;font-variant:normal;font-weight:normal;font-stretch:normal;font-size:180px;line-height:125%;font-family:Garuda;-inkscape-font-specification:'Garuda, Normal';text-align:start;letter-spacing:0px;word-spacing:0px;writing-mode:lr-tb;text-anchor:start;fill:#000000;fill-opacity:1;stroke:none;stroke-width:1px;stroke-linecap:butt;stroke-linejoin:miter;stroke-opacity:1"
                 transform="matrix(0.27644235,-1.8381564e-4,-0.00315852,0.2876863,-393.38796,-199.38542)"><flowRegion
                   id="flowRegion3370"><rect
                     id="rect3372"
                     width="1640.625"
                     height="559.375"
                     x="-190.625"
                     y="175.49213" /></flowRegion><flowPara
                   id="flowPara3374" /></flowRoot>              <flowRoot
                 xml:space="preserve"
                 id="flowRoot3376"
                 style="font-style:normal;font-variant:normal;font-weight:normal;font-stretch:normal;font-size:180px;line-height:125%;font-family:Garuda;-inkscape-font-specification:'Garuda, Normal';text-align:start;letter-spacing:0px;word-spacing:0px;writing-mode:lr-tb;text-anchor:start;fill:#000000;fill-opacity:1;stroke:none;stroke-width:1px;stroke-linecap:butt;stroke-linejoin:miter;stroke-opacity:1"
                 transform="matrix(0.27644235,-1.8381564e-4,-0.00315852,0.2876863,-393.38796,-199.38542)"><flowRegion
                   id="flowRegion3378"><rect
                     id="rect3380"
                     width="315.625"
                     height="518.75"
                     x="-284.375"
                     y="37.992126" /></flowRegion><flowPara
                   id="flowPara3382" /></flowRoot>              <text
                 xml:space="preserve"
                 style="font-style:normal;font-variant:normal;font-weight:normal;font-stretch:normal;font-size:25.38065338px;line-height:125%;font-family:Garuda;-inkscape-font-specification:'Garuda, Normal';text-align:start;letter-spacing:0px;word-spacing:0px;writing-mode:lr-tb;text-anchor:start;fill:#000000;fill-opacity:1;stroke:none;stroke-width:1px;stroke-linecap:butt;stroke-linejoin:miter;stroke-opacity:1"
                 x="-313.18579"
                 y="8.7216463"
                 id="text3430"
                 sodipodi:linespacing="125%"
                 transform="matrix(0.98026678,-6.5181172e-4,-0.01120014,1.0201379,0,0)"><tspan
                   sodipodi:role="line"
                   id="tspan3432"
                   x="-313.18579"
                   y="8.7216463" /></text>
              <g
                 id="g3358"
                 transform="translate(4.3840439,-0.2981754)">
                <g
                   id="g4251"
                   transform="matrix(1.0174326,-1.2812543e-4,0.00211554,0.82474197,13.682841,11.790708)">
                  <g
                     transform="matrix(0.89262413,-5.9353525e-4,-0.01229983,1.1203005,0,0)"
                     style="font-style:normal;font-variant:normal;font-weight:normal;font-stretch:normal;font-size:182.49479675px;line-height:125%;font-family:'AR PL UKai CN';-inkscape-font-specification:'AR PL UKai CN';text-align:start;letter-spacing:0px;word-spacing:0px;writing-mode:lr-tb;text-anchor:start;fill:#000000;fill-opacity:1;stroke:none;stroke-width:1px;stroke-linecap:butt;stroke-linejoin:miter;stroke-opacity:1"
                     id="text4333">
                    <g
                       transform="matrix(-1.0226298,-0.03429496,0.03130812,-0.97682106,0,0)"
                       style="font-style:normal;font-variant:normal;font-weight:normal;font-stretch:normal;font-size:197.47241211px;line-height:125%;font-family:'AR PL UKai CN';-inkscape-font-specification:'AR PL UKai CN';text-align:start;letter-spacing:0px;word-spacing:0px;writing-mode:lr-tb;text-anchor:start;fill:#00ea00;fill-opacity:1;stroke:#0000f5;stroke-width:1px;stroke-linecap:butt;stroke-linejoin:miter;stroke-opacity:1"
                       id="text3362">
                      <path
                         d="m 292.18753,-60.533458 c 2.44269,36.254701 1.08517,64.6111605 -4.05734,85.566892 -1.92845,8.099454 -0.25713,15.36325 5.01394,21.791389 1.67132,2.057004 3.27836,2.121285 4.82111,0.192844 2.69981,-3.985446 3.7926,-13.949061 3.27835,-29.890844 0.12856,-57.981808 0.3214,-88.836872 0.57853,-92.565193 0.12856,-1.928441 0.19284,-3.406913 0.19284,-4.435415 5.39964,-0.899939 10.86356,-2.635537 16.39176,-5.206792 2.057,-1.285628 3.72832,-1.285628 5.01395,0 0.77137,0.771377 0.57853,2.249848 -0.57854,4.435415 -2.057,4.756823 -3.92116,9.642208 -5.59248,14.656156 -1.67131,3.085506 -1.60703,5.849605 0.19285,8.292298 6.29957,10.027896 8.6137,16.070346 6.94239,18.127351 -0.51425,1.285627 -2.31413,1.86416 -5.39964,1.735597 -3.59976,-0.128563 -7.2638,-0.06428 -10.99212,0.192844 -3.21407,0.128563 -2.95694,0.964221 0.77138,2.506974 6.68527,3.085507 13.04912,6.556701 19.09157,10.413584 1.67132,1.542753 3.27836,1.542753 4.82111,0 1.67131,-1.157065 2.95694,-3.149787 3.85688,-5.978168 1.54275,-6.556701 -1.34991,-14.591874 -8.67799,-24.105519 -4.24257,-5.399637 -5.46392,-9.385083 -3.66404,-11.956338 6.17101,-9.77077 10.92784,-15.81322 14.27047,-18.12735 2.44269,-1.671316 3.08551,-3.406913 1.92844,-5.206792 -1.67131,-2.31413 -5.01394,-4.692541 -10.02789,-7.135234 -2.69982,-1.157065 -5.01395,-0.899939 -6.94239,0.771377 -7.32808,5.528199 -15.81322,9.127956 -25.45543,10.799272 -5.01395,-3.214069 -8.74227,-4.371134 -11.18496,-3.471195 -1.15707,0.771377 -1.28563,2.057004 -0.38569,3.856883 3.47119,11.699212 5.33535,18.255913 5.59248,19.670104 0,1.285628 0.0643,2.892663 0.19284,4.821104 0,0 0.53287,8.933056 0.60189,10.238008 m 74.41449,-15.830489 c 6.29957,-19.284415 8.67798,-31.883566 7.13523,-37.797455 -0.89994,-2.57125 -0.7071,-3.92116 0.57853,-4.04973 3.08551,-0.64281 8.09946,2.12129 15.04185,8.292303 1.28563,1.285627 0.89994,2.892662 -1.15707,4.821104 -3.72832,3.342632 -7.97089,12.342026 -12.72771,26.998181 0.12856,-0.128564 0.38569,-0.192844 0.77138,-0.192844 9.12795,-2.31413 17.80594,-4.885385 26.03396,-7.713766 3.98545,-1.542753 7.97089,-1.86416 11.95633,-0.964221 3.85689,1.028502 6.2353,2.31413 7.13524,3.856883 0.64281,1.285628 0.32141,2.378412 -0.96422,3.278351 -1.02851,1.028502 -5.2068,2.378411 -12.53487,4.049727 -12.21347,2.185567 -24.10552,4.499696 -35.67617,6.942389 -4.88539,13.113403 -8.87083,23.591268 -11.95634,31.433597 -0.89994,2.185567 -1.28563,3.535476 -1.15706,4.049727 0.12856,0.642814 1.54275,0.771377 4.24257,0.385689 6.42814,-1.028503 12.40631,-1.928442 17.9345,-2.699818 -0.25712,-6.685264 -1.60703,-12.149182 -4.04972,-16.391753 -1.41419,-1.928442 -1.7356,-3.342633 -0.96422,-4.242572 1.0285,-1.028502 2.7641,-1.092783 5.20679,-0.192844 3.85688,1.157065 7.39236,3.149788 10.60643,5.978169 2.18557,1.671316 2.69982,3.72832 1.54275,6.171013 -0.77138,1.928441 -1.34991,4.114008 -1.7356,6.556701 13.49909,-2.828381 21.59855,-3.471195 24.29837,-1.928442 3.72832,2.442693 5.5282,4.499697 5.39963,6.171013 -0.38569,1.542753 -3.14979,2.378411 -8.2923,2.506974 -6.04245,0.514251 -13.37052,1.221347 -21.98423,2.121286 0.38569,24.9411767 0.77137,40.690116 1.15706,47.246817 0,11.313524 -2.12128,18.898727 -6.36385,22.75561 -1.92844,1.799879 -3.85688,1.671316 -5.78533,-0.385688 -3.72832,-5.013948 -10.60643,-11.570649 -20.63432,-19.670104 -1.41419,-0.899939 -2.18557,-1.799879 -2.31413,-2.699818 -0.12857,-1.0285 0.57853,-1.349909 2.12128,-0.96422 4.75683,1.028502 9.64221,2.121285 14.65616,3.27835 1.79988,0.642814 3.27835,0.514251 4.43542,-0.385688 2.44269,-2.057005 3.40691,-17.998788 2.89266,-47.82535 -12.21347,1.414191 -22.8199,3.856883 -31.81929,7.328078 -2.18557,0.8999392 -3.66404,0.3856882 -4.43541,-1.542753 -2.05701,-6.171013 -1.7356,-10.413585 0.96422,-12.727715 5.5282,-5.013947 11.37781,-15.877501 17.54882,-32.590661 -1.15707,0.257125 -2.12129,0.449969 -2.89267,0.578532 -7.32807,1.542753 -13.88477,0.771377 -19.6701,-2.31413 -3.34263,-2.314129 -2.63554,-3.856882 2.12129,-4.628259 7.84233,-0.771377 15.5066,-1.423453 23.22037,-2.580518 0,0 3.41983,-10.732394 4.30426,-14.125266 M 351.18143,0.69864709 C 347.19598,6.86966 342.9622,11.984313 337.69113,17.126823 c -3.08551,3.471195 -4.04973,7.649485 -2.89266,12.53487 0.51425,2.442693 2.24985,3.149788 5.20679,2.121286 7.07095,-3.471195 11.89206,-10.027896 14.46331,-19.670104 1.28563,-3.9854455 1.86417,-7.6494843 1.7356,-10.9921162 -0.51425,-1.2856277 -1.09278,-2.05700433 -1.7356,-2.3141299 -1.15706,0 -2.12128,0.4499697 -2.89266,1.34990911 0,0 -3.55755,5.17529839 -5.51585,7.67203409 m 59.57583,-5.8726378 c 6.29958,6.9423897 12.98551,15.2994517 20.18502,25.1987847 1.67131,2.828381 3.53547,4.692542 5.59248,5.592481 1.15707,0.128563 2.24985,-0.321407 3.27835,-1.349909 1.67132,-1.671316 2.05701,-5.399636 1.15707,-11.184961 -0.77138,-6.299576 -10.54215,-14.4633118 -29.31231,-24.4912075 -1.15707,-0.7713766 -1.92844,-0.3214069 -2.31413,1.3499091 -0.12857,1.671316 0.3214,3.27835057 1.3499,4.8211038 0,0 3.45941,3.8926308 4.95185,5.6451189"
                         id="path4167"
                         inkscape:connector-curvature="0"
                         sodipodi:nodetypes="ccccccccccccccccccccccccccccccccccccccccccccccccccccccccccscccccccccccccccccccccccccccccccccc" />
                    </g>
                  </g>
                </g>
              </g>
            </g>
          </g>
        </g>
      </g>
    </g>
  </g>
  <WCB
     pausedposy="0"
     pausedposx="0"
     lastknownposy="0"
     lastknownposx="0"
     lastpathnc="0"
     lastpath="0"
     node="0"
     layer="0" />
</svg>
