<?xml version="1.0" encoding="UTF-8" standalone="no"?>
<!-- Created with Inkscape (http://www.inkscape.org/) -->

<svg
   xmlns:dc="http://purl.org/dc/elements/1.1/"
   xmlns:cc="http://creativecommons.org/ns#"
   xmlns:rdf="http://www.w3.org/1999/02/22-rdf-syntax-ns#"
   xmlns:svg="http://www.w3.org/2000/svg"
   xmlns="http://www.w3.org/2000/svg"
   xmlns:sodipodi="http://sodipodi.sourceforge.net/DTD/sodipodi-0.dtd"
   xmlns:inkscape="http://www.inkscape.org/namespaces/inkscape"
   width="160mm"
   height="160mm"
   viewBox="0 0 160.00001 160.00001"
   id="svg4258"
   version="1.1"
   inkscape:version="0.91 r"
   sodipodi:docname="6.svg">
  <sodipodi:namedview
     inkscape:document-units="mm"
     pagecolor="#ffffff"
     bordercolor="#666666"
     borderopacity="1.0"
     inkscape:pageopacity="0.0"
     inkscape:pageshadow="2"
     inkscape:zoom="10.24"
     inkscape:cx="267.25946"
     inkscape:cy="107.39707"
     inkscape:current-layer="text4333"
     id="namedview4262"
     showgrid="false"
     inkscape:window-width="1297"
     inkscape:window-height="592"
     inkscape:window-x="65"
     inkscape:window-y="24"
     inkscape:window-maximized="1"
     units="mm"
     inkscape:snap-nodes="false" />
  <defs
     id="defs4260" />
  <metadata
     id="metadata4264">
    <rdf:RDF>
      <cc:Work
         rdf:about="">
        <dc:format>image/svg+xml</dc:format>
        <dc:type
           rdf:resource="http://purl.org/dc/dcmitype/StillImage" />
        <dc:title />
      </cc:Work>
    </rdf:RDF>
  </metadata>
  <g
     transform="translate(0,-49.999993)"
     id="layer1"
     inkscape:groupmode="layer"
     inkscape:label="Layer 1">
    <g
       transform="matrix(0.39181791,0.93530971,-0.9095463,0.38102517,226.38736,259.20817)"
       style="font-style:normal;font-variant:normal;font-weight:300;font-stretch:normal;font-size:53.77825546px;line-height:125%;font-family:'AR PL UMing TW';-inkscape-font-specification:'AR PL UMing TW, Light';text-align:start;letter-spacing:0px;word-spacing:0px;writing-mode:lr-tb;text-anchor:start;fill:#000000;fill-opacity:1;stroke:none;stroke-width:1px;stroke-linecap:butt;stroke-linejoin:miter;stroke-opacity:1"
       id="text3428">
      <g
         id="g3391"
         transform="matrix(0.38958785,-0.9546167,0.8965485,0.3738953,-71.862448,-226.06917)">
        <g
           id="g3414">
          <g
             id="g3437">
            <g
               id="g3460">
              <g
                 id="g3693"
                 transform="matrix(0.28222222,0,0,0.28222222,151.88211,161.24942)"
                 inkscape:label="Hershey Text" />
              <g
                 inkscape:label="Hershey Text"
                 transform="matrix(0.28222222,0,0,0.28222222,151.88211,161.24942)"
                 id="g3793" />
              <g
                 id="g3895"
                 transform="matrix(0.28222222,0,0,0.28222222,151.88211,161.24942)"
                 inkscape:label="Hershey Text" />
              <g
                 inkscape:label="Hershey Text"
                 transform="matrix(0.28222222,0,0,0.28222222,151.88211,161.24942)"
                 id="g3999" />
              <g
                 id="g4105"
                 transform="matrix(0.28222222,0,0,0.28222222,151.88211,161.24942)"
                 inkscape:label="Hershey Text" />
              <g
                 inkscape:label="Hershey Text"
                 transform="matrix(0.28222222,0,0,0.28222222,151.88211,161.24942)"
                 id="g4213" />
              <g
                 id="g4323"
                 transform="matrix(0.28222222,0,0,0.28222222,151.88211,161.24942)"
                 inkscape:label="Hershey Text" />
              <g
                 inkscape:label="Hershey Text"
                 transform="matrix(0.28222222,0,0,0.28222222,151.88211,161.24942)"
                 id="g4435" />
              <g
                 transform="matrix(1.2691195,-8.438795e-4,-0.06302835,5.7407885,160.82498,460.88296)"
                 style="font-style:normal;font-variant:normal;font-weight:normal;font-stretch:normal;font-size:31.82224083px;line-height:125%;font-family:Garuda;-inkscape-font-specification:'Garuda, Normal';text-align:start;letter-spacing:0px;word-spacing:0px;writing-mode:lr-tb;text-anchor:start;fill:#000000;fill-opacity:1;stroke:none;stroke-width:1px;stroke-linecap:butt;stroke-linejoin:miter;stroke-opacity:1"
                 id="text3398" />
              <flowRoot
                 xml:space="preserve"
                 id="flowRoot3368"
                 style="font-style:normal;font-variant:normal;font-weight:normal;font-stretch:normal;font-size:180px;line-height:125%;font-family:Garuda;-inkscape-font-specification:'Garuda, Normal';text-align:start;letter-spacing:0px;word-spacing:0px;writing-mode:lr-tb;text-anchor:start;fill:#000000;fill-opacity:1;stroke:none;stroke-width:1px;stroke-linecap:butt;stroke-linejoin:miter;stroke-opacity:1"
                 transform="matrix(0.27644235,-1.8381564e-4,-0.00315852,0.2876863,-393.38796,-199.38542)"><flowRegion
                   id="flowRegion3370"><rect
                     id="rect3372"
                     width="1640.625"
                     height="559.375"
                     x="-190.625"
                     y="175.49213" /></flowRegion><flowPara
                   id="flowPara3374" /></flowRoot>              <flowRoot
                 xml:space="preserve"
                 id="flowRoot3376"
                 style="font-style:normal;font-variant:normal;font-weight:normal;font-stretch:normal;font-size:180px;line-height:125%;font-family:Garuda;-inkscape-font-specification:'Garuda, Normal';text-align:start;letter-spacing:0px;word-spacing:0px;writing-mode:lr-tb;text-anchor:start;fill:#000000;fill-opacity:1;stroke:none;stroke-width:1px;stroke-linecap:butt;stroke-linejoin:miter;stroke-opacity:1"
                 transform="matrix(0.27644235,-1.8381564e-4,-0.00315852,0.2876863,-393.38796,-199.38542)"><flowRegion
                   id="flowRegion3378"><rect
                     id="rect3380"
                     width="315.625"
                     height="518.75"
                     x="-284.375"
                     y="37.992126" /></flowRegion><flowPara
                   id="flowPara3382" /></flowRoot>              <text
                 xml:space="preserve"
                 style="font-style:normal;font-variant:normal;font-weight:normal;font-stretch:normal;font-size:25.38065338px;line-height:125%;font-family:Garuda;-inkscape-font-specification:'Garuda, Normal';text-align:start;letter-spacing:0px;word-spacing:0px;writing-mode:lr-tb;text-anchor:start;fill:#000000;fill-opacity:1;stroke:none;stroke-width:1px;stroke-linecap:butt;stroke-linejoin:miter;stroke-opacity:1"
                 x="-313.18579"
                 y="8.7216463"
                 id="text3430"
                 sodipodi:linespacing="125%"
                 transform="matrix(0.98026678,-6.5181172e-4,-0.01120014,1.0201379,0,0)"><tspan
                   sodipodi:role="line"
                   id="tspan3432"
                   x="-313.18579"
                   y="8.7216463" /></text>
              <g
                 id="g3358"
                 transform="translate(4.3840439,-0.2981754)">
                <g
                   id="g4251"
                   transform="matrix(1.0174326,-1.2812543e-4,0.00211554,0.82474197,13.682841,11.790708)">
                  <g
                     transform="matrix(0.89262413,-5.9353525e-4,-0.01229983,1.1203005,0,0)"
                     style="font-style:normal;font-variant:normal;font-weight:normal;font-stretch:normal;font-size:182.49479675px;line-height:125%;font-family:'AR PL UKai CN';-inkscape-font-specification:'AR PL UKai CN';text-align:start;letter-spacing:0px;word-spacing:0px;writing-mode:lr-tb;text-anchor:start;fill:#000000;fill-opacity:1;stroke:none;stroke-width:1px;stroke-linecap:butt;stroke-linejoin:miter;stroke-opacity:1"
                     id="text4333">
                    <g
                       transform="matrix(-0.97412439,-0.00382158,0.00384891,-1.0265478,0,0)"
                       style="font-style:normal;font-variant:normal;font-weight:normal;font-stretch:normal;font-size:187.26081848px;line-height:125%;font-family:'AR PL UKai CN';-inkscape-font-specification:'AR PL UKai CN';text-align:start;letter-spacing:0px;word-spacing:0px;writing-mode:lr-tb;text-anchor:start;fill:#00f700;fill-opacity:1;stroke:#0000f7;stroke-width:1px;stroke-linecap:butt;stroke-linejoin:miter;stroke-opacity:1"
                       id="text3362">
                      <path
                         d="m 307.50654,-37.429953 c 12.19146,-1.828719 24.01718,-4.754669 35.47715,-8.777851 l 0,-25.053449 c 0.12191,-6.09573 -1.82872,-12.130502 -5.8519,-18.104317 -0.60957,-1.828719 -0.67053,-3.108823 -0.18287,-3.84031 2.56021,-1.828719 5.30328,-1.645847 8.22923,0.548616 6.70531,4.267011 10.48466,7.010089 11.33806,8.229235 0.36575,1.584889 -0.0609,3.352651 -1.2801,5.303285 -2.31638,7.802534 -3.65744,17.738573 -4.02318,29.808118 2.19446,-0.731487 4.57179,-0.853402 7.132,-0.365744 3.53552,0.731488 5.8519,1.828719 6.94913,3.291694 0.60957,0.975317 0.36574,2.011592 -0.73149,3.108823 -0.36574,0.243829 -4.93754,1.828718 -13.71539,4.754669 -0.24383,5.486157 -0.4267,10.789442 -0.54861,15.909855 0.97531,0 5.12041,1.706804 12.43528,5.120413 3.41361,2.194463 5.30329,4.449883 5.66903,6.76626 0.48766,2.92595 0.48766,5.1204126 0,6.5833877 -0.60957,1.3410606 -1.46297,1.9506336 -2.5602,1.828719 -1.58489,0 -2.98691,-0.7314876 -4.20606,-2.1944627 -5.8519,-6.949132 -9.69221,-10.972314 -11.52093,-12.069545 -1.09723,37.427781 -1.64584,58.701878 -1.64584,63.822291 0,3.779352 -0.60957,7.192961 -1.82872,10.240826 -1.34106,2.560206 -2.43829,4.084138 -3.2917,4.571797 -0.97531,1.097231 -1.82871,1.219146 -2.5602,0.365744 -0.97532,-0.487659 -1.82872,-1.828719 -2.56021,-4.023182 -3.16978,-7.192961 -3.96222,-13.410606 -2.37733,-18.652933 1.58489,-5.364242 2.80403,-10.789441 3.65743,-16.275598 0.12192,-0.487659 0.91437,-14.629752 2.37734,-42.42628 -9.87508,20.6035667 -23.04186,38.098311 -39.50033,52.484234 -1.21915,1.097231 -2.19446,1.58489 -2.92595,1.462975 -1.46297,-0.121915 -1.82872,-0.792445 -1.09723,-2.011591 20.96931,-27.7965277 34.62374,-50.655514 40.9633,-68.57696 -4.75467,0.975317 -9.14359,2.011591 -13.16677,3.108822 -8.89977,2.194463 -15.72699,2.011591 -20.48166,-0.548615 -3.29169,-1.828719 -2.92612,-3.261166 1.58472,-4.358398 0,0 5.67288,-0.885124 7.86831,-1.307979 2.19542,-0.422854 6.3114,-1.326781 7.56146,-1.598015 m 48.08791,-29.309987 c 7.80253,-0.121915 18.10432,-2.377335 30.90535,-6.76626 3.65743,-1.828719 6.64434,-2.194462 8.96072,-1.097231 3.53553,1.219146 6.64435,2.986908 9.32647,5.303285 0.73149,0.487658 1.09723,1.280103 1.09723,2.377334 0.12191,0.731488 -0.60957,1.523933 -2.19446,2.377335 -2.43829,1.097231 -6.09573,5.364242 -10.97232,12.801032 -9.63125,15.361239 -14.26401,24.13909 -13.89826,26.333553 0.73149,1.706804 1.88967,2.01159 3.47456,0.914359 8.53403,-1.097231 19.75017,-3.169779 33.64843,-6.217644 0.36575,-0.121912 0.79245,-0.182872 1.28011,-0.182872 8.89976,-2.316377 14.6907,-2.682121 17.37283,-1.097231 3.65743,2.194463 6.40051,4.206053 8.22923,6.034772 1.58489,2.072548 1.58489,3.718395 0,4.937541 -1.58489,1.58489 -2.74308,3.901267 -3.47457,6.949132 -4.87658,27.186955 -9.6922,45.717973 -14.44687,55.593056 -4.51084,9.265509 -10.24083,16.7023 -17.18996,22.310371 -2.43829,1.950633 -4.08414,2.743078 -4.93754,2.377334 -1.21915,-0.487658 -2.43829,-1.706804 -3.65744,-3.657438 -2.19447,-4.876583 -5.36425,-9.387423 -9.50934,-13.53252 -2.07255,-1.950633 -3.10882,-3.169779 -3.10882,-3.657438 0.12191,-0.365743 1.15819,-0.304786 3.10882,0.182872 4.63275,1.097231 8.59498,2.072548 11.88667,2.925951 1.95063,0.365743 3.90127,-0.731488 5.8519,-3.291694 3.41361,-3.901267 7.19297,-10.423698 11.33806,-19.567293 8.04637,-21.3350542 10.97232,-37.67161 8.77785,-49.009667 -0.24383,-1.341061 -1.64584,-2.011591 -4.20605,-2.011591 -4.26701,0.121915 -10.66753,0.975317 -19.20155,2.560206 1.82872,0.243829 3.53552,0.975317 5.12041,2.194463 1.70681,1.219146 2.62117,2.377335 2.74308,3.474566 0.36575,1.097231 0.18287,2.011591 -0.54862,2.743078 -0.73149,0.731488 -1.52393,2.011591 -2.37733,3.84031 -7.31487,14.6297516 -15.36124,28.223229 -24.13909,40.780432 -12.43529,13.654435 -21.39601,21.030268 -26.88217,22.127499 -1.21915,-0.121914 -1.40202,-0.548615 -0.54861,-1.280103 0.36574,-0.609573 8.4121,-10.240826 24.13909,-28.893759 12.43529,-19.1405914 17.5557,-33.465556 15.36124,-42.974895 -0.12188,-0.243829 -0.18288,-0.426701 -0.18288,-0.548615 -7.80253,1.462975 -13.95922,2.92595 -18.47006,4.388925 2.07255,1.341061 3.84031,3.291694 5.30329,5.851901 0.8534,1.462975 0.91436,2.743078 0.18287,3.840309 -2.56021,3.0478651 -3.84031,5.1204133 -3.84031,6.2176446 -11.09423,16.4584704 -19.99399,25.2972784 -26.6993,26.5164244 -0.60957,0 -0.91436,-0.243829 -0.91436,-0.731487 0,-0.731488 0.36574,-1.341061 1.09723,-1.828719 4.1451,-4.754669 7.74158,-9.509339 10.78945,-14.264008 7.31487,-11.7038013 10.24082,-19.384421 8.77785,-23.041859 -0.12191,-0.243829 -0.24383,-0.4267 -0.36575,-0.548615 -3.04786,0.853402 -4.75466,0.853402 -5.12041,0 l -0.18287,-0.365744 c -1.58489,-3.657438 -0.18288,-7.863492 4.20605,-12.618161 12.55721,-18.896762 18.83581,-31.088221 18.83581,-36.574378 -0.24383,-1.828719 -7.49775,-0.548616 -21.76176,3.84031 -6.09573,1.584889 -9.93604,1.828718 -11.52093,0.731487 -1.82872,-1.097231 -3.16978,-2.25542 -4.02318,-3.474566 -0.73149,-1.097231 -0.91436,-1.889676 -0.54861,-2.377334 0.24383,-0.731488 1.09713,-1.005974 2.92585,-0.884059 0,0 3.33591,-0.146121 4.89146,-0.329633 1.55555,-0.183511 4.36127,-0.608638 5.52001,-0.820292"
                         style="fill:#00f700;fill-opacity:1;stroke:#0000f7;stroke-opacity:1"
                         id="path3367"
                         inkscape:connector-curvature="0"
                         sodipodi:nodetypes="cccccccccccccccccccccccccccccccccccccccccccccccscccccccccccccccccccccccsccccccccccccscccccccsc" />
                    </g>
                  </g>
                </g>
              </g>
            </g>
          </g>
        </g>
      </g>
    </g>
  </g>
  <WCB
     pausedposy="0"
     pausedposx="0"
     lastknownposy="0"
     lastknownposx="0"
     lastpathnc="0"
     lastpath="0"
     node="0"
     layer="0" />
</svg>
