<?xml version="1.0" encoding="UTF-8" standalone="no"?>
<!-- Created with Inkscape (http://www.inkscape.org/) -->

<svg
   xmlns:dc="http://purl.org/dc/elements/1.1/"
   xmlns:cc="http://creativecommons.org/ns#"
   xmlns:rdf="http://www.w3.org/1999/02/22-rdf-syntax-ns#"
   xmlns:svg="http://www.w3.org/2000/svg"
   xmlns="http://www.w3.org/2000/svg"
   xmlns:sodipodi="http://sodipodi.sourceforge.net/DTD/sodipodi-0.dtd"
   xmlns:inkscape="http://www.inkscape.org/namespaces/inkscape"
   width="160mm"
   height="160mm"
   viewBox="0 0 160.00001 160.00001"
   id="svg4258"
   version="1.1"
   inkscape:version="0.91 r"
   sodipodi:docname="7.svg">
  <sodipodi:namedview
     inkscape:document-units="mm"
     pagecolor="#ffffff"
     bordercolor="#666666"
     borderopacity="1.0"
     inkscape:pageopacity="0.0"
     inkscape:pageshadow="2"
     inkscape:zoom="14.481547"
     inkscape:cx="159.02449"
     inkscape:cy="169.04089"
     inkscape:current-layer="text4333"
     id="namedview4262"
     showgrid="false"
     inkscape:window-width="1297"
     inkscape:window-height="592"
     inkscape:window-x="65"
     inkscape:window-y="24"
     inkscape:window-maximized="1"
     units="mm"
     inkscape:snap-nodes="false" />
  <defs
     id="defs4260" />
  <metadata
     id="metadata4264">
    <rdf:RDF>
      <cc:Work
         rdf:about="">
        <dc:format>image/svg+xml</dc:format>
        <dc:type
           rdf:resource="http://purl.org/dc/dcmitype/StillImage" />
        <dc:title />
      </cc:Work>
    </rdf:RDF>
  </metadata>
  <g
     transform="translate(0,-49.999993)"
     id="layer1"
     inkscape:groupmode="layer"
     inkscape:label="Layer 1">
    <g
       transform="matrix(0.39181791,0.93530971,-0.9095463,0.38102517,226.38736,259.20817)"
       style="font-style:normal;font-variant:normal;font-weight:300;font-stretch:normal;font-size:53.77825546px;line-height:125%;font-family:'AR PL UMing TW';-inkscape-font-specification:'AR PL UMing TW, Light';text-align:start;letter-spacing:0px;word-spacing:0px;writing-mode:lr-tb;text-anchor:start;fill:#000000;fill-opacity:1;stroke:none;stroke-width:1px;stroke-linecap:butt;stroke-linejoin:miter;stroke-opacity:1"
       id="text3428">
      <g
         id="g3391"
         transform="matrix(0.38958785,-0.9546167,0.8965485,0.3738953,-71.862448,-226.06917)">
        <g
           id="g3414">
          <g
             id="g3437">
            <g
               id="g3460">
              <g
                 id="g3693"
                 transform="matrix(0.28222222,0,0,0.28222222,151.88211,161.24942)"
                 inkscape:label="Hershey Text" />
              <g
                 inkscape:label="Hershey Text"
                 transform="matrix(0.28222222,0,0,0.28222222,151.88211,161.24942)"
                 id="g3793" />
              <g
                 id="g3895"
                 transform="matrix(0.28222222,0,0,0.28222222,151.88211,161.24942)"
                 inkscape:label="Hershey Text" />
              <g
                 inkscape:label="Hershey Text"
                 transform="matrix(0.28222222,0,0,0.28222222,151.88211,161.24942)"
                 id="g3999" />
              <g
                 id="g4105"
                 transform="matrix(0.28222222,0,0,0.28222222,151.88211,161.24942)"
                 inkscape:label="Hershey Text" />
              <g
                 inkscape:label="Hershey Text"
                 transform="matrix(0.28222222,0,0,0.28222222,151.88211,161.24942)"
                 id="g4213" />
              <g
                 id="g4323"
                 transform="matrix(0.28222222,0,0,0.28222222,151.88211,161.24942)"
                 inkscape:label="Hershey Text" />
              <g
                 inkscape:label="Hershey Text"
                 transform="matrix(0.28222222,0,0,0.28222222,151.88211,161.24942)"
                 id="g4435" />
              <g
                 transform="matrix(1.2691195,-8.438795e-4,-0.06302835,5.7407885,160.82498,460.88296)"
                 style="font-style:normal;font-variant:normal;font-weight:normal;font-stretch:normal;font-size:31.82224083px;line-height:125%;font-family:Garuda;-inkscape-font-specification:'Garuda, Normal';text-align:start;letter-spacing:0px;word-spacing:0px;writing-mode:lr-tb;text-anchor:start;fill:#000000;fill-opacity:1;stroke:none;stroke-width:1px;stroke-linecap:butt;stroke-linejoin:miter;stroke-opacity:1"
                 id="text3398" />
              <flowRoot
                 xml:space="preserve"
                 id="flowRoot3368"
                 style="font-style:normal;font-variant:normal;font-weight:normal;font-stretch:normal;font-size:180px;line-height:125%;font-family:Garuda;-inkscape-font-specification:'Garuda, Normal';text-align:start;letter-spacing:0px;word-spacing:0px;writing-mode:lr-tb;text-anchor:start;fill:#000000;fill-opacity:1;stroke:none;stroke-width:1px;stroke-linecap:butt;stroke-linejoin:miter;stroke-opacity:1"
                 transform="matrix(0.27644235,-1.8381564e-4,-0.00315852,0.2876863,-393.38796,-199.38542)"><flowRegion
                   id="flowRegion3370"><rect
                     id="rect3372"
                     width="1640.625"
                     height="559.375"
                     x="-190.625"
                     y="175.49213" /></flowRegion><flowPara
                   id="flowPara3374" /></flowRoot>              <flowRoot
                 xml:space="preserve"
                 id="flowRoot3376"
                 style="font-style:normal;font-variant:normal;font-weight:normal;font-stretch:normal;font-size:180px;line-height:125%;font-family:Garuda;-inkscape-font-specification:'Garuda, Normal';text-align:start;letter-spacing:0px;word-spacing:0px;writing-mode:lr-tb;text-anchor:start;fill:#000000;fill-opacity:1;stroke:none;stroke-width:1px;stroke-linecap:butt;stroke-linejoin:miter;stroke-opacity:1"
                 transform="matrix(0.27644235,-1.8381564e-4,-0.00315852,0.2876863,-393.38796,-199.38542)"><flowRegion
                   id="flowRegion3378"><rect
                     id="rect3380"
                     width="315.625"
                     height="518.75"
                     x="-284.375"
                     y="37.992126" /></flowRegion><flowPara
                   id="flowPara3382" /></flowRoot>              <text
                 xml:space="preserve"
                 style="font-style:normal;font-variant:normal;font-weight:normal;font-stretch:normal;font-size:25.38065338px;line-height:125%;font-family:Garuda;-inkscape-font-specification:'Garuda, Normal';text-align:start;letter-spacing:0px;word-spacing:0px;writing-mode:lr-tb;text-anchor:start;fill:#000000;fill-opacity:1;stroke:none;stroke-width:1px;stroke-linecap:butt;stroke-linejoin:miter;stroke-opacity:1"
                 x="-313.18579"
                 y="8.7216463"
                 id="text3430"
                 sodipodi:linespacing="125%"
                 transform="matrix(0.98026678,-6.5181172e-4,-0.01120014,1.0201379,0,0)"><tspan
                   sodipodi:role="line"
                   id="tspan3432"
                   x="-313.18579"
                   y="8.7216463" /></text>
              <g
                 id="g3358"
                 transform="translate(4.3840439,-0.2981754)">
                <g
                   id="g4251"
                   transform="matrix(1.0174326,-1.2812543e-4,0.00211554,0.82474197,13.682841,11.790708)">
                  <g
                     transform="matrix(0.89262413,-5.9353525e-4,-0.01229983,1.1203005,0,0)"
                     style="font-style:normal;font-variant:normal;font-weight:normal;font-stretch:normal;font-size:182.49479675px;line-height:125%;font-family:'AR PL UKai CN';-inkscape-font-specification:'AR PL UKai CN';text-align:start;letter-spacing:0px;word-spacing:0px;writing-mode:lr-tb;text-anchor:start;fill:#000000;fill-opacity:1;stroke:none;stroke-width:1px;stroke-linecap:butt;stroke-linejoin:miter;stroke-opacity:1"
                     id="text4333">
                    <g
                       transform="matrix(-0.98913276,-0.04755105,0.04634714,-1.0087586,0,0)"
                       style="font-style:normal;font-variant:normal;font-weight:normal;font-stretch:normal;font-size:184.60388184px;line-height:125%;font-family:'AR PL UKai CN';-inkscape-font-specification:'AR PL UKai CN';text-align:start;letter-spacing:0px;word-spacing:0px;writing-mode:lr-tb;text-anchor:start;fill:#00f400;fill-opacity:1;stroke:#0000f7;stroke-width:1px;stroke-linecap:butt;stroke-linejoin:miter;stroke-opacity:1"
                       id="text3362">
                      <path
                         d="m 322.08006,-68.941074 c 7.69183,-1.081663 14.78274,-2.523881 21.27272,-4.326653 0.72111,-0.360555 1.50231,-0.600924 2.3436,-0.721109 -0.24037,-8.172568 -0.60092,-16.044674 -1.08166,-23.616317 0,-2.403697 -1.26194,-5.288137 -3.78582,-8.653307 -0.96148,-1.92296 -1.02157,-3.30509 -0.18028,-4.14638 0.96148,-0.96148 2.4037,-1.26193 4.32665,-0.90138 3.12481,0.48074 6.73035,1.86286 10.81664,4.14637 2.52388,1.68259 3.54545,3.24499 3.06471,4.68721 -1.92296,6.610166 -3.06472,14.963011 -3.42527,25.058536 1.5624,-0.721109 3.1248,-1.322033 4.68721,-1.802772 3.36517,-1.442218 6.85053,-1.922957 10.45608,-1.442218 3.48536,0.721109 5.64869,1.682588 6.48998,2.884436 0.60092,1.081663 0.36055,2.043142 -0.72111,2.884436 -0.24037,0.240369 -7.39137,2.403696 -21.45299,6.48998 -0.48074,6.369795 -0.90139,12.859775 -1.26194,19.46994 4.44684,-1.442217 9.55469,-2.944527 15.32356,-4.50693 2.64407,-0.721109 5.64869,-0.48074 9.01386,0.721109 2.16333,0.961478 3.1849,2.223418 3.06472,3.785821 0,0.841294 -0.96148,1.442218 -2.88444,1.802773 -10.69645,2.043142 -20.25114,4.206469 -28.66408,6.48998 1.68259,1.081663 3.42527,2.523881 5.22804,4.326653 l 0.18028,0.180278 c -0.12019,0.240369 -0.36056,5.228039 -0.72111,14.96301 5.28813,-3.725729 10.51617,-5.408317 15.68412,-5.047763 3.00462,0.120185 5.28813,0.961478 6.85053,2.523881 1.08167,1.442218 0.30047,2.583974 -2.3436,3.425268 -5.88905,1.322033 -12.6795,2.944528 -20.37133,4.867485 -0.12017,0 -0.18027,0.06009 -0.18027,0.180277 -0.36056,6.2496107 -0.78121,13.1602378 -1.26194,20.7318814 4.92757,2.8844357 9.79506,5.6486866 14.60245,8.2927526 20.91216,11.537743 39.36053,17.486891 55.34511,17.847446 6.61017,0.120185 15.38366,0.600924 26.32047,1.442217 2.16333,0 3.00463,0.721109 2.52389,2.163327 -2.04315,2.644066 -13.34052,6.309703 -33.89212,10.996911 -1.80277,0.360555 -3.42527,0.600924 -4.86749,0.721109 -5.28813,-0.480739 -18.08782,-6.73035 -38.39905,-18.748832 -23.19567,-14.301993 -38.7596,-25.419089 -46.6918,-33.3512871 -0.84129,1.6825875 -1.62249,3.3050825 -2.3436,4.86748521 C 320.33739,10.200629 313.18639,19.815415 303.69179,28.588907 c -3.00462,3.00462 -5.76887,4.7473 -8.29276,5.228039 -1.68259,0.721109 -2.10323,0.120185 -1.26194,-1.802772 4.20647,-6.129426 7.09091,-9.554693 8.65331,-10.275802 13.34051,-16.7056899 18.92911,-31.7287922 16.76578,-45.069307 -0.36055,-1.562403 0.0601,-2.523881 1.26194,-2.884436 2.64407,-0.841293 6.67026,0.540832 12.07858,4.146376 1.80277,1.562403 2.16333,3.124805 1.08166,4.687208 -1.5624,2.403697 -2.94453,4.927578 -4.14638,7.571644 5.28813,3.8459142 10.51617,7.4514588 15.68412,10.8166337 l 0,-23.4360397 c -0.48074,-8.653307 -1.26194,-14.121716 -2.3436,-16.405228 -7.69183,2.163327 -16.76578,5.288132 -27.22186,9.374416 -5.16795,1.562403 -9.97534,0.901386 -14.42218,-1.983049 -1.92296,-1.322033 -2.70416,-2.583974 -2.3436,-3.785822 0.24037,-1.081663 1.14175,-1.682587 2.70415,-1.802772 8.41294,-1.442218 23.07549,-4.747301 43.98765,-9.915248 l 0,-18.929109 c -2.52388,0.240369 -4.7473,0.721109 -6.67026,1.442218 -7.81201,1.802772 -14.06162,1.622495 -18.74883,-0.540832 -3.00462,-1.802772 -2.76083,-3.050518 1.32545,-3.891812 0,0 5.04313,-0.841811 6.49819,-1.080911 1.45505,-0.2391 6.29793,-1.192057 7.53896,-1.463697 m 80.34939,-5.513553 c 1.5624,10.816633 -1.18663,22.826699 -8.27754,36.287399 -9.4946,-7.691829 -17.06624,-13.4607 -22.71493,-17.306614 -0.84129,-0.480739 -1.50231,-0.120185 -1.98305,1.081663 -0.12018,1.442218 0.36056,2.704159 1.44222,3.785822 5.88906,5.889056 12.19876,12.499221 18.92911,19.830495 -5.76887,9.013861 -15.62403,19.830495 -29.56546,32.44990142 -0.8413,0.84129373 -0.90139,1.50231023 -0.18028,1.98304948 4.44684,0.7211089 12.6795,-4.3867457 24.69798,-15.3235639 4.32665,-3.72573 8.11247,-7.751922 11.35746,-12.078575 16.22495,18.027723 24.39752,27.10167689 24.51771,27.2218617 0.84129,0.1201848 1.74268,-0.24036965 2.70416,-1.08166336 1.44221,-1.20184814 1.62249,-4.20646864 0.54083,-9.01386144 -0.72111,-5.5285019 -8.23267,-14.0616239 -22.53466,-25.5993669 3.9661,-6.610165 7.69183,-15.203379 11.17719,-25.779643 1.20185,-3.365175 2.70416,-6.790443 4.50693,-10.275802 0.84129,-1.201848 0.90139,-2.403696 0.18028,-3.605545 -0.84129,-1.201848 -3.1849,-2.764251 -7.03081,-4.687208 -2.64407,-1.442217 -4.56702,-1.983049 -5.76887,-1.622495 -1.56241,0.480739 -2.22342,1.682588 -1.98305,3.605545 0,0 0.32616,2.374189 0.38496,4.270392 0.0588,1.896203 -0.14193,6.033696 -0.27696,7.233641"
                         id="path4167"
                         inkscape:connector-curvature="0"
                         sodipodi:nodetypes="ccccccccccccccccccccccccccccccccccccccscccccccccccccccscccccccccccccccccccscccccsc" />
                    </g>
                  </g>
                </g>
              </g>
            </g>
          </g>
        </g>
      </g>
    </g>
  </g>
  <WCB
     pausedposy="0"
     pausedposx="0"
     lastknownposy="0"
     lastknownposx="0"
     lastpathnc="0"
     lastpath="0"
     node="0"
     layer="0" />
</svg>
